<svg width="224" height="51" viewBox="0 0 224 51" fill="none" xmlns="http://www.w3.org/2000/svg">
<g clip-path="url(#clip0_8012_3752)">
<path fill-rule="evenodd" clip-rule="evenodd" d="M8.43055 0.0635768C8.404 0.887349 7.70036 2.30952 6.89618 3.16487C6.05298 4.06166 4.47505 4.96703 3.75474 4.96719C3.17997 4.96735 3.47788 5.23628 4.1765 5.34799C4.97453 5.47573 6.58888 6.51921 7.17044 7.28324C7.75201 8.04711 8.41258 9.4675 8.4278 9.98641C8.43525 10.2406 8.57124 9.99806 8.79354 9.33409C9.40781 7.50019 10.8837 5.95109 12.4746 5.47055C13.6931 5.10254 13.707 5.0904 13.0712 4.94695C11.0622 4.49378 9.33754 2.80009 8.72327 0.676873C8.56866 0.142587 8.43686 -0.1333 8.43055 0.0635768ZM28.0197 7.31497C27.993 7.95968 27.2288 9.28892 26.5516 9.86854C26.1708 10.1945 25.4869 10.5864 25.032 10.7394L24.2048 11.0177L24.8108 11.1469C26.1595 11.4345 27.3527 12.5722 27.8517 14.0462L28.1209 14.8413L28.3047 14.2275C28.7478 12.7487 30.0873 11.4306 31.4633 11.1193C31.9037 11.0197 31.9304 10.9875 31.6524 10.8919C29.8943 10.2879 28.8706 9.34801 28.3382 7.84942C28.1705 7.37747 28.0272 7.13688 28.0197 7.31497ZM8.05817 18.9449L0.00680121 23.5055L0.00339937 32.7394L0 41.9733L7.71396 46.3394C11.9567 48.7408 15.6271 50.8055 15.8702 50.9278C16.2973 51.1425 16.4907 51.0492 21.5538 48.1871C27.4351 44.8623 29.4625 43.7169 31.2881 42.6878L32.5429 41.9804L32.5418 32.743L32.5408 23.5055L31.206 22.7546C30.4721 22.3417 26.8267 20.2834 23.1053 18.1807C19.3839 16.0782 16.2875 14.3638 16.2243 14.3711C16.1612 14.3784 12.4864 16.4367 8.05817 18.9449ZM16.1957 15.2483C16.1855 15.8558 15.2353 17.5925 14.4573 18.4254C12.4803 20.5418 8.71712 22.2891 4.57576 23.0134C3.79554 23.1499 2.85179 23.2618 2.4786 23.2621C2.10541 23.2624 1.75505 23.3355 1.7 23.4245C1.63913 23.5231 1.8802 23.5864 2.31686 23.5864C4.2738 23.5864 7.46544 24.4032 9.63917 25.4603C13.4197 27.2987 15.731 30.5181 16.1764 34.5652C16.2603 35.3278 16.3244 35.5285 16.3927 35.2436C16.4461 35.021 16.6127 34.2924 16.7628 33.6245C17.7589 29.1938 20.7365 26.0118 25.3239 24.4754C26.8398 23.9679 28.7274 23.5864 29.7238 23.5864C30.1167 23.5864 30.4381 23.5136 30.4381 23.4245C30.4381 23.3355 30.1184 23.2626 29.7274 23.2626C29.3365 23.2626 28.4077 23.1501 27.6631 23.0126C21.6324 21.8987 17.7359 19.363 16.4818 15.7361C16.3273 15.2898 16.1986 15.0702 16.1957 15.2483Z" fill="white"/>
<path d="M49.6822 40.327C47.7749 40.327 46.1582 39.9818 44.8322 39.2916C43.5062 38.5831 42.4889 37.5205 41.7805 36.1036C41.0902 34.6686 40.7451 32.8521 40.7451 30.6542C40.7451 27.4026 41.5353 24.9776 43.1156 23.3791C44.696 21.7806 46.8939 20.9813 49.7095 20.9813C51.308 20.9813 52.7248 21.2447 53.9601 21.7715C55.1953 22.2801 56.158 23.0612 56.8483 24.1148C57.5567 25.1502 57.9109 26.4581 57.9109 28.0384H55.2952C55.2952 26.9485 55.059 26.0493 54.5868 25.3409C54.1326 24.6325 53.4878 24.1057 52.6522 23.7606C51.8166 23.3973 50.8357 23.2156 49.7095 23.2156C48.4016 23.2156 47.2754 23.4699 46.3308 23.9785C45.3862 24.4872 44.6687 25.2773 44.1783 26.3491C43.6878 27.4026 43.4426 28.765 43.4426 30.4362V31.0084C43.4426 32.6614 43.6878 34.0147 44.1783 35.0682C44.6687 36.1036 45.3771 36.8666 46.3035 37.357C47.2481 37.8475 48.3834 38.0927 49.7095 38.0927C50.872 38.0927 51.8711 37.9201 52.7067 37.575C53.5604 37.2299 54.2144 36.7031 54.6685 35.9946C55.1408 35.268 55.3769 34.3598 55.3769 33.2699H57.9109C57.9109 34.8866 57.5476 36.2126 56.821 37.248C56.1126 38.2834 55.1408 39.0554 53.9056 39.564C52.6704 40.0727 51.2626 40.327 49.6822 40.327ZM66.0181 40.327C65.4913 40.327 64.9645 40.2634 64.4377 40.1362C63.911 40.0091 63.4205 39.8002 62.9664 39.5095C62.5123 39.2189 62.149 38.8193 61.8765 38.3107C61.604 37.7839 61.4678 37.1299 61.4678 36.3489C61.4678 35.3679 61.7039 34.5596 62.1762 33.9238C62.6485 33.2881 63.3024 32.7976 64.138 32.4525C64.9918 32.0892 65.9999 31.844 67.1625 31.7168C68.325 31.5715 69.5875 31.4988 70.9499 31.4988V29.864C70.9499 29.3372 70.859 28.8831 70.6774 28.5016C70.4957 28.1201 70.1688 27.8295 69.6965 27.6297C69.2424 27.4117 68.5884 27.3027 67.7347 27.3027C66.9173 27.3027 66.2633 27.4117 65.7729 27.6297C65.3006 27.8295 64.9645 28.0929 64.7647 28.4199C64.5831 28.7468 64.4922 29.1101 64.4922 29.5098V29.9185H62.1762C62.158 29.8276 62.149 29.7368 62.149 29.646C62.149 29.5552 62.149 29.4462 62.149 29.319C62.149 28.4471 62.3851 27.7205 62.8574 27.1392C63.3478 26.5398 64.029 26.0948 64.9009 25.8041C65.7729 25.4953 66.7719 25.3409 67.8982 25.3409C69.097 25.3409 70.0961 25.5135 70.8954 25.8586C71.7128 26.2037 72.3213 26.6942 72.7209 27.33C73.1387 27.9657 73.3476 28.7287 73.3476 29.6188V37.3843C73.3476 37.7294 73.4294 37.9746 73.5929 38.1199C73.7563 38.2471 73.9562 38.3107 74.1923 38.3107H75.2549V39.891C75.0006 40 74.7191 40.0908 74.4103 40.1635C74.1015 40.2543 73.7473 40.2997 73.3476 40.2997C72.8753 40.2997 72.4848 40.1998 72.176 40C71.8672 39.8184 71.631 39.564 71.4676 39.2371C71.3041 38.8919 71.1951 38.5105 71.1406 38.0927H70.9499C70.6229 38.5468 70.2051 38.9464 69.6965 39.2916C69.206 39.6185 68.652 39.8728 68.0344 40.0545C67.4168 40.2361 66.7447 40.327 66.0181 40.327ZM66.6175 38.3107C67.1988 38.3107 67.7438 38.2198 68.2524 38.0382C68.7792 37.8565 69.2424 37.6022 69.642 37.2753C70.0416 36.9301 70.3595 36.5214 70.5956 36.0491C70.8318 35.5768 70.9499 35.0591 70.9499 34.496V33.2971C69.4785 33.2971 68.2251 33.3789 67.1897 33.5424C66.1543 33.7059 65.3551 33.9965 64.792 34.4143C64.247 34.8321 63.9745 35.4224 63.9745 36.1854C63.9745 36.6758 64.0835 37.0754 64.3015 37.3843C64.5195 37.6931 64.8283 37.9292 65.2279 38.0927C65.6275 38.238 66.0907 38.3107 66.6175 38.3107ZM78.6315 40V25.6679H80.5661L80.784 28.0384H80.9748C81.1201 27.5843 81.3199 27.1574 81.5742 26.7578C81.8285 26.34 82.1737 26.0039 82.6096 25.7496C83.0456 25.4771 83.5814 25.3409 84.2172 25.3409C84.4897 25.3409 84.7349 25.3682 84.9529 25.4227C85.189 25.459 85.3616 25.5044 85.4706 25.5589V27.7659H84.5714C83.9538 27.7659 83.4179 27.8749 82.9638 28.0929C82.5279 28.2927 82.1646 28.5833 81.8739 28.9648C81.5833 29.3463 81.3653 29.8004 81.22 30.3272C81.0928 30.854 81.0293 31.4171 81.0293 32.0165V40H78.6315ZM93.652 40.327C92.4713 40.327 91.4541 40.0636 90.6003 39.5368C89.7647 39.01 89.1108 38.1926 88.6385 37.0845C88.1844 35.9583 87.9573 34.5051 87.9573 32.725C87.9573 31.0356 88.1935 29.646 88.6658 28.5561C89.1381 27.4662 89.792 26.6579 90.6276 26.1311C91.4632 25.6043 92.435 25.3409 93.543 25.3409C94.1788 25.3409 94.7692 25.4136 95.3141 25.5589C95.8591 25.7042 96.3404 25.9313 96.7582 26.2401C97.1942 26.5489 97.5757 26.9576 97.9026 27.4662H98.0661V20.3001H100.464V40H98.5293L98.3113 37.9564H98.1206C97.6301 38.7557 96.9944 39.3551 96.2133 39.7548C95.4322 40.1362 94.5784 40.327 93.652 40.327ZM94.2242 38.2289C95.1325 38.2289 95.8682 38.0291 96.4313 37.6295C96.9944 37.2299 97.4031 36.6486 97.6574 35.8856C97.9299 35.1227 98.0661 34.1781 98.0661 33.0519V32.616C98.0661 31.6351 97.9662 30.8086 97.7664 30.1365C97.5666 29.4643 97.2941 28.9285 96.949 28.5289C96.6038 28.1292 96.2042 27.8477 95.7501 27.6842C95.296 27.5207 94.8146 27.439 94.306 27.439C93.4159 27.439 92.6893 27.6206 92.1262 27.9839C91.5631 28.329 91.1453 28.8831 90.8728 29.646C90.6003 30.3908 90.4641 31.3626 90.4641 32.5615V33.1337C90.4641 34.3689 90.6094 35.3679 90.9 36.1309C91.1907 36.8756 91.6085 37.4115 92.1534 37.7385C92.7165 38.0654 93.4068 38.2289 94.2242 38.2289Z" fill="white"/>
<path d="M114.043 40.327C112.136 40.327 110.52 39.9818 109.193 39.2916C107.867 38.5831 106.85 37.5205 106.142 36.1036C105.451 34.6686 105.106 32.8521 105.106 30.6542C105.106 27.4026 105.897 24.9776 107.477 23.3791C109.057 21.7806 111.255 20.9813 114.071 20.9813C115.669 20.9813 117.086 21.2447 118.321 21.7715C119.557 22.2801 120.519 23.0612 121.21 24.1148C121.918 25.1502 122.272 26.4581 122.272 28.0384H119.656C119.656 26.9485 119.42 26.0493 118.948 25.3409C118.494 24.6325 117.849 24.1057 117.013 23.7606C116.178 23.3973 115.197 23.2156 114.071 23.2156C112.763 23.2156 111.637 23.4699 110.692 23.9785C109.747 24.4872 109.03 25.2773 108.54 26.3491C108.049 27.4026 107.804 28.765 107.804 30.4362V31.0084C107.804 32.6614 108.049 34.0147 108.54 35.0682C109.03 36.1036 109.738 36.8666 110.665 37.357C111.609 37.8475 112.745 38.0927 114.071 38.0927C115.233 38.0927 116.232 37.9201 117.068 37.575C117.922 37.2299 118.576 36.7031 119.03 35.9946C119.502 35.268 119.738 34.3598 119.738 33.2699H122.272C122.272 34.8866 121.909 36.2126 121.182 37.248C120.474 38.2834 119.502 39.0554 118.267 39.564C117.032 40.0727 115.624 40.327 114.043 40.327ZM126.783 40V25.6679H128.717L128.935 28.0384H129.126C129.271 27.5843 129.471 27.1574 129.725 26.7578C129.98 26.34 130.325 26.0039 130.761 25.7496C131.197 25.4771 131.733 25.3409 132.368 25.3409C132.641 25.3409 132.886 25.3682 133.104 25.4227C133.34 25.459 133.513 25.5044 133.622 25.5589V27.7659H132.723C132.105 27.7659 131.569 27.8749 131.115 28.0929C130.679 28.2927 130.316 28.5833 130.025 28.9648C129.735 29.3463 129.517 29.8004 129.371 30.3272C129.244 30.854 129.18 31.4171 129.18 32.0165V40H126.783ZM142.648 40.327C141.231 40.327 140.032 40.0636 139.051 39.5368C138.089 38.9918 137.353 38.1653 136.844 37.0573C136.354 35.9492 136.109 34.5414 136.109 32.8339C136.109 31.1083 136.354 29.7005 136.844 28.6106C137.353 27.5025 138.098 26.6851 139.079 26.1583C140.059 25.6134 141.286 25.3409 142.757 25.3409C144.101 25.3409 145.227 25.6043 146.136 26.1311C147.044 26.6397 147.725 27.4117 148.179 28.4471C148.651 29.4643 148.888 30.745 148.888 32.289V33.4334H138.588C138.624 34.5778 138.788 35.5223 139.079 36.2671C139.387 36.9937 139.841 37.5296 140.441 37.8747C141.04 38.2017 141.794 38.3652 142.702 38.3652C143.32 38.3652 143.856 38.2925 144.31 38.1472C144.782 37.9837 145.173 37.7566 145.482 37.466C145.809 37.1754 146.054 36.8302 146.217 36.4306C146.381 36.031 146.472 35.595 146.49 35.1227H148.833C148.815 35.8856 148.67 36.5941 148.397 37.248C148.125 37.8838 147.725 38.4287 147.198 38.8829C146.671 39.337 146.027 39.6912 145.264 39.9455C144.501 40.1998 143.629 40.327 142.648 40.327ZM138.643 31.6351H146.408C146.408 30.8358 146.317 30.1637 146.136 29.6188C145.954 29.0738 145.691 28.6288 145.345 28.2836C145.018 27.9385 144.628 27.6933 144.174 27.5479C143.738 27.3845 143.238 27.3027 142.675 27.3027C141.84 27.3027 141.131 27.4571 140.55 27.7659C139.969 28.0747 139.524 28.547 139.215 29.1828C138.906 29.8186 138.715 30.636 138.643 31.6351ZM158.229 40.327C157.248 40.327 156.386 40.2271 155.641 40.0272C154.896 39.8274 154.279 39.5368 153.788 39.1553C153.298 38.7739 152.925 38.3197 152.671 37.793C152.417 37.2662 152.289 36.6667 152.289 35.9946C152.289 35.9038 152.289 35.8221 152.289 35.7494C152.289 35.6586 152.299 35.5859 152.317 35.5314H154.687C154.669 35.6041 154.66 35.6677 154.66 35.7222C154.66 35.7767 154.66 35.8312 154.66 35.8856C154.678 36.5214 154.842 37.021 155.15 37.3843C155.477 37.7476 155.922 38.0019 156.486 38.1472C157.049 38.2925 157.675 38.3652 158.366 38.3652C158.965 38.3652 159.519 38.2925 160.028 38.1472C160.536 37.9837 160.936 37.7476 161.227 37.4387C161.535 37.1118 161.69 36.7031 161.69 36.2126C161.69 35.6132 161.49 35.159 161.09 34.8502C160.709 34.5233 160.2 34.269 159.564 34.0873C158.929 33.9057 158.266 33.7149 157.575 33.5151C156.994 33.3516 156.413 33.17 155.832 32.9702C155.25 32.7704 154.724 32.5251 154.251 32.2345C153.797 31.9439 153.425 31.5715 153.134 31.1174C152.862 30.6451 152.725 30.0547 152.725 29.3463C152.725 28.7105 152.853 28.1474 153.107 27.6569C153.379 27.1665 153.761 26.7487 154.251 26.4036C154.742 26.0584 155.332 25.8041 156.022 25.6406C156.731 25.459 157.512 25.3682 158.366 25.3682C159.274 25.3682 160.064 25.4681 160.736 25.6679C161.426 25.8677 161.999 26.1493 162.453 26.5125C162.907 26.8758 163.243 27.2936 163.461 27.7659C163.679 28.2201 163.788 28.7105 163.788 29.2373C163.788 29.3463 163.788 29.4553 163.788 29.5643C163.788 29.6551 163.779 29.7277 163.761 29.7822H161.417V29.4825C161.417 29.1192 161.317 28.7741 161.118 28.4471C160.936 28.102 160.609 27.8295 160.137 27.6297C159.683 27.4117 159.047 27.3027 158.229 27.3027C157.703 27.3027 157.248 27.3481 156.867 27.439C156.486 27.5116 156.168 27.6388 155.913 27.8204C155.659 27.9839 155.468 28.1837 155.341 28.4199C155.214 28.6378 155.15 28.8922 155.15 29.1828C155.15 29.6551 155.305 30.0184 155.614 30.2727C155.922 30.527 156.331 30.7359 156.84 30.8994C157.367 31.0629 157.93 31.2445 158.529 31.4443C159.165 31.626 159.81 31.8167 160.464 32.0165C161.136 32.1982 161.744 32.4343 162.289 32.725C162.852 33.0156 163.297 33.4152 163.624 33.9238C163.969 34.4143 164.142 35.0682 164.142 35.8856C164.142 36.6486 163.997 37.3116 163.706 37.8747C163.415 38.4378 162.998 38.901 162.453 39.2643C161.926 39.6276 161.299 39.891 160.573 40.0545C159.864 40.2361 159.083 40.327 158.229 40.327ZM173.917 40.327C172.537 40.327 171.374 40.0636 170.43 39.5368C169.503 38.9918 168.795 38.1653 168.305 37.0573C167.832 35.9311 167.596 34.5233 167.596 32.8339C167.596 31.1446 167.832 29.7459 168.305 28.6378C168.795 27.5298 169.512 26.7033 170.457 26.1583C171.42 25.6134 172.601 25.3409 173.999 25.3409C174.98 25.3409 175.825 25.4681 176.533 25.7224C177.26 25.9767 177.859 26.3491 178.332 26.8395C178.804 27.33 179.149 27.9203 179.367 28.6106C179.603 29.3009 179.721 30.091 179.721 30.9811H177.296C177.296 30.1455 177.178 29.4643 176.942 28.9376C176.724 28.3926 176.37 27.993 175.879 27.7387C175.389 27.4662 174.744 27.33 173.945 27.33C173.145 27.33 172.455 27.5116 171.874 27.8749C171.293 28.2201 170.848 28.7741 170.539 29.537C170.23 30.2999 170.076 31.3081 170.076 32.5615V33.1337C170.076 34.3144 170.221 35.2953 170.512 36.0764C170.82 36.8575 171.265 37.4297 171.847 37.793C172.428 38.1563 173.136 38.3379 173.972 38.3379C174.789 38.3379 175.443 38.1926 175.934 37.902C176.442 37.6113 176.806 37.1935 177.024 36.6486C177.26 36.1036 177.378 35.4497 177.378 34.6868H179.721C179.721 35.486 179.603 36.2308 179.367 36.921C179.149 37.6113 178.804 38.2108 178.332 38.7194C177.859 39.228 177.26 39.6276 176.533 39.9183C175.807 40.1907 174.935 40.327 173.917 40.327ZM189.682 40.327C188.265 40.327 187.066 40.0636 186.085 39.5368C185.122 38.9918 184.386 38.1653 183.878 37.0573C183.387 35.9492 183.142 34.5414 183.142 32.8339C183.142 31.1083 183.387 29.7005 183.878 28.6106C184.386 27.5025 185.131 26.6851 186.112 26.1583C187.093 25.6134 188.319 25.3409 189.791 25.3409C191.135 25.3409 192.261 25.6043 193.169 26.1311C194.077 26.6397 194.759 27.4117 195.213 28.4471C195.685 29.4643 195.921 30.745 195.921 32.289V33.4334H185.622C185.658 34.5778 185.822 35.5223 186.112 36.2671C186.421 36.9937 186.875 37.5296 187.475 37.8747C188.074 38.2017 188.828 38.3652 189.736 38.3652C190.354 38.3652 190.89 38.2925 191.344 38.1472C191.816 37.9837 192.206 37.7566 192.515 37.466C192.842 37.1754 193.087 36.8302 193.251 36.4306C193.414 36.031 193.505 35.595 193.523 35.1227H195.867C195.849 35.8856 195.703 36.5941 195.431 37.248C195.158 37.8838 194.759 38.4287 194.232 38.8829C193.705 39.337 193.06 39.6912 192.297 39.9455C191.534 40.1998 190.662 40.327 189.682 40.327ZM185.676 31.6351H193.442C193.442 30.8358 193.351 30.1637 193.169 29.6188C192.988 29.0738 192.724 28.6288 192.379 28.2836C192.052 27.9385 191.662 27.6933 191.207 27.5479C190.771 27.3845 190.272 27.3027 189.709 27.3027C188.873 27.3027 188.165 27.4571 187.584 27.7659C187.002 28.0747 186.557 28.547 186.248 29.1828C185.94 29.8186 185.749 30.636 185.676 31.6351ZM200.249 40V25.6679H202.184L202.402 27.8204H202.593C202.974 27.2391 203.401 26.7669 203.873 26.4036C204.364 26.0403 204.9 25.7769 205.481 25.6134C206.08 25.4317 206.716 25.3409 207.388 25.3409C208.297 25.3409 209.087 25.4953 209.759 25.8041C210.449 26.1129 210.985 26.6125 211.366 27.3027C211.766 27.993 211.966 28.9285 211.966 30.1092V40H209.568V30.4362C209.568 29.8367 209.486 29.3463 209.323 28.9648C209.178 28.5833 208.969 28.2836 208.696 28.0656C208.442 27.8477 208.124 27.6933 207.743 27.6024C207.379 27.5116 206.971 27.4662 206.516 27.4662C205.844 27.4662 205.209 27.6297 204.609 27.9567C204.01 28.2836 203.528 28.7559 203.165 29.3735C202.82 29.9911 202.647 30.7268 202.647 31.5806V40H200.249ZM220.317 40.327C219.572 40.327 218.991 40.1907 218.573 39.9183C218.155 39.6276 217.855 39.2552 217.674 38.8011C217.492 38.3288 217.401 37.8293 217.401 37.3025V27.6842H215.548V25.6679H217.456L217.892 21.6625H219.799V25.6679H222.496V27.6842H219.799V36.9483C219.799 37.4024 219.881 37.7476 220.044 37.9837C220.208 38.2017 220.516 38.3107 220.971 38.3107H222.496V39.891C222.315 39.9818 222.097 40.0545 221.842 40.109C221.588 40.1635 221.325 40.2089 221.052 40.2452C220.798 40.2997 220.553 40.327 220.317 40.327Z" fill="#FE7FB6"/>
</g>
<defs>
<clipPath id="clip0_8012_3752">
<rect width="223.355" height="51" fill="white"/>
</clipPath>
</defs>
</svg>
