<svg width="27" height="14" viewBox="0 0 27 14" fill="none" xmlns="http://www.w3.org/2000/svg">
<path d="M6.35313 5.83877L6.8 7.34189H5.21563L5.70313 5.83877C5.825 5.35127 5.9875 4.45752 5.9875 4.45752H6.02813C6.02813 4.45752 6.19063 5.35127 6.35313 5.83877ZM25.2031 0.110645C25.7312 0.110645 26.1781 0.55752 26.1781 1.08565V12.1356C26.1781 12.7044 25.7312 13.1106 25.2031 13.1106H13.8281V0.110645H25.2031ZM24.2281 4.98564V4.33564C24.2281 4.09189 23.9844 3.84814 23.7406 3.84814H21.1406V3.19814C21.1406 2.95439 20.8969 2.71064 20.6531 2.71064H20.0031C19.7187 2.71064 19.5156 2.95439 19.5156 3.19814V3.84814H16.9156C16.6312 3.84814 16.4281 4.09189 16.4281 4.33564V4.98564C16.4281 5.27002 16.6312 5.47314 16.9156 5.47314H21.5469C21.3031 6.08252 20.8562 6.65127 20.3281 7.26064C20.0437 6.97627 19.8 6.69189 19.5969 6.40752C19.475 6.20439 19.1906 6.12314 18.9469 6.24502L18.6625 6.44814L18.4187 6.61064C18.175 6.73252 18.0937 7.05752 18.2562 7.30127C18.5 7.62627 18.7844 7.99189 19.1094 8.31689C18.7844 8.60127 18.4187 8.84502 18.0531 9.04814C17.8094 9.21064 17.7281 9.49502 17.8906 9.73877L18.2156 10.2669C18.3375 10.5106 18.6219 10.5919 18.8656 10.47C19.3937 10.145 19.8812 9.82002 20.3281 9.45439C20.775 9.82002 21.2219 10.145 21.75 10.47C21.9937 10.5919 22.2781 10.5106 22.4406 10.2669L22.7656 9.73877C22.8875 9.49502 22.8062 9.21064 22.6031 9.04814C22.2375 8.84502 21.8719 8.60127 21.5062 8.31689C22.3594 7.42314 22.9687 6.44814 23.2531 5.47314H23.7406C23.9844 5.47314 24.2281 5.27002 24.2281 4.98564ZM0.178125 1.08565C0.178125 0.55752 0.584375 0.110645 1.15313 0.110645H12.5281V13.1106H1.15313C0.584375 13.1106 0.178125 12.7044 0.178125 12.1356V1.08565ZM2.53438 9.90127C2.45313 10.1856 2.69688 10.5106 3.02188 10.5106H3.95625C4.15938 10.5106 4.3625 10.3888 4.40313 10.1856L4.76875 8.88564H7.24688L7.6125 10.1856C7.65313 10.3888 7.85625 10.5106 8.05938 10.5106H8.99375C9.35938 10.5106 9.5625 10.1856 9.48125 9.90127L7.125 2.99502C7.08438 2.83252 6.88125 2.67002 6.67813 2.67002H5.3375C5.13438 2.67002 4.97188 2.83252 4.89063 2.99502L2.53438 9.90127Z" fill="#4F4F4F"/>
</svg>
