<svg width="125" height="121" viewBox="0 0 125 121" fill="none" xmlns="http://www.w3.org/2000/svg">
<rect x="0.5" y="1.29102" width="124" height="119" rx="9.5" stroke="#767A81"/>
<g clip-path="url(#clip0_6009_25419)">
<g clip-path="url(#clip1_6009_25419)">
<path fill-rule="evenodd" clip-rule="evenodd" d="M39.3652 29.3519L26.0547 57.3106C26.0041 57.4146 25.988 57.532 26.0089 57.6458C26.0298 57.7596 26.0866 57.8637 26.1709 57.9429L62.1192 92.39C62.2213 92.488 62.3573 92.5426 62.4988 92.5426C62.6403 92.5426 62.7763 92.488 62.8784 92.39L98.8268 57.945C98.9111 57.8658 98.9678 57.7617 98.9887 57.6479C99.0096 57.5342 98.9935 57.4167 98.9429 57.3127L85.6324 29.3541C85.5895 29.2602 85.5204 29.1806 85.4334 29.125C85.3465 29.0693 85.2453 29.0398 85.1421 29.0401H39.8598C39.7561 29.0388 39.6542 29.0675 39.5664 29.1229C39.4786 29.1782 39.4088 29.2578 39.3652 29.3519Z" fill="#50AF95"/>
<path fill-rule="evenodd" clip-rule="evenodd" d="M67.1197 60.1819C66.8616 60.2012 65.5282 60.2808 62.5538 60.2808C60.1881 60.2808 58.5084 60.2098 57.9192 60.1819C48.7767 59.7797 41.9526 58.1882 41.9526 56.2827C41.9526 54.3772 48.7767 52.7879 57.9192 52.3793V58.5968C58.517 58.6399 60.229 58.7409 62.5947 58.7409C65.4336 58.7409 66.8552 58.6227 67.1111 58.599V52.3836C76.2342 52.79 83.0432 54.3815 83.0432 56.2827C83.0432 58.1839 76.2364 59.7754 67.1111 60.1797L67.1197 60.1819ZM67.1197 51.7405V46.1768H79.8516V37.6924H45.1872V46.1768H57.917V51.7384C47.5702 52.2137 39.7891 54.2633 39.7891 56.7193C39.7891 59.1754 47.5702 61.2228 57.917 61.7003V79.5293H67.1176V61.6938C77.4407 61.2185 85.2089 59.1711 85.2089 56.7172C85.2089 54.2633 77.4472 52.2158 67.1176 51.7384L67.1197 51.7405Z" fill="white"/>
</g>
</g>
<defs>
<clipPath id="clip0_6009_25419">
<rect width="73" height="68" fill="white" transform="translate(26 26.791)"/>
</clipPath>
<clipPath id="clip1_6009_25419">
<rect width="73" height="63.5027" fill="white" transform="translate(26 29.04)"/>
</clipPath>
</defs>
</svg>
