<svg width="125" height="121" viewBox="0 0 125 121" fill="none" xmlns="http://www.w3.org/2000/svg">
<rect x="0.5" y="1.29102" width="124" height="119" rx="9.5" stroke="#767A81"/>
<g clip-path="url(#clip0_6009_25413)">
<g clip-path="url(#clip1_6009_25413)">
<g clip-path="url(#clip2_6009_25413)">
<path d="M62.4998 91.1109C79.2451 91.1109 92.8199 77.5361 92.8199 60.7908C92.8199 44.0455 79.2451 30.4707 62.4998 30.4707C45.7545 30.4707 32.1797 44.0455 32.1797 60.7908C32.1797 77.5361 45.7545 91.1109 62.4998 91.1109Z" fill="white"/>
<path d="M62.5 26.791C55.7755 26.791 49.2019 28.7851 43.6106 32.521C38.0194 36.257 33.6615 41.5671 31.0881 47.7798C28.5147 53.9925 27.8414 60.8287 29.1533 67.4241C30.4652 74.0194 33.7034 80.0777 38.4584 84.8326C43.2134 89.5876 49.2716 92.8258 55.8669 94.1377C62.4623 95.4496 69.2986 94.7763 75.5113 92.2029C81.7239 89.6295 87.034 85.2717 90.77 79.6804C94.506 74.0891 96.5 67.5156 96.5 60.791C96.513 56.339 95.649 51.9281 93.9573 47.81C92.2656 43.692 89.7793 39.9475 86.6405 36.7903C83.5016 33.6331 79.7717 31.125 75.6635 29.4094C71.5554 27.6937 67.1496 26.804 62.6976 26.791H62.5ZM63.0763 61.9436L59.5363 73.8806H78.471C78.5964 73.8762 78.7215 73.8966 78.839 73.9405C78.9566 73.9845 79.0643 74.0512 79.156 74.1368C79.2478 74.2225 79.3218 74.3254 79.3737 74.4396C79.4257 74.5538 79.4546 74.6772 79.4589 74.8026V75.1155L77.8124 80.7959C77.7398 81.0645 77.578 81.3004 77.3536 81.465C77.1292 81.6296 76.8555 81.7129 76.5775 81.7014H47.5993L52.4564 65.1542L47.023 66.8007L48.2579 63.0138L53.6913 61.3673L60.5242 38.1518C60.5995 37.8847 60.7619 37.6504 60.9857 37.4863C61.2095 37.3222 61.4817 37.2377 61.7591 37.2462H69.086C69.2114 37.2418 69.3365 37.2622 69.454 37.3062C69.5716 37.3501 69.6793 37.4168 69.771 37.5025C69.8628 37.5881 69.9368 37.691 69.9887 37.8052C70.0407 37.9195 70.0696 38.0428 70.0739 38.1683V38.4811L64.3112 58.0743L69.7446 56.4278L68.592 60.3794L63.0763 61.9436Z" fill="#345D9D"/>
</g>
</g>
</g>
<defs>
<clipPath id="clip0_6009_25413">
<rect width="73" height="68" fill="white" transform="translate(26 26.791)"/>
</clipPath>
<clipPath id="clip1_6009_25413">
<rect width="73" height="68" fill="white" transform="translate(26 26.791)"/>
</clipPath>
<clipPath id="clip2_6009_25413">
<rect width="68" height="68" fill="white" transform="translate(28.5 26.791)"/>
</clipPath>
</defs>
</svg>
