<svg width="125" height="121" viewBox="0 0 125 121" fill="none" xmlns="http://www.w3.org/2000/svg">
<rect x="0.5" y="1.29102" width="124" height="119" rx="9.5" stroke="#767A81"/>
<g clip-path="url(#clip0_6009_25431)">
<g clip-path="url(#clip1_6009_25431)">
<path d="M88.3054 30.5645H98.8562L76.8992 52.3048C68.9476 60.1737 56.0557 60.1737 48.0984 52.3048L26.1328 30.5645H36.6921L53.3738 47.0793C55.8043 49.4747 59.0798 50.8176 62.4924 50.8176C65.9049 50.8176 69.1805 49.4747 71.611 47.0793L88.3054 30.5645Z" fill="#23292F"/>
<path d="M36.5579 91.0172H26L48.0996 69.1429C56.0512 61.274 68.9431 61.274 76.9004 69.1429L99 91.0172H88.4492L71.625 74.3684C69.1945 71.9729 65.919 70.6301 62.5064 70.6301C59.0939 70.6301 55.8183 71.9729 53.3878 74.3684L36.5579 91.0172Z" fill="#23292F"/>
</g>
</g>
<defs>
<clipPath id="clip0_6009_25431">
<rect width="73" height="68" fill="white" transform="translate(26 26.791)"/>
</clipPath>
<clipPath id="clip1_6009_25431">
<rect width="73" height="60.4531" fill="white" transform="translate(26 30.5645)"/>
</clipPath>
</defs>
</svg>
