<svg width="125" height="121" viewBox="0 0 125 121" fill="none" xmlns="http://www.w3.org/2000/svg">
<rect x="0.5" y="1.29102" width="124" height="119" rx="9.5" stroke="#767A81"/>
<g clip-path="url(#clip0_6009_25571)">
<g clip-path="url(#clip1_6009_25571)">
<path d="M99.375 60.791C99.375 40.4255 82.8655 23.916 62.5 23.916C42.1345 23.916 25.625 40.4255 25.625 60.791C25.625 81.1565 42.1345 97.666 62.5 97.666C82.8655 97.666 99.375 81.1565 99.375 60.791Z" fill="#FE7FB6"/>
<path d="M49.5438 61.4324H44.517V66.5299H42.511V61.4324H37.5078V59.6152H42.511V54.494H44.517V59.6152H49.5438V61.4324ZM52.4614 54.0455V52.0867H56.8982V69.1495H54.727V54.0455H52.4614ZM71.4662 53.9511H63.1826V59.3319C63.5445 58.8285 64.0794 58.4194 64.7874 58.1048C65.4954 57.7744 66.2585 57.6091 67.0766 57.6091C68.3825 57.6091 69.4445 57.8845 70.2626 58.4351C71.0808 58.9701 71.6629 59.6702 72.009 60.5356C72.3727 61.3939 72.5574 62.3174 72.5518 63.2495C72.5518 64.3823 72.3394 65.3972 71.9146 66.294C71.4898 67.1908 70.8369 67.8987 69.9558 68.4179C69.0905 68.9371 68.0128 69.1967 66.7226 69.1967C65.0706 69.1967 63.7333 68.7719 62.7106 67.9223C61.688 67.0727 61.0665 65.94 60.8462 64.524H62.9466C63.1512 65.4208 63.5838 66.1209 64.2446 66.6243C64.9054 67.1278 65.7393 67.3795 66.7462 67.3795C67.9892 67.3795 68.9253 67.0098 69.5546 66.2703C70.184 65.5151 70.4986 64.524 70.4986 63.2968C70.4986 62.0695 70.184 61.1255 69.5546 60.4647C68.9253 59.7882 67.997 59.45 66.7698 59.45C65.936 59.45 65.2044 59.6545 64.575 60.0635C63.9662 60.4509 63.4953 61.0209 63.2298 61.6919H61.2002V52.0632H71.4662V53.9511ZM75.4055 60.4412C75.4055 57.735 75.846 55.6268 76.7271 54.1164C77.6081 52.5902 79.15 51.8271 81.3527 51.8271C83.5396 51.8271 85.0736 52.5902 85.9547 54.1164C86.8357 55.6268 87.2763 57.735 87.2763 60.4412C87.2763 63.1945 86.8357 65.3342 85.9547 66.8603C85.0736 68.3865 83.5396 69.1495 81.3527 69.1495C79.15 69.1495 77.6081 68.3865 76.7271 66.8603C75.846 65.3342 75.4055 63.1945 75.4055 60.4412ZM85.1523 60.4412C85.1523 59.0724 85.0579 57.916 84.8691 56.972C84.696 56.0122 84.3263 55.2413 83.7599 54.6591C83.2092 54.077 82.4068 53.7859 81.3527 53.7859C80.2828 53.7859 79.4647 54.077 78.8983 54.6591C78.3476 55.2413 77.9779 56.0122 77.7891 56.972C77.616 57.916 77.5295 59.0724 77.5295 60.4412C77.5295 61.8572 77.616 63.045 77.7891 64.0048C77.9779 64.9645 78.3476 65.7354 78.8983 66.3176C79.4647 66.8997 80.2828 67.1908 81.3527 67.1908C82.4068 67.1908 83.2092 66.8997 83.7599 66.3176C84.3263 65.7354 84.696 64.9645 84.8691 64.0048C85.0579 63.045 85.1523 61.8572 85.1523 60.4412Z" fill="#1C1C1C"/>
</g>
</g>
<defs>
<clipPath id="clip0_6009_25571">
<rect width="123" height="118" fill="white" transform="translate(1 1.79102)"/>
</clipPath>
<clipPath id="clip1_6009_25571">
<rect width="123" height="118" fill="white" transform="translate(1 1.79102)"/>
</clipPath>
</defs>
</svg>
