<svg width="125" height="121" viewBox="0 0 125 121" fill="none" xmlns="http://www.w3.org/2000/svg">
<rect x="0.5" y="1.29102" width="124" height="119" rx="9.5" stroke="#767A81"/>
<g clip-path="url(#clip0_6009_25439)">
<g clip-path="url(#clip1_6009_25439)">
<g clip-path="url(#clip2_6009_25439)">
<path d="M62.5 94.791C81.2777 94.791 96.5 79.5687 96.5 60.791C96.5 42.0133 81.2777 26.791 62.5 26.791C43.7223 26.791 28.5 42.0133 28.5 60.791C28.5 79.5687 43.7223 94.791 62.5 94.791Z" fill="#988430"/>
<path d="M62.4968 93.7017C80.673 93.7017 95.4078 78.967 95.4078 60.7908C95.4078 42.6146 80.673 27.8799 62.4968 27.8799C44.3207 27.8799 29.5859 42.6146 29.5859 60.7908C29.5859 78.967 44.3207 93.7017 62.4968 93.7017Z" fill="#7A6A2A"/>
<path d="M62.4987 93.0082C80.292 93.0082 94.7162 78.584 94.7162 60.7907C94.7162 42.9975 80.292 28.5732 62.4987 28.5732C44.7055 28.5732 30.2812 42.9975 30.2812 60.7907C30.2812 78.584 44.7055 93.0082 62.4987 93.0082Z" fill="#BA9F33"/>
<path fill-rule="evenodd" clip-rule="evenodd" d="M43.3683 57.1598C43.1757 56.984 42.9723 56.8077 42.7851 56.6318C42.598 56.4559 42.4058 56.2797 42.2132 56.1038L41.6409 55.5598C41.5473 55.4662 41.4483 55.3839 41.3548 55.2899C41.2612 55.2076 41.1513 55.114 41.0577 55.0314C40.2983 54.3107 39.5345 53.5901 38.7856 52.8691C39.5614 53.5789 40.3208 54.2835 41.0966 55.0038L41.366 55.2736C41.4596 55.3668 41.5586 55.4495 41.6522 55.5431L42.2241 56.0711C42.4167 56.247 42.6038 56.4233 42.7964 56.6151C42.9889 56.807 43.1761 56.9836 43.3687 57.1591L43.3683 57.1598ZM33.2894 57.051C33.2894 57.051 36.0511 57.3368 37.3992 57.5294C38.6478 57.7057 42.5541 58.3052 42.5541 58.3052L33.2894 57.051ZM33.2894 57.051C34.0652 57.1171 34.8409 57.1994 35.6167 57.2821C36.0127 57.3205 36.3924 57.3644 36.7721 57.4028L37.3549 57.4692C37.5475 57.4964 37.7346 57.524 37.9272 57.5515L40.2381 57.92L41.3932 58.1126C41.7729 58.1786 42.1526 58.2504 42.5487 58.3164C42.169 58.278 41.7729 58.2228 41.3932 58.1677L40.2381 58.0027L37.9272 57.6618C37.7346 57.6342 37.5475 57.5954 37.3549 57.5682L36.7718 57.5011C36.392 57.4627 35.996 57.4076 35.6163 57.3633C34.8406 57.2701 34.0648 57.1707 33.2891 57.05L33.2894 57.051ZM42.2792 59.0247C42.2792 59.0247 39.3304 59.7732 38.3345 60.0594C37.3553 60.3288 34.3898 61.2311 34.3898 61.2311L42.2788 59.025L42.2792 59.0247Z" fill="#CFB66C"/>
<path fill-rule="evenodd" clip-rule="evenodd" d="M42.2732 59.0244C41.6186 59.217 40.9676 59.4041 40.3036 59.5804L38.3339 60.1084C37.6793 60.301 37.0283 60.4881 36.3755 60.6807L35.3963 60.9502C35.0717 61.0437 34.7417 61.1261 34.4062 61.22C34.7305 61.1112 35.0609 60.9999 35.3855 60.9063L36.3647 60.5929C37.0193 60.3891 37.6702 60.1966 38.3231 59.9931C38.9885 59.8281 39.6435 59.6518 40.309 59.4923C40.9415 59.3327 41.6074 59.1735 42.2732 59.0248V59.0244ZM34.7968 63.0464C35.1211 62.9253 38.8623 61.1816 39.7316 60.7743C40.1668 60.5705 41.4318 60.1215 41.4318 60.1215L34.7968 63.0464Z" fill="#CFB66C"/>
<path fill-rule="evenodd" clip-rule="evenodd" d="M34.7972 63.047C35.083 62.9382 35.3528 62.8051 35.6277 62.6786L36.4419 62.2989L38.0761 61.5122C38.6201 61.2537 39.1489 60.9682 39.7099 60.7252C39.9961 60.6045 40.2822 60.5055 40.568 60.4119L41.0032 60.2745C41.1515 60.236 41.2893 60.1918 41.4384 60.1533C40.8944 60.4119 40.3217 60.632 39.777 60.8848C39.233 61.1546 38.6767 61.3748 38.1153 61.6167L36.4539 62.3482C35.8961 62.5741 35.3521 62.816 34.7969 63.047H34.7972ZM35.1599 64.5702C35.1599 64.5702 38.5487 62.5843 39.715 61.946C40.3257 61.6051 42.3008 60.6255 42.3008 60.6255L35.1599 64.5702Z" fill="#CFB66C"/>
<path fill-rule="evenodd" clip-rule="evenodd" d="M35.1641 64.5708C35.736 64.2187 36.3192 63.8611 36.9023 63.4981L37.7727 62.9697C38.0697 62.7938 38.3559 62.6288 38.6587 62.4529C38.9557 62.2766 39.2419 62.1007 39.5443 61.9357C39.6883 61.8468 39.8392 61.7695 39.9955 61.7047L40.4575 61.4737C41.0683 61.1766 41.679 60.8738 42.3227 60.6152C41.7396 60.9841 41.1397 61.2978 40.5402 61.622C40.2432 61.787 39.9404 61.9357 39.6434 62.1007C39.3463 62.2657 39.0602 62.442 38.7574 62.6016C38.4603 62.7775 38.1742 62.9425 37.8717 63.102L36.9749 63.5916L35.1648 64.5708H35.1641ZM42.2774 61.0606C42.2774 61.0606 40.1703 62.6781 39.4881 63.1952C38.806 63.7124 36.7979 65.1649 36.7979 65.1649L42.2774 61.0606Z" fill="#CFB66C"/>
<path fill-rule="evenodd" clip-rule="evenodd" d="M54.3673 74.1047L53.2891 72.0636L53.9161 69.5108L58.3889 67.7834L56.4852 63.8775L57.426 59.9328L59.1922 56.4004L64.65 55.5423L68.6603 51.7188L77.3201 52.3734L79.0199 61.6326L75.7465 73.2905L73.8816 79.326L66.3222 79.6122L62.8123 77.1805L58.7026 75.4636L54.3673 74.1047Z" fill="#E2CC85"/>
<path fill-rule="evenodd" clip-rule="evenodd" d="M67.6309 74.0391C67.6309 74.0391 66.5854 74.5179 64.8021 74.4076C64.2861 73.7146 60.6717 73.39 60.6717 73.39C60.6717 73.39 60.2206 73.2525 59.4227 73.5825C58.6198 73.9089 57.8603 73.8687 57.1506 74.0446C56.4409 74.2205 55.7362 73.2964 55.1922 73.1038C54.6482 72.9004 53.9269 72.4108 53.9269 72.4108L52.4037 72.2621L49.3449 70.9692L44.4856 66.1279L43.1651 68.1951L42.7578 70.7534L44.227 73.7849L48.1826 77.3884L55.8958 79.3468L60.4676 77.9998L66.1948 75.579L67.6309 74.0388V74.0391Z" fill="#F1D789"/>
<path fill-rule="evenodd" clip-rule="evenodd" d="M40.2243 56.9291L41.2035 53.9639L42.3702 52.0491L46.1274 51.7354L44.9995 55.0255L41.8585 60.6152L43.1623 65.6052L40.8517 66.7603L40.1416 65.6712L39.5697 63.1735L39.5312 60.3675L40.2243 56.9291Z" fill="#F4ECB4"/>
<path fill-rule="evenodd" clip-rule="evenodd" d="M44.4372 73.8358L43.7166 72.8291C43.7166 72.8291 43.524 72.3503 43.6343 71.9322C43.7431 71.5086 43.7275 71.481 43.6727 71.3215C43.6179 71.1619 43.1555 70.6117 43.1831 70.1384C43.2103 69.6597 43.1447 69.5001 43.4965 69.1208C43.8649 68.7523 43.755 68.114 43.755 68.114L44.2338 68.4111L44.3426 68.246C44.3426 68.246 44.5184 68.3835 44.5184 68.5982C44.5569 68.3012 44.3973 66.9256 44.7603 66.6122C45.1234 66.2989 45.7671 68.081 45.7671 68.081L45.3711 65.4952L44.3531 62.8438L42.543 60.423L42.4342 57.7545V57.5234C42.4342 57.5234 41.6033 58.8 41.3723 59.8082C41.2073 60.5013 41.6033 61.343 41.521 62.3389C41.4546 63.3294 41.3723 63.2521 41.6142 63.6445C41.8561 64.0369 42.4451 64.8439 42.2141 65.427C42.0106 65.9279 41.3172 65.5757 41.3172 65.5757C41.3172 65.5757 41.1797 65.9826 40.9926 66.1313C40.9266 65.8894 40.8552 65.7353 40.7231 65.5873C40.7119 65.6809 40.6847 65.8075 40.6847 65.8075C40.6847 65.8075 40.5636 65.4278 40.4424 64.949C40.2778 64.3111 40.1015 63.4694 39.942 63.0182C39.876 63.2768 39.7109 64.0634 39.7109 64.0634L39.8045 65.274L40.2557 66.9354L40.6909 68.0234L41.1145 69.3547L41.4826 70.249L41.7796 70.9312L42.0382 72.4664L43.2868 73.7865L43.9527 74.0839L44.4365 73.8362L44.4372 73.8358Z" fill="#F3E19D"/>
<path fill-rule="evenodd" clip-rule="evenodd" d="M40.8797 54.5086C40.8797 54.5086 39.9828 56.0318 39.7246 57.5673C39.4664 59.1028 39.235 60.7254 39.3982 62.8158C39.5632 64.9233 39.8769 66.2158 40.1301 67.1402C40.5653 68.6754 41.6924 70.8101 41.6924 70.8101L41.7309 70.7274C41.5414 70.3682 41.3902 69.9902 41.2797 69.5995C41.131 69.0163 41.0759 68.3233 40.9385 68.0096C40.8173 67.6962 40.6139 67.4264 40.5149 67.0412C40.4213 66.6728 40.4061 66.0896 40.1188 65.6551C39.9977 65.4789 39.849 65.0168 39.8051 64.5548C39.75 63.8614 39.8327 63.0856 39.7667 62.4477C39.6456 61.3858 39.5632 60.6652 39.6731 60.1092C39.783 59.5533 40.3557 57.9749 40.7078 56.7205C40.9388 55.9172 40.801 55.2404 41.2246 54.5416C41.6482 53.8485 41.9071 53.2378 42.0003 52.8142C42.1091 52.429 40.8783 54.5086 40.8783 54.5086H40.8797Z" fill="#F2E8B0"/>
<path fill-rule="evenodd" clip-rule="evenodd" d="M45.13 53.8975C45.13 53.8975 44.668 54.0353 44.4478 54.2772C44.2277 54.5082 44.1341 54.7008 43.8371 55.0914C43.5401 55.482 43.5234 55.8011 43.2811 56.2907C43.0392 56.7694 42.5054 57.49 42.4394 57.7486C42.3734 58.0072 42.2635 59.2174 42.126 59.7897C42.0049 60.362 42.2635 61.0663 42.2635 61.0663L42.5768 60.9999C42.5768 60.9999 42.5768 61.4072 42.8906 61.6825C43.2039 61.9519 43.259 60.7689 43.259 60.7689L44.4308 56.8133L46.1966 55.614L46.3892 54.6456L45.1293 53.8975H45.13Z" fill="#F5EEC0"/>
<path fill-rule="evenodd" clip-rule="evenodd" d="M45.9874 55.6908C45.9874 55.6908 45.1565 55.7456 44.7496 56.043C44.5846 56.1637 44.5186 56.2627 44.3427 56.4114C44.0181 56.6809 43.6877 56.9286 43.5285 57.2818C43.3523 57.6336 43.1597 58.1675 43.0277 59.1742C42.9725 59.5978 42.9725 59.9884 42.9341 60.3297C42.879 60.7917 42.7967 61.1602 42.8405 61.4177C42.8957 61.9457 43.4404 62.221 43.4933 62.8205L44.6212 62.2485L45.6831 58.0616L47.9389 56.6472L46.6623 55.2168L45.9859 55.6883L45.9874 55.6908Z" fill="#E6DB9D"/>
<path fill-rule="evenodd" clip-rule="evenodd" d="M40.0394 83.8856C40.0441 83.8443 40.0489 83.803 40.0536 83.7605C40.2182 82.3461 40.2461 81.2741 40.3669 80.6028C40.5428 79.6512 40.6639 79.2972 40.6364 78.941C40.5979 78.3691 40.554 77.951 40.6092 77.5107C40.6915 76.9275 41.2638 76.2345 41.2475 75.7557C41.2362 75.376 41.0436 75.1287 40.8786 74.8977C40.7136 74.6667 40.5816 74.4741 40.5816 74.4741C40.5816 74.4741 41.7095 73.6983 41.6986 70.5732C41.7217 70.5797 41.7438 70.589 41.7646 70.6008L42.3202 72.1795L42.6999 72.6415L44.1579 75.3594L46.0339 77.1807L48.8065 79.0455L50.5452 80.9375L50.721 85.9826L48.4489 88.9314L48.0768 89.6053C45.1206 88.1212 42.4098 86.1921 40.0391 83.8853L40.0394 83.8856Z" fill="#E5CB7A"/>
<path fill-rule="evenodd" clip-rule="evenodd" d="M46.9766 88.7116C46.9766 88.7116 47.015 88.0845 47.5322 87.6772C47.6149 87.8147 47.6696 87.9471 47.6533 88.0457C47.7469 87.881 48.4015 86.8246 49.8815 86.5493C51.3616 86.2799 51.7192 85.2017 51.7192 85.2017L54.8602 82.3464L58.4528 79.04L62.8211 77.5048L64.8626 77.004C64.8626 77.004 64.901 77.1526 64.8241 77.4827C65.2035 77.4555 66.0452 77.2629 66.92 76.9546C67.2721 76.8172 67.6025 76.7621 67.7784 76.9437C68.037 77.1856 68.0754 77.7579 68.0917 78.0988C68.5153 78.0053 69.0049 77.5984 69.3973 77.6368C70.0248 77.7028 70.5804 78.4401 71.2187 78.4401C72.0604 78.4401 72.4398 77.9229 73.0287 77.5157C73.3809 77.2738 73.8868 76.9717 74.1729 76.7675C74.8551 76.2666 82.0733 74.0605 82.0733 74.0605L84.604 74.2256L85.0112 76.9434L84.7936 84.048C84.7668 84.0738 84.74 84.1006 84.7128 84.1264L73.2061 90.1361L57.256 92.5812C53.6831 91.9975 50.2352 90.8115 47.0593 89.0739L46.9777 88.7112L46.9766 88.7116Z" fill="#D8C173"/>
<path fill-rule="evenodd" clip-rule="evenodd" d="M41.0078 84.7886C41.2345 84.3146 41.4383 83.9182 41.4742 83.7764C41.5025 84.0621 41.5544 84.6892 41.6588 85.3558C41.4395 85.1694 41.2225 84.9802 41.0078 84.7882V84.7886Z" fill="#F1D789"/>
<path fill-rule="evenodd" clip-rule="evenodd" d="M52.6588 91.4752L54.7216 90.9014L54.8975 90.9566C54.8975 90.9566 54.9911 91.0117 54.9911 91.1985C55.2497 91.0501 55.4698 91.0773 55.6294 90.9787C55.7117 91.1546 55.794 91.7377 56.1574 91.8092C56.5368 91.8919 56.9441 91.6442 57.3568 91.3308C57.7637 91.0062 58.2272 90.599 58.5779 90.434C58.7065 90.6706 58.8205 90.9149 58.9191 91.1655C59.3812 90.797 60.1845 89.3006 61.3287 89.3278C61.6594 88.5463 62.2119 87.8788 62.9179 87.4079C63.9798 86.6873 64.6453 86.6321 65.4762 86.6981C65.8062 86.2695 66.2128 85.9057 66.6755 85.6254C66.8129 85.6805 67.1927 85.9115 67.6659 85.6914C68.1447 85.4716 68.6836 84.6186 69.3933 84.5087C69.7758 84.4561 70.1646 84.5377 70.4936 84.7397C70.4936 84.7397 72.5608 82.6874 73.9872 82.0052C73.9321 81.8402 73.8222 81.2186 75.4945 79.843C75.588 79.9257 75.522 80.1567 75.588 80.1694C75.6152 80.1694 76.0232 79.9935 76.5397 79.5971C77.178 79.1188 77.9425 78.6179 78.4045 78.4805C79.2749 78.2219 80.1982 78.7499 80.1982 78.7499C80.2768 78.6949 80.3643 78.6539 80.4568 78.6288C80.6766 78.5904 80.8362 78.5628 80.9573 78.52C80.9464 78.8061 81.106 79.2957 80.9573 79.7193C81.1295 79.8162 81.312 79.8937 81.5013 79.9504C81.4081 80.1538 81.2043 80.671 80.8634 80.9187C81.1492 81.0561 81.1876 81.2157 81.5949 81.3539C81.4299 81.5849 81.1597 81.9813 81.0393 82.2243C80.9181 82.4829 80.4833 83.5556 80.2907 83.9625C80.0873 84.3698 79.8124 85.118 79.68 85.2681C79.5476 85.4183 79.0693 86.0548 78.7008 86.3681C79.0272 86.247 80.3625 85.8401 80.929 85.6859C80.7604 85.9333 79.9056 87.2015 79.0838 88.4212C75.149 90.7796 70.7568 92.2723 66.1998 92.7998C61.6428 93.3274 57.0258 92.8776 52.6562 91.4806L52.6588 91.4752Z" fill="#E0CD81"/>
<path fill-rule="evenodd" clip-rule="evenodd" d="M46.1291 55.5429C46.1291 55.5429 45.6507 55.5429 45.5571 55.6089C45.4636 55.6749 46.0359 55.8128 46.2118 55.8788C46.3876 55.9448 46.7674 56.2472 46.8664 56.4895C46.9599 56.7205 50.3048 58.0682 50.3048 58.0682L52.6705 57.947L53.4861 56.8202L51.9346 55.4613L53.0226 52.2539L51.5814 52.4849L48.1154 54.5521L46.3768 55.218L46.1291 55.5429Z" fill="#DFC57C"/>
<path fill-rule="evenodd" clip-rule="evenodd" d="M51.3198 56.6044C51.354 56.6598 51.4021 56.7052 51.4594 56.736C51.5167 56.7669 51.5811 56.7822 51.6462 56.7803C52.1358 56.7803 52.5865 56.9014 52.7737 57.1487C53.0874 57.5451 53.9567 58.8105 53.9567 58.8105L56.0362 59.5587L56.1704 57.1099L53.8983 55.5312L51.3125 56.4829V56.604H51.3183L51.3198 56.6044Z" fill="#E5CC7C"/>
<path fill-rule="evenodd" clip-rule="evenodd" d="M50.916 57.5123C50.916 57.5123 51.2953 57.5398 51.7741 57.3636C52.2528 57.1873 53.0394 56.808 53.3807 56.9567C53.859 57.1601 53.76 57.7984 54.2775 58.3711C54.5909 58.7232 55.1632 58.7123 55.4878 59.0921C55.8124 59.4718 56.929 59.2955 56.929 59.2955L57.3526 61.5803L55.6528 63.7592L55.0968 66.4658H52.7982L50.6984 65.6327L49.6641 63.1303L50.1812 60.5997L50.916 57.5123Z" fill="#D2C281"/>
<path fill-rule="evenodd" clip-rule="evenodd" d="M55.3571 57.622C55.4141 57.6396 55.4733 57.6489 55.533 57.6496C55.467 57.7047 55.3292 57.8255 55.3843 58.1392C55.4394 58.4529 55.6153 58.8489 55.467 59.0908C55.5854 59.2203 55.6737 59.3743 55.7255 59.542C55.8191 59.8118 55.8467 60.0591 56.457 60.0979C56.369 60.1522 56.2877 60.2168 56.2151 60.2905C56.2151 60.2905 56.6387 60.659 56.8534 60.9999C57.0732 60.9904 57.6564 60.8091 57.6564 60.8091L57.7775 60.8918L58.0361 60.783C58.0361 60.783 57.7942 60.6894 57.9701 60.1008C58.1351 59.5837 58.2838 59.6112 58.2965 59.5728C58.3092 59.5343 58.4176 58.9896 58.4176 58.7695C58.4999 58.4837 58.566 57.6144 58.566 57.6144L58.3901 55.6944L57.4 55.0946L56.5949 54.3174L55.8354 55.7477L55.3353 56.2464L55.2969 57.4842L55.3571 57.622Z" fill="#E2C270"/>
<path fill-rule="evenodd" clip-rule="evenodd" d="M57.7422 56.0161C57.7422 56.0161 57.9181 56.5166 57.9844 56.9017C58.0078 56.8269 58.0208 56.7491 58.0229 56.6707C58.0229 56.6707 58.1603 57.4301 58.1875 57.7438C58.2427 57.7326 58.2963 57.7163 58.3087 57.771C58.321 57.8258 58.4465 58.4369 58.4175 58.7778C58.6466 58.3998 58.9636 58.0828 59.3415 57.8537C59.5617 57.7159 59.8203 57.5676 60.0901 57.5563C60.5137 57.5455 60.8216 57.8262 61.3279 57.8262C62.549 57.8262 63.6551 56.9293 64.4693 56.6544C65.0688 56.4506 65.5859 56.3022 65.949 55.9718C66.1252 55.8235 66.4389 55.4935 66.7247 55.0035C67.1044 54.3507 67.5005 53.7824 67.8969 53.711C67.7175 53.7439 67.5351 53.7568 67.3529 53.7494C67.3529 53.7494 67.474 53.6283 67.6793 53.4633C67.8845 53.2983 68.1304 53.0948 68.4822 53.0948C69.1096 53.0948 69.423 53.188 69.7751 53.188C70.1273 53.1771 70.3307 53.0948 70.3307 53.0948C70.3307 53.0948 70.6995 53.3534 71.53 53.3534C72.3609 53.3643 72.9165 53.4357 73.3514 53.4745C73.7862 53.5133 75.2438 53.3534 75.6619 53.3657C75.9345 53.3762 76.2022 53.4417 76.4489 53.5583L75.1009 49.6415L70.2585 45.4092L67.3757 47.4503L62.941 51.8846L58.6499 53.4745L57.7531 54.4813V56.0161H57.7422Z" fill="#CCB360"/>
<path fill-rule="evenodd" clip-rule="evenodd" d="M67.3708 53.7705C67.3708 53.7705 67.4919 53.6497 67.695 53.4847C67.8981 53.3197 68.1466 53.1159 68.4983 53.1159C69.1254 53.1159 69.4391 53.2095 69.7913 53.2095C70.1434 53.1986 70.3469 53.1159 70.3469 53.1159C70.3469 53.1159 70.7161 53.3741 71.5462 53.3741C72.3771 53.385 72.9327 53.4564 73.3675 53.4949C73.8023 53.5333 75.2599 53.3741 75.6781 53.3861C75.9506 53.3963 76.2182 53.4619 76.4647 53.5787L75.854 51.8125L75.1446 50.4648L73.1198 48.2475C73.1198 48.2475 70.6899 46.8171 70.6714 46.8062C70.6606 46.7953 69.8297 46.5752 69.8297 46.5752L67.629 47.9065L65.6322 53.0727L65.5938 54.1607L66.8863 54.7715C67.2109 54.2275 67.5688 53.7923 67.9043 53.7371C67.6015 53.7701 67.3705 53.7701 67.3705 53.7701L67.3708 53.7705Z" fill="#D5B457"/>
<path fill-rule="evenodd" clip-rule="evenodd" d="M67.3408 54.1399C67.1483 54.1507 66.989 54.1123 66.9448 53.9748C66.7798 53.5128 66.6478 53.4468 66.5096 53.4468C66.3714 53.4468 66.185 53.7438 66.0744 53.771C65.9638 53.7982 65.8325 53.4301 65.8325 53.4301L65.7114 53.375C65.7114 53.375 65.0016 53.837 64.5012 54.3818C64.0007 54.9265 63.1807 55.8509 62.8122 56.0156C62.4437 56.1802 61.178 56.2357 60.745 56.3293C60.312 56.4228 59.8318 56.7366 59.7658 56.808C59.6998 56.8794 59.9588 56.9563 59.9972 57.0278C60.0356 57.0938 59.5732 57.0662 59.5348 57.1366C59.5076 57.1917 59.6436 57.505 59.7111 57.6646C59.8291 57.6059 59.9586 57.574 60.0904 57.5711C60.514 57.5602 60.8223 57.8409 61.3282 57.8409C62.5496 57.8409 63.6554 56.944 64.4696 56.6687C65.0695 56.4653 65.5866 56.3166 65.9496 55.9866C66.1255 55.8382 66.4392 55.5078 66.7254 55.0182C66.9343 54.6828 67.1381 54.3691 67.3419 54.138L67.3408 54.1399Z" fill="#D2B257"/>
<path fill-rule="evenodd" clip-rule="evenodd" d="M49.823 81.3668C49.823 81.3668 49.7142 80.9595 48.706 79.9089C48.4199 79.6119 48.244 79.3649 48.0514 79.1883C47.5727 78.7368 47.292 78.616 46.9511 78.3574C46.2029 77.8018 45.3887 77.8018 44.7617 77.1196C44.1346 76.4374 43.4038 75.134 42.8961 73.8019C42.3956 72.4706 42.2578 72.047 42.2578 72.0086C42.2578 71.9701 42.3956 71.7115 42.5715 71.75C42.7474 71.7884 42.7474 72.1293 42.7917 72.212C42.8793 72.347 42.9787 72.4739 43.0887 72.5914C43.3473 72.8888 43.7157 73.2442 43.9029 73.7744C43.8644 73.3232 43.7103 72.8227 43.7103 72.8227C43.7103 72.8227 44.6786 73.4335 45.5037 74.0714C46.3345 74.7097 46.6755 74.9298 46.9181 75.3368C47.1607 75.7437 47.7323 76.8168 48.0061 77.1305C48.2799 77.4442 52.0317 78.6269 52.0317 78.6269L53.8164 79.9575L54.7024 81.8996L54.0089 82.9876L52.6776 83.2737L50.5154 82.3054L49.823 81.3664V81.3668Z" fill="#D2B159"/>
<path fill-rule="evenodd" clip-rule="evenodd" d="M45.0234 74.6767C45.0234 74.6767 45.4746 75.3973 46.5749 76.0795C47.5654 76.6793 49.1332 77.2241 50.5309 77.5487C51.3338 77.7412 52.1371 77.8896 52.8578 77.9008C54.7998 77.928 56.1366 77.3728 57.7929 77.1911C58.6898 77.0975 59.7901 77.0261 60.9344 76.7559C62.4032 76.4037 63.2725 76.0073 64.4555 75.4503C65.3136 75.0542 66.1005 74.7572 66.7385 74.3775C67.6353 73.8495 68.29 73.2609 69.0494 73.085C68.9558 73.3435 68.8568 73.8056 68.1086 74.2843C68.5047 74.2731 69.0494 74.2459 69.0494 74.2459C69.0494 74.2459 68.5213 74.5592 67.5915 75.2635C67.0192 75.6987 66.2601 76.4353 65.4844 76.9249C64.9835 77.2386 64.4388 77.4689 64.0812 77.6567C63.2108 78.1355 62.8597 78.3774 62.2878 78.9623C62.4913 78.9515 62.508 78.9623 62.508 78.9623C62.508 78.9623 61.787 79.0559 61.2702 79.3308C61.1614 79.3308 60.9728 79.2924 60.6428 79.3859C60.3842 79.4683 60.0429 79.6558 59.6911 79.7544C59.1903 79.9031 59.0256 79.8371 59.0256 79.8371L59.108 80.0021C59.108 80.0021 58.4552 79.9909 58.2376 80.013C58.276 80.0239 58.2651 80.0405 58.2651 80.0405C58.2269 80.047 58.1901 80.06 58.1563 80.079C58.0516 80.1468 57.9364 80.1969 57.8154 80.2273C57.7494 80.2382 57.6943 80.2382 57.6116 80.2549C57.6392 80.3209 57.8539 80.6901 57.9529 80.9077C57.8705 80.9628 56.6324 81.8981 56.6324 81.8981C56.6708 81.9586 56.7022 82.0232 56.726 82.0907C56.7644 82.2115 56.7811 82.3877 56.8195 82.47C56.9127 82.6351 56.9679 82.6626 56.9679 82.6626C56.9679 82.6626 56.8195 82.6902 56.5606 82.7562C56.3408 82.8113 56.071 82.9045 55.6902 82.9597C55.5734 82.9748 55.4558 82.984 55.338 82.9872C55.3932 83.1083 55.6351 83.5704 55.1893 84.1039C54.7436 84.6373 54.6062 84.715 54.4687 85.0559C54.3995 85.0035 54.3259 84.9574 54.2486 84.918C54.1003 84.852 53.8964 84.7534 53.825 84.621C53.7833 84.7974 53.7282 84.9703 53.66 85.1382C53.5225 85.5067 53.3191 85.87 53.2806 86.1449C53.1319 85.9799 52.857 85.6554 52.4773 85.7214C52.0976 85.7874 51.7952 86.3045 51.7291 86.4532C51.7291 86.3596 51.6631 86.2882 51.6468 86.3981C51.6356 86.5192 51.4267 87.7842 50.2603 88.8076C50.2495 88.5491 50.2495 87.9768 50.2219 87.79C50.1131 87.8988 49.98 88.0595 49.1876 88.4007C48.4118 88.7416 48.5348 89.0829 48.5348 89.0829C48.5348 89.0829 48.4688 88.5389 48.8869 87.9659C49.3105 87.394 49.5691 87.1242 49.5691 87.0803C49.5623 87.0356 49.5432 86.9937 49.514 86.9591C49.4589 86.904 49.349 86.838 49.349 86.7941C49.415 86.7669 50.0696 86.4532 50.0311 85.8037C49.9927 85.2209 49.7454 84.918 49.5691 84.7037C49.5419 84.6762 49.828 84.4727 49.7892 84.4067C49.7617 84.3682 49.4099 84.1093 49.3656 83.9715C49.376 83.8892 49.3945 83.8082 49.4208 83.7296C49.4592 83.6085 49.4868 83.5258 49.4759 83.4434C49.4483 83.306 49.2996 82.9263 49.2558 82.8878C49.2942 82.8987 49.5691 82.8878 49.5691 82.8878C49.5691 82.8878 49.3493 82.5357 49.3105 82.3707C49.2717 82.2057 49.1894 81.7708 49.1455 81.6885C49.2391 81.6994 49.4701 81.7157 49.4701 81.6885C49.4813 81.6058 49.2666 81.4684 49.3613 81.3621C49.4273 81.373 49.5539 81.4281 49.6746 81.5822C49.6086 81.406 49.4987 81.0651 49.2674 80.9276C49.3762 80.8892 49.7461 80.7898 50.0707 80.9824C50.3953 81.175 50.5059 81.4444 50.5059 81.4444C50.5059 81.4444 50.6984 81.5931 50.9958 81.8133C51.3367 82.0827 51.7712 82.4661 52.4646 82.7373C52.6133 82.82 52.9927 82.82 53.2679 82.7649C53.3878 82.7363 53.5027 82.69 53.6088 82.6274C53.6472 82.6049 53.6878 82.5864 53.73 82.5723C53.6708 82.4536 53.6028 82.3395 53.5265 82.231C53.6201 82.231 53.73 82.2423 53.73 82.2423C53.73 82.2423 53.796 82.0936 53.499 81.8071C53.565 81.7411 53.6477 81.6983 53.6477 81.587C53.5541 81.5761 53.3891 81.4386 53.3506 81.3835C53.4054 81.3451 53.4881 81.2185 53.5816 81.18C53.499 81.114 53.2955 80.8388 53.2019 80.8116C53.2913 80.7784 53.3778 80.7379 53.4605 80.6904C53.4605 80.6904 52.9985 80.5693 52.8498 80.4703C52.7011 80.3615 52.4813 80.1733 52.3493 80.1182C52.2115 80.063 51.9696 80.0358 51.8706 79.9256C51.9638 79.9531 52.1125 79.9256 52.2227 79.9256C52.3051 79.9256 52.3439 79.9365 52.3711 79.9365C52.3602 79.898 52.3602 79.8153 52.5749 79.7881C52.6782 79.7726 52.7784 79.741 52.8719 79.6946C52.8719 79.6946 52.6681 79.6837 52.4367 79.4635C52.2053 79.2434 52.0131 79.0675 51.8811 79.0399C51.7437 79.0124 51.4851 79.1335 51.3255 79.1223C51.1054 79.0951 51.0118 78.9848 51.0118 78.9848C51.0118 78.9848 50.2803 79.0508 48.6574 78.0607C47.2542 77.2023 46.6435 76.4433 46.6435 76.4433C46.5122 76.3956 46.3852 76.3366 46.2641 76.267C45.7361 75.9921 45.0042 75.4198 45.0263 74.6713L45.0234 74.6767Z" fill="#C2A44D"/>
<path fill-rule="evenodd" clip-rule="evenodd" d="M65.2653 41.6564C65.3925 41.6977 65.5056 41.774 65.5917 41.8765C65.8502 42.1736 66.0153 42.7346 65.4266 43.3344C65.6577 43.4168 65.753 43.4432 65.9547 43.4168C65.7512 43.659 65.2892 44.1762 65.2616 44.6274C65.2341 44.9958 65.4651 45.1061 65.4651 45.1061C65.4651 45.1061 65.1129 45.513 65.0966 46.1941C65.2629 46.0065 65.4449 45.8335 65.6406 45.6769C66.0479 45.3523 66.6089 44.9839 66.9887 44.7528C66.9835 44.8497 66.9965 44.9466 67.0271 45.0386C67.0271 45.0386 67.7365 44.4555 68.3327 44.7144C68.6022 44.8355 68.481 45.2149 68.481 45.2149C68.481 45.2149 68.8499 45.0774 69.1084 45.336C69.367 45.5946 69.7326 46.2615 69.9201 46.5201C70.0024 46.6412 70.2171 46.8723 70.4369 47.2299C70.7371 47.7305 70.9878 48.2592 71.1854 48.8085C71.1963 48.5224 71.2678 48.077 72.0823 48.3574C72.8965 48.6435 73.8206 49.2434 74.5963 50.4246C75.3721 51.6058 75.5643 52.9393 75.9549 53.447C76.3509 53.9366 76.7582 54.7508 76.7857 55.0921C76.8133 55.4334 76.6646 56.5333 77.4788 59.5097C77.7098 58.5857 78.062 56.5333 78.062 56.5333L78.2545 54.7233L78.4747 49.1226L72.6263 44.264L68.0545 40.9463L65.0781 41.2324L65.2649 41.656L65.2653 41.6564Z" fill="#CAA13E"/>
<path fill-rule="evenodd" clip-rule="evenodd" d="M76.1249 49.9912C76.1249 49.9912 76.0422 49.4472 74.6669 48.5224C73.2913 47.6092 72.2186 47.6092 71.2285 46.8334C70.4691 46.2227 69.677 44.8195 69.1613 44.3575C68.6604 43.9009 68.5781 42.5804 68.5781 42.5804L70.2671 41.166L72.7789 37.5354L74.9023 35.1973L75.9199 36.6117L77.3343 38.273L78.121 41.607L78.4071 46.4871L76.1223 49.9915L76.1249 49.9912Z" fill="#B59544"/>
<path fill-rule="evenodd" clip-rule="evenodd" d="M77.8241 55.8403C77.8657 55.1002 77.7743 54.3587 77.5543 53.6509C77.1916 52.523 76.3992 50.5204 76.0311 49.7704C75.8824 48.9395 75.9926 48.8735 76.1522 48.7799C76.3118 48.6864 76.9116 48.3447 77.2402 47.1461C77.5688 45.9475 78.5882 45.9083 78.5882 45.9083L79.2153 45.4463L80.1673 47.8283L80.9978 49.9796L81.2564 51.6247L81.449 53.0275L80.9978 55.993L78.7699 58.0065L77.8237 55.8403H77.8241Z" fill="#C89D3A"/>
<path fill-rule="evenodd" clip-rule="evenodd" d="M46.7344 88.8937V88.8327C46.7807 88.8038 46.8215 88.767 46.8551 88.7239C46.8936 88.6688 46.9215 88.6028 46.9487 88.5865C47.0038 88.5589 47.2624 88.4777 47.3999 88.5038C47.5373 88.5299 47.9007 88.6797 48.0933 88.6688C48.4893 88.6579 48.9514 88.3551 49.6832 88.4929C50.7835 88.6964 51.0421 89.4446 51.6804 89.8681C52.1156 90.1655 52.5661 90.0332 52.6321 90.0332H52.7804C52.808 90.0332 53.0114 89.8021 53.1217 89.8134C53.3418 89.8243 53.3636 90.006 53.501 90.0168C53.8256 90.0553 54.453 89.8518 54.7667 89.9345C54.8597 89.9637 54.9443 90.0149 55.0133 90.0837C55.0822 90.1526 55.1335 90.2372 55.1627 90.3302C55.2288 90.5336 55.1736 90.7922 55.0141 90.9409C54.6731 91.2543 54.3486 91.5516 54.2826 91.8113C54.3665 91.8753 54.4471 91.9436 54.5241 92.0159C51.802 91.3223 49.1829 90.2737 46.7344 88.8969V88.8937Z" fill="#CEB052"/>
<path fill-rule="evenodd" clip-rule="evenodd" d="M76.0312 77.9015C76.0312 77.9015 76.8893 76.7573 77.1867 76.1905C77.4837 75.6062 76.2459 68.2078 76.2459 68.2078L78.7328 60.0602L78.6664 57.4083C78.6664 57.4083 78.7875 54.96 79.0737 53.8981C79.4149 54.5088 80.4768 55.2461 80.7078 55.6367C80.8166 54.8882 81.1862 53.3095 81.1314 51.626C81.3349 51.9393 81.8245 55.092 81.8245 55.092L82.3141 57.2154L82.9524 59.4712L83.6621 61.8535L84.0857 63.4986L84.3276 63.8946L84.5314 64.5877L84.724 65.3362L85.2796 67.0912L85.606 68.5324L85.8646 71.1458C85.9208 71.3459 85.9613 71.5501 85.9857 71.7565C85.9966 72.0427 85.9473 72.2077 85.9473 72.2574C85.9473 72.307 86.0408 72.8844 86.0024 73.3192C85.9473 73.7544 85.9473 74.095 85.606 74.4072C85.2647 74.7195 85.0504 76.5858 85.0504 76.5858L84.4397 76.1789C84.4397 76.1789 84.5608 75.6229 84.2747 75.117C83.9885 74.6111 83.4329 74.5063 83.1192 74.5889C82.8059 74.6549 82.1788 74.7536 81.975 74.9298C81.7824 75.1057 81.3095 75.6505 80.8747 75.8982C80.3307 76.2246 79.4443 76.2503 78.9714 76.3602C78.4927 76.469 77.9646 76.7954 77.4087 77.1744C76.9727 77.4566 76.5125 77.6994 76.0334 77.8997L76.0312 77.9015Z" fill="#CCA847"/>
<path fill-rule="evenodd" clip-rule="evenodd" d="M76.0312 89.9222C76.0312 89.9222 76.0675 89.9458 76.1375 89.9842C80.0462 88.153 83.5483 85.5572 86.4372 82.3501C86.4057 81.2367 86.3647 80.0954 86.3197 79.6725C86.2265 78.7756 86.2925 77.8625 86.265 77.3344C86.2374 76.8064 85.9404 74.655 85.8029 74.0994C85.6542 73.5438 85.3677 73.2686 85.3242 73.2686C85.2858 73.2798 85.0544 74.3141 85.0544 74.5742C85.0544 74.8342 84.9993 75.4601 84.9993 75.6197C84.9608 75.6085 84.9445 75.5109 84.9445 75.471C84.8894 75.6085 84.8234 75.8507 84.7958 75.8783C84.7683 75.9059 84.8343 75.6473 84.7958 75.5922C84.7574 75.537 84.687 75.5646 84.7022 75.4271C84.7088 75.3456 84.7216 75.2648 84.7407 75.1852C84.7407 75.1852 84.5757 75.4271 84.4549 76.0433C84.3338 76.654 84.3338 76.6707 84.2899 76.7255C84.2515 76.7919 84.0313 77.0116 84.0201 77.0943C84.0092 77.2427 84.2239 77.3913 84.2402 77.4737C84.2511 77.6115 84.0476 78.2494 83.9816 78.5617C83.9156 78.8739 83.9432 79.4857 83.8728 79.7995C83.8177 80.0856 83.764 80.2506 83.5758 80.3714C83.7133 80.3989 83.8453 80.4374 83.8453 80.4374C83.8453 80.4374 84.0378 81.2516 83.5482 81.945C83.3723 82.1869 83.3285 82.2971 83.1413 82.5173C82.7725 82.9242 82.4864 83.3877 82.4588 83.6891C82.4398 83.6001 82.4269 83.5099 82.4203 83.4192C82.4203 83.4192 81.8484 84.0851 81.6062 84.4648C81.2928 84.9544 80.858 84.9268 80.7358 85.048C80.6135 85.1691 80.5871 85.3889 80.627 85.5651C80.5182 85.5923 80.3136 85.6311 80.1758 86.0547C80.1098 86.2745 79.9448 86.4899 79.6862 86.6379C79.4276 86.7859 79.1139 86.8305 78.9543 86.8689C79.0918 86.9074 79.1469 86.9074 79.2129 86.9512C79.1306 87.0887 78.7509 87.3034 78.3273 87.5787C77.9037 87.8372 77.6999 88.2166 77.5954 88.4643C77.4866 88.6953 77.326 88.844 77.0674 88.8716C77.1762 88.9376 77.3372 89.0913 77.4195 89.141C77.2984 89.1686 77.0931 89.1686 76.7265 89.4823C76.3413 89.8014 76.2093 89.895 76.0331 89.9226L76.0312 89.9222Z" fill="#C39D3C"/>
<path fill-rule="evenodd" clip-rule="evenodd" d="M68.3768 92.4721C68.5875 92.3244 68.8156 92.2035 69.0561 92.112C69.9142 91.7711 70.8219 91.7051 71.1795 91.5952C71.5208 91.4864 71.7902 91.3362 72.2138 91.2539C72.2026 91.3504 72.1932 91.441 72.183 91.5266C70.9342 91.9192 69.6624 92.235 68.375 92.4721H68.3768Z" fill="#D2BA6B"/>
<path fill-rule="evenodd" clip-rule="evenodd" d="M84.208 69.9023C84.208 69.9023 84.0321 70.8539 83.7184 71.4538C83.4047 72.0536 83.0656 72.8841 83.0656 72.8841C83.0676 72.697 83.0898 72.5106 83.1316 72.3282C82.7355 72.5592 81.7727 73.1152 81.4996 73.3625C81.241 73.5935 80.8062 74.0008 80.6963 74.1934C80.9549 73.4343 81.2243 72.7521 81.2686 72.4384C80.8725 72.7246 79.0237 74.2485 78.0611 75.2553L75.0626 77.6815C74.7166 77.8682 74.3602 78.035 73.9953 78.1812C73.4785 78.401 72.8678 78.5882 72.4166 78.7644C72.5377 78.4398 72.7299 78.1533 72.9998 77.8784C73.2859 77.609 74.144 76.6791 74.276 76.2464C74.3971 75.7953 74.4247 75.5258 74.2651 75.1461C74.1164 75.1845 73.7755 75.2012 73.5445 75.2672C73.3135 75.3332 73.0658 75.5806 73.0658 75.5806C73.0658 75.5806 73.2417 74.5738 73.6214 73.6222C73.3352 73.633 72.8456 73.7154 72.8456 73.7154C72.8456 73.7154 73.5278 72.5712 74.6952 71.7737C74.3377 71.8497 73.9879 71.9583 73.65 72.0979C72.9678 72.384 72.2197 72.8076 71.6641 73.0386C71.9774 72.6034 74.1781 69.4627 75.4877 66.5357C76.7933 63.6144 77.281 62.8662 77.5672 61.2984C77.7155 60.5226 77.676 59.3763 77.7155 58.3495C77.754 57.3315 77.8805 56.4183 77.7982 55.8076C78.1391 56.2312 79.4157 57.4251 79.4596 60.0936C79.498 62.7618 78.2385 66.3656 76.9013 68.3073C77.2277 68.4009 78.0735 68.5111 78.9424 67.0017C79.8114 65.4923 79.8009 65.0708 80.1146 64.4434C80.153 64.7571 80.1418 64.867 80.1418 64.867C80.1418 64.867 81.4075 63.3322 82.007 61.401C82.1281 62.2319 82.4857 62.9638 81.9243 64.4877C81.4238 65.8629 80.7692 66.1987 80.7692 66.1987C80.7692 66.1987 81.0938 66.1436 81.5721 65.8575C81.6548 66.0609 81.6385 66.2927 81.7759 66.3746C81.9134 66.4566 82.1005 66.5948 82.1281 66.7268C82.2764 66.5066 82.5074 66.2259 82.5792 66.017C82.5241 66.4522 82.4857 68.3552 82.688 69.3235C83.112 69.285 83.5465 69.2575 83.8435 68.4926C83.64 69.2412 83.64 69.6919 83.7775 70.3302C84.0031 70.1765 84.2065 69.9012 84.2065 69.9012L84.208 69.9023Z" fill="#C0993A"/>
<path fill-rule="evenodd" clip-rule="evenodd" d="M69.9075 39.5767C69.9075 39.5767 69.4839 39.7526 68.7632 39.7526C68.1362 39.7526 68.3121 39.5107 67.3329 39.5107C65.8256 39.5107 60.5604 40.3811 59.636 40.3688C59.0362 40.3579 61.6604 40.6274 61.6604 40.6274L68.3672 40.721L69.7149 40.6122L70.2157 39.5931L69.9075 39.5767Z" fill="#A88F33"/>
<path fill-rule="evenodd" clip-rule="evenodd" d="M52.5179 52.6869C52.5179 52.6869 51.6595 53.3415 51.2964 53.8423C50.9334 54.3432 50.7408 54.6729 50.3281 55.0801C50.425 55.0838 50.5218 55.0708 50.6143 55.0417C50.6143 55.0417 50.6143 55.1505 50.5483 55.1791C50.6053 55.1728 50.663 55.1792 50.7173 55.198C50.7715 55.2169 50.8208 55.2476 50.8616 55.2879C50.7405 55.3539 50.4105 55.6843 50.669 56.0749C50.8616 56.3719 51.2689 56.3991 51.2689 56.3991C51.2689 56.3991 51.1753 56.669 51.5659 56.6414C52.4077 56.603 53.3484 56.2341 53.7829 56.3277C54.2181 56.4365 54.4654 56.4764 54.7733 57.0102C55.0997 57.5383 55.3841 57.621 55.3841 57.621C55.3841 57.621 55.5766 57.131 55.5328 56.3995C55.6907 56.0052 55.7782 55.5863 55.7913 55.1617L55.5052 53.0546L54.2565 51.4756L52.639 52.3725L52.5179 52.6858V52.6869Z" fill="#E3C571"/>
<path fill-rule="evenodd" clip-rule="evenodd" d="M54.0547 52.3738C54.0547 52.3738 54.1758 52.6599 54.6821 52.6871C54.627 52.8082 54.627 52.8249 54.6437 52.9181C54.6545 53.0117 54.6709 53.1491 54.6709 53.1491C54.7266 53.1222 54.777 53.0853 54.8196 53.0403C54.8471 53.1615 54.792 53.3537 54.8196 53.4915C54.8366 53.5753 54.8642 53.6566 54.9019 53.7334C54.9099 53.7146 54.9191 53.6963 54.9294 53.6786C54.9403 53.6511 55.0382 53.9757 55.3092 54.2226C55.3089 54.1847 55.3183 54.1472 55.3364 54.1138C55.3405 54.1828 55.3633 54.2494 55.4024 54.3064C55.3821 54.2967 55.3636 54.2837 55.3476 54.268C55.3476 54.268 55.3748 55.1384 55.5235 55.5884C55.5483 55.5594 55.5704 55.528 55.5895 55.4949C55.5895 55.4677 55.5786 55.7371 55.5511 55.9301C55.5126 56.1226 55.5402 56.3921 55.5402 56.3921C55.6394 56.314 55.7484 56.2493 55.8644 56.1995C56.0294 56.1332 56.2996 55.9297 56.4642 55.4785C56.5598 55.223 56.6334 54.9599 56.6844 54.6919C56.7376 54.7943 56.7743 54.9045 56.7932 55.0183C56.8044 55.1558 57.063 55.0843 57.063 55.0843L57.1181 54.4845L57.4445 53.1256L57.7416 52.2838L59.1719 50.056L61.7563 48.0656L64.0121 48.5828L65.9153 45.997L62.6365 44.0273L59.5335 44.3519L56.7174 48.2524L54.462 51.7902L54.0547 52.3734V52.3738Z" fill="#D8B65B"/>
<path fill-rule="evenodd" clip-rule="evenodd" d="M70.3059 46.7292C70.3059 46.7292 70.1133 46.7676 69.5577 47.0556C69.0021 47.3435 68.617 47.4349 68.4023 47.8585C68.1876 48.2821 68.1712 48.618 68.1712 48.618C68.1712 48.618 68.5509 48.4529 68.7711 48.3978C69.0021 48.3431 69.2607 48.3594 69.2331 48.4529C69.2067 48.5171 69.1699 48.5765 69.1243 48.6288C69.1243 48.6288 69.5595 48.618 69.5479 48.8327C69.5363 49.0474 69.4656 49.2838 69.3833 49.3883C69.3006 49.4971 68.9597 49.6581 68.9212 49.7847C68.8277 50.0432 68.9597 50.0541 68.91 50.263C68.8715 50.4668 68.6902 50.8629 68.0958 51.5559C67.4851 52.2493 67.2254 52.7389 67.2254 52.7389C67.2254 52.7389 66.9284 52.1833 66.7742 51.7046C66.6654 51.7594 66.0812 52.084 66.0812 52.084L64.7277 47.3693L64.7549 47.0556C64.7549 47.0556 64.876 46.9073 64.9036 46.632C64.7002 46.566 64.6726 46.5109 64.4028 46.2526C64.1329 45.9944 63.9132 45.6804 63.4624 45.4657C63.3964 45.3445 63.3137 45.1799 62.9837 45.1135C62.6536 45.0471 62.4556 44.9927 62.4556 44.9927C62.4556 44.9927 62.6315 44.9264 62.7142 44.7889C62.5104 44.8165 62.3457 44.8825 61.9 44.8716C61.4488 44.8604 61.3992 44.844 61.1518 44.8825C60.9045 44.9209 60.6078 45.0312 60.4972 44.6515C60.3761 44.5579 60.1175 44.6406 59.8974 44.9648C59.6772 45.289 59.6003 45.548 59.1767 45.6746C59.147 45.8613 59.0816 46.0405 58.9842 46.2026C58.863 46.4064 58.6705 46.6099 58.4119 46.9123C58.0046 47.3911 58.0706 48.1777 57.4214 48.7775C56.7668 49.377 57.5302 47.1158 57.5302 47.1158L58.5754 44.6134L61.5518 41.703L66.1733 41.3896L66.6245 43.7832L68.8802 44.559L70.3052 46.7321L70.3059 46.7292Z" fill="#D3AE4D"/>
<path fill-rule="evenodd" clip-rule="evenodd" d="M71.0404 47.2573L69.0983 44.4572L67.7394 43.4116C67.7394 43.4116 66.7711 41.6295 66.7051 41.5743C66.65 41.5359 65.7368 41.4369 65.1536 41.3984L65.2624 41.6679C65.3897 41.7092 65.5028 41.7855 65.5888 41.888C65.8474 42.1851 66.0124 42.7461 65.4238 43.346C65.6548 43.4283 65.7502 43.4548 65.9518 43.4283C65.7484 43.6705 65.2863 44.1877 65.2588 44.6389C65.2312 45.0073 65.4622 45.1172 65.4622 45.1172C65.4622 45.1172 65.1101 45.5245 65.0938 46.2052C65.2601 46.0177 65.442 45.8447 65.6377 45.6881C66.045 45.3617 66.6061 44.9946 66.9858 44.7636C66.9806 44.8606 66.9936 44.9576 67.0242 45.0498C67.0242 45.0498 67.7336 44.4666 68.3298 44.7252C68.5993 44.8463 68.4782 45.226 68.4782 45.226C68.4782 45.226 68.847 45.0886 69.1056 45.3472C69.3641 45.6057 69.7326 46.2712 69.9198 46.5302C70.0021 46.6513 70.2168 46.8823 70.4366 47.2395C70.7369 47.7403 70.9876 48.2691 71.1851 48.8186C71.196 48.5985 71.2402 48.2906 71.6203 48.2906L71.0426 47.2562L71.0404 47.2573Z" fill="#CAA13E"/>
<path fill-rule="evenodd" clip-rule="evenodd" d="M41.9205 55.2129C41.9205 55.2129 41.783 54.8716 41.9205 54.2061C42.0579 53.5407 42.2726 53.2269 42.3441 52.2477C42.4155 51.2685 43.0538 50.0471 43.0538 50.0471L44.8196 49.2441L46.0686 49.585L46.4371 51.2577L44.8581 52.1281C44.8581 52.1281 44.7757 52.4965 44.33 52.7936C43.8843 53.0906 43.2681 53.3216 43.1198 53.6244C43.0311 53.8099 42.9664 54.0058 42.9272 54.2076C42.9272 54.2076 42.4761 54.114 42.2066 54.4111C41.9205 54.7139 41.9313 54.9833 41.9205 55.2144V55.2129Z" fill="#F4EFC8"/>
<path fill-rule="evenodd" clip-rule="evenodd" d="M45.4913 54.7666C45.4913 54.7666 45.3426 54.8602 45.2327 55.093C45.1239 54.9171 44.8639 53.8716 44.853 52.9308C44.8421 51.9901 44.7859 51.7569 45.0035 51.4326C45.2211 51.1084 46.0744 50.7668 45.9533 50.1829C45.8322 49.6273 45.3259 49.3963 44.7043 49.5558C44.2691 49.6646 43.9452 50.5902 43.4941 51.0522C43.1528 51.4044 42.7459 51.3492 42.636 51.5418C42.4873 51.8004 42.6248 52.059 42.5809 52.224C42.5696 52.2791 42.4322 52.5761 42.1845 52.9337C41.684 53.6543 40.8368 54.6723 40.7266 55.5855C40.765 55.0684 40.7378 55.0575 40.8753 54.4852L40.7926 54.3478L41.3366 52.5652L41.6887 51.0964L42.4757 48.6368L43.8618 46.1228L45.2098 44.6152L46.6126 44.7088L46.7777 46.8159L47.581 50.7719L49.2699 52.8514L46.563 54.6731L45.4902 54.7666H45.4913Z" fill="#EBCC73"/>
<path fill-rule="evenodd" clip-rule="evenodd" d="M46.3347 55.5142C46.3347 55.5142 46.1037 55.5693 46.021 55.5254C45.9383 55.4815 45.8563 55.4319 45.8835 55.3767C45.9107 55.3216 46.0594 55.2284 46.0594 55.1841C46.0625 55.1442 46.0498 55.1046 46.0242 55.0738C45.9985 55.043 45.9619 55.0234 45.922 55.0191C45.7954 55.0028 45.757 55.0851 45.757 55.0851C45.757 55.0851 45.6358 54.9919 45.5372 54.9763C45.5956 54.9692 45.6543 54.9654 45.7131 54.9651C45.5611 54.8962 45.3998 54.8499 45.2344 54.8276C45.3718 54.7453 45.6416 54.5031 45.8175 54.5031C45.9934 54.5031 46.1037 54.4759 46.0761 54.3823C46.0486 54.2887 45.9111 54.1513 45.7628 54.0961C45.8175 54.0301 45.8563 53.9311 45.7243 53.6609C45.5865 53.3915 45.6416 53.2098 45.6859 53.1441C45.7243 53.0615 45.8618 52.9131 45.9278 52.8196C45.9938 52.726 46.0489 52.5994 46.1588 52.5334C46.2139 52.495 46.3898 52.4246 46.5661 52.3575C46.7587 52.2915 46.9182 52.2088 47.0281 52.2915C47.1493 52.3738 47.0941 52.4841 47.0941 52.4841C47.0941 52.4841 47.4738 52.3463 47.8147 52.5225C48.156 52.6872 48.9869 52.792 48.9869 52.792L49.2846 53.3918L47.315 55.0808L46.5008 55.4881L46.3358 55.5153L46.3347 55.5142Z" fill="#E5C66B"/>
<path fill-rule="evenodd" clip-rule="evenodd" d="M49.0616 52.7529C49.0616 52.7529 48.4508 53.1602 48.3134 53.3085C48.3957 53.3198 48.5332 53.3749 48.478 53.4572C48.412 53.5395 48.016 53.8257 47.7959 54.0955C47.5649 54.365 47.3447 54.7062 47.2678 54.8713C47.1855 55.0196 46.5581 55.4544 46.3438 55.5092C46.7949 55.5092 47.7027 54.9536 48.0436 54.9536C48.0327 55.1186 48.1371 55.3057 48.3297 55.322C48.5223 55.3384 49.0779 55.4432 49.8261 54.9811C50.5743 54.53 50.3269 54.1942 50.6403 53.9744C51.2401 53.578 51.482 53.2258 51.812 53.0061C52.1421 52.7863 52.3129 52.7362 52.3129 52.7362C52.3129 52.7362 52.3238 52.5712 52.4217 52.5879C52.4485 52.591 52.4739 52.6013 52.4953 52.6178C52.5166 52.6343 52.5331 52.6563 52.5428 52.6815C52.5428 52.6815 53.1151 52.2742 53.8484 52.1643C53.8313 52.1567 53.8176 52.143 53.81 52.1259C53.81 52.1259 53.8647 52.0983 53.876 52.0707C53.876 52.0707 53.9144 52.0156 53.942 52.0432C53.9695 52.0707 54.008 52.2742 54.0631 52.3569C54.1842 52.3018 54.4153 51.7846 54.4153 51.7846L54.9712 50.1947V48.7422L54.536 48.8249L51.272 50.211L49.2911 52.2633L49.0601 52.7529H49.0616Z" fill="#E6BD62"/>
<path fill-rule="evenodd" clip-rule="evenodd" d="M58.4634 45.6287C58.64 45.5859 58.8092 45.5172 58.9657 45.4249C58.8997 45.6012 58.8997 45.7938 58.6136 46.2119C58.3274 46.6301 58.3165 46.6906 58.0855 47.1251C57.8545 47.5763 57.827 48.2254 57.6068 48.5112C57.7055 48.4633 57.8113 48.4318 57.9202 48.418C57.9202 48.418 57.7004 48.6106 57.6068 48.814C57.5132 49.0175 57.3482 49.4411 56.9413 49.7C56.5344 49.959 56.0169 50.1236 55.4613 50.7344C54.9053 51.3339 54.3334 52.0933 54.0469 52.3664C54.1956 52.1078 54.399 51.5906 54.4541 51.2497C54.5093 50.9088 54.4429 50.5012 54.5365 50.0504C54.63 49.5996 54.63 49.2746 55.0805 48.4876C55.5309 47.7007 56.3019 44.9665 56.3019 44.9665L57.9633 44.4385L58.4642 45.6269L58.4634 45.6287Z" fill="#B6933F"/>
<path fill-rule="evenodd" clip-rule="evenodd" d="M57.2606 44.6218C57.2606 44.6218 56.7601 45.3424 56.6227 45.9807C56.4852 46.619 56.6114 46.5638 56.5291 46.8775C56.4799 47.0688 56.4799 47.2694 56.5291 47.4607C56.7025 47.1815 56.9398 46.9475 57.2214 46.7782C57.6947 46.4924 58.0799 46.2886 58.3094 46.0467C58.5405 45.7881 58.733 45.3645 59.2335 45.0399C59.0301 45.0124 58.7439 44.9188 58.6895 44.9311C58.8933 44.7001 59.5037 44.3479 60.1199 43.9244C60.7306 43.4892 60.6922 43.3136 61.6826 42.8791C61.358 42.9343 61.2039 42.8516 60.9341 42.8791C61.0429 42.6481 61.4237 42.5379 61.8045 42.1585C62.1853 41.7792 61.5626 41.2178 61.5626 41.2178L58.6612 42.9727L57.2584 44.6232L57.2606 44.6218Z" fill="#C49937"/>
<path fill-rule="evenodd" clip-rule="evenodd" d="M49.3906 43.3118L49.4566 42.7838L50.2875 41.4524L51.1568 39.1143V35.9178L51.0908 34.0693L51.2283 32.8587L51.3327 32.4739L51.443 32.3252L52.1523 32.6937L53.1319 34.025L53.2255 36.5945L52.2735 40.6491L49.5556 43.6146L49.3906 43.3118Z" fill="#DFC068"/>
<path fill-rule="evenodd" clip-rule="evenodd" d="M51.5486 32.1767C51.5486 32.1767 51.1134 32.188 51.0206 33.998C50.9277 35.8081 50.8828 36.7597 50.8168 37.6566C50.7507 38.5535 50.597 39.0979 50.5197 39.6263C50.4425 40.1547 50.3986 40.8749 50.1513 41.3152C50.0425 41.5187 49.81 42.1569 49.2653 42.6357C48.6545 43.1637 47.7421 43.5325 47.6039 43.5601C47.3616 43.6149 46.1347 43.736 45.6342 44.0113C45.4584 44.1048 45.1555 44.2147 44.8201 44.5284C44.1542 45.1279 43.2686 46.2007 42.6303 47.4936C41.6511 49.4248 40.6719 54.8768 40.6719 54.8768L40.892 54.5083C40.892 54.5083 40.9196 54.0187 41.4092 53.1602C41.8879 52.3022 41.7504 51.3393 42.4159 49.6942C42.6745 49.0672 42.9991 48.253 43.3951 47.5596C44.0226 46.4317 44.7816 45.4634 45.5465 44.9353C46.7951 44.0773 48.1707 43.8901 48.1707 43.8901L49.6508 42.9109C49.6508 42.9109 49.9094 42.4104 50.2506 41.8382C50.729 41.0352 51.3386 40.1383 51.4717 38.8346C51.6755 36.9034 51.1856 35.638 51.2131 34.4938C51.2407 33.3496 51.2516 32.5078 51.483 32.304C51.7144 32.1002 51.549 32.1774 51.549 32.1774L51.5486 32.1767Z" fill="#A88F33"/>
<path fill-rule="evenodd" clip-rule="evenodd" d="M51.5486 40.8148C51.5486 40.8148 52.2014 39.2082 52.5002 37.7833C52.5553 37.4971 52.6652 37.2113 52.6928 36.9803C52.8302 35.6323 52.8687 35.0767 52.6928 34.3394C52.5553 33.7954 52.0273 33.3051 51.752 32.925C51.4826 32.5286 51.356 32.381 51.4111 32.2976C51.4662 32.2142 51.6806 32.0778 51.8895 32.0941C52.1115 32.1006 52.3299 32.1521 52.5315 32.2457C52.733 32.3392 52.9133 32.4727 53.0616 32.6381C53.4852 33.1277 53.8207 34.7895 53.8207 34.7895L54.1736 36.9821L55.0704 39.7438L51.5493 40.817L51.5486 40.8148Z" fill="#C99E3D"/>
<path fill-rule="evenodd" clip-rule="evenodd" d="M57.6883 39.1422C57.6883 39.1422 57.5672 39.1969 57.3474 39.1422C57.3568 39.232 57.3412 39.3226 57.3023 39.4042C57.2635 39.4857 57.2029 39.5549 57.1273 39.6042C56.8962 39.5106 54.7337 39.6978 54.7337 39.6978C54.7337 39.6978 53.7269 39.5215 53.4132 38.1902C53.1934 37.3042 53.5782 36.0831 53.4516 35.2798C53.2591 34.0967 52.9896 33.8654 52.962 33.4973C52.9345 33.1291 52.9069 33.0352 52.9069 32.8042C52.7858 32.7766 52.7143 32.7382 52.5936 32.7382C52.566 32.6294 52.6208 32.5344 52.5 32.3418C52.566 32.3694 53.0172 32.4245 53.5452 32.925C53.9804 33.3322 53.9804 33.4806 54.046 33.5633C54.1284 33.6456 54.7942 34.2161 55.0804 34.7847C55.3665 35.3534 55.9221 37.1667 56.0487 37.4637C56.0871 37.5849 56.1698 37.706 56.3751 37.9809C56.6942 38.3773 57.1617 39.0326 57.6898 39.1414L57.6883 39.1422Z" fill="#B58634"/>
<path fill-rule="evenodd" clip-rule="evenodd" d="M54.125 33.5908C54.4583 34.1292 54.7577 34.6878 55.0215 35.2634C55.3461 35.9949 55.5387 36.5948 55.946 37.0844C55.7258 36.4465 55.3352 35.192 55.1042 34.7463C54.8456 34.2748 54.3176 33.7671 54.125 33.5912V33.5908Z" fill="#A88F33"/>
<path fill-rule="evenodd" clip-rule="evenodd" d="M50.3806 42.6361C50.3806 42.6361 49.825 42.7736 48.7906 43.3183C48.4494 43.4942 48.1251 43.6425 47.8114 43.7803C46.9965 44.1488 46.1225 44.4893 45.4291 44.6772C45.4842 44.7432 45.5114 44.7704 45.5114 44.7704C45.5114 44.7704 45.5114 45.0402 45.6601 45.194C45.5778 45.2767 44.4771 46.0249 44.802 48.528C45.0218 48.4457 45.2804 48.3354 45.3188 48.3354C45.3852 48.3467 45.4015 48.528 45.4838 48.528C45.5662 48.528 45.836 48.4192 46.1221 48.0493C46.1112 48.198 45.9462 49.6943 46.8319 50.7011C46.9969 50.5085 47.415 49.8702 47.415 49.8702L47.4259 49.6668C47.4259 49.6668 47.4644 48.957 47.6957 48.3078C47.9271 47.6587 48.3779 47.18 48.3779 47.18L50.732 43.8184L50.3798 42.6357L50.3806 42.6361Z" fill="#E6C367"/>
<path fill-rule="evenodd" clip-rule="evenodd" d="M48.1785 47.5716C48.0708 47.6478 47.952 47.7071 47.8264 47.7475C47.7879 47.6101 47.7328 47.1368 48.0574 46.6747C48.4371 46.1188 49.2676 45.3982 49.4986 44.8251C49.6473 44.4563 49.5813 43.5322 50.9018 42.3492C52.2223 41.1662 52.7391 40.7593 52.7391 40.7593L54.8737 39.6865L57.498 40.7208L56.1942 45.8308L55.182 48.2244L51.1564 47.4654L48.1782 47.5716H48.1785Z" fill="#DCBA5A"/>
<path fill-rule="evenodd" clip-rule="evenodd" d="M49.7188 46.1841L50.2196 45.557V45.1113C50.2196 45.1113 50.7752 44.9626 51.3747 44.3519C51.9742 43.7411 52.805 42.5694 53.5369 42.6408C54.2688 42.7235 54.3402 44.2307 54.3678 44.6547C54.3953 45.0787 54.4889 46.0408 54.6372 46.5583C54.8022 47.0755 52.8547 49.0339 52.8547 49.0339L51.5321 50.0407L49.7188 46.1841Z" fill="#E9CE77"/>
<path fill-rule="evenodd" clip-rule="evenodd" d="M51.2656 51.4051C51.2656 51.4051 51.6729 50.7668 51.3744 50.6293C51.5503 50.2333 51.8749 49.8152 51.8749 49.8152C51.8749 49.8152 52.1059 49.2432 52.8541 48.5389C53.6023 47.8346 54.0647 47.3668 54.1858 46.8939C54.2605 46.5857 54.3011 46.2702 54.3069 45.9531C54.3878 46.0192 54.4744 46.0781 54.5655 46.129C54.6867 46.1841 55.2586 46.6571 55.1763 47.6091C55.0939 48.5611 54.7411 48.9571 54.7411 48.9571C54.7411 48.9571 54.4002 49.298 54.1583 49.4743C53.8993 49.6501 53.8061 49.8536 53.3713 49.8703C53.416 49.8348 53.4662 49.8068 53.52 49.7876C53.52 49.7876 53.0688 49.7328 52.8265 49.9526C52.5843 50.1724 52.0693 50.8495 51.8107 51.0533C51.5521 51.2183 51.2667 51.4055 51.2667 51.4055L51.2656 51.4051Z" fill="#CDAE50"/>
<path fill-rule="evenodd" clip-rule="evenodd" d="M69.5564 40.7046C68.9064 40.4677 68.2233 40.3341 67.532 40.3086C66.3765 40.2701 64.6876 40.3361 63.0317 40.347C61.2492 40.3579 59.6317 39.7363 57.3871 39.6264C57.0187 39.4063 56.0815 38.4434 53.1562 40.4845C53.3321 40.4736 55.28 40.0333 55.9564 40.8809C56.6386 41.7226 56.446 43.153 56.3528 43.4939C56.1765 44.2533 55.6043 45.3591 55.3736 46.1348C55.1429 46.9106 55.1973 47.3182 55.0323 47.8622C54.8673 48.4062 54.5043 48.6764 54.7186 49.3034C55.0048 49.1275 55.1538 49.1275 55.6318 48.0548C56.1098 46.982 56.0115 46.2171 56.804 45.3094C57.5797 44.3962 58.8712 43.1472 59.3622 42.8335C59.8533 42.5198 63.7523 40.4954 67.8348 42.4266C68.8195 42.3221 69.5568 40.7043 69.5568 40.7043L69.5564 40.7046Z" fill="#D2A83E"/>
<path fill-rule="evenodd" clip-rule="evenodd" d="M54.8008 39.9554C54.7967 39.914 54.7876 39.8734 54.7736 39.8343C54.7354 39.7538 54.6852 39.6796 54.6249 39.6141C54.6249 39.6141 53.6565 39.4382 53.1669 39.493C52.3085 39.5866 51.5328 40.6484 51.1697 41.1932C50.8067 41.7379 50.3555 42.5793 49.8659 43.0141C49.8713 42.9718 49.8615 42.9289 49.8384 42.893C49.8384 42.893 49.8659 42.9314 49.8112 42.9866C49.7564 43.0417 49.7561 43.0689 49.7836 43.0954L49.8663 43.1777C49.8935 43.1777 50.6529 42.8364 51.6873 41.8721C52.7876 40.8653 53.6293 40.3489 54.0696 40.1719C54.3044 40.0721 54.5498 39.9995 54.8011 39.9554H54.8008Z" fill="#C29637"/>
<path fill-rule="evenodd" clip-rule="evenodd" d="M73.588 35.8193C73.588 35.8193 73.4117 36.0391 73.1916 36.2814C72.702 36.7985 72.0637 37.3813 71.519 37.9812C71.0022 38.5535 70.419 38.9992 69.764 39.7474C69.1091 40.4956 68.3496 41.3261 68.1574 41.5683C67.9815 41.8106 67.8441 42.2066 67.8441 42.4101C67.7505 42.3441 67.6406 42.2726 67.6406 42.2726C67.6869 42.359 67.7422 42.4402 67.8056 42.5149C67.9431 42.7075 68.1574 42.9501 68.2677 43.0981C68.4029 43.2864 68.5 43.4994 68.5535 43.7251C68.6195 43.736 69.0431 43.8187 69.5715 42.9494C70.0999 42.0801 70.7926 41.1284 70.7926 41.1284L71.8929 39.4942L72.5863 38.1081L73.4567 36.5566L73.5891 35.8193H73.588Z" fill="#AC8132"/>
<path fill-rule="evenodd" clip-rule="evenodd" d="M74.7167 34.708C74.7167 34.708 74.0509 35.252 73.7923 35.5784C73.5337 35.9048 72.9219 36.7614 72.9219 36.7614L73.142 36.7339L74.259 35.7438L74.6942 34.968L74.7163 34.7095L74.7167 34.708Z" fill="#A88F33"/>
<path fill-rule="evenodd" clip-rule="evenodd" d="M74.5107 78.4296C74.5107 78.4296 74.4998 77.9785 74.753 77.709C75.0116 77.4392 75.6662 77.0432 76.3045 75.5577C76.9428 74.0722 77.0138 73.7367 77.0138 73.7367C77.0138 73.7367 75.8696 74.7159 75.1642 74.947C75.3293 74.6057 75.4228 74.3638 75.5055 74.1875C75.4119 74.1052 75.0159 74.0116 74.9775 73.9678C75.1972 73.7476 75.3184 73.2083 75.7641 72.8507C76.3364 72.4155 77.3816 71.6677 78.194 71.0011C79.0063 70.3346 80.6035 68.7842 80.8073 68.333C80.9285 68.5089 80.9557 68.6188 80.9557 68.6188C80.9557 68.6188 80.1527 69.6644 79.7346 70.3299C79.3657 70.9021 79.3933 71.2267 79.3933 71.2267L80.1527 70.9003C80.1527 70.9003 80.3725 71.7145 79.377 72.9527C79.8122 72.7876 79.9877 72.8867 80.235 72.7488C79.8278 73.0078 79.2667 73.3599 78.7387 74.3279C78.2215 75.2962 77.5172 76.4241 76.3291 77.128C75.1737 77.8708 74.5078 78.4264 74.5078 78.4264L74.5107 78.4296Z" fill="#A67A2E"/>
<path fill-rule="evenodd" clip-rule="evenodd" d="M71.5248 41.2766C71.5248 41.2766 71.0736 42.217 71.0076 42.9489C70.9967 43.1252 70.9525 43.2626 70.9525 43.4661C70.9416 44.1207 70.9909 44.8525 70.8437 45.1934C70.7885 45.056 70.761 44.9624 70.7059 44.9077C70.6235 45.1387 70.4748 45.8593 70.3537 46.1288C70.2989 45.9529 70.1778 45.3421 70.1891 44.6215C70.2003 43.9009 70.2163 43.7631 70.2163 43.6148C70.1891 43.8345 70.0404 44.1319 69.9852 44.3078C69.9029 44.1595 69.8093 43.9669 69.6991 43.8073C69.6331 43.9161 69.5508 44.0768 69.4793 44.1595C69.4681 44.0935 69.4409 43.9172 69.4242 43.6699C69.4133 43.3837 69.3966 43.0153 69.4133 42.938C69.4405 42.7897 69.6719 42.2065 70.1615 41.6727C70.7447 41.0344 71.3445 39.8078 71.5204 39.4281C71.6963 39.0484 72.4445 37.4697 72.4445 37.4697H73.0168L72.1859 39.3621C72.1859 39.3621 71.6854 40.3964 71.4268 40.7765C71.1683 41.1566 70.6235 42.2457 70.3813 42.6693C70.5572 42.4383 70.7059 42.3171 70.8821 42.097C71.0526 41.9429 71.5255 41.2774 71.5255 41.2774L71.5248 41.2766Z" fill="#8C6228"/>
<path fill-rule="evenodd" clip-rule="evenodd" d="M74.725 34.6357C74.6315 34.9235 74.4838 35.1906 74.2898 35.4227C73.9486 35.83 73.2167 36.3744 72.8595 36.8088C72.5331 37.2324 71.8803 38.3879 72.1769 39.7577C72.2857 39.4607 72.4906 38.8721 73.0354 38.2062C73.5801 37.5403 74.1633 36.7758 74.4498 36.1818C74.7355 35.5819 74.774 35.109 74.774 35.109L74.8828 34.9716L74.8168 34.6579L74.7232 34.6357H74.725Z" fill="#CBA94C"/>
<path fill-rule="evenodd" clip-rule="evenodd" d="M85.864 71.1288C85.864 71.1288 85.6439 70.5293 85.5779 69.9846C85.5119 69.4399 85.6867 69.3318 85.4843 68.7084C85.3632 68.3287 85.1434 68.382 85.0883 68.3287C85.0332 68.2753 84.9947 67.7016 85.0056 67.3879C85.0165 67.0742 84.9947 66.6673 84.9396 66.491C84.8573 66.425 84.8021 66.3699 84.681 65.963C84.5436 65.5557 84.4776 65.3522 84.4115 65.2315C84.3455 65.1107 84.1526 65.0005 84.1526 64.8793C84.1526 64.6371 84.3727 64.5109 84.3727 64.4441C84.3619 64.3067 84.1968 64.4169 84.1526 64.3781C84.0978 64.3121 84.2904 63.9161 84.219 63.861C84.1914 63.8338 83.9988 64.0648 83.9491 63.9988C83.894 63.9324 83.828 63.2778 83.729 62.8433C83.6358 62.4197 83.5364 62.1118 83.5256 61.9852C83.5147 61.8641 82.7661 59.7295 82.5848 59.2123C82.4387 58.7753 82.3157 58.3309 82.2163 57.8809C82.1612 57.6224 82.1228 57.094 82.0952 57.1491C82.0676 57.2042 82.0843 57.4737 82.0401 57.4628C82.0016 57.4516 81.8642 56.5112 81.8203 56.3625C81.7819 56.2138 81.5505 55.7097 81.4939 55.3448C81.4388 54.976 81.318 54.0131 81.2353 53.3585C81.1526 52.7039 81.1142 52.4344 81.1142 52.2705C81.1277 51.8696 81.1056 51.4682 81.0482 51.0712C80.9394 50.3777 80.7218 49.536 80.531 49.0468C80.1625 48.1223 79.183 45.7566 79.0078 45.168C79.0078 45.0193 79.2004 45.102 79.2004 45.102C79.2004 45.102 79.6787 46.3014 80.0309 47.2254C80.3722 48.1499 80.6968 48.9641 80.7794 49.0468C80.8454 49.1291 81.3626 50.0368 81.5936 51.5223C81.8246 53.0078 81.907 54.3776 82.0448 55.2908C82.1108 55.726 82.1659 56.1877 82.3034 56.6497C82.4517 57.1505 82.6827 57.6677 82.9855 58.4598C83.2441 59.1256 83.4367 59.6812 83.5411 60.1599C83.6623 60.7707 83.6623 61.2327 83.7337 61.5355C83.8001 61.7941 83.8987 62.3109 84.1301 63.0587C84.3615 63.8066 84.702 64.7698 84.9331 65.3693C85.3846 66.5686 85.5859 67.57 85.654 68.1038C85.7142 68.654 85.9181 70.5576 85.8629 71.1295L85.864 71.1288Z" fill="#A88F33"/>
<path fill-rule="evenodd" clip-rule="evenodd" d="M74.754 34.57L74.7264 34.636C74.7264 34.636 74.8088 34.6636 74.7925 34.7738C74.7936 34.9247 74.7844 35.0754 74.7649 35.225C74.7377 35.4176 74.6826 35.5659 74.6717 35.687C74.6717 35.9456 74.7101 36.2426 74.3453 36.9799C74.2365 37.1834 74.1694 37.3593 74.1143 37.4804C73.9768 37.7774 73.9493 37.8217 73.8281 37.9591C74.0207 37.8503 74.7141 37.4151 75.0659 37.4804C74.824 37.6179 74.4552 37.8877 74.2242 38.2398C74.2793 38.2507 74.5103 38.295 74.877 38.2398C75.4877 38.1463 76.1699 37.9261 76.7694 37.97C77.4243 38.0085 77.1657 37.1834 77.1657 37.1834L76.4099 35.522L74.9796 34.5156L74.754 34.5704V34.57Z" fill="#BE9C44"/>
<path fill-rule="evenodd" clip-rule="evenodd" d="M78.4824 47.0154C78.4824 47.0154 77.8441 46.3771 77.5855 44.1866C77.3269 41.9859 77.3821 38.7466 77.3821 38.7466L76.8649 37.4812C76.8649 37.4812 76.7561 36.6395 76.4852 36.3261C76.2143 36.0128 75.6823 35.4844 75.44 35.2258C75.1977 34.9672 74.9228 34.6151 74.7578 34.5599C74.8401 34.4225 75.209 33.6467 76.6226 33.6359C78.0363 33.625 78.4722 34.4116 78.6198 34.6977C78.7675 34.9839 79.434 36.2209 79.6814 38.5783C79.9124 40.9327 79.9236 41.109 79.8852 41.9232C79.8576 42.3743 79.7089 43.4195 79.45 44.5362C79.2135 45.4827 78.955 46.5392 78.4817 47.0175L78.4824 47.0154Z" fill="#A17C34"/>
<path fill-rule="evenodd" clip-rule="evenodd" d="M76.4769 48.891C76.6897 48.9063 76.9022 48.8584 77.0877 48.7532C77.2911 48.7423 78.0284 48.8359 78.5949 48.1152C78.6334 48.2799 78.7327 48.726 78.4738 49.122C78.6116 48.9842 78.8151 48.9294 78.8426 48.891C78.8535 49.0944 79.0461 49.7215 78.2319 51.2454C78.4517 51.0035 78.7102 51.0144 78.9413 50.9868C78.9525 51.273 79.1063 52.2355 78.6994 52.753C78.4299 53.1052 77.9896 52.9949 77.9896 52.9949C77.9961 52.918 77.9961 52.8408 77.9896 52.7639C77.9787 52.6152 77.9236 52.4669 77.9624 52.3679C77.7497 52.2707 77.5559 52.1365 77.3901 51.9715C76.9114 51.5203 76.2898 50.7504 76.2459 50.1781C76.1908 49.5398 76.7631 49.4023 76.7631 49.4023C76.7151 49.3594 76.6743 49.3093 76.642 49.2536C76.6144 49.1604 76.5868 49.0117 76.4769 48.891Z" fill="#8C6228"/>
<path fill-rule="evenodd" clip-rule="evenodd" d="M72.2384 41.9696C72.2384 41.9696 72.2108 41.9312 72.0625 42.1071C72.0901 41.9312 72.1176 41.7658 72.1285 41.6062C72.1987 41.4585 72.2896 41.3215 72.3983 41.1993C72.3156 41.364 72.2605 41.5127 72.2605 41.5127C72.2605 41.5127 72.4643 41.1329 72.7614 40.9019C72.9648 40.7369 73.2234 40.66 73.3333 40.5059C73.4544 40.3409 73.4269 40.3133 73.4544 40.2857C73.4544 40.2857 73.7242 40.1099 74.137 39.5923C74.1917 39.5263 74.2744 39.4549 74.3295 39.3889C74.4227 39.3504 74.6429 39.2514 74.9015 39.1191C75.1713 38.9707 75.4737 38.7673 75.6609 38.6839C76.0293 38.5188 76.4203 38.5355 76.6016 38.2766C76.7391 38.2381 76.8874 37.8254 76.8602 37.4736C77.0637 37.556 78.1089 38.2051 78.4668 39.6246C78.7254 40.6314 78.263 42.1829 78.0704 42.9314C77.8779 43.6799 77.8507 44.2352 77.5808 44.5761C77.2396 45.0276 76.1396 45.6641 75.8698 45.9793C75.6388 46.2378 74.9457 46.8924 74.9729 47.3654C75.0005 47.7175 75.4349 47.9094 75.5289 47.9761C75.6228 48.0428 75.6221 48.1248 75.7983 48.0849C75.9746 48.045 76.0402 47.9638 76.112 47.9638C76.1944 47.9746 76.1944 47.9913 76.2328 47.9913C76.2607 47.9905 76.2884 47.9867 76.3155 47.9801C76.3155 47.9801 76.2879 48.4809 75.1162 48.6329C75.0335 48.6441 74.9511 48.6713 74.8463 48.688C74.9841 48.622 75.0665 48.622 75.2152 48.4185C75.0501 48.391 74.5769 48.3634 74.4557 48.325C74.4942 48.259 74.6207 48.0827 74.7252 48.0004C74.8188 47.9181 74.7143 47.8916 74.632 47.9344C74.4903 48.0308 74.3543 48.1354 74.2247 48.2477C74.0873 48.3689 73.9661 48.5339 73.746 48.6829C73.68 48.4628 73.6909 48.0446 73.9498 47.7422C73.8834 47.7531 73.7569 47.9456 73.6361 47.9072C73.6143 47.7065 73.6273 47.5036 73.6746 47.3073C73.7406 47.0596 74.0981 46.6252 74.0981 46.6252L75.8255 43.5385L76.194 41.2004L72.2384 41.9689V41.9696Z" fill="#92723A"/>
<path fill-rule="evenodd" clip-rule="evenodd" d="M72.146 42.1022C72.146 42.1022 72.0525 42.1682 72.2396 42.2948C72.212 42.3332 72.146 42.4707 72.0634 42.5643C71.9701 42.6731 71.8708 42.7405 71.8323 42.8341C71.75 43.0267 71.684 43.1587 71.684 43.2414C71.684 43.324 71.6564 43.8521 71.4254 44.193C71.3427 44.3141 71.2492 44.5176 71.1832 44.655C71.0457 44.8969 70.9246 45.0902 70.897 45.199C70.8423 45.3916 70.8038 45.9196 70.8038 45.9196C70.8038 45.9196 70.9249 45.771 70.9688 45.7162C70.9025 45.8536 70.831 46.002 70.7266 46.1122C70.7926 46.0571 70.9851 45.9196 71.3097 45.6335C71.7609 45.2542 72.4652 44.6159 73.3236 44.1103C73.0647 44.2039 72.8449 44.2039 72.669 44.2314C72.8065 44.094 74.0442 42.6415 74.6934 42.5041C74.7328 42.4541 74.7524 42.3913 74.7485 42.3278L74.1926 42.273L73.0647 42.5149L72.9 41.6445L72.146 42.1011V42.1022Z" fill="#B18E3E"/>
<path fill-rule="evenodd" clip-rule="evenodd" d="M73.9358 47.0536C73.9358 47.0536 73.7871 47.202 73.6496 47.5708C73.5438 47.4603 73.4531 47.3363 73.3798 47.202C73.1764 46.8611 72.863 46.4262 72.1312 46.6739C72.1203 46.4429 72.1036 46.3218 72.1312 46.1568C72.2523 46.1296 72.6208 45.8325 72.9892 45.3977C73.2482 45.1007 73.4901 44.7594 73.6551 44.3249C73.7639 44.2423 73.9521 44.1048 74.1991 43.9452C74.5512 43.7033 74.9748 43.3729 75.0408 43.0045C74.8758 43.0705 74.5237 43.2355 73.9953 43.2083C74.1991 43.1147 74.5124 43.0157 74.474 42.6084C74.5567 42.5533 74.6227 42.5149 74.6227 42.5149C74.5607 42.4942 74.4954 42.4849 74.4301 42.4873C74.4189 42.4489 74.4025 42.3941 74.309 42.4213C74.2154 42.4485 74.2002 42.4489 74.1878 42.4873C74.1494 42.4986 74.0228 42.4873 73.9293 42.5537C73.8357 42.62 73.5771 42.8395 73.4781 42.8779C73.5165 42.8119 73.5713 42.7133 73.5713 42.7133C73.5713 42.7133 73.3018 42.7405 73.1093 42.8221C72.7571 42.9432 72.3502 43.1633 71.9375 43.3777C71.9759 43.3117 71.9926 43.2689 72.0198 43.2565C72.047 43.2442 72.1134 43.2293 72.1134 43.2181C72.1134 43.2068 72.0862 43.1093 72.1025 43.0698C72.2259 42.8084 72.3715 42.558 72.5377 42.3216C72.7303 42.0626 72.7687 41.6942 72.7687 41.6942L73.6105 41.2706L75.9762 40.7266L77.5113 40.8201L77.3187 41.882L76.4121 43.736L75.6363 45.4249L74.7503 46.4596L73.9362 47.0536H73.9358Z" fill="#543E26"/>
<path fill-rule="evenodd" clip-rule="evenodd" d="M77.7708 42.4582C77.7708 42.4582 76.8464 43.6025 76.5878 43.7787C76.7528 43.4266 77.7708 41.3303 78.1393 40.7472C78.057 40.6812 77.9467 40.6812 78.2053 39.6592C77.9855 40.176 77.9083 40.4458 77.7269 40.5833C77.5456 40.7207 77.5231 40.6768 77.4005 40.6768C77.4237 40.635 77.4332 40.5869 77.4277 40.5394C77.4277 40.5394 76.652 40.4458 76.1221 40.4458C75.5923 40.4458 74.5435 40.7319 73.9599 40.963C73.4979 41.1555 73.2393 41.1555 73.0743 41.2763C72.9093 41.4138 72.8157 41.5625 72.733 41.6009C72.667 41.6393 72.3537 41.7383 72.2819 41.8428C72.2159 41.9516 72.106 42.0738 72.106 42.1014C72.106 42.1289 72.0784 42.1677 72.1611 42.1398C72.1883 42.1289 72.3921 42.0187 72.6231 41.8812C72.9365 41.7053 73.3162 41.5019 73.5915 41.3808C74.3781 41.0671 74.6258 41.1222 74.9776 41.0562C75.346 40.9902 75.8744 40.836 76.2262 40.836C76.5784 40.8252 77.2442 40.836 77.3984 40.8636C77.3324 40.9187 77.2772 40.9847 77.3048 41.2157C77.3048 41.2817 77.2497 41.3532 77.196 41.5128C77.0313 41.9639 76.7176 42.7121 76.5432 43.0918C76.3013 43.6086 76.0264 44.0435 75.8904 44.3129C75.7544 44.5824 75.4552 45.2921 75.1589 45.6718C74.8626 46.0515 74.7077 46.2826 74.6149 46.3652C74.5221 46.4479 73.8555 46.9372 73.9052 47.1134C74.0263 47.075 74.7912 46.787 75.3464 46.1618C75.9016 45.5366 76.0123 45.155 76.4467 44.8138C76.8812 44.4725 77.2225 43.9006 77.4259 43.4276C77.5964 42.9874 77.5579 42.8499 77.7723 42.4593L77.7708 42.4582Z" fill="#806031"/>
<path fill-rule="evenodd" clip-rule="evenodd" d="M57.8533 50.9978C57.8533 50.9978 57.7322 51.4983 57.4569 51.746C57.1875 51.9883 56.7087 52.1971 56.654 52.6044C56.588 53.0113 57.1327 53.2152 57.1327 53.2152C57.1327 53.2152 56.8353 53.7048 56.8353 54.0732C56.8353 54.4529 56.8244 54.5244 56.8629 54.8874C56.8193 54.9155 56.7821 54.9526 56.7541 54.9962C56.7541 54.9962 56.7813 55.3484 57.0511 55.5681C57.3209 55.7879 57.5516 55.9203 57.689 55.8652C57.71 55.91 57.7284 55.956 57.7442 56.003C57.7442 56.003 57.948 55.4858 58.0854 55.0347C58.2229 54.5726 58.344 54.6383 58.3988 54.0166C58.4535 53.395 59.0516 52.3277 59.0516 52.3277L59.4596 51.4156L58.7941 50.8984L57.8533 50.9974V50.9978Z" fill="#B6903C"/>
<path fill-rule="evenodd" clip-rule="evenodd" d="M59.0859 51.8945C58.9486 52.0354 58.822 52.1862 58.7069 52.3457C58.531 52.5879 58.3935 52.8077 58.1349 52.9017C57.8764 52.9956 57.7114 52.9949 57.7277 53.2538C57.744 53.5127 57.9863 53.6223 58.1237 53.7543C58.2724 53.8917 58.3935 54.1228 58.3275 54.3817C58.4098 54.3433 58.5585 54.299 58.696 54.002C58.8334 53.705 59.7949 51.8949 59.7949 51.8949H59.0859V51.8945Z" fill="#685026"/>
<path fill-rule="evenodd" clip-rule="evenodd" d="M62.884 47.7193C62.884 47.7193 62.9663 47.4995 62.884 47.3399C62.8013 47.1749 62.3008 47.1198 62.0531 46.9327C61.7945 46.7401 61.4808 46.6063 61.2222 46.6908C61.2607 46.5972 61.4148 46.3934 61.2882 46.3495C61.1671 46.3111 60.7163 46.5145 60.5952 46.6081C60.474 46.7017 60.1988 46.8115 60.144 46.8779C60.0893 46.9443 59.9953 47.0705 59.9402 47.0154C59.8851 46.9769 59.8579 46.8779 59.7643 46.9327C59.6707 46.9874 59.2203 47.3563 59.1373 47.571C59.0542 47.7857 58.8674 48.2644 58.3064 48.8087C57.7453 49.3531 57.5031 49.7056 57.6681 49.9091C57.8331 50.1125 57.9104 49.9642 57.9379 50.1401C57.9591 50.3128 57.9498 50.4878 57.9104 50.6573C57.8443 50.9434 57.7345 51.2129 57.8828 51.268C58.2625 51.3891 58.6313 51.1592 58.7137 51.2295C58.8787 51.3779 58.6201 51.9117 59.0107 52.0162C59.4071 52.125 59.7977 51.9226 59.7977 51.9226L61.2389 51.1469L62.6254 50.4154L63.3348 49.0122L62.9543 47.8404L62.8818 47.7193H62.884Z" fill="#D4B968"/>
<path fill-rule="evenodd" clip-rule="evenodd" d="M61.5227 51.0697C61.5227 51.0697 61.2805 50.7013 61.5778 50.3763C61.8752 50.0514 62.2985 49.9143 62.4635 49.7108C62.4321 49.6721 62.3899 49.6434 62.3423 49.6285C62.4519 49.4325 62.619 49.2749 62.8211 49.177C62.7387 49.0946 62.6285 49.0286 62.5077 49.0286C62.2379 49.0286 62.0725 49.1937 61.8252 49.1937C61.5833 49.1937 61.5557 49.0725 61.5557 49.0725C61.5557 49.0725 61.963 49.0341 61.9242 48.8524C61.8857 48.6598 61.8154 48.6598 61.8154 48.6598C61.8154 48.6598 62.602 48.3334 62.7395 48.1593C62.8769 47.9852 62.8606 47.7796 62.8882 47.6973C62.9814 47.6973 63.5261 47.4111 63.7462 47.5323C63.9664 47.6534 63.8122 47.9834 63.8122 47.9834C63.8122 47.9834 64.4784 47.4826 64.8179 46.9915C65.1149 47.0191 65.2531 46.7881 65.4707 46.7881C65.7405 46.7881 66.1641 47.1566 66.2464 47.9432C66.3016 48.3943 66.3839 48.6529 66.3016 49.4508C66.2631 49.9019 66.274 50.8652 66.4104 51.3432C66.5036 51.7229 66.7237 51.6844 66.7237 51.6844C66.6899 51.8002 66.623 51.9034 66.5311 51.9815C66.3824 52.1189 66.3661 52.4823 66.3824 52.6198C66.4044 52.7203 66.432 52.8194 66.4651 52.9168C66.4651 52.9168 66.2892 53.1202 66.245 53.2581C66.2066 53.3955 66.0252 53.4891 65.8928 53.4891C65.7605 53.4891 65.8268 53.4778 65.6509 53.4891C65.4751 53.5003 65.4199 53.5275 65.3097 53.4891C65.1994 53.4506 65.1171 53.4064 65.1613 53.0539C65.1998 52.7017 63.8024 51.8821 63.8024 51.8821L61.5176 51.0679L61.5227 51.0697Z" fill="#CCA849"/>
<path fill-rule="evenodd" clip-rule="evenodd" d="M58.9003 54.547C58.9003 54.547 59.4007 55.2129 61.4585 55.2129C62.4377 55.2129 62.779 55.1193 62.9817 55.0642C63.2018 55.0091 64.0269 54.6849 64.8578 53.7053C65.606 52.8197 65.4409 52.4566 65.4409 52.4566L65.0057 52.3906L63.5913 52.5832L59.4062 54.3657L58.8984 54.547H58.9003Z" fill="#585136"/>
<path fill-rule="evenodd" clip-rule="evenodd" d="M60.4309 54.7119C60.4309 54.7119 58.6484 55.1083 58.6484 53.9804C58.6484 52.88 59.7488 51.7246 60.024 51.5211C60.3102 51.3173 60.9924 51.0859 60.9924 51.0859H62.6374L62.9508 51.9168L62.8133 53.7102L60.4309 54.7115V54.7119Z" fill="#252211"/>
<path fill-rule="evenodd" clip-rule="evenodd" d="M62.0756 51.4216C62.0756 51.4216 61.7347 51.1079 60.9589 51.5304C60.1832 51.9529 59.5558 52.836 59.5173 53.6379C59.4789 54.3472 60.1005 54.8756 61.0688 54.9032C61.7894 54.9304 62.2243 54.8481 62.4444 54.7944C62.3893 54.7284 62.1031 54.3708 62.1031 54.3708L62.0759 51.422L62.0756 51.4216Z" fill="#C3B378"/>
<path fill-rule="evenodd" clip-rule="evenodd" d="M61.7383 51.5976C61.7383 51.5976 61.656 51.5316 61.4119 51.6636C61.2084 51.7724 60.9114 52.06 60.6804 52.2634C60.5317 52.3845 60.4381 52.4393 60.354 52.5329C60.0127 52.9401 59.7266 53.606 59.892 53.936C60.0573 54.2661 60.6017 54.6458 61.9882 54.3872L61.7343 51.5979L61.7383 51.5976Z" fill="#E6D89C"/>
<path fill-rule="evenodd" clip-rule="evenodd" d="M61.2898 52.2801C61.2898 52.2801 61.0697 52.6214 61.0697 53.1661C61.0697 53.7217 61.3834 54.6073 62.5389 54.6733C63.4245 54.7284 64.0185 53.3971 64.6623 52.8799C65.1519 52.4839 65.4489 52.4727 65.4489 52.4727C65.4489 52.4727 64.9484 51.9287 63.6116 51.224C62.2912 50.5143 60.8111 50.4207 60.0078 51.5101C60.3875 51.4826 61.6144 51.1689 61.6144 51.1689L62.2143 51.3614L61.2898 52.2804V52.2801Z" fill="#252211"/>
<path fill-rule="evenodd" clip-rule="evenodd" d="M63.0204 53.0007C62.982 52.9184 62.9544 52.8081 63.114 52.7809C63.2736 52.7537 63.345 52.7697 63.4001 52.8897C63.4553 53.0098 63.5089 53.1099 63.4273 53.1595C63.345 53.2034 63.1303 53.1595 63.0201 53L63.0204 53.0007ZM62.7618 52.225C62.7618 52.225 62.7067 52.2634 62.7343 52.1865C62.7452 52.0933 62.817 51.9279 62.9929 51.9667C63.1688 52.0055 63.1307 52.1978 63.1017 52.2529C63.0726 52.308 62.9258 52.4012 62.8155 52.3617C62.8015 52.3581 62.7886 52.3513 62.7778 52.3418C62.7669 52.3323 62.7585 52.3203 62.7531 52.3069C62.7477 52.2935 62.7456 52.2791 62.7468 52.2647C62.7481 52.2503 62.7528 52.2365 62.7604 52.2242L62.7618 52.225Z" fill="#6F674D"/>
<path fill-rule="evenodd" clip-rule="evenodd" d="M47.8672 52.5769C47.8672 52.5769 48.3024 52.9033 48.8079 52.8906C49.3084 52.8793 49.9522 52.3625 50.2492 52.0321C50.4251 51.8396 50.5756 51.6361 50.7388 51.4765C50.8766 51.3391 50.9698 51.2731 51.0358 51.1795C51.1294 51.0707 51.2284 50.8662 51.2781 50.7998C51.1569 50.8934 50.981 51.0587 50.7993 51.1686C50.6235 51.2774 50.2437 51.482 50.0896 51.5371C49.9413 51.5922 48.4007 52.4075 48.4007 52.4075L47.8672 52.5769Z" fill="#AC924C"/>
<path fill-rule="evenodd" clip-rule="evenodd" d="M48.5312 48.5112C48.5312 48.5112 48.7731 48.3462 49.241 48.2414C49.6921 48.1326 50.5999 48.0488 50.5999 48.0488L51.3481 48.3752L51.6451 49.5031L51.1011 50.6753L50.408 51.1105L49.6211 49.8451L48.5331 48.5134L48.5312 48.5112Z" fill="#9F8E57"/>
<path fill-rule="evenodd" clip-rule="evenodd" d="M47.5558 49.5186L47.2969 49.7119C47.2969 49.7119 47.3632 49.5908 47.418 49.2223C47.4728 48.8539 47.7593 47.957 48.1774 47.4398C48.5956 46.9227 48.5847 46.9502 48.5847 46.9502C48.5462 46.9432 48.5067 46.9444 48.4687 46.9539C48.4308 46.9633 48.3953 46.9808 48.3646 47.005C48.4197 46.8831 48.7718 46.4479 49.124 46.2303C49.4761 46.0127 49.6136 45.9442 49.9821 46.1215C50.3505 46.2989 50.4441 46.391 50.7139 46.3801C50.9837 46.3692 51.2144 46.0831 51.2144 46.0831C51.2144 46.0831 51.2695 46.259 51.0661 46.6663C50.8626 47.0735 50.0593 47.9041 50.0593 47.9041L48.3867 49.0483L47.5558 49.5197V49.5186Z" fill="#EAC970"/>
<path fill-rule="evenodd" clip-rule="evenodd" d="M48.7905 48.3743C48.7905 48.3743 50.0011 48.5394 50.3696 48.1985C50.3804 48.2369 50.4247 48.2369 50.4247 48.2645C50.4217 48.2852 50.412 48.3045 50.3971 48.3192C50.4372 48.3128 50.4777 48.3092 50.5183 48.3083C50.5667 48.3228 50.6166 48.332 50.667 48.3359C50.7075 48.335 50.748 48.3313 50.7881 48.3247C50.7843 48.352 50.775 48.3783 50.7608 48.402C50.7466 48.4257 50.7277 48.4462 50.7054 48.4625C50.7605 48.4625 50.8142 48.4734 50.8142 48.5172C50.8142 48.5611 50.8251 48.6935 50.7591 48.7211C50.7044 48.7362 50.6462 48.7322 50.5941 48.7098C50.5984 48.814 50.6267 48.9157 50.6767 49.0072C50.7855 49.2107 51.0176 49.4424 51.3295 49.3757C51.3295 49.3757 51.4942 49.7717 50.8011 50.6519C50.7079 50.773 50.6086 50.938 50.4878 51.0755C50.4401 51.1795 50.4036 51.2883 50.379 51.4001C50.379 51.4001 51.5511 50.9489 51.8866 49.92C52.2279 48.8857 52.2939 47.8681 52.2279 46.9164C52.2166 46.6466 52.1727 46.4544 52.1067 46.3166C51.9417 45.9753 51.4793 46.0304 51.2926 46.223C51.0227 46.4928 50.5716 47.1638 49.9445 47.6258C49.3062 48.0878 49.279 48.1698 48.7891 48.3743H48.7905Z" fill="#D7BC6B"/>
<path fill-rule="evenodd" clip-rule="evenodd" d="M47.3394 49.8599C47.3394 49.8599 47.1084 49.9973 46.9873 50.5127C46.8661 51.0407 47.0961 51.6845 47.2292 51.8879C47.3623 52.0914 47.6644 52.6474 48.2911 52.6749C48.4462 52.6741 48.5996 52.6423 48.7422 52.5813C48.961 52.481 49.1662 52.3534 49.3529 52.2016C49.6228 51.9982 49.8425 51.8223 49.815 51.8056C49.749 51.778 48.1536 50.4576 48.1536 50.4576L47.5538 49.7881L47.3391 49.8606L47.3394 49.8599Z" fill="#585136"/>
<path fill-rule="evenodd" clip-rule="evenodd" d="M48.8451 52.0494C48.8451 52.0494 49.1697 52.0222 49.3623 51.9011C49.5548 51.7799 48.2344 50.4707 48.2344 50.4707L48.3279 51.8851L48.8451 52.0494Z" fill="#453A25"/>
<path fill-rule="evenodd" clip-rule="evenodd" d="M47.4439 49.7601C47.4439 49.7601 47.2789 50.0738 47.2789 50.1565C47.2513 50.426 47.334 51.2732 47.4 51.5426C47.466 51.8288 47.8236 52.2632 48.286 52.2632C48.5718 52.2632 48.9682 52.0874 48.9682 52.0435C48.9682 51.9883 48.5609 51.9347 48.451 51.7298C48.385 51.621 48.3575 51.3504 48.3422 51.077C48.3313 50.9011 48.3313 50.7085 48.3973 50.6418C48.546 50.4768 48.5732 50.0035 48.5732 50.0035L49.1013 49.0225H48.4068L47.5759 49.5396L47.4439 49.7601Z" fill="#84754B"/>
<path fill-rule="evenodd" clip-rule="evenodd" d="M47.2422 50.0633C47.2422 50.0633 47.7862 49.3427 48.2765 49.1773C48.7668 49.0119 48.9863 49.1113 48.9863 49.1113L48.7001 49.8431L48.2928 50.2943L48.3204 50.5253C48.3204 50.5253 48.254 51.136 48.6613 51.5596C49.0686 51.9832 49.371 51.9669 49.5473 51.9669C49.7236 51.9669 50.2295 51.8182 50.4881 51.2075C50.7191 50.6356 50.9116 49.9019 50.4496 49.1664C49.9981 48.4345 49.2006 48.4062 49.0465 48.4062C48.8923 48.4062 47.6821 48.4668 47.2422 50.0622V50.0633Z" fill="#252211"/>
<path fill-rule="evenodd" clip-rule="evenodd" d="M61.2038 52.5105C61.0003 52.417 61.1929 51.8451 61.3963 51.6688C61.5998 51.4925 61.8584 51.2894 62.3099 51.2615C62.4746 51.2506 62.6341 51.3551 62.6069 51.4653C62.5685 51.6688 62.2823 51.9549 62.0238 52.1584C61.6662 52.4391 61.4348 52.615 61.2038 52.5105Z" fill="#F7F7E7"/>
<path fill-rule="evenodd" clip-rule="evenodd" d="M50.2037 49.3913C50.3524 49.3804 50.545 49.5001 50.5834 49.6611C50.6219 49.837 50.4899 50.1892 50.2037 50.1892C49.9727 50.1892 49.8516 49.903 49.8516 49.8207C49.8542 49.753 49.8731 49.687 49.9067 49.6281C49.9176 49.6115 49.9451 49.4189 50.2037 49.3913Z" fill="#F8F6DE"/>
<path fill-rule="evenodd" clip-rule="evenodd" d="M48.0561 49.5186C48.0561 49.5186 47.6763 49.6944 47.5005 50.0626C47.3748 50.3344 47.3368 50.6386 47.3917 50.933C47.4192 51.0704 47.5567 51.4113 47.6502 51.5324C47.7438 51.6536 47.8704 51.7363 47.9639 51.725C48.0575 51.7138 48.2497 51.4664 48.2497 51.3181C48.2497 51.1698 48.261 50.5424 48.4423 50.2011C48.6019 49.8602 48.0571 49.5189 48.0571 49.5189L48.0561 49.5186Z" fill="#D4C38B"/>
<path fill-rule="evenodd" clip-rule="evenodd" d="M48.1139 49.491C48.0479 49.5294 47.938 49.5846 47.9652 49.656C47.9927 49.722 48.2238 49.7648 48.3065 49.9258C48.4 50.0909 48.4 50.2668 48.3725 50.3494C48.4443 50.3153 48.5095 50.2686 48.565 50.2116C48.6862 50.0742 48.8345 49.8874 48.9611 49.8874C49.0438 49.8874 49.1261 49.9258 49.2033 49.9258C49.3245 49.9258 49.4452 49.8874 49.4619 49.7608C49.4891 49.5958 49.2309 49.4471 49.0822 49.4747C49.1098 49.3659 49.1482 49.2052 49.0271 49.095C48.9059 48.9847 48.5266 49.1777 48.4439 49.2328C48.3612 49.2879 48.1139 49.4914 48.1139 49.4914V49.491Z" fill="#E2D59D"/>
<path fill-rule="evenodd" clip-rule="evenodd" d="M56.8558 61.05L57.67 60.8096L57.901 60.9746C57.901 60.9746 58.0657 61.3267 58.3246 61.3706C58.2419 61.5465 58.0272 61.697 58.0385 61.8218C58.0497 61.9465 58.1596 62.0419 58.1596 62.0419C58.1596 62.0419 57.4278 63.2521 58.8694 64.4718C58.5281 64.6092 58.0936 64.7982 57.8626 64.907C58.0272 64.9454 58.3794 65.0158 58.5281 65.1492C58.6768 65.2827 58.6768 65.3251 58.8142 65.4078C58.9517 65.4905 59.034 65.6004 59.0068 65.6497C58.9132 65.5946 58.5995 65.4299 58.5448 65.5837C58.49 65.7375 57.1859 65.6773 57.1859 65.6773L54.9852 66.1009C54.9852 66.1009 55.0675 65.8807 54.8365 65.6773C54.567 65.4354 54.237 65.6882 53.8849 65.4187C53.4228 65.0666 53.4061 64.6593 53.2578 64.5055C53.4061 64.4119 53.709 64.2745 54.4296 64.1791C54.402 64.124 54.3085 63.959 54.3636 63.8106C54.4296 63.6181 54.7045 63.4969 54.6222 63.2666C54.7433 63.2391 54.7981 63.2391 55.1009 62.8594C55.387 62.4797 55.5629 62.3973 55.7831 62.3698C56.0032 62.3422 56.1352 62.3698 56.5425 61.99C56.8283 61.7206 56.7351 61.4896 56.7351 61.4896C56.7351 61.4896 56.9218 61.429 56.8562 61.0493L56.8558 61.05Z" fill="#CBAC5A"/>
<path fill-rule="evenodd" clip-rule="evenodd" d="M54.4476 61.1721C54.4584 61.1169 54.5027 61.0894 54.7997 61.1169C55.0967 61.1445 56.9783 60.9411 57.49 60.9135C58.0071 60.875 59.8281 60.9022 60.7141 61.0894C61.6001 61.2765 62.4966 61.4967 62.9311 61.6065C63.3663 61.7277 63.5034 61.7712 63.4867 61.8263C63.4758 61.8814 63.3779 61.9351 63.3217 61.9199C63.2669 61.909 61.8253 61.4687 61.3799 61.3759C60.9346 61.283 59.3936 61.0346 58.5511 61.0495C57.7645 61.0607 57.4508 61.0386 56.7853 61.1155C56.1195 61.1982 55.0191 61.3081 54.6891 61.2642C54.3627 61.2257 54.4302 61.2257 54.4468 61.1706L54.4476 61.1721Z" fill="#D6BC6F"/>
<path fill-rule="evenodd" clip-rule="evenodd" d="M58.8777 65.4838C58.8777 65.4838 60.0056 66.0946 60.4128 66.8427C60.7099 67.3983 60.237 67.6736 60.237 67.6736C60.237 67.6736 60.8752 67.6736 60.7926 68.0258C60.7541 68.2455 59.6922 68.8396 58.9825 69.1533C58.2619 69.467 58.2894 69.4507 57.9373 69.5054C57.596 69.5606 56.6607 69.3966 56.4681 69.6705C56.2755 69.9443 56.3593 70.2264 56.413 70.2703C56.4681 70.3087 56.9138 70.3639 56.9138 70.3639C56.9138 70.3639 56.8203 70.6225 55.8962 70.65C54.9721 70.6776 54.7407 70.7432 54.6856 70.8426C54.6305 70.9358 54.8615 70.881 55.2855 70.9514C55.7091 71.0174 56.3031 71.0602 56.3031 71.0602C56.3031 71.0602 56.1105 71.2252 55.6101 71.3572C55.0378 71.5055 54.1409 71.6434 53.8714 71.8084C54.0089 71.9019 54.2127 72.0394 54.3066 72.0503C54.0756 72.1054 53.7507 72.2265 53.6959 72.2704C53.7782 72.3255 53.8885 72.3915 53.8885 72.3915C53.8885 72.3915 53.4261 72.9471 53.1566 73.085C52.8872 73.2228 51.3357 73.943 50.8018 73.8056C49.4705 73.4534 49.3055 71.9955 48.9809 71.8856C48.4913 71.7206 48.2603 72.0503 47.8254 71.8193C48.018 71.6818 48.1228 71.5995 48.3263 71.5059C48.1061 71.3971 46.9673 70.675 46.9673 70.675C46.8483 70.4155 46.7161 70.1621 46.5713 69.916C46.3512 69.5363 46.0273 69.03 45.7843 68.5843C45.2563 67.6051 45.2287 67.1539 44.75 66.5983C44.8327 66.4895 45.1185 66.5047 45.1185 66.5047L49.1296 67.8252L56.2418 68.0312L58.0914 65.3906L58.878 65.4842L58.8777 65.4838Z" fill="#DFC677"/>
<path fill-rule="evenodd" clip-rule="evenodd" d="M48.3438 69.5109C48.3867 69.5587 48.4367 69.5995 48.4921 69.632C48.6299 69.7256 48.8333 69.8358 48.9708 70.0005C49.0259 69.9182 49.1634 69.7695 49.406 70.0005C49.6486 70.2315 49.95 70.0669 50.1375 70.1216C50.3301 70.188 50.341 70.2152 50.341 70.2152C50.341 70.2152 50.4498 70.1216 50.6931 70.0226C50.8418 69.9675 51.0177 69.929 51.2103 69.8743C51.3862 69.8358 51.5787 69.7807 51.7111 69.7807C51.8322 69.863 52.2667 70.3247 54.0108 69.6433C55.6558 69.005 56.0352 68.9335 56.3104 69.0322C56.338 68.9662 56.3656 68.8396 56.7892 68.8563C56.7892 68.6804 56.437 68.0805 56.437 68.0805L54.4949 67.415H53.4327L50.2474 67.9982L48.4823 69.0053L48.3448 69.5131L48.3438 69.5109Z" fill="#C4A859"/>
<path fill-rule="evenodd" clip-rule="evenodd" d="M47.2812 68.3945C47.2812 68.3945 47.3197 68.6915 47.76 69.0052C48.1952 69.3186 48.3319 69.5057 48.3319 69.5057C48.3319 69.5057 48.4146 69.3969 48.4806 69.286C48.5466 69.1648 48.6017 69.0274 48.7116 68.9889C48.9317 68.8954 49.4322 69.0713 49.5425 69.0437C49.636 69.0165 49.6085 68.8239 49.7075 68.8239C49.9385 68.8127 50.0868 68.9722 50.1695 68.9722C50.2522 68.9722 50.4553 68.9614 50.4829 68.9175C50.5104 68.8736 50.5213 68.4166 50.835 68.1965C51.1763 67.9546 51.5944 68.0591 51.7054 68.1142C51.7054 68.1965 51.7163 68.4003 51.9364 68.4112C52.1566 68.4221 52.1783 68.3836 52.3716 68.4496C52.5649 68.5157 52.7952 68.4388 52.8997 68.763C52.9932 68.7358 53.2134 68.7082 53.1583 68.3945C53.2671 68.3122 53.3621 68.2571 53.5935 67.9325C53.6486 67.8502 53.7418 67.7566 53.8136 67.6355C54.0062 67.6355 54.2372 67.597 54.5451 67.8665C54.4515 67.9325 54.3964 67.9753 54.3692 68.0424C54.4497 68.1221 54.5233 68.2086 54.589 68.3009C54.6717 68.4097 54.7268 68.5432 54.8312 68.5708C55.0623 68.6368 55.442 68.5432 55.8656 68.5708C56.2728 68.5983 56.6138 68.7467 56.7624 68.8402C56.8176 68.813 56.8176 68.8018 56.955 68.8294C57.0925 68.8569 57.1969 68.8678 57.0486 68.6919C57.1309 68.7303 57.2245 68.813 57.3072 68.7303C57.3899 68.6477 57.4555 68.5269 57.6865 68.4993C57.9175 68.4718 58.0002 68.5102 58.0938 68.2683C58.2149 67.9713 57.7968 67.9713 57.7968 67.9713C57.7968 67.9713 57.9893 67.795 58.204 67.564C58.4626 67.3221 58.7596 67.0084 58.8311 66.6233C58.9522 65.9135 58.2592 65.8203 58.2592 65.8203L54.8976 66.8546L50.7879 66.6508L47.2834 68.3949L47.2812 68.3945Z" fill="#927D49"/>
<path fill-rule="evenodd" clip-rule="evenodd" d="M44.2655 58.6837C44.2655 58.6837 44.1567 58.8212 44.0896 59.1458C44.0225 59.4704 44.0512 59.4319 43.996 59.6629C43.9409 59.8939 43.2638 62.1936 43.5177 62.9694C43.7715 63.7451 44.2111 64.0312 44.486 64.6583C44.5411 64.7957 44.5948 64.8784 44.6234 64.9996C44.717 65.4065 44.6347 65.7202 44.7446 66.1275C44.783 66.2649 44.8824 66.4245 45.0307 66.5895C45.3571 66.9304 45.8892 67.255 46.1187 67.486C46.4429 67.8273 46.9053 68.5207 47.494 68.5863C47.8077 68.6248 48.2534 68.4928 48.6218 68.273C48.9482 68.0692 49.1499 67.7834 49.4922 67.6202C49.7341 67.4991 49.9927 67.4552 50.2237 67.4001C50.7025 67.3065 51.1373 67.2913 51.3959 67.3449C51.7919 67.4276 52.7272 67.7138 53.2455 67.7138C53.6504 67.7072 54.0531 67.6518 54.4448 67.5488C55.2314 67.3177 56.1831 66.9213 56.8105 66.7454C57.179 66.6366 57.476 66.608 57.7788 66.542C58.296 66.4209 58.7305 66.2558 58.9782 65.9421C58.8131 65.7496 58.6097 65.4525 57.509 65.4634C56.2603 65.491 54.8187 66.184 54.109 66.2943C53.3993 66.4045 53.0914 66.4977 52.2989 66.2116C51.5221 65.9226 51.4963 65.7314 51.4963 65.7314C51.4963 65.7314 50.6807 65.161 50.3394 63.7067C49.9982 62.2524 50.3394 61.1927 51.2254 60.1855C51.4565 59.9269 51.4013 59.6959 51.4013 59.6959C51.4013 59.6959 51.9845 58.9093 51.8249 58.1727C51.649 57.4409 50.5211 57.5896 50.5211 57.5896L44.2659 58.6837H44.2655Z" fill="#6E6342"/>
<path fill-rule="evenodd" clip-rule="evenodd" d="M45.1996 61.1318C45.1511 61.223 45.1283 61.3257 45.1336 61.4289C45.1444 61.5772 45.1887 61.7698 45.634 62.2046C46.0138 62.584 45.9311 63.0075 45.9311 63.0075C45.9311 63.0075 46.1222 63.046 46.6408 62.8034C47.0481 62.6108 47.1848 62.9521 47.1848 62.9521C47.3034 62.8899 47.4319 62.8489 47.5645 62.8309C47.6847 62.8199 47.801 62.7827 47.9054 62.7221C47.9054 62.7221 48.3841 63.2117 48.8023 63.4427C49.182 63.6466 49.4022 63.784 49.5893 63.6466C49.7652 63.5254 49.7652 63.2777 49.7539 63.1678C49.7103 63.0664 49.655 62.9704 49.5893 62.8817C49.4682 62.7058 49.2756 62.502 49.2629 62.3377C49.2353 61.9584 49.549 61.5068 49.4827 61.3969C49.4163 61.2871 49.1693 61.2595 48.5586 61.4796C47.9261 61.6885 45.197 61.1329 45.197 61.1329L45.1996 61.1318Z" fill="#39331F"/>
<path fill-rule="evenodd" clip-rule="evenodd" d="M46.6409 63.5914C46.6409 63.5914 46.3275 63.2943 46.4374 61.8527C46.5705 61.8508 46.7033 61.8637 46.8335 61.8912C46.8335 61.8912 47.0043 63.0082 46.6409 63.5914Z" fill="#292311"/>
<path fill-rule="evenodd" clip-rule="evenodd" d="M44.4113 57.5832C44.4551 57.5508 44.4956 57.5144 44.5325 57.4744C44.4237 57.6779 43.9214 58.492 44.3287 59.7741C44.7359 61.0503 45.759 62.0019 47.0189 62.0462C48.2788 62.0904 48.9411 61.4739 49.6983 60.5498C49.9953 60.1813 50.3366 59.7189 50.6391 59.4056C51.0902 58.9156 51.4424 58.7782 51.4424 58.3053C51.4424 57.3369 50.4519 56.9021 48.994 56.4676C47.5361 56.0332 46.2211 56.0868 45.5389 56.3842C44.8734 56.7084 44.5872 57.0497 44.411 57.5836L44.4113 57.5832Z" fill="#252211"/>
<path fill-rule="evenodd" clip-rule="evenodd" d="M49.0948 64.0258L49.2036 63.9707C49.2036 63.9707 49.2308 63.5355 49.4071 63.5471C49.583 63.5747 49.6657 63.806 49.649 63.8884C49.6381 63.9707 49.5942 64.1085 49.418 64.0918C49.187 64.0973 49.0938 64.0258 49.0938 64.0258H49.0948Z" fill="#3F3824"/>
<path fill-rule="evenodd" clip-rule="evenodd" d="M48.6016 62.1771C48.6016 62.1771 48.7104 62.1386 48.8435 62.2707C48.9523 62.2707 49.4266 62.2155 49.5753 62.3091C49.724 62.4027 49.7679 62.485 49.7679 62.485C49.7679 62.485 49.2123 62.6061 48.9095 62.485C48.6016 62.3805 48.6016 62.1771 48.6016 62.1771Z" fill="#2D2815"/>
<path fill-rule="evenodd" clip-rule="evenodd" d="M51.0496 62.2599C51.0496 62.2323 50.7525 62.0289 50.4388 61.9625C50.3837 61.9516 50.3725 61.9901 50.33 61.9901C50.3025 61.9792 50.2916 61.8965 50.2916 61.8965L50.1132 61.9904C50.1132 61.9904 50.0856 62.0289 50.1792 62.0992C50.2615 62.1652 50.3993 62.2203 50.4378 62.3302C50.4762 62.4401 50.4762 62.4786 50.4929 62.4952C50.5038 62.5061 50.6963 62.4952 50.7899 62.4401C50.8835 62.385 51.0597 62.2951 51.0485 62.2588L51.0496 62.2599Z" fill="#82764F"/>
<path fill-rule="evenodd" clip-rule="evenodd" d="M48.2734 63.377C48.2734 63.377 48.3282 62.9976 48.697 62.981C49.0764 62.9534 49.1482 63.3219 49.1482 63.3219L48.9281 63.542C48.9281 63.5366 48.763 63.3056 48.2753 63.377H48.2734Z" fill="#2D2816"/>
<path fill-rule="evenodd" clip-rule="evenodd" d="M50.6634 61.7425C50.6634 61.7425 50.4595 61.9627 50.0087 62.0287C49.9703 61.9736 49.8876 61.8637 50.0087 61.6878C50.1299 61.5119 50.2673 61.4568 50.4048 61.5115C50.4654 61.5213 50.522 61.5483 50.5678 61.5893C50.6136 61.6302 50.6468 61.6834 50.6634 61.7425Z" fill="#574F35"/>
<path fill-rule="evenodd" clip-rule="evenodd" d="M51.4995 62.0127C51.5107 61.9575 51.4723 61.9467 51.4995 61.9191C51.5267 61.8915 51.6757 61.8368 51.7033 61.864C51.7142 61.8752 51.7033 61.9191 51.7033 61.9728C51.7033 62.0265 51.7033 62.0816 51.6757 62.1211C51.6373 62.1762 51.5274 62.2038 51.4723 62.1875C51.4171 62.1712 51.4062 62.0939 51.4062 62.0787C51.4334 62.0678 51.4995 62.0402 51.4995 62.0127ZM52.4388 61.4186C52.4388 61.3911 52.5323 61.3359 52.5875 61.3359C52.6698 61.3359 52.6698 61.4019 52.681 61.4186C52.7082 61.4295 52.7082 61.4074 52.7358 61.4571C52.7633 61.5068 52.8022 61.5945 52.7742 61.6496C52.7463 61.7048 52.6368 61.7428 52.6096 61.732C52.5711 61.7044 52.45 61.4571 52.4388 61.4186Z" fill="#82764F"/>
<path fill-rule="evenodd" clip-rule="evenodd" d="M50.5469 62.139C50.5469 62.139 50.668 62.1662 50.833 62.304C50.7779 62.3425 50.6952 62.3864 50.6952 62.3864C50.6952 62.3864 50.6843 62.2598 50.5469 62.1387V62.139Z" fill="#6E6342"/>
<path fill-rule="evenodd" clip-rule="evenodd" d="M50.2778 60.928C50.2502 60.9008 50.3601 60.8348 50.4261 60.8457C50.4921 60.8566 50.5197 60.9008 50.5911 60.9117C50.6626 60.9226 50.6738 60.8842 50.6999 60.8566C50.726 60.829 50.8211 60.8457 50.8374 60.8566C50.8475 60.8687 50.8568 60.8815 50.8649 60.895C50.8661 60.8741 50.8716 60.8536 50.881 60.8349C50.8904 60.8162 50.9036 60.7996 50.9197 60.7862C50.9408 60.7707 50.9651 60.7602 50.9909 60.7554C51.0166 60.7507 51.0431 60.7518 51.0684 60.7587C51.0793 60.7971 51.1344 60.9346 51.1235 60.9621C51.1126 60.9897 50.9476 61.0285 50.9197 61.0006C50.9473 61.0669 51.0684 61.2044 51.0847 61.2316C51.101 61.2588 50.9636 61.3252 50.9088 61.3143C50.8319 61.3088 50.3587 61.0336 50.2763 60.9291L50.2778 60.928ZM50.9984 60.0148C50.9882 59.9871 50.9687 59.9638 50.9433 59.9488C50.9048 59.938 50.7783 59.9488 50.7783 60.0148C50.7783 60.0808 50.8871 60.45 51.0093 60.6423C51.1471 60.8348 51.2403 60.994 51.3339 61.0383C51.3633 61.0517 51.3966 61.0534 51.4272 61.0432C51.4578 61.033 51.4834 61.0115 51.4989 60.9832C51.5098 60.9556 51.5373 60.7521 51.5264 60.2734C51.5156 59.7947 51.4989 59.3327 51.4713 59.3051C51.4438 59.2775 51.3339 59.2779 51.2954 59.3327C51.257 59.3874 51.0093 59.9325 50.998 60.0148H50.9984Z" fill="#585136"/>
<path fill-rule="evenodd" clip-rule="evenodd" d="M50.5058 62.832C50.5058 62.832 50.3132 62.7108 50.1261 62.7935C49.9502 62.8762 49.9611 63.2008 49.9611 63.2008C50.0006 63.2163 50.0434 63.2219 50.0856 63.2171C50.1278 63.2123 50.1683 63.1972 50.2033 63.1732C50.3245 63.0909 50.4782 62.9535 50.5058 62.8323V62.832Z" fill="#574F35"/>
<path fill-rule="evenodd" clip-rule="evenodd" d="M50.8666 63.2668C50.8557 63.158 50.7578 63.158 50.7578 63.1017C50.7646 63.0749 50.7801 63.051 50.802 63.0341C50.8239 63.0171 50.8509 63.008 50.8786 63.0082C50.9337 63.0082 50.9874 63.0742 51.0548 63.117C51.1208 63.1554 51.2198 63.2258 51.2307 63.3096C51.2416 63.3933 51.1219 63.6229 50.9888 63.6229C50.8557 63.6229 50.8953 63.3752 50.8677 63.2653L50.8666 63.2668ZM51.9285 63.1181C51.9285 63.1181 51.7084 63.1841 51.7247 63.1181C51.741 63.0521 51.7911 63.0357 51.8625 63.0357C51.8988 62.9977 51.9476 62.9742 51.9999 62.9694C52.0299 62.9679 52.0593 62.9777 52.0823 62.9969C52.0823 62.9969 52.231 62.9309 52.2748 62.9694C52.3187 63.0078 52.2861 63.0078 52.3133 63.0521C52.3479 63.1012 52.3706 63.1577 52.3797 63.2171C52.3797 63.261 52.2146 63.3545 52.0823 63.3382C51.9285 63.3052 51.9557 63.1456 51.9285 63.1181ZM53.2102 62.8704C53.2102 62.8704 53.2762 62.9088 53.2214 62.953C53.183 62.9915 52.9904 63.0619 52.825 63.0742C52.66 63.0742 52.5117 63.1014 52.5117 63.0466C52.5117 62.9919 52.6491 62.8816 52.7314 62.854C52.748 62.8334 52.7689 62.8167 52.7928 62.8053C52.8167 62.7938 52.8428 62.7879 52.8693 62.788C52.9353 62.788 53.1935 62.7605 53.2653 62.7496C53.3313 62.7384 53.3864 62.7768 53.3476 62.8319C53.3313 62.8704 53.2102 62.8704 53.2102 62.8704ZM53.5899 61.1716C53.5899 61.1716 53.5072 61.3475 53.414 61.3475C53.3204 61.3366 53.3204 61.3091 53.3204 61.2815C53.3204 61.2431 53.414 61.1441 53.4027 61.1165C53.3755 61.1165 53.3092 61.1165 53.3204 61.0505C53.3204 60.9954 53.414 60.9294 53.4963 60.9417C53.5585 60.8906 53.636 60.8616 53.7164 60.8594C53.81 60.8594 53.8923 60.8866 53.8923 60.9417C53.8923 60.9968 53.7835 61.1176 53.7436 61.1455C53.6998 61.1894 53.6446 61.2181 53.5899 61.1727V61.1716ZM52.3354 64.4229C52.3354 64.4229 52.2266 64.4342 52.2266 64.4889C52.2266 64.5165 52.2538 64.5165 52.2926 64.5002C52.315 64.4989 52.3371 64.4952 52.3586 64.4889C52.3695 64.5002 52.3695 64.5549 52.4522 64.5549C52.5201 64.5458 52.5855 64.5234 52.6448 64.4889C52.7108 64.4617 52.7659 64.4338 52.7659 64.3801C52.7383 64.2866 52.6832 64.2423 52.6009 64.2423C52.5587 64.2397 52.5166 64.2492 52.4798 64.2699C52.4798 64.2699 52.4522 64.2148 52.3586 64.2699C52.2651 64.325 52.2759 64.325 52.3035 64.3526C52.3528 64.3965 52.3365 64.4251 52.3365 64.4251L52.3354 64.4229ZM51.7138 64.9952C51.7138 64.9677 51.8513 64.9125 51.8897 64.9292C51.9281 64.9401 52.038 65.149 52.038 65.1711C52.038 65.1987 51.9006 65.2647 51.8454 65.2647C51.7903 65.2647 51.6971 65.1711 51.6971 65.1559C51.6971 65.145 51.7631 65.1287 51.7631 65.1174C51.7794 65.0902 51.7138 65.0239 51.7138 64.9963V64.9952ZM51.2786 64.1919C51.3062 64.181 51.3062 64.1535 51.3446 64.1259C51.3566 64.1179 51.3704 64.1128 51.3847 64.1109C51.399 64.109 51.4136 64.1104 51.4273 64.115C51.437 64.0977 51.4504 64.0828 51.4666 64.0713C51.4828 64.0598 51.5013 64.0521 51.5209 64.0487C51.5869 64.0378 51.642 64.0487 51.6297 64.0762C51.6297 64.1589 51.6848 64.2137 51.6848 64.2797C51.6848 64.3457 51.6463 64.4284 51.5089 64.4835C51.3714 64.5219 51.1843 64.5219 51.1567 64.5111C51.1292 64.5002 51.1016 64.3899 51.1292 64.3348C51.1567 64.2797 51.2336 64.2195 51.2779 64.1919H51.2786Z" fill="#82764F"/>
<path fill-rule="evenodd" clip-rule="evenodd" d="M51.4562 64.2295C51.4562 64.2295 51.3626 64.2846 51.3626 64.3122C51.3543 64.3388 51.3507 64.3666 51.3518 64.3945C51.3518 64.4108 51.4729 64.3836 51.4892 64.3669C51.4946 64.3561 51.4562 64.2581 51.4562 64.2295Z" fill="#6E6342"/>
<path fill-rule="evenodd" clip-rule="evenodd" d="M50.6413 63.9711C50.696 63.9824 50.7896 63.9711 50.8611 63.9987C50.9162 64.0263 50.9546 64.0814 50.8995 64.1474C50.8444 64.2134 50.7907 64.3124 50.6685 64.2957C50.531 64.2849 50.399 64.2134 50.399 64.1583C50.3967 64.1234 50.4013 64.0884 50.4127 64.0554C50.424 64.0223 50.4418 63.9918 50.465 63.9657C50.5201 63.9218 50.5473 63.9494 50.6409 63.9711H50.6413Z" fill="#585136"/>
<path fill-rule="evenodd" clip-rule="evenodd" d="M50.5763 64.0264C50.5763 64.0264 50.4004 64.1638 50.3561 64.2302C50.301 64.2962 50.0315 64.6371 49.9492 64.7085C49.9766 64.6603 50.0077 64.6143 50.0424 64.5711C49.9336 64.6407 49.8521 64.7455 49.8114 64.8681C49.7454 65.0719 50.1802 65.1818 50.466 65.2645C50.7518 65.3472 50.8624 65.3733 50.8624 65.3733C50.7572 65.2152 50.6669 65.0476 50.5926 64.8728C50.4838 64.6143 50.4276 64.5867 50.499 64.4656C50.5542 64.3444 50.6368 64.2621 50.6368 64.1685C50.6038 64.0815 50.5763 64.0264 50.5763 64.0264Z" fill="#574F35"/>
<path fill-rule="evenodd" clip-rule="evenodd" d="M44.2976 64.4612C44.3376 64.4685 44.3787 64.4685 44.4187 64.4612C44.5011 64.4499 45.3595 64.1348 46.2564 64.1914C46.9278 64.2319 47.5932 64.3413 48.2423 64.5178C49.3702 64.8148 50.773 65.4034 51.6808 65.7392C51.9227 65.8324 52.1595 65.9978 52.3336 66.0634C53.027 66.3333 53.0542 66.3333 53.4615 66.4047C53.9402 66.4707 54.4298 66.3112 54.9415 66.2013C55.5686 66.0634 56.6413 65.9974 57.5821 65.86C57.8863 65.8178 58.1863 65.7498 58.479 65.6565C58.479 65.6565 57.7308 66.4047 55.937 66.6742C55.212 66.7843 54.4752 66.7936 53.7476 66.7017C53.1753 66.6466 52.796 66.5639 52.5098 66.4816C52.1852 66.388 51.5194 66.1403 50.6998 65.9376C50.1275 65.7889 49.4892 65.679 48.7577 65.5416C46.953 65.2112 44.9946 64.8318 44.2969 64.4634L44.2976 64.4612Z" fill="#252211"/>
<path fill-rule="evenodd" clip-rule="evenodd" d="M42.2778 61.0605C41.8426 61.429 41.381 61.7812 40.9302 62.1221L39.5712 63.1662C39.1092 63.5071 38.6581 63.8592 38.1957 64.2005C37.7333 64.5418 37.2716 64.866 36.7812 65.1797C37.2164 64.8112 37.6781 64.47 38.1402 64.1345C38.6022 63.799 39.0813 63.4701 39.527 63.1299L40.8859 62.0844C41.3534 61.7434 41.8045 61.3913 42.2778 61.0613V61.0605ZM39.8737 64.9117C39.8737 64.9117 40.3633 64.5044 40.974 63.9325C41.7331 63.2231 42.663 62.315 42.96 62.1504L39.8733 64.9121L39.8737 64.9117Z" fill="#CFB66C"/>
<path fill-rule="evenodd" clip-rule="evenodd" d="M39.875 64.9116C40.1173 64.6697 40.3758 64.4333 40.6344 64.2019L41.0305 63.861C41.1516 63.7522 41.2894 63.63 41.4102 63.5088C41.6521 63.2669 41.8889 63.008 42.1308 62.7606C42.2507 62.6363 42.3775 62.5187 42.5105 62.4085C42.577 62.3496 42.6509 62.2996 42.7303 62.2598C42.7966 62.2214 42.8681 62.151 42.9613 62.1387C42.9065 62.2214 42.8405 62.2598 42.7854 62.3312C42.7194 62.3864 42.6643 62.4524 42.6095 62.5071C42.4884 62.6283 42.3509 62.7382 42.2298 62.8484C41.9712 63.0685 41.7018 63.2836 41.4432 63.5139C41.1846 63.7442 40.9427 63.9926 40.6837 64.2236C40.4034 64.4605 40.1448 64.6915 39.875 64.9127V64.9116ZM43.1651 62.711C43.1651 62.711 41.3717 64.4663 41.0029 64.752L43.1651 62.711Z" fill="#CFB66C"/>
<path fill-rule="evenodd" clip-rule="evenodd" d="M43.1622 62.7109C43.0009 62.8977 42.8279 63.0741 42.6443 63.239L42.1003 63.7561C41.9244 63.932 41.7591 64.1083 41.5723 64.2842C41.3797 64.4492 41.2038 64.6106 41 64.7629L41.528 64.2457C41.7043 64.0698 41.8969 63.9215 42.084 63.7453L42.6121 63.2281C42.7934 63.0468 42.9696 62.8705 43.1622 62.7109ZM43.2445 63.6626C43.0792 64.1239 42.8844 64.5742 42.6614 65.0106C42.1993 65.935 41.5063 67.0901 41.2035 67.6791L43.2445 63.6626Z" fill="#CFB66C"/>
<path fill-rule="evenodd" clip-rule="evenodd" d="M43.2466 63.6631C43.2466 63.8665 43.1915 64.0428 43.1255 64.2187C43.0611 64.3947 42.9878 64.5674 42.9057 64.7359C42.823 64.9009 42.7294 65.0771 42.6359 65.2367C42.5423 65.3963 42.4324 65.5609 42.3497 65.7263L41.7941 66.7055C41.6015 67.0319 41.4144 67.3601 41.2109 67.6738C41.3484 67.3217 41.5355 66.9916 41.7118 66.6671C41.9044 66.3407 42.0802 66.0143 42.2558 65.6766C42.3415 65.5084 42.4186 65.3359 42.4868 65.1598C42.5691 64.9836 42.6514 64.8185 42.7178 64.659C42.8001 64.4831 42.8661 64.3177 42.9488 64.1585C43.042 63.9877 43.1193 63.8227 43.2459 63.6631H43.2466Z" fill="#CFB66C"/>
<path fill-rule="evenodd" clip-rule="evenodd" d="M45.2044 68.1738C45.2044 68.1738 44.6604 68.8944 44.7148 69.8076C44.8631 69.3293 45.0502 68.5974 45.2044 68.1738ZM45.7215 68.8963C45.7215 68.8963 45.5289 70.8547 45.3694 71.8175C45.595 70.7045 45.6388 70.7981 45.7215 68.8963ZM49.325 71.9332C49.325 71.9332 48.5108 74.3268 48.4941 74.992C48.6704 74.308 49.0113 72.9106 49.325 71.9314V71.9332Z" fill="#DEC270"/>
<path fill-rule="evenodd" clip-rule="evenodd" d="M51.2266 68.0264C51.2266 68.0264 52.547 70.2049 53.5375 72.0643C53.2695 71.1286 52.6529 69.4125 51.2266 68.0264Z" fill="#CBAF59"/>
<path fill-rule="evenodd" clip-rule="evenodd" d="M54.7734 71.2334C55.4984 72.5149 56.1522 73.8355 56.7318 75.189C56.6219 74.2537 56.3246 72.6529 54.7734 71.2334Z" fill="#E3C677"/>
<path fill-rule="evenodd" clip-rule="evenodd" d="M65.2087 74.4452C65.4285 74.3077 65.8633 73.5592 66.243 73.3724C66.6224 73.1798 66.9085 73.1414 67.2498 72.7617C67.5907 72.3653 67.685 72.1234 68.4325 71.81C69.478 71.3585 68.7589 70.7753 68.7589 70.7753C68.874 70.6622 68.9972 70.5575 69.1273 70.462C69.3972 70.2585 69.7105 70.0108 69.6833 69.576C69.6449 68.8445 69.5074 67.7826 68.9076 67.1664C69.4907 67.0453 70.6074 66.963 71.3012 66.7871C72.1041 66.5833 72.4729 66.2971 72.4729 66.2971C72.4729 66.2971 72.0109 65.5105 72.7591 64.7184C73.5073 63.9264 74.118 63.4531 74.5691 62.5671C74.052 62.5011 73.2635 62.2262 71.2515 62.9907C71.3601 63.0418 71.4649 63.1006 71.5652 63.1666C71.5652 63.1666 70.3274 63.5079 69.8762 63.8876C69.0893 64.5531 68.9902 65.0978 68.1376 65.5051C67.285 65.9123 66.4266 65.8021 65.7172 66.1321C65.0078 66.4621 64.903 66.7429 64.644 66.864C64.6992 66.93 64.6332 67.0399 64.7376 67.1334C64.6716 67.227 64.2865 67.8541 63.8959 67.8541C63.9343 68.0028 64.2643 68.1126 64.2643 68.1126C64.2643 68.1126 64.0224 68.2889 63.4063 68.3328C63.7196 68.6592 64.017 69.015 64.8366 69.5321C64.7706 69.6696 64.4954 69.8734 64.6056 70.132C64.7267 70.3906 65.0408 70.7427 66.2945 71.0288C65.6562 71.056 64.9084 71.2047 63.9009 71.0673C62.8942 70.9462 62.7292 70.8747 62.1076 71.0288C62.1736 71.0949 62.3495 71.0949 62.5036 71.2707C62.3386 71.2816 61.3043 71.1496 60.9521 71.612C60.5836 72.0904 60.4241 72.8774 60.4516 73.4054C60.259 73.499 60.0719 73.664 60.1655 74.0053C60.259 74.3465 60.7486 74.4564 61.0624 74.6707C61.3757 74.9018 61.4033 74.9841 61.7006 74.9293C62.014 74.8633 62.476 74.55 62.7459 74.55C63.0157 74.55 63.2079 74.7534 63.2079 74.7534C63.2079 74.7534 63.9398 74.4013 64.0112 74.4673C64.0772 74.5333 64.0221 74.9569 64.0935 75.0229C64.1661 75.0726 64.9904 74.583 65.2105 74.4452H65.2087Z" fill="#ECD592"/>
<path fill-rule="evenodd" clip-rule="evenodd" d="M81.198 52.4289C77.7595 43.5494 69.2593 41.9043 69.2593 41.9043H45.0082L45.1017 50.9488H49.9314V71.1454H45.0078V80.1736H68.588C74.271 80.1736 78.8265 74.4627 78.8265 74.4627C86.1215 64.1089 81.1976 52.4289 81.1976 52.4289H81.198ZM68.7146 68.3779C68.7146 68.3779 66.865 71.0464 64.8526 71.0464H60.827L60.7316 50.971H65.8978C65.8978 50.971 68.2914 51.4714 69.9636 56.2082C69.9636 56.2082 72.1806 62.9901 68.7146 68.3779Z" fill="white" fill-opacity="0.8"/>
</g>
</g>
</g>
<defs>
<clipPath id="clip0_6009_25439">
<rect width="73" height="68" fill="white" transform="translate(26 26.791)"/>
</clipPath>
<clipPath id="clip1_6009_25439">
<rect width="73" height="68" fill="white" transform="translate(26 26.791)"/>
</clipPath>
<clipPath id="clip2_6009_25439">
<rect width="68" height="68" fill="white" transform="translate(28.5 26.791)"/>
</clipPath>
</defs>
</svg>
