<svg width="125" height="121" viewBox="0 0 125 121" fill="none" xmlns="http://www.w3.org/2000/svg">
<rect x="0.5" y="1.29102" width="124" height="119" rx="9.5" stroke="#767A81"/>
<g clip-path="url(#clip0_6009_25425)">
<g clip-path="url(#clip1_6009_25425)">
<g clip-path="url(#clip2_6009_25425)">
<path d="M93.8984 47.2759C90.7109 44.3328 86.3016 39.8384 82.7103 36.6509L82.4978 36.5022C82.1442 36.2183 81.7456 35.9956 81.3184 35.8434C72.6591 34.2284 32.3584 26.6953 31.5722 26.7909C31.3519 26.8218 31.1413 26.9017 30.9559 27.0247L30.7541 27.1841C30.5055 27.4365 30.3167 27.7415 30.2016 28.0766L30.1484 28.2147V28.9691V29.0859C34.6853 41.7191 52.5991 83.1034 56.1266 92.8147C56.3391 93.4734 56.7428 94.7272 57.4972 94.7909H57.6672C58.0709 94.7909 59.7922 92.5172 59.7922 92.5172C59.7922 92.5172 90.5622 55.2022 93.6753 51.2284C94.0783 50.739 94.434 50.2124 94.7378 49.6559C94.8154 49.2205 94.7788 48.7724 94.6317 48.3554C94.4846 47.9383 94.232 47.5664 93.8984 47.2759ZM67.6866 51.6216L80.8191 40.7309L88.5222 47.8284L67.6866 51.6216ZM62.5866 50.9097L39.9766 32.3797L76.5584 39.1266L62.5866 50.9097ZM64.6266 55.7653L87.7678 52.0359L61.3116 83.9109L64.6266 55.7653ZM36.9059 34.2284L60.6953 54.4159L57.2528 83.9322L36.9059 34.2284Z" fill="#FF060A"/>
</g>
</g>
</g>
<defs>
<clipPath id="clip0_6009_25425">
<rect width="73" height="68" fill="white" transform="translate(26 26.791)"/>
</clipPath>
<clipPath id="clip1_6009_25425">
<rect width="73" height="68" fill="white" transform="translate(26 26.791)"/>
</clipPath>
<clipPath id="clip2_6009_25425">
<rect width="68" height="68" fill="white" transform="translate(28.5 26.791)"/>
</clipPath>
</defs>
</svg>
