<svg width="25" height="26" viewBox="0 0 25 26" fill="none" xmlns="http://www.w3.org/2000/svg">
<g clip-path="url(#clip0_6010_11722)">
<g clip-path="url(#clip1_6010_11722)">
<g clip-path="url(#clip2_6010_11722)">
<path d="M24.626 16.1955C22.9563 22.8927 16.1731 26.9685 9.47506 25.2985C2.77982 23.6288 -1.29599 16.8452 0.374399 10.1485C2.04332 3.45047 8.82654 -0.625646 15.5225 1.04401C22.2201 2.71366 26.2956 9.49804 24.6258 16.1956L24.6259 16.1955H24.626Z" fill="#F7931A"/>
<path d="M18.0117 11.3903C18.2605 9.72668 16.9939 8.8324 15.2619 8.23582L15.8238 5.98225L14.452 5.64042L13.905 7.83466C13.5444 7.74472 13.174 7.65996 12.8059 7.57594L13.3569 5.36722L11.9859 5.02539L11.4237 7.27824C11.1253 7.21029 10.8321 7.14313 10.5478 7.07237L10.5493 7.06528L8.65758 6.59287L8.29265 8.05807C8.29265 8.05807 9.31043 8.29137 9.28898 8.30573C9.84449 8.44438 9.94495 8.81211 9.92827 9.10359L9.28825 11.6709C9.3265 11.6807 9.37612 11.6947 9.43087 11.7167C9.3851 11.7053 9.3364 11.6929 9.28587 11.6808L8.38877 15.2773C8.32088 15.4461 8.14857 15.6994 7.76018 15.6032C7.77393 15.6231 6.76312 15.3544 6.76312 15.3544L6.08203 16.9247L7.86723 17.3697C8.19934 17.453 8.52479 17.5401 8.84529 17.6221L8.27762 19.9015L9.64786 20.2433L10.21 17.9881C10.5844 18.0897 10.9476 18.1835 11.3033 18.2718L10.743 20.5164L12.1149 20.8582L12.6825 18.5831C15.0217 19.0258 16.7807 18.8473 17.521 16.7315C18.1176 15.028 17.4913 14.0454 16.2607 13.4046C17.157 13.1979 17.8322 12.6084 18.0122 11.3905L18.0118 11.3902L18.0117 11.3903ZM14.8774 15.7854C14.4535 17.4889 11.5853 16.5681 10.6554 16.3372L11.4087 13.3173C12.3385 13.5495 15.3205 14.0088 14.8775 15.7854H14.8774ZM15.3017 11.3657C14.9149 12.9152 12.5277 12.128 11.7533 11.9349L12.4363 9.1961C13.2107 9.38913 15.7045 9.74941 15.3018 11.3657H15.3017Z" fill="white"/>
</g>
</g>
</g>
<defs>
<clipPath id="clip0_6010_11722">
<rect width="25" height="25" fill="white" transform="translate(0 0.669922)"/>
</clipPath>
<clipPath id="clip1_6010_11722">
<rect width="25" height="25" fill="white" transform="translate(0 0.669922)"/>
</clipPath>
<clipPath id="clip2_6010_11722">
<rect width="25" height="25.0028" fill="white" transform="translate(0 0.669922)"/>
</clipPath>
</defs>
</svg>
