<svg width="16" height="17" viewBox="0 0 16 17" fill="none" xmlns="http://www.w3.org/2000/svg">
<g clip-path="url(#clip0_6010_11736)">
<g clip-path="url(#clip1_6010_11736)">
<path fill-rule="evenodd" clip-rule="evenodd" d="M4.69922 13.75C4.99722 13.75 5.28422 13.868 5.49422 14.079C5.70422 14.29 5.82422 14.576 5.82422 14.875C5.82422 15.174 5.70522 15.46 5.49422 15.671C5.28322 15.882 4.99722 16 4.69922 16C4.40122 16 4.11422 15.882 3.90322 15.671C3.69222 15.46 3.57422 15.174 3.57422 14.875C3.57422 14.576 3.69322 14.29 3.90322 14.079C4.11322 13.868 4.40022 13.75 4.69922 13.75ZM12.1992 13.75C12.4972 13.75 12.7842 13.868 12.9952 14.079C13.2062 14.29 13.3242 14.576 13.3242 14.875C13.3242 15.174 13.2062 15.46 12.9952 15.671C12.7842 15.882 12.4982 16 12.1992 16C11.9002 16 11.6142 15.882 11.4042 15.671C11.1942 15.46 11.0742 15.174 11.0742 14.875C11.0742 14.576 11.1932 14.29 11.4042 14.079C11.6152 13.868 11.9012 13.75 12.1992 13.75ZM1.42822 1C1.99721 1.00008 2.54504 1.21572 2.9614 1.60352C3.37777 1.99131 3.63176 2.52245 3.67222 3.09L3.68322 3.25H13.9262C14.146 3.24996 14.3631 3.29822 14.5622 3.39136C14.7612 3.4845 14.9374 3.62025 15.0782 3.789C15.219 3.95776 15.3211 4.15541 15.377 4.36796C15.433 4.58051 15.4416 4.80276 15.4022 5.019L14.1742 11.769C14.1114 12.1147 13.9293 12.4274 13.6596 12.6526C13.3898 12.8777 13.0496 13.001 12.6982 13.001H4.27222C3.89295 13.001 3.52777 12.8572 3.2502 12.5988C2.97263 12.3403 2.80327 11.9863 2.77622 11.608L2.17622 3.198C2.16304 3.00841 2.07838 2.83089 1.93934 2.70132C1.80031 2.57175 1.61727 2.4998 1.42722 2.5H1.32422C1.12531 2.5 0.934541 2.42098 0.793889 2.28033C0.653236 2.13968 0.574219 1.94891 0.574219 1.75C0.574219 1.55109 0.653236 1.36032 0.793889 1.21967C0.934541 1.07902 1.12531 1 1.32422 1H1.42822ZM13.9262 4.75H3.79022L4.27222 11.5H12.6982L13.9262 4.75Z" fill="#1C1C1C"/>
</g>
</g>
<defs>
<clipPath id="clip0_6010_11736">
<rect width="16" height="16" fill="white" transform="translate(0 0.5)"/>
</clipPath>
<clipPath id="clip1_6010_11736">
<rect width="16" height="16" fill="white" transform="translate(0 0.5)"/>
</clipPath>
</defs>
</svg>
