<svg width="20" height="19" viewBox="0 0 20 19" fill="none" xmlns="http://www.w3.org/2000/svg">
<g clip-path="url(#clip0_6010_10252)">
<g clip-path="url(#clip1_6010_10252)">
<g clip-path="url(#clip2_6010_10252)">
<path d="M5.6963 5.68814C4.67591 4.65387 4.67591 2.97405 5.6963 1.93978C5.937 1.69418 6.22429 1.49907 6.54134 1.36587C6.85838 1.23267 7.19882 1.16406 7.54271 1.16406C7.8866 1.16406 8.22704 1.23267 8.54408 1.36587C8.86113 1.49907 9.14842 1.69418 9.38912 1.93978L10.0034 2.56451L10.6178 1.93978C10.8585 1.69418 11.1457 1.49907 11.4628 1.36587C11.7798 1.23267 12.1203 1.16406 12.4642 1.16406C12.8081 1.16406 13.1485 1.23267 13.4655 1.36587C13.7826 1.49907 14.0699 1.69418 14.3106 1.93978C15.331 2.97405 15.331 4.65387 14.3106 5.68814L10.7843 9.26991C10.5692 9.48856 10.288 9.59616 10.0034 9.59616C9.71884 9.59616 9.43771 9.48856 9.22253 9.26991L5.6963 5.68814ZM19.7283 12.6087C20.183 13.2265 20.0511 14.0942 19.4333 14.5488L15.0394 17.787C14.2273 18.384 13.2485 18.7068 12.2386 18.7068H6.67156H1.11844C0.97255 18.7069 0.828067 18.6783 0.693258 18.6225C0.558449 18.5667 0.43596 18.4849 0.332802 18.3818C0.229644 18.2786 0.147841 18.1561 0.0920753 18.0213C0.0363097 17.8865 0.00767603 17.742 0.00781299 17.5961V15.3749C0.00767603 15.229 0.0363097 15.0845 0.0920753 14.9497C0.147841 14.8149 0.229644 14.6924 0.332802 14.5892C0.43596 14.4861 0.558449 14.4043 0.693258 14.3485C0.828067 14.2927 0.97255 14.2641 1.11844 14.2643H2.39566L3.954 13.0148C4.74185 12.3831 5.72059 12.043 6.73057 12.043H9.44812H10.0034H12.2247C12.5192 12.043 12.8017 12.16 13.01 12.3683C13.2183 12.5766 13.3353 12.8591 13.3353 13.1536C13.3353 13.4482 13.2183 13.7307 13.01 13.939C12.8017 14.1472 12.5192 14.2643 12.2247 14.2643H10.0034H9.44812C9.1427 14.2643 8.89281 14.5141 8.89281 14.8196C8.89281 15.125 9.1427 15.3749 9.44812 15.3749H13.6338L17.7882 12.3137C18.406 11.8591 19.2737 11.9909 19.7283 12.6087Z" fill="#FE7FB6"/>
</g>
</g>
</g>
<defs>
<clipPath id="clip0_6010_10252">
<rect width="20" height="17.77" fill="white" transform="translate(0 0.936523)"/>
</clipPath>
<clipPath id="clip1_6010_10252">
<rect width="20" height="17.77" fill="white" transform="translate(0 0.936523)"/>
</clipPath>
<clipPath id="clip2_6010_10252">
<rect width="19.9912" height="17.77" fill="white" transform="translate(0.0078125 0.936523)"/>
</clipPath>
</defs>
</svg>
