<svg width="22" height="16" viewBox="0 0 22 16" fill="none" xmlns="http://www.w3.org/2000/svg">
<g clip-path="url(#clip0_6010_11744)">
<g clip-path="url(#clip1_6010_11744)">
<path d="M18.6437 8L16.9007 6.007L17.1437 3.371L14.5647 2.785L13.2147 0.5L10.7867 1.543L8.35769 0.5L7.00769 2.779L4.42869 3.358L4.67269 6L2.92969 8L4.67269 9.993L4.42969 12.636L7.00869 13.222L8.35869 15.501L10.7877 14.451L13.2167 15.494L14.5667 13.215L17.1457 12.629L16.9027 9.993L18.6437 8ZM8.91469 10.864L7.21469 9.15C7.14834 9.08392 7.09571 9.00538 7.05984 8.91888C7.02397 8.83238 7.00557 8.73964 7.00569 8.646C7.00557 8.55236 7.02397 8.45962 7.05984 8.37312C7.09571 8.28662 7.14834 8.20808 7.21469 8.142L7.26469 8.092C7.39954 7.95826 7.58177 7.88322 7.77169 7.88322C7.96161 7.88322 8.14384 7.95826 8.27869 8.092L9.42869 9.249L13.1077 5.563C13.2425 5.42926 13.4248 5.35423 13.6147 5.35423C13.8046 5.35423 13.9868 5.42926 14.1217 5.563L14.1717 5.613C14.2381 5.67898 14.2907 5.75743 14.3267 5.84384C14.3626 5.93025 14.3811 6.02291 14.3811 6.1165C14.3811 6.21008 14.3626 6.30275 14.3267 6.38916C14.2907 6.47557 14.2381 6.55402 14.1717 6.62L9.94269 10.863C9.64969 11.142 9.19969 11.142 8.91369 10.863L8.91469 10.864Z" fill="#51AF95"/>
</g>
</g>
<defs>
<clipPath id="clip0_6010_11744">
<rect width="22" height="16" fill="white"/>
</clipPath>
<clipPath id="clip1_6010_11744">
<rect width="17" height="16" fill="white" transform="translate(2.5)"/>
</clipPath>
</defs>
</svg>
