<svg width="20" height="21" viewBox="0 0 20 21" fill="none" xmlns="http://www.w3.org/2000/svg">
<g clip-path="url(#clip0_6010_10260)">
<g clip-path="url(#clip1_6010_10260)">
<g clip-path="url(#clip2_6010_10260)">
<path d="M19.6875 10.9365C19.6875 16.2881 15.3516 20.624 10 20.624C4.64844 20.624 0.3125 16.2881 0.3125 10.9365C0.3125 5.58496 4.64844 1.24902 10 1.24902C15.3516 1.24902 19.6875 5.58496 19.6875 10.9365ZM14.1523 9.55762C14.3438 8.26855 13.3633 7.57715 12.0195 7.1123L12.4531 5.36621L11.3906 5.10059L10.9648 6.7998C10.6836 6.72949 10.3984 6.66309 10.1133 6.60059L10.5391 4.88965L9.47656 4.62402L9.03906 6.37012L8.35938 6.20996V6.20605L6.89453 5.83887L6.61328 6.97559C6.61328 6.97559 7.40234 7.15527 7.38672 7.16699C7.81641 7.27637 7.89453 7.55762 7.88281 7.78418L7.38672 9.77246C7.41797 9.78027 7.45312 9.79199 7.49609 9.80762C7.46094 9.7998 7.42188 9.78809 7.38281 9.78027L6.6875 12.5654C6.63672 12.6943 6.5 12.8936 6.19922 12.8193C6.21094 12.835 5.42578 12.6279 5.42578 12.6279L4.89844 13.8428L6.28125 14.1865L7.03906 14.3818L6.59766 16.1475L7.66016 16.4131L8.09766 14.667C8.37941 14.743 8.66198 14.8159 8.94531 14.8857L8.51172 16.624L9.57422 16.8896L10.0156 15.1279C11.8281 15.4717 13.1914 15.3311 13.7656 13.6943C14.2266 12.374 13.7422 11.6123 12.7891 11.1162C13.4844 10.9561 14.0078 10.499 14.1445 9.55762H14.1523ZM11.7227 12.9639C11.3945 14.2842 9.17188 13.5693 8.44922 13.3896L9.03125 11.0498C9.75 11.2295 12.0625 11.585 11.7188 12.9639H11.7227ZM12.0508 9.53809C11.75 10.7373 9.90234 10.1279 9.30078 9.97949L9.82812 7.8584C10.4297 8.00684 12.3594 8.28809 12.0469 9.53809H12.0508Z" fill="#FE7FB6"/>
</g>
</g>
</g>
<defs>
<clipPath id="clip0_6010_10260">
<rect width="20" height="20" fill="white" transform="translate(0 0.936523)"/>
</clipPath>
<clipPath id="clip1_6010_10260">
<rect width="20" height="20" fill="white" transform="translate(0 0.936523)"/>
</clipPath>
<clipPath id="clip2_6010_10260">
<rect width="20" height="20" fill="white" transform="translate(0 0.936523)"/>
</clipPath>
</defs>
</svg>
