<svg width="20" height="31" viewBox="0 0 20 31" fill="none" xmlns="http://www.w3.org/2000/svg">
<g clip-path="url(#clip0_6010_10208)">
<g clip-path="url(#clip1_6010_10208)">
<g clip-path="url(#clip2_6010_10208)">
<path d="M16.8799 14.8428L10.9949 28.5794C10.9116 28.7828 10.7699 28.9578 10.5866 29.0794C10.4032 29.2011 10.1899 29.2694 9.9699 29.2694C9.7499 29.2694 9.5349 29.2044 9.35156 29.0811C9.16823 28.9578 9.02656 28.7844 8.94323 28.5811L3.10156 14.8428" stroke="#FE7FB6" stroke-width="1.66667" stroke-linecap="round" stroke-linejoin="round"/>
<path d="M5.64094 15.6627C6.79927 15.6627 7.91016 15.2026 8.72923 14.3835C9.54829 13.5645 10.0084 12.4536 10.0084 11.2952C10.0084 10.1369 9.54829 9.02601 8.72923 8.20695C7.91016 7.38788 6.79927 6.92773 5.64094 6.92773C4.4826 6.92773 3.37171 7.38788 2.55265 8.20695C1.73358 9.02601 1.27344 10.1369 1.27344 11.2952C1.27344 12.4536 1.73358 13.5645 2.55265 14.3835C3.37171 15.2026 4.4826 15.6627 5.64094 15.6627Z" stroke="#FE7FB6" stroke-width="1.66667" stroke-linejoin="round"/>
<path d="M5.64062 6.95018C5.64151 5.79765 6.09974 4.69257 6.91471 3.8776C7.72968 3.06263 8.83476 2.6044 9.98729 2.60352C11.1398 2.6044 12.2449 3.06263 13.0599 3.8776C13.8748 4.69257 14.3331 5.79765 14.334 6.95018" stroke="#FE7FB6" stroke-width="1.66667" stroke-linecap="round" stroke-linejoin="round"/>
<path d="M14.3597 15.6627C15.518 15.6627 16.6289 15.2026 17.448 14.3835C18.267 13.5645 18.7272 12.4536 18.7272 11.2952C18.7272 10.1369 18.267 9.02601 17.448 8.20695C16.6289 7.38788 15.518 6.92773 14.3597 6.92773C13.2014 6.92773 12.0905 7.38788 11.2714 8.20695C10.4523 9.02601 9.99219 10.1369 9.99219 11.2952C9.99219 12.4536 10.4523 13.5645 11.2714 14.3835C12.0905 15.2026 13.2014 15.6627 14.3597 15.6627Z" stroke="#FE7FB6" stroke-width="1.66667" stroke-linejoin="round"/>
</g>
</g>
</g>
<defs>
<clipPath id="clip0_6010_10208">
<rect width="20" height="30" fill="white" transform="translate(0 0.936523)"/>
</clipPath>
<clipPath id="clip1_6010_10208">
<rect width="20" height="30" fill="white" transform="translate(0 0.936523)"/>
</clipPath>
<clipPath id="clip2_6010_10208">
<rect width="20" height="30" fill="white" transform="translate(0 0.936523)"/>
</clipPath>
</defs>
</svg>
