<svg width="20" height="18" viewBox="0 0 20 18" fill="none" xmlns="http://www.w3.org/2000/svg">
<g clip-path="url(#clip0_6010_10236)">
<g clip-path="url(#clip1_6010_10236)">
<g clip-path="url(#clip2_6010_10236)">
<path fill-rule="evenodd" clip-rule="evenodd" d="M19.8001 6.49363C19.8001 3.46273 18.4496 1.2015 16.3472 0.378528C14.4025 -0.384471 12.0669 0.18639 10.0055 2.11555C7.94422 0.18639 5.60969 -0.384471 3.66387 0.378528C1.56146 1.2015 0.210938 3.46273 0.210938 6.49252C0.210938 8.42278 1.24049 10.322 2.52215 11.9568C3.81825 13.6083 5.44753 15.0876 6.80694 16.1916L6.92911 16.2916C8.02196 17.1801 8.81273 17.822 10.0055 17.822C11.1984 17.822 11.988 17.1801 13.0831 16.2916L13.2052 16.1916C14.5647 15.0888 16.1939 13.6094 17.49 11.9579C18.7717 10.3231 19.8013 8.4239 19.8013 6.49474L19.8001 6.49363ZM10.5053 3.54936C12.43 1.49137 14.4247 1.09266 15.8496 1.65019C17.2746 2.20773 18.4341 3.8459 18.4341 6.49252C18.4341 7.96077 17.6322 9.55784 16.4127 11.1116C15.2066 12.6509 13.665 14.057 12.3434 15.1287C11.074 16.1583 10.6641 16.4526 10.0055 16.4526C9.34694 16.4526 8.93712 16.1583 7.66767 15.1276C6.34603 14.0559 4.80448 12.6498 3.59834 11.1116C2.37777 9.55673 1.57701 7.95854 1.57701 6.49141C1.57701 3.84479 2.73206 2.20884 4.16143 1.64908C5.59081 1.08933 7.58216 1.48915 9.50687 3.54825C9.57129 3.61711 9.64792 3.67153 9.73455 3.70818C9.82118 3.74483 9.91336 3.76482 10.0067 3.76482C10.0999 3.76482 10.1932 3.74594 10.2788 3.70818C10.3643 3.67042 10.442 3.616 10.5064 3.54825L10.5053 3.54936Z" fill="#FE7FB6"/>
</g>
</g>
</g>
<defs>
<clipPath id="clip0_6010_10236">
<rect width="20" height="17.77" fill="white" transform="translate(0 0.0517578)"/>
</clipPath>
<clipPath id="clip1_6010_10236">
<rect width="20" height="17.77" fill="white" transform="translate(0 0.0517578)"/>
</clipPath>
<clipPath id="clip2_6010_10236">
<rect width="19.9912" height="17.77" fill="white" transform="translate(0.0078125 0.0517578)"/>
</clipPath>
</defs>
</svg>
