<svg width="20" height="21" viewBox="0 0 20 21" fill="none" xmlns="http://www.w3.org/2000/svg">
<g clip-path="url(#clip0_6010_10228)">
<g clip-path="url(#clip1_6010_10228)">
<g clip-path="url(#clip2_6010_10228)">
<path d="M10.0013 1.60277L10.435 1.09652C10.3138 0.992773 10.16 0.936523 10.0013 0.936523C9.8425 0.936523 9.68875 0.992773 9.5675 1.09652L10.0013 1.60277ZM0.6675 9.60277L0.23375 9.09652L0 9.29652V9.60277H0.6675ZM7.33375 20.269V20.9365C7.51 20.9365 7.68 20.8665 7.805 20.7415C7.93 20.6165 8 20.4465 8 20.2703H7.33375V20.269ZM12.6675 20.269H12.0013C12.0013 20.4453 12.0712 20.6153 12.1962 20.7403C12.3212 20.8653 12.4913 20.9353 12.6675 20.9353V20.269ZM19.3337 9.60277H20.0012V9.29652L19.7675 9.09652L19.3337 9.60277ZM2.00125 20.9365H7.33375L7.335 19.6028H2.00125V20.9365ZM19.7675 9.09652L10.435 1.09652L9.56875 2.11027L18.9025 10.1103L19.7688 9.09652H19.7675ZM9.5675 1.09652L0.23375 9.09652L1.1 10.1103L10.4338 2.11027L9.5675 1.09652ZM8 20.2703L8.00125 16.2703H6.6675V20.2703H8ZM12.0013 16.2703V20.2703H13.335V16.2703H12.0013ZM12.6675 20.9365H18.0012V19.6028H12.6675V20.9365ZM20.0012 18.9365V9.60277H18.6675V18.9365H20.0012ZM0.00125 9.60277V18.9365H1.335V9.60277H0.00125ZM10.0013 14.269C10.5317 14.269 11.0404 14.4797 11.4155 14.8548C11.7905 15.2299 12.0013 15.7386 12.0013 16.269H13.335C13.335 15.3853 12.9838 14.5365 12.3588 13.9115C11.7338 13.2865 10.885 12.9365 10.0013 12.9365V14.269ZM10.0013 12.9365C9.1175 12.9365 8.26875 13.2878 7.64375 13.9128C7.01875 14.5378 6.6675 15.3853 6.6675 16.2703H8.00125C8.00125 15.7398 8.21196 15.2311 8.58704 14.8561C8.96211 14.481 9.47082 14.269 10.0013 14.269V12.9365ZM18.0012 20.9365C18.5317 20.9365 19.0404 20.7258 19.4155 20.3507C19.7905 19.9757 20.0012 19.467 20.0012 18.9365H18.6675C18.6675 19.1128 18.5975 19.2828 18.4725 19.4078C18.3475 19.5328 18.1775 19.6028 18.0012 19.6028V20.9365ZM2.00125 19.6028C1.825 19.6028 1.655 19.5328 1.53 19.4078C1.405 19.2828 1.335 19.1128 1.335 18.9365H0.00125C0.00125 19.467 0.211964 19.9757 0.587036 20.3507C0.962109 20.7258 1.47082 20.9365 2.00125 20.9365V19.6028Z" fill="#FE7FB6"/>
</g>
</g>
</g>
<defs>
<clipPath id="clip0_6010_10228">
<rect width="20" height="20" fill="white" transform="translate(0 0.936523)"/>
</clipPath>
<clipPath id="clip1_6010_10228">
<rect width="20" height="20" fill="white" transform="translate(0 0.936523)"/>
</clipPath>
<clipPath id="clip2_6010_10228">
<rect width="20" height="20" fill="white" transform="translate(0 0.936523)"/>
</clipPath>
</defs>
</svg>
