<svg width="20" height="21" viewBox="0 0 20 21" fill="none" xmlns="http://www.w3.org/2000/svg">
<g clip-path="url(#clip0_6010_11776)">
<path fill-rule="evenodd" clip-rule="evenodd" d="M2.05862 6.69827C2.11667 6.64006 2.18564 6.59388 2.26158 6.56237C2.33751 6.53087 2.41891 6.51465 2.50112 6.51465C2.58333 6.51465 2.66473 6.53087 2.74066 6.56237C2.81659 6.59388 2.88556 6.64006 2.94362 6.69827L10.0011 13.757L17.0586 6.69827C17.1167 6.64016 17.1857 6.59406 17.2616 6.56261C17.3376 6.53116 17.4189 6.51498 17.5011 6.51498C17.5833 6.51498 17.6647 6.53116 17.7406 6.56261C17.8165 6.59406 17.8855 6.64016 17.9436 6.69827C18.0017 6.75638 18.0478 6.82536 18.0793 6.90129C18.1107 6.97721 18.1269 7.05859 18.1269 7.14077C18.1269 7.22295 18.1107 7.30432 18.0793 7.38024C18.0478 7.45617 18.0017 7.52516 17.9436 7.58327L10.4436 15.0833C10.3856 15.1415 10.3166 15.1876 10.2407 15.2192C10.1647 15.2507 10.0833 15.2669 10.0011 15.2669C9.91891 15.2669 9.83751 15.2507 9.76158 15.2192C9.68564 15.1876 9.61667 15.1415 9.55862 15.0833L2.05862 7.58327C2.00041 7.52521 1.95423 7.45624 1.92273 7.38031C1.89122 7.30438 1.875 7.22297 1.875 7.14077C1.875 7.05856 1.89122 6.97715 1.92273 6.90122C1.95423 6.82529 2.00041 6.75632 2.05862 6.69827Z" fill="#4F4F4F"/>
</g>
<defs>
<clipPath id="clip0_6010_11776">
<rect width="20" height="20" fill="white" transform="translate(0 0.890625)"/>
</clipPath>
</defs>
</svg>
