<svg width="20" height="21" viewBox="0 0 20 21" fill="none" xmlns="http://www.w3.org/2000/svg">
<g clip-path="url(#clip0_6010_7769)">
<path d="M4.1134 9.84829C4.26174 9.69995 4.45118 9.62218 4.68062 9.61495C4.91007 9.60773 5.09896 9.67884 5.24785 9.82829L9.21785 13.7983V4.7444C9.21514 4.63725 9.23446 4.53069 9.27459 4.43131C9.31473 4.33193 9.37483 4.24184 9.45118 4.16662C9.60674 4.01107 9.79896 3.93329 10.0278 3.93384C10.135 3.93114 10.2416 3.95045 10.3409 3.99059C10.4403 4.03072 10.5304 4.09083 10.6056 4.16718C10.7612 4.32273 10.839 4.51495 10.8384 4.74384V13.7977L14.8084 9.82773C14.9567 9.6794 15.1462 9.60829 15.3756 9.6144C15.6051 9.62051 15.794 9.69884 15.9428 9.84773C16.0917 9.99662 16.1656 10.1855 16.1656 10.415C16.1656 10.6444 16.0912 10.8338 15.9428 10.9822L10.5956 16.3294C10.5278 16.4105 10.4434 16.4677 10.3417 16.5022C10.2408 16.536 10.1349 16.5529 10.0284 16.5522C9.92063 16.5522 9.81896 16.5355 9.72451 16.5022C9.63007 16.4688 9.54229 16.4111 9.46118 16.3294L4.1134 10.9827C3.96507 10.8344 3.89062 10.645 3.89062 10.4155C3.89062 10.1861 3.96507 9.99718 4.1134 9.84829Z" fill="#1C1C1C"/>
</g>
<defs>
<clipPath id="clip0_6010_7769">
<rect width="20" height="20" fill="white" transform="translate(0 0.520996)"/>
</clipPath>
</defs>
</svg>
