<svg width="87" height="87" viewBox="0 0 87 87" fill="none" xmlns="http://www.w3.org/2000/svg">
<rect x="1" y="1.09082" width="85" height="85" rx="11.5" stroke="#767A81"/>
<g clip-path="url(#clip0_6010_11663)">
<g clip-path="url(#clip1_6010_11663)">
<g clip-path="url(#clip2_6010_11663)">
<path d="M68.4974 43.5884C68.4974 57.3937 57.3069 68.5858 43.5006 68.5858C29.6944 68.5858 18.5039 57.3937 18.5039 43.5884C18.5039 29.7831 29.6947 18.5908 43.5006 18.5908C57.3066 18.5908 68.4974 29.782 68.4974 43.5884Z" fill="white"/>
<path d="M43.5019 18.5908C29.7006 18.5908 18.4903 29.7989 18.5078 43.5876C18.5113 46.3462 18.9512 48.9999 19.7768 51.4822H27.2556V30.4536L43.5019 46.6998L59.7474 30.4536V51.4826H67.2278C68.0546 49.0005 68.4923 46.3468 68.4972 43.588C68.5207 29.7849 57.3047 18.5941 43.5019 18.5941V18.5908Z" fill="#F26822"/>
<path d="M39.7663 50.4351L32.6763 43.3447V56.577H27.2556L22.1406 56.578C26.5281 63.7762 34.4573 68.5913 43.5025 68.5913C52.5476 68.5913 60.4772 63.7751 64.8655 56.5769H54.327V43.3447L47.2367 50.4351L43.5017 54.1701L39.7665 50.4351H39.7663Z" fill="#4D4D4D"/>
</g>
</g>
</g>
<defs>
<clipPath id="clip0_6010_11663">
<rect width="50" height="50" fill="white" transform="translate(18.5 18.5908)"/>
</clipPath>
<clipPath id="clip1_6010_11663">
<rect width="50" height="50" fill="white" transform="translate(18.5 18.5908)"/>
</clipPath>
<clipPath id="clip2_6010_11663">
<rect width="49.9947" height="50" fill="white" transform="translate(18.5039 18.5908)"/>
</clipPath>
</defs>
</svg>
