<svg width="27" height="26" viewBox="0 0 27 26" fill="none" xmlns="http://www.w3.org/2000/svg">
<g clip-path="url(#clip0_8002_3793)">
<g clip-path="url(#clip1_8002_3793)">
<g clip-path="url(#clip2_8002_3793)">
<path d="M25.9531 13.1206C25.9531 6.21705 20.3567 0.620605 13.4531 0.620605C6.54957 0.620605 0.953125 6.21705 0.953125 13.1206C0.953125 20.0242 6.54957 25.6206 13.4531 25.6206C20.3567 25.6206 25.9531 20.0242 25.9531 13.1206Z" fill="white"/>
<path d="M18.4079 8.76623C18.3052 8.71314 18.2052 8.65493 18.1083 8.59184C17.8265 8.40555 17.5681 8.18604 17.3387 7.93805C16.7649 7.28141 16.5505 6.61525 16.4716 6.14885H16.4747C16.4088 5.76171 16.4361 5.51123 16.4402 5.51123H13.8263V15.6187L13.8206 16.021C13.8206 16.0375 13.819 16.0527 13.8181 16.0705C13.8181 16.0778 13.8181 16.0854 13.8165 16.093V16.0987C13.7889 16.4613 13.6727 16.8117 13.4779 17.1188C13.2832 17.426 13.016 17.6806 12.6998 17.8603C12.3702 18.0478 11.9974 18.1462 11.6183 18.1457C10.4004 18.1457 9.41337 17.1526 9.41337 15.9262C9.41337 14.6998 10.4004 13.7067 11.6183 13.7067C11.8488 13.7065 12.0779 13.7428 12.2971 13.8142L12.3003 11.1528C11.6349 11.0668 10.9589 11.1197 10.3149 11.3081C9.67097 11.4965 9.07305 11.8163 8.55888 12.2473C8.10835 12.6387 7.72959 13.1058 7.43964 13.6275C7.3293 13.8177 6.91299 14.5822 6.86258 15.8228C6.83087 16.527 7.04236 17.2566 7.14318 17.5581V17.5645C7.2066 17.742 7.45232 18.348 7.85278 18.8587C8.17569 19.2685 8.5572 19.6284 8.98502 19.9269V19.9206L8.99136 19.9269C10.2568 20.7868 11.6598 20.7304 11.6598 20.7304C11.9027 20.7206 12.7162 20.7304 13.6402 20.2925C14.6649 19.8071 15.2483 19.0839 15.2483 19.0839C15.621 18.6517 15.9174 18.1593 16.1247 17.6276C16.3612 17.0058 16.4402 16.2601 16.4402 15.962V10.5998C16.4719 10.6188 16.8942 10.8982 16.8942 10.8982C16.8942 10.8982 17.5027 11.2882 18.452 11.5421C19.133 11.7229 20.0506 11.7609 20.0506 11.7609V9.16605C19.7291 9.20092 19.0763 9.09946 18.4079 8.76623Z" fill="#333E4D" stroke="black" stroke-width="0.000158533"/>
</g>
</g>
</g>
<defs>
<clipPath id="clip0_8002_3793">
<rect x="0.453125" y="0.620605" width="26" height="25" rx="12.5" fill="white"/>
</clipPath>
<clipPath id="clip1_8002_3793">
<rect width="26" height="25" fill="white" transform="translate(0.453125 0.620605)"/>
</clipPath>
<clipPath id="clip2_8002_3793">
<rect width="25" height="25" fill="white" transform="translate(0.953125 0.620605)"/>
</clipPath>
</defs>
</svg>
