<svg width="87" height="87" viewBox="0 0 87 87" fill="none" xmlns="http://www.w3.org/2000/svg">
<rect x="1" y="1.09082" width="85" height="85" rx="11.5" stroke="#767A81"/>
<g clip-path="url(#clip0_6010_11641)">
<g clip-path="url(#clip1_6010_11641)">
<g clip-path="url(#clip2_6010_11641)">
<path d="M32.2078 43.4246C32.1011 45.2779 33.5278 46.8646 35.3811 46.9712H35.5811C37.4478 46.9712 38.9545 45.4646 38.9411 43.5979C38.9411 41.7312 37.4345 40.2246 35.5678 40.2379C33.7811 40.2379 32.3011 41.6379 32.2078 43.4246ZM19.6478 42.5579C19.0478 42.5179 18.5278 42.9846 18.5011 43.5846C18.4745 44.1846 18.9278 44.7046 19.5278 44.7312C20.1278 44.7712 20.6345 44.3046 20.6745 43.7046C20.7145 43.1046 20.2478 42.5979 19.6478 42.5579ZM31.9944 23.8779C32.5278 23.6112 32.7411 22.9446 32.4745 22.4112C32.2078 21.8779 31.5411 21.6646 31.0078 21.9312C30.4745 22.1979 30.2611 22.8512 30.5278 23.3846C30.7944 23.9312 31.4478 24.1579 31.9944 23.8779ZM35.4078 29.8379C36.2345 29.4246 36.5678 28.4112 36.1545 27.5846C35.7411 26.7579 34.7278 26.4246 33.9011 26.8379C33.0745 27.2512 32.7411 28.2646 33.1545 29.0912C33.5678 29.9179 34.5811 30.2512 35.4078 29.8379ZM23.9145 33.9312C24.2227 34.1307 24.5972 34.2006 24.9566 34.1257C25.3161 34.0508 25.6315 33.8372 25.8345 33.5312C26.0339 33.223 26.1038 32.8485 26.0289 32.489C25.954 32.1296 25.7404 31.8142 25.4345 31.6112C25.1262 31.4117 24.7517 31.3419 24.3923 31.4167C24.0328 31.4916 23.7174 31.7052 23.5145 32.0112C23.0878 32.6512 23.2745 33.5179 23.9145 33.9312ZM25.9545 41.9579C25.0211 41.9046 24.2345 42.6112 24.1811 43.5446C24.1278 44.4779 24.8345 45.2646 25.7678 45.3179C26.7011 45.3712 27.4878 44.6646 27.5411 43.7312C27.5945 42.8112 26.8878 42.0112 25.9545 41.9579ZM24.1011 53.2512C23.7725 53.4177 23.5234 53.7077 23.4084 54.0577C23.2934 54.4077 23.3219 54.789 23.4878 55.1179C23.6542 55.4465 23.9443 55.6957 24.2943 55.8106C24.6442 55.9256 25.0255 55.8971 25.3545 55.7312C25.6831 55.5648 25.9322 55.2747 26.0472 54.9248C26.1622 54.5748 26.1336 54.1935 25.9678 53.8646C25.6211 53.1846 24.7811 52.9046 24.1011 53.2512ZM30.6345 38.4779C31.5545 39.0779 32.7811 38.8246 33.3678 37.9046C33.9678 36.9846 33.7144 35.7579 32.7944 35.1712C31.8744 34.5712 30.6478 34.8246 30.0611 35.7446C29.4611 36.6512 29.7145 37.8779 30.6345 38.4779ZM51.3678 29.7046C52.1411 30.2112 53.1945 29.9979 53.7011 29.2246C54.2078 28.4512 53.9944 27.3979 53.2211 26.8912C52.4478 26.3846 51.3945 26.5979 50.8878 27.3712C50.3678 28.1579 50.5811 29.1979 51.3678 29.7046ZM54.8078 23.7712C55.3144 24.1046 55.9811 23.9579 56.3144 23.4512C56.6478 22.9446 56.5011 22.2779 55.9945 21.9446C55.4878 21.6112 54.8211 21.7579 54.4878 22.2512C54.1678 22.7579 54.3144 23.4379 54.8078 23.7712ZM51.6211 40.2112C49.7678 40.1046 48.1678 41.5312 48.0745 43.3846C47.9678 45.2379 49.3945 46.8379 51.2478 46.9312H51.4345C53.2878 46.9312 54.7945 45.4246 54.7945 43.5579C54.8078 41.7846 53.4078 40.3046 51.6211 40.2112ZM36.5145 38.2379C37.0878 39.3712 38.2478 40.0912 39.5278 40.0912C41.3811 40.0912 42.8878 38.5846 42.8878 36.7179C42.8878 36.1979 42.7678 35.6779 42.5278 35.1979C41.6878 33.5312 39.6611 32.8646 38.0078 33.7046C36.3411 34.5579 35.6745 36.5846 36.5145 38.2379ZM62.9011 33.9312C63.5811 33.5846 63.8478 32.7446 63.5011 32.0646C63.1544 31.3846 62.3144 31.1179 61.6344 31.4646C60.9544 31.8112 60.6878 32.6379 61.0211 33.3179C61.3811 33.9979 62.2078 34.2779 62.9011 33.9312ZM54.3678 34.9979C53.3945 35.4912 52.9944 36.6779 53.4878 37.6512C53.9811 38.6246 55.1678 39.0246 56.1411 38.5312C57.1144 38.0379 57.5145 36.8512 57.0211 35.8779C56.5278 34.9046 55.3411 34.5179 54.3678 34.9979ZM43.3678 23.2646C44.1278 23.3046 44.7811 22.7179 44.8345 21.9579C44.8878 21.1979 44.2878 20.5446 43.5278 20.4912C42.7678 20.4512 42.1145 21.0246 42.0611 21.7846C42.0417 22.1532 42.1677 22.5148 42.412 22.7916C42.6563 23.0684 42.9995 23.2382 43.3678 23.2646ZM43.3545 31.9712C44.4478 32.0379 45.3811 31.1979 45.4345 30.1046C45.5011 29.0112 44.6611 28.0779 43.5678 28.0246C42.4745 27.9579 41.5411 28.7979 41.4878 29.8912C41.4345 30.9846 42.2611 31.9179 43.3545 31.9712ZM32.6345 52.1846C33.6078 51.6912 34.0078 50.5046 33.5145 49.5312C33.0211 48.5579 31.8344 48.1579 30.8611 48.6512C29.8878 49.1446 29.4878 50.3312 29.9811 51.3046C30.4745 52.2779 31.6611 52.6779 32.6345 52.1846ZM44.6345 34.8646C43.6211 36.4246 44.0478 38.5046 45.6078 39.5179C47.1678 40.5312 49.2478 40.1046 50.2611 38.5446C51.2744 36.9846 50.8478 34.9046 49.2878 33.8912C48.7411 33.5312 48.1011 33.3446 47.4478 33.3446C46.3145 33.3446 45.2611 33.9179 44.6345 34.8646ZM50.4878 48.9446C49.6478 47.2779 47.6211 46.6112 45.9678 47.4512C44.3011 48.2912 43.6345 50.3179 44.4745 51.9712C45.3145 53.6379 47.3411 54.3046 48.9944 53.4646C50.6478 52.6379 51.3278 50.6379 50.5011 48.9712C50.5011 48.9579 50.5011 48.9579 50.4878 48.9446ZM56.3678 48.7046C55.4478 48.1046 54.2211 48.3579 53.6344 49.2779C53.0345 50.1979 53.2878 51.4246 54.2078 52.0112C55.1278 52.6112 56.3545 52.3579 56.9411 51.4379C57.5411 50.5312 57.2878 49.3046 56.3678 48.7046ZM62.8211 43.6512C62.8745 42.7179 62.1678 41.9312 61.2345 41.8779C60.3011 41.8246 59.5145 42.5312 59.4611 43.4646C59.4078 44.3979 60.1145 45.1846 61.0478 45.2379C61.9678 45.2912 62.7678 44.5712 62.8211 43.6512ZM67.4744 42.4512C66.8744 42.4112 66.3545 42.8779 66.3278 43.4779C66.3011 44.0779 66.7544 44.5979 67.3545 44.6246C67.9544 44.6646 68.4611 44.1979 68.5011 43.5979C68.5146 43.3103 68.4146 43.0289 68.2225 42.8144C68.0305 42.5999 67.7618 42.4695 67.4744 42.4512ZM63.0878 53.2512C62.7795 53.0517 62.4051 52.9819 62.0456 53.0567C61.6861 53.1316 61.3707 53.3452 61.1678 53.6512C60.9683 53.9595 60.8984 54.334 60.9733 54.6934C61.0482 55.0529 61.2618 55.3683 61.5678 55.5712C61.876 55.7707 62.2505 55.8406 62.61 55.7657C62.9694 55.6908 63.2848 55.4772 63.4878 55.1712C63.9144 54.5312 63.7278 53.6646 63.0878 53.2512ZM32.1811 63.4112C31.6744 63.0779 31.0078 63.2246 30.6745 63.7179C30.3411 64.2246 30.4878 64.8912 30.9811 65.2246C31.4878 65.5579 32.1545 65.4112 32.4878 64.9179C32.8345 64.4246 32.6878 63.7446 32.1811 63.4112ZM55.0078 63.3046C54.4744 63.5712 54.2611 64.2379 54.5278 64.7712C54.7945 65.3046 55.4611 65.5179 55.9945 65.2512C56.5278 64.9846 56.7411 64.3312 56.4744 63.7979C56.2078 63.2512 55.5544 63.0246 55.0078 63.3046ZM42.3678 52.3179C43.3811 50.7579 42.9545 48.6779 41.3945 47.6512C39.8344 46.6379 37.7544 47.0646 36.7278 48.6246C35.7011 50.1846 36.1411 52.2646 37.7011 53.2912C38.2478 53.6512 38.8878 53.8379 39.5411 53.8379C40.6878 53.8512 41.7411 53.2779 42.3678 52.3179ZM35.6345 57.4779C34.8611 56.9712 33.8078 57.1846 33.3011 57.9579C32.7945 58.7312 33.0078 59.7846 33.7811 60.2912C34.5545 60.7979 35.6078 60.5846 36.1145 59.8112C36.6345 59.0379 36.4211 57.9846 35.6345 57.4779ZM43.4878 63.9179C42.7278 63.8779 42.0744 64.4646 42.0211 65.2246C41.9678 65.9846 42.5678 66.6379 43.3278 66.6912C44.0878 66.7312 44.7411 66.1579 44.7945 65.3979C44.8139 65.0292 44.6879 64.6676 44.4436 64.3909C44.1992 64.1141 43.856 63.9443 43.4878 63.9179ZM43.5011 55.2112C42.4078 55.1446 41.4745 55.9846 41.4211 57.0779C41.3545 58.1712 42.1945 59.1046 43.2878 59.1579C44.3811 59.2112 45.3145 58.3846 45.3678 57.2912C45.4345 56.2112 44.5944 55.2646 43.5011 55.2112ZM51.5944 57.3446C50.7678 57.7712 50.4345 58.7846 50.8611 59.6112C51.2878 60.4379 52.3011 60.7712 53.1278 60.3446C53.9545 59.9312 54.2878 58.9179 53.8744 58.0912C53.4478 57.2646 52.4344 56.9179 51.5944 57.3446Z" fill="#0033AD"/>
</g>
</g>
</g>
<defs>
<clipPath id="clip0_6010_11641">
<rect width="50" height="50" fill="white" transform="translate(18.5 18.5908)"/>
</clipPath>
<clipPath id="clip1_6010_11641">
<rect width="50" height="50" fill="white" transform="translate(18.5 18.5908)"/>
</clipPath>
<clipPath id="clip2_6010_11641">
<rect width="50" height="46.2" fill="white" transform="translate(18.5 20.4912)"/>
</clipPath>
</defs>
</svg>
