<svg width="87" height="87" viewBox="0 0 87 87" fill="none" xmlns="http://www.w3.org/2000/svg">
<rect x="1" y="1.09082" width="85" height="85" rx="11.5" stroke="#767A81"/>
<g clip-path="url(#clip0_6010_11670)">
<g clip-path="url(#clip1_6010_11670)">
<g clip-path="url(#clip2_6010_11670)">
<path d="M43.5 68.5908C57.3543 68.5908 68.5 57.4451 68.5 43.5908C68.5 29.7366 57.3543 18.5908 43.5 18.5908C29.6458 18.5908 18.5 29.7366 18.5 43.5908C18.5 57.4451 29.6458 68.5908 43.5 68.5908Z" fill="#2775CA"/>
<path d="M50.3762 47.5488C50.3762 43.9031 48.1887 42.6531 43.8137 42.1323C40.6887 41.7156 40.0637 40.8823 40.0637 39.4238C40.0637 37.9653 41.1055 37.0281 43.1887 37.0281C45.0637 37.0281 46.1055 37.6531 46.6262 39.2156C46.7305 39.5281 47.043 39.7363 47.3555 39.7363H49.022C49.4387 39.7363 49.7512 39.4238 49.7512 39.0073V38.9031C49.3345 36.6113 47.4595 34.8406 45.0637 34.6323V32.1323C45.0637 31.7156 44.7512 31.4031 44.2305 31.2988H42.668C42.2512 31.2988 41.9387 31.6113 41.8345 32.1323V34.5281C38.7095 34.9448 36.7305 37.0281 36.7305 39.6323C36.7305 43.0698 38.8137 44.4238 43.1887 44.9448C46.1055 45.4656 47.043 46.0906 47.043 47.7573C47.043 49.4241 45.5845 50.5698 43.6055 50.5698C40.897 50.5698 39.9595 49.4238 39.647 47.8613C39.543 47.4448 39.2305 47.2363 38.918 47.2363H37.147C36.7305 47.2363 36.418 47.5488 36.418 47.9656V48.0698C36.8345 50.6738 38.5012 52.5488 41.9387 53.0698V55.5698C41.9387 55.9863 42.2512 56.2988 42.772 56.4031H44.3345C44.7512 56.4031 45.0637 56.0906 45.168 55.5698V53.0698C48.293 52.5488 50.3762 50.3613 50.3762 47.5488Z" fill="white"/>
<path d="M38.1876 58.4868C30.0626 55.5703 25.8958 46.5078 28.9168 38.4868C30.4793 34.1118 33.9168 30.7786 38.1876 29.2161C38.6043 29.0078 38.8126 28.6953 38.8126 28.1743V26.7161C38.8126 26.2993 38.6043 25.9868 38.1876 25.8828C38.0833 25.8828 37.8751 25.8828 37.7708 25.9868C27.8751 29.1118 22.4583 39.6328 25.5833 49.5286C27.4583 55.3618 31.9376 59.8411 37.7708 61.7161C38.1876 61.9243 38.6043 61.7161 38.7083 61.2993C38.8126 61.1953 38.8126 61.0911 38.8126 60.8828V59.4243C38.8126 59.1118 38.5001 58.6953 38.1876 58.4868ZM49.2293 25.9868C48.8126 25.7786 48.3958 25.9868 48.2918 26.4036C48.1876 26.5078 48.1876 26.6118 48.1876 26.8203V28.2786C48.1876 28.6953 48.5001 29.1118 48.8126 29.3203C56.9376 32.2368 61.1043 41.2993 58.0833 49.3203C56.5208 53.6953 53.0833 57.0286 48.8126 58.5911C48.3958 58.7993 48.1876 59.1118 48.1876 59.6328V61.0911C48.1876 61.5078 48.3958 61.8203 48.8126 61.9243C48.9168 61.9243 49.1251 61.9243 49.2293 61.8203C59.1251 58.6953 64.5418 48.1743 61.4168 38.2786C59.5418 32.3411 54.9583 27.8618 49.2293 25.9868Z" fill="white"/>
</g>
</g>
</g>
<defs>
<clipPath id="clip0_6010_11670">
<rect width="50" height="50" fill="white" transform="translate(18.5 18.5908)"/>
</clipPath>
<clipPath id="clip1_6010_11670">
<rect width="50" height="50" fill="white" transform="translate(18.5 18.5908)"/>
</clipPath>
<clipPath id="clip2_6010_11670">
<rect width="50" height="50" fill="white" transform="translate(18.5 18.5908)"/>
</clipPath>
</defs>
</svg>
