<svg width="26" height="26" viewBox="0 0 26 26" fill="none" xmlns="http://www.w3.org/2000/svg">
<g clip-path="url(#clip0_8002_3781)">
<g clip-path="url(#clip1_8002_3781)">
<g clip-path="url(#clip2_8002_3781)">
<path d="M25.4531 13.1206C25.4531 6.22061 19.8531 0.620605 12.9531 0.620605C6.05312 0.620605 0.453125 6.22061 0.453125 13.1206C0.453125 19.1706 4.75313 24.2076 10.4531 25.3706V16.8706H7.95312V13.1206H10.4531V9.99561C10.4544 8.83569 10.9158 7.72366 11.736 6.90347C12.5562 6.08329 13.6682 5.62193 14.8281 5.62061H17.9531V9.37061H15.4531C14.7661 9.37061 14.2031 9.93361 14.2031 10.6206V13.1206H17.9531V16.8706H14.2031V25.5586C17.2865 25.2487 20.1448 23.8045 22.2236 21.5063C24.3023 19.208 25.4533 16.2195 25.4531 13.1206Z" fill="white"/>
</g>
</g>
</g>
<defs>
<clipPath id="clip0_8002_3781">
<rect x="0.453125" y="0.620605" width="25" height="25" rx="12.5" fill="white"/>
</clipPath>
<clipPath id="clip1_8002_3781">
<rect width="25" height="25" fill="white" transform="translate(0.453125 0.620605)"/>
</clipPath>
<clipPath id="clip2_8002_3781">
<rect width="25" height="25" fill="white" transform="translate(0.453125 0.620605)"/>
</clipPath>
</defs>
</svg>
