<svg width="26" height="26" viewBox="0 0 26 26" fill="none" xmlns="http://www.w3.org/2000/svg">
<g clip-path="url(#clip0_8002_3777)">
<g clip-path="url(#clip1_8002_3777)">
<g clip-path="url(#clip2_8002_3777)">
<path fill-rule="evenodd" clip-rule="evenodd" d="M0.453125 13.1206C0.453125 6.22061 6.05312 0.620605 12.9531 0.620605C19.8531 0.620605 25.4531 6.22061 25.4531 13.1206C25.4531 20.0206 19.8531 25.6206 12.9531 25.6206C6.05312 25.6206 0.453125 20.0206 0.453125 13.1206ZM20.2411 15.3336C20.2413 15.1496 20.2287 14.9658 20.2031 14.7836C20.4449 14.6752 20.6601 14.5154 20.8337 14.3152C21.0073 14.115 21.1351 13.8793 21.2081 13.6246C21.281 13.3699 21.2974 13.1023 21.2561 12.8406C21.2151 12.5786 21.1171 12.3296 20.9691 12.1096C20.8212 11.8898 20.627 11.705 20.4002 11.568C20.1735 11.4311 19.9195 11.3453 19.6561 11.3166C19.3926 11.288 19.1261 11.3173 18.8751 11.4025C18.6242 11.4877 18.3948 11.6266 18.2031 11.8096C16.9531 10.9096 15.2401 10.3216 13.3281 10.2596L14.1531 6.35961L16.8661 6.93461C16.9031 7.62261 17.4661 8.17161 18.1661 8.17161C18.3981 8.17233 18.6261 8.11096 18.8264 7.99384C19.0267 7.87673 19.192 7.70816 19.3051 7.50561C19.4183 7.30307 19.4752 7.07395 19.4699 6.84202C19.4646 6.61008 19.3974 6.38378 19.2751 6.18661C19.1528 5.98952 18.98 5.82875 18.7746 5.72096C18.5693 5.61317 18.3388 5.56229 18.1071 5.57361C17.8755 5.58479 17.6511 5.65772 17.4571 5.78485C17.2632 5.91198 17.1068 6.08867 17.0041 6.29661L13.9791 5.64661C13.8911 5.63361 13.8041 5.64661 13.7291 5.69661C13.6541 5.73361 13.6041 5.80861 13.5911 5.89661L12.6661 10.2586C10.7291 10.3216 8.97913 10.8966 7.71613 11.8086C7.45928 11.5587 7.13437 11.3902 6.78213 11.3242C6.4299 11.2582 6.06602 11.2976 5.73612 11.4376C5.40622 11.5778 5.12508 11.8124 4.92796 12.1118C4.73085 12.4112 4.62654 12.7621 4.62813 13.1206C4.62784 13.4718 4.72919 13.8156 4.91993 14.1105C5.11068 14.4054 5.38268 14.6388 5.70312 14.7826C5.67793 14.9648 5.66557 15.1486 5.66612 15.3326C5.66612 18.1326 8.92813 20.4076 12.9541 20.4076C16.9801 20.4076 20.2421 18.1326 20.2421 15.3326L20.2411 15.3336ZM10.0901 13.1206C10.4341 13.1232 10.7632 13.261 11.0065 13.5043C11.2497 13.7475 11.3875 14.0766 11.3901 14.4206C11.3901 14.5913 11.3565 14.7604 11.2912 14.9181C11.2258 15.0758 11.1301 15.2191 11.0094 15.3398C10.8886 15.4606 10.7453 15.5563 10.5876 15.6216C10.4299 15.687 10.2608 15.7206 10.0901 15.7206C9.74534 15.7206 9.41468 15.5836 9.17089 15.3398C8.92709 15.096 8.79012 14.7654 8.79012 14.4206C8.79274 14.0766 8.93054 13.7475 9.17378 13.5043C9.41701 13.261 9.74615 13.1232 10.0901 13.1206ZM12.9531 18.1456C13.8031 18.1456 15.0031 17.9456 15.5661 17.3836C15.7031 17.2586 15.9161 17.2586 16.0411 17.3836C16.0731 17.4136 16.1001 17.4506 16.1171 17.4916C16.1341 17.5326 16.1441 17.5766 16.1441 17.6216C16.1441 17.6666 16.1351 17.7106 16.1171 17.7516C16.0991 17.7926 16.0731 17.8296 16.0411 17.8596C15.1531 18.7466 13.4531 18.8216 12.9531 18.8216C12.4531 18.8216 10.7531 18.7466 9.86512 17.8596C9.83212 17.8296 9.80613 17.7926 9.78913 17.7516C9.77213 17.7106 9.76213 17.6666 9.76213 17.6216C9.76213 17.5766 9.77113 17.5326 9.78913 17.4916C9.80713 17.4506 9.83313 17.4136 9.86512 17.3836C9.89712 17.3536 9.93213 17.3256 9.97313 17.3076C10.0141 17.2896 10.0581 17.2806 10.1021 17.2806C10.1461 17.2806 10.1911 17.2896 10.2311 17.3076C10.2711 17.3256 10.3091 17.3516 10.3391 17.3836C10.9021 17.9466 12.1021 18.1456 12.9521 18.1456H12.9531ZM14.5161 14.4206C14.5187 14.0766 14.6565 13.7475 14.8998 13.5043C15.143 13.261 15.4722 13.1232 15.8161 13.1206C16.1609 13.1206 16.4916 13.2576 16.7354 13.5014C16.9792 13.7452 17.1161 14.0758 17.1161 14.4206C17.1135 14.7646 16.9757 15.0937 16.7325 15.337C16.4892 15.5802 16.1601 15.718 15.8161 15.7206C15.4722 15.718 15.143 15.5802 14.8998 15.337C14.6565 15.0937 14.5187 14.7646 14.5161 14.4206Z" fill="white"/>
</g>
</g>
</g>
<defs>
<clipPath id="clip0_8002_3777">
<rect x="0.453125" y="0.620605" width="25" height="25" rx="12.5" fill="white"/>
</clipPath>
<clipPath id="clip1_8002_3777">
<rect width="25" height="25" fill="white" transform="translate(0.453125 0.620605)"/>
</clipPath>
<clipPath id="clip2_8002_3777">
<rect width="25" height="25" fill="white" transform="translate(0.453125 0.620605)"/>
</clipPath>
</defs>
</svg>
