<svg width="26" height="26" viewBox="0 0 26 26" fill="none" xmlns="http://www.w3.org/2000/svg">
<g clip-path="url(#clip0_8002_3773)">
<g clip-path="url(#clip1_8002_3773)">
<g clip-path="url(#clip2_8002_3773)">
<path d="M15.0401 12.9036L12.1161 11.5386C11.8611 11.4206 11.6511 11.5526 11.6511 11.8356V14.4056C11.6511 14.6886 11.8611 14.8206 12.1161 14.7026L15.0391 13.3376C15.2951 13.2176 15.2951 13.0226 15.0401 12.9026V12.9036ZM12.9531 0.620605C6.04913 0.620605 0.453125 6.21661 0.453125 13.1206C0.453125 20.0246 6.04913 25.6206 12.9531 25.6206C19.8571 25.6206 25.4531 20.0246 25.4531 13.1206C25.4531 6.21661 19.8571 0.620605 12.9531 0.620605ZM12.9531 18.1986C6.55513 18.1986 6.44312 17.6216 6.44312 13.1206C6.44312 8.61961 6.55513 8.04261 12.9531 8.04261C19.3511 8.04261 19.4631 8.61961 19.4631 13.1206C19.4631 17.6216 19.3511 18.1986 12.9531 18.1986Z" fill="white"/>
</g>
</g>
</g>
<defs>
<clipPath id="clip0_8002_3773">
<rect x="0.453125" y="0.620605" width="25" height="25" rx="12.5" fill="white"/>
</clipPath>
<clipPath id="clip1_8002_3773">
<rect width="25" height="25" fill="white" transform="translate(0.453125 0.620605)"/>
</clipPath>
<clipPath id="clip2_8002_3773">
<rect width="25" height="25" fill="white" transform="translate(0.453125 0.620605)"/>
</clipPath>
</defs>
</svg>
