<svg width="87" height="87" viewBox="0 0 87 87" fill="none" xmlns="http://www.w3.org/2000/svg">
<rect x="1" y="1.09082" width="85" height="85" rx="11.5" stroke="#767A81"/>
<g clip-path="url(#clip0_6010_11617)">
<g clip-path="url(#clip1_6010_11617)">
<g clip-path="url(#clip2_6010_11617)">
<path fill-rule="evenodd" clip-rule="evenodd" d="M43.5 18.5908C57.3081 18.5908 68.5 29.7827 68.5 43.5908C68.5 57.3989 57.3081 68.5908 43.5 68.5908C29.6919 68.5908 18.5 57.3989 18.5 43.5908C18.5 29.7827 29.6919 18.5908 43.5 18.5908Z" fill="#F0B90B"/>
<path d="M32.24 43.5911L32.258 50.2017L37.875 53.507V57.3772L28.9708 52.1548V41.658L32.24 43.5911ZM32.24 36.9805V40.8327L28.9688 38.8976V35.0454L32.24 33.1104L35.5272 35.0454L32.24 36.9805ZM40.2208 35.0454L43.492 33.1104L46.7792 35.0454L43.492 36.9805L40.2208 35.0454Z" fill="white"/>
<path d="M34.6055 48.8315V44.9613L37.8767 46.8964V50.7486L34.6055 48.8315ZM40.2225 54.8932L43.4937 56.8283L46.7809 54.8932V58.7454L43.4937 60.6805L40.2225 58.7454V54.8932ZM51.4725 35.0454L54.7437 33.1104L58.031 35.0454V38.8976L54.7437 40.8327V36.9805L51.4725 35.0454ZM54.7437 50.2017L54.7617 43.5911L58.033 41.656V52.1528L49.1287 57.3752V53.505L54.7437 50.2017Z" fill="white"/>
<path d="M52.3962 48.8311L49.125 50.7482V46.896L52.3962 44.9609V48.8311Z" fill="white"/>
<path d="M52.3979 38.3509L52.416 42.2211L46.783 45.5264V52.153L43.5117 54.0701L40.2405 52.153V45.5264L34.6075 42.2211V38.3509L37.8927 36.4158L43.4917 39.7371L49.1247 36.4158L52.412 38.3509H52.3979ZM34.6055 31.7423L43.4937 26.502L52.3979 31.7423L49.1267 33.6774L43.4937 30.3561L37.8767 33.6774L34.6055 31.7423Z" fill="white"/>
</g>
</g>
</g>
<defs>
<clipPath id="clip0_6010_11617">
<rect width="50" height="50" fill="white" transform="translate(18.5 18.5908)"/>
</clipPath>
<clipPath id="clip1_6010_11617">
<rect width="50" height="50" fill="white" transform="translate(18.5 18.5908)"/>
</clipPath>
<clipPath id="clip2_6010_11617">
<rect width="50" height="50" fill="white" transform="translate(18.5 18.5908)"/>
</clipPath>
</defs>
</svg>
