<svg width="87" height="87" viewBox="0 0 87 87" fill="none" xmlns="http://www.w3.org/2000/svg">
<rect x="1" y="1.09082" width="85" height="85" rx="11.5" stroke="#767A81"/>
<g clip-path="url(#clip0_6010_11627)">
<g clip-path="url(#clip1_6010_11627)">
<g clip-path="url(#clip2_6010_11627)">
<path d="M43.5 68.5908C57.3071 68.5908 68.5 57.3979 68.5 43.5908C68.5 29.7837 57.3071 18.5908 43.5 18.5908C29.6929 18.5908 18.5 29.7837 18.5 43.5908C18.5 57.3979 29.6929 68.5908 43.5 68.5908Z" fill="#0AC18E"/>
<path d="M51.2986 35.1964C50.0423 32.3474 47.1552 31.7383 43.6209 32.3284L42.4851 27.9248L39.8075 28.6164L40.9242 33.0073C40.2199 33.185 39.4966 33.3372 38.7796 33.5403L37.6628 29.1748L34.9851 29.8664L36.1209 34.27C35.5435 34.435 30.7148 35.6723 30.7148 35.6723L31.4509 38.5403C31.4509 38.5403 33.4179 37.9883 33.3989 38.0327C34.4902 37.7471 35.0042 38.2928 35.2453 38.8068L38.3671 50.8753C38.4052 51.2243 38.3417 51.8207 37.593 52.0238C37.6374 52.0492 35.645 52.5251 35.645 52.5251L35.9369 55.869C35.9369 55.869 40.7212 54.6443 41.3494 54.4857L42.4978 58.94L45.1755 58.2484L44.027 53.7624C44.7631 53.591 45.4801 53.4134 46.178 53.2294L47.3202 57.69L49.9978 56.9984L48.8494 52.5504C52.9737 51.5479 55.8862 48.9464 55.2897 44.968C54.909 42.5695 52.2884 40.6025 50.1121 40.3804C51.4509 39.1938 52.1298 37.4616 51.2986 35.1964ZM50.0105 45.6976C50.5435 49.638 45.0676 50.1202 43.2593 50.5961L41.6857 44.7015C43.5004 44.2256 49.1095 42.2268 50.0105 45.6976ZM46.711 37.671C47.2758 41.1735 42.593 41.5796 41.0829 41.9667L39.6489 36.6177C41.1653 36.2433 45.5626 34.4286 46.711 37.671Z" fill="white"/>
</g>
</g>
</g>
<defs>
<clipPath id="clip0_6010_11627">
<rect width="50" height="50" fill="white" transform="translate(18.5 18.5908)"/>
</clipPath>
<clipPath id="clip1_6010_11627">
<rect width="50" height="50" fill="white" transform="translate(18.5 18.5908)"/>
</clipPath>
<clipPath id="clip2_6010_11627">
<rect width="50" height="50" fill="white" transform="translate(18.5 18.5908)"/>
</clipPath>
</defs>
</svg>
