<svg width="26" height="26" viewBox="0 0 26 26" fill="none" xmlns="http://www.w3.org/2000/svg">
<g clip-path="url(#clip0_8002_3785)">
<g clip-path="url(#clip1_8002_3785)">
<g clip-path="url(#clip2_8002_3785)">
<path d="M12.9531 0.620605C9.63792 0.620605 6.4585 1.93757 4.11429 4.28177C1.77009 6.62598 0.453125 9.8054 0.453125 13.1206C0.453125 16.4358 1.77009 19.6152 4.11429 21.9594C6.4585 24.3036 9.63792 25.6206 12.9531 25.6206C16.2683 25.6206 19.4478 24.3036 21.792 21.9594C24.1362 19.6152 25.4531 16.4358 25.4531 13.1206C25.4531 9.8054 24.1362 6.62598 21.792 4.28177C19.4478 1.93757 16.2683 0.620605 12.9531 0.620605ZM19.0921 9.18461L17.0411 18.8516C16.8901 19.5376 16.4811 19.7036 15.9121 19.3806L12.7871 17.0776L11.2801 18.5296C11.1141 18.6956 10.9731 18.8366 10.6501 18.8366L10.8721 15.6566L16.6631 10.4246C16.9151 10.2026 16.6071 10.0766 16.2751 10.2986L9.11812 14.8046L6.03312 13.8416C5.36312 13.6296 5.34813 13.1716 6.17413 12.8486L18.2251 8.20161C18.7841 7.99961 19.2731 8.33761 19.0921 9.18461Z" fill="white"/>
</g>
</g>
</g>
<defs>
<clipPath id="clip0_8002_3785">
<rect x="0.453125" y="0.620605" width="25" height="25" rx="12.5" fill="white"/>
</clipPath>
<clipPath id="clip1_8002_3785">
<rect width="25" height="25" fill="white" transform="translate(0.453125 0.620605)"/>
</clipPath>
<clipPath id="clip2_8002_3785">
<rect width="25" height="25" fill="white" transform="translate(0.453125 0.620605)"/>
</clipPath>
</defs>
</svg>
