<svg width="87" height="87" viewBox="0 0 87 87" fill="none" xmlns="http://www.w3.org/2000/svg">
<rect x="1" y="1.09082" width="85" height="85" rx="11.5" stroke="#767A81"/>
<g clip-path="url(#clip0_6010_11465)">
<g clip-path="url(#clip1_6010_11465)">
<g clip-path="url(#clip2_6010_11465)">
<path fill-rule="evenodd" clip-rule="evenodd" d="M27.6542 22.0574L18.5375 41.2071C18.5028 41.2783 18.4918 41.3588 18.5061 41.4367C18.5204 41.5147 18.5593 41.586 18.617 41.6402L43.2392 65.2342C43.3091 65.3012 43.4023 65.3387 43.4992 65.3387C43.5961 65.3387 43.6892 65.3012 43.7592 65.2342L68.3813 41.6417C68.4391 41.5874 68.4779 41.5161 68.4923 41.4382C68.5066 41.3603 68.4956 41.2798 68.4609 41.2086L59.3441 22.0588C59.3147 21.9945 59.2674 21.9401 59.2078 21.9019C59.1483 21.8638 59.079 21.8436 59.0083 21.8438H27.993C27.922 21.8429 27.8522 21.8626 27.7921 21.9005C27.7319 21.9384 27.6841 21.9929 27.6542 22.0574Z" fill="#50AF95"/>
<path fill-rule="evenodd" clip-rule="evenodd" d="M46.6649 43.1733C46.4882 43.1866 45.5749 43.2411 43.5376 43.2411C41.9173 43.2411 40.7668 43.1924 40.3632 43.1733C34.1012 42.8978 29.4272 41.8078 29.4272 40.5026C29.4272 39.1975 34.1012 38.1089 40.3632 37.829V42.0877C40.7727 42.1171 41.9453 42.1863 43.5656 42.1863C45.5101 42.1863 46.4837 42.1053 46.659 42.0891V37.832C52.9077 38.1104 57.5715 39.2005 57.5715 40.5026C57.5715 41.8048 52.9092 42.8949 46.659 43.1718L46.6649 43.1733ZM46.6649 37.3915V33.5807H55.3854V27.7695H31.6427V33.5807H40.3617V37.3901C33.2748 37.7156 27.9453 39.1194 27.9453 40.8017C27.9453 42.4839 33.2748 43.8863 40.3617 44.2133V56.4249H46.6635V44.2089C53.7341 43.8833 59.0548 42.481 59.0548 40.8002C59.0548 39.1194 53.7386 37.7171 46.6635 37.3901L46.6649 37.3915Z" fill="white"/>
</g>
</g>
</g>
<defs>
<clipPath id="clip0_6010_11465">
<rect width="50" height="50" fill="white" transform="translate(18.5 18.5908)"/>
</clipPath>
<clipPath id="clip1_6010_11465">
<rect width="50" height="50" fill="white" transform="translate(18.5 18.5908)"/>
</clipPath>
<clipPath id="clip2_6010_11465">
<rect width="50" height="43.495" fill="white" transform="translate(18.5 21.8438)"/>
</clipPath>
</defs>
</svg>
