<svg width="87" height="87" viewBox="0 0 87 87" fill="none" xmlns="http://www.w3.org/2000/svg">
<rect x="1" y="1.09082" width="85" height="85" rx="11.5" stroke="#767A81"/>
<g clip-path="url(#clip0_6010_11633)">
<g clip-path="url(#clip1_6010_11633)">
<g clip-path="url(#clip2_6010_11633)">
<path d="M43.5 68.5908C57.3071 68.5908 68.5 57.3979 68.5 43.5908C68.5 29.7837 57.3071 18.5908 43.5 18.5908C29.6929 18.5908 18.5 29.7837 18.5 43.5908C18.5 57.3979 29.6929 68.5908 43.5 68.5908Z" fill="#45CD85"/>
<path d="M47.15 29.5733C47.21 30.5458 47.21 30.5558 46.975 30.5558C46.575 30.5558 45.1375 30.9608 44.5925 31.2308C43.8125 31.6108 43.1675 32.2308 42.8175 32.9558C42.54 33.5058 42.5 33.7008 42.5 34.4258C42.5 35.4508 42.6125 35.8758 43.0425 36.5258C43.6825 37.4908 44.7825 38.0483 47.15 38.5508L48.0925 38.7383L49.6925 39.0658C50.57 39.2808 50.9825 39.4833 51.295 39.7833C51.9125 40.3833 51.695 41.2833 50.825 41.7583C50.4722 41.9508 50.0906 42.0851 49.695 42.1558C49.0025 42.2808 48.195 42.2633 47.22 42.1008C47.1967 42.0967 47.1733 42.0925 47.15 42.0883C45.865 41.8733 45.0225 41.5958 42.725 40.6208C42.6225 40.5808 42.6 40.8708 42.6225 42.0383L42.6525 43.5083L43.27 43.7583C44.12 44.1083 45.7725 44.5108 46.7375 44.5833C47.4975 44.6583 47.5375 44.6658 47.4875 44.8733C47.4281 45.1952 47.3839 45.5198 47.355 45.8458L47.2925 46.5908H50.125L50.065 45.8458C50.0416 45.5223 49.9965 45.2008 49.93 44.8833C49.88 44.6883 49.9525 44.6583 50.6075 44.5433C51.5907 44.36 52.5122 43.9328 53.2875 43.3008C53.545 43.0733 53.9125 42.5883 54.0975 42.2258C54.405 41.6558 54.4575 41.4608 54.4875 40.6433C54.5375 39.5458 54.4175 39.0283 53.9625 38.3458C53.325 37.3708 52.2375 36.8308 49.695 36.2708L48.8425 36.0908C48.2745 35.9827 47.7101 35.8568 47.15 35.7133C45.7425 35.3383 45.375 34.9858 45.375 34.3133C45.375 33.7733 45.64 33.4533 46.38 33.1133C46.626 33.0117 46.8853 32.9461 47.15 32.9183C47.875 32.8133 48.87 32.8033 49.695 32.9033L50.22 32.9883C51.1327 33.1898 52.0274 33.4657 52.895 33.8133C53.0625 33.8883 53.07 33.7833 53.07 32.4808V31.0833L52.64 30.9583C51.8328 30.7514 51.0087 30.6176 50.1775 30.5583H49.695L49.755 29.5733L49.8175 28.5908H47.0875L47.15 29.5733Z" fill="white"/>
<path d="M48.0913 38.7407L49.6913 39.0657V42.1557C49.0013 42.2807 48.1913 42.2632 47.2188 42.1007L47.1488 42.0907V38.5532L48.0913 38.7382V38.7407ZM48.8413 36.0907C48.2733 35.9826 47.7089 35.8567 47.1488 35.7132V32.9157C47.8738 32.8107 48.8688 32.8007 49.6938 32.9007V36.2657L48.8413 36.0907ZM37.6238 34.9482C35.2717 36.0847 33.3812 37.9946 32.2688 40.3582C31.5613 41.8532 31.3063 42.9357 31.2463 44.7457C31.1863 46.4957 31.2863 47.3832 31.7313 48.7282C33.0463 52.7707 36.5938 55.8257 40.7388 56.4932C42.3525 56.6766 43.9855 56.5913 45.5713 56.2407C47.1478 55.8087 48.6138 55.0447 49.8711 54C51.1284 52.9553 52.1479 51.654 52.8613 50.1832L53.3563 49.0932C53.3563 49.0432 52.6388 49.0107 51.7688 49.0107H50.1713L49.7363 49.7182C48.5855 51.5432 46.782 52.8605 44.6934 53.4017C42.6049 53.9429 40.3886 53.6672 38.4963 52.6307C37.5613 52.082 36.7268 51.3777 36.0288 50.5482C34.7656 49.0459 34.0967 47.1328 34.1488 45.1707C34.1488 42.2482 35.6238 39.6007 38.0913 38.0707L38.7988 37.6382V36.0407C38.7988 35.1707 38.7688 34.4532 38.7163 34.4532C38.6638 34.4532 38.1788 34.6782 37.6238 34.9482Z" fill="white"/>
</g>
</g>
</g>
<defs>
<clipPath id="clip0_6010_11633">
<rect width="50" height="50" fill="white" transform="translate(18.5 18.5908)"/>
</clipPath>
<clipPath id="clip1_6010_11633">
<rect width="50" height="50" fill="white" transform="translate(18.5 18.5908)"/>
</clipPath>
<clipPath id="clip2_6010_11633">
<rect width="50" height="50" fill="white" transform="translate(18.5 18.5908)"/>
</clipPath>
</defs>
</svg>
