<svg width="73" height="69" viewBox="0 0 73 69" fill="none" xmlns="http://www.w3.org/2000/svg">
<g clip-path="url(#clip0_6009_25393)">
<g clip-path="url(#clip1_6009_25393)">
<g clip-path="url(#clip2_6009_25393)">
<path d="M69.4827 43.0205C64.9412 61.237 46.4908 72.3232 28.2722 67.7806C10.0611 63.2392 -1.02508 44.7876 3.51836 26.5726C8.05783 8.35411 26.5082 -2.73293 44.7212 1.80853C62.9386 6.34998 74.0241 24.8035 69.4822 43.0209L69.4825 43.0205H69.4827Z" fill="#F7931A"/>
<path d="M51.4956 29.9504C52.1724 25.4252 48.7272 22.9928 44.0162 21.3701L45.5445 15.2403L41.8132 14.3106L40.3254 20.2789C39.3445 20.0343 38.3371 19.8037 37.3359 19.5752L38.8344 13.5675L35.1054 12.6377L33.5762 18.7654C32.7645 18.5806 31.9672 18.398 31.1937 18.2055L31.198 18.1862L26.0524 16.9013L25.0598 20.8866C25.0598 20.8866 27.8281 21.5212 27.7698 21.5602C29.2808 21.9373 29.554 22.9376 29.5086 23.7304L27.7678 30.7136C27.8718 30.74 28.0068 30.7783 28.1557 30.8381C28.0312 30.8072 27.8988 30.7734 27.7613 30.7405L25.3212 40.523C25.1366 40.9821 24.6678 41.671 23.6114 41.4094C23.6488 41.4636 20.8994 40.7326 20.8994 40.7326L19.0469 45.0038L23.9026 46.2143C24.806 46.4408 25.6912 46.6778 26.5629 46.9007L25.0189 53.1008L28.7459 54.0305L30.275 47.8963C31.2932 48.1727 32.2813 48.4277 33.2486 48.668L31.7247 54.7733L35.4562 55.7031L37.0001 49.5147C43.3629 50.7188 48.1472 50.2333 50.1609 44.4782C51.7836 39.8447 50.0802 37.1721 46.7327 35.4292C49.1708 34.867 51.0073 33.2634 51.4969 29.9509L51.4957 29.95L51.4956 29.9504ZM42.9703 41.905C41.8171 46.5385 34.0157 44.0338 31.4863 43.4057L33.5354 35.1917C36.0645 35.8232 44.1755 37.0727 42.9705 41.905H42.9703ZM44.1243 29.8832C43.0723 34.0979 36.5791 31.9567 34.4728 31.4316L36.3305 23.982C38.4368 24.5071 45.2201 25.487 44.1246 29.8832H44.1243Z" fill="white"/>
</g>
</g>
</g>
<defs>
<clipPath id="clip0_6009_25393">
<rect width="73" height="68" fill="white" transform="translate(0 0.791016)"/>
</clipPath>
<clipPath id="clip1_6009_25393">
<rect width="73" height="68" fill="white" transform="translate(0 0.791016)"/>
</clipPath>
<clipPath id="clip2_6009_25393">
<rect width="68" height="68.0076" fill="white" transform="translate(2.5 0.791016)"/>
</clipPath>
</defs>
</svg>
