<svg width="26" height="26" viewBox="0 0 26 26" fill="none" xmlns="http://www.w3.org/2000/svg">
<g clip-path="url(#clip0_8002_3789)">
<g clip-path="url(#clip1_8002_3789)">
<g clip-path="url(#clip2_8002_3789)">
<path d="M15.9 7.18519L12.9531 7.14352L10.0073 7.18519C8.02917 7.27581 7.10833 8.21227 7.01771 10.1748L6.975 13.1206L7.01771 16.0675C7.10833 18.0248 8.025 18.9664 10.0073 19.0571L12.9531 19.0998L15.9 19.0571C17.8781 18.9675 18.7979 18.0279 18.8896 16.0675L18.9312 13.1206L18.8896 10.1748C18.7979 8.21331 17.876 7.27581 15.9 7.18519ZM12.9531 16.8654C10.8854 16.8654 9.20833 15.1894 9.20833 13.1206C9.20833 11.0519 10.8854 9.37685 12.9531 9.37685C15.0208 9.37685 16.6979 11.0529 16.6979 13.1206C16.6979 15.1883 15.0208 16.8654 12.9531 16.8654ZM16.8458 10.1039C16.6138 10.1039 16.3912 10.0118 16.2271 9.84766C16.063 9.68356 15.9708 9.461 15.9708 9.22894C15.9708 8.99687 16.063 8.77431 16.2271 8.61022C16.3912 8.44613 16.6138 8.35394 16.8458 8.35394C17.0779 8.35394 17.3005 8.44613 17.4646 8.61022C17.6286 8.77431 17.7208 8.99687 17.7208 9.22894C17.7208 9.461 17.6286 9.68356 17.4646 9.84766C17.3005 10.0118 17.0779 10.1039 16.8458 10.1039ZM15.3833 13.1206C15.3833 14.4633 14.2948 15.5508 12.9531 15.5508C11.6115 15.5508 10.5229 14.4633 10.5229 13.1206C10.5229 11.7779 11.6115 10.6904 12.9531 10.6904C14.2948 10.6904 15.3833 11.7779 15.3833 13.1206ZM12.9531 0.620605C6.05 0.620605 0.453125 6.21748 0.453125 13.1206C0.453125 20.0237 6.05 25.6206 12.9531 25.6206C19.8562 25.6206 25.4531 20.0237 25.4531 13.1206C25.4531 6.21748 19.8562 0.620605 12.9531 0.620605ZM20.201 16.1269C20.0812 18.7779 18.6052 20.2466 15.9604 20.3685C15.1823 20.4039 14.9333 20.4123 12.9531 20.4123C10.9729 20.4123 10.725 20.4039 9.94687 20.3685C7.29688 20.2466 5.82708 18.7758 5.70521 16.1269C5.66979 15.3498 5.66146 15.1008 5.66146 13.1206L5.70521 10.1144C5.82708 7.46436 7.29792 5.99456 9.94687 5.87373C10.725 5.83727 10.9729 5.82894 12.9531 5.82894C14.9333 5.82894 15.1823 5.83727 15.9604 5.87373C18.6115 5.99561 20.0823 7.46956 20.201 10.1144C20.2365 10.8925 20.2448 11.1404 20.2448 13.1206L20.201 16.1269Z" fill="white"/>
</g>
</g>
</g>
<defs>
<clipPath id="clip0_8002_3789">
<rect x="0.453125" y="0.620605" width="25" height="25" rx="12.5" fill="white"/>
</clipPath>
<clipPath id="clip1_8002_3789">
<rect width="25" height="25" fill="white" transform="translate(0.453125 0.620605)"/>
</clipPath>
<clipPath id="clip2_8002_3789">
<rect width="25" height="25" fill="white" transform="translate(0.453125 0.620605)"/>
</clipPath>
</defs>
</svg>
