<svg width="87" height="87" viewBox="0 0 87 87" fill="none" xmlns="http://www.w3.org/2000/svg">
<rect x="1" y="1.09082" width="85" height="85" rx="11.5" stroke="#767A81"/>
<g clip-path="url(#clip0_6010_11485)">
<g clip-path="url(#clip1_6010_11485)">
<g clip-path="url(#clip2_6010_11485)">
<path d="M43.5 68.5908C57.3071 68.5908 68.5 57.3979 68.5 43.5908C68.5 29.7837 57.3071 18.5908 43.5 18.5908C29.6929 18.5908 18.5 29.7837 18.5 43.5908C18.5 57.3979 29.6929 68.5908 43.5 68.5908Z" fill="#988430"/>
<path d="M43.5 67.79C56.8648 67.79 67.6992 56.9557 67.6992 43.5908C67.6992 30.226 56.8648 19.3916 43.5 19.3916C30.1351 19.3916 19.3008 30.226 19.3008 43.5908C19.3008 56.9557 30.1351 67.79 43.5 67.79Z" fill="#7A6A2A"/>
<path d="M43.5018 67.28C56.5851 67.28 67.1912 56.674 67.1912 43.5907C67.1912 30.5074 56.5851 19.9014 43.5018 19.9014C30.4186 19.9014 19.8125 30.5074 19.8125 43.5907C19.8125 56.674 30.4186 67.28 43.5018 67.28Z" fill="#BA9F33"/>
<path fill-rule="evenodd" clip-rule="evenodd" d="M29.4307 40.9206C29.2891 40.7912 29.1395 40.6616 29.0019 40.5323C28.8643 40.403 28.723 40.2734 28.5814 40.144L28.1606 39.744C28.0918 39.6752 28.019 39.6147 27.9502 39.5456C27.8814 39.4851 27.8006 39.4163 27.7318 39.3555C27.1734 38.8256 26.6118 38.2958 26.0611 37.7656C26.6315 38.2875 27.1899 38.8056 27.7603 39.3352L27.9585 39.5336C28.0273 39.6022 28.1001 39.663 28.1689 39.7318L28.5894 40.12C28.731 40.2494 28.8686 40.379 29.0102 40.52C29.1518 40.6611 29.2894 40.791 29.431 40.92L29.4307 40.9206ZM22.0198 40.8406C22.0198 40.8406 24.0505 41.0507 25.0417 41.1923C25.9598 41.3219 28.8321 41.7627 28.8321 41.7627L22.0198 40.8406ZM22.0198 40.8406C22.5902 40.8891 23.1606 40.9496 23.731 41.0104C24.0222 41.0387 24.3014 41.071 24.5806 41.0992L25.0091 41.148C25.1507 41.168 25.2883 41.1883 25.4299 41.2086L27.1291 41.4795L27.9785 41.6211C28.2577 41.6696 28.5369 41.7224 28.8281 41.771C28.5489 41.7427 28.2577 41.7022 27.9785 41.6616L27.1291 41.5403L25.4299 41.2896C25.2883 41.2694 25.1507 41.2408 25.0091 41.2208L24.5803 41.1715C24.3011 41.1432 24.0099 41.1027 23.7307 41.0702C23.1603 41.0016 22.5899 40.9286 22.0195 40.8398L22.0198 40.8406ZM28.6299 42.2918C28.6299 42.2918 26.4617 42.8422 25.7294 43.0526C25.0094 43.2507 22.8289 43.9142 22.8289 43.9142L28.6297 42.292L28.6299 42.2918Z" fill="#CFB66C"/>
<path fill-rule="evenodd" clip-rule="evenodd" d="M28.6283 42.292C28.147 42.4336 27.6683 42.5712 27.18 42.7008L25.7318 43.0891C25.2504 43.2307 24.7717 43.3683 24.2918 43.5099L23.5718 43.708C23.3331 43.7768 23.0904 43.8373 22.8438 43.9064C23.0821 43.8264 23.3251 43.7445 23.5637 43.6757L24.2837 43.4453C24.7651 43.2955 25.2437 43.1539 25.7237 43.0043C26.2131 42.8829 26.6947 42.7533 27.184 42.636C27.6491 42.5187 28.1387 42.4016 28.6283 42.2923V42.292ZM23.131 45.2493C23.3694 45.1603 26.1203 43.8781 26.7595 43.5787C27.0795 43.4288 28.0096 43.0987 28.0096 43.0987L23.131 45.2493Z" fill="#CFB66C"/>
<path fill-rule="evenodd" clip-rule="evenodd" d="M23.1331 45.2498C23.3432 45.1698 23.5416 45.0719 23.7437 44.9789L24.3424 44.6997L25.544 44.1213C25.944 43.9311 26.3328 43.7213 26.7453 43.5426C26.9557 43.4538 27.1661 43.381 27.3763 43.3122L27.6963 43.2111C27.8053 43.1829 27.9067 43.1503 28.0163 43.1221C27.6163 43.3122 27.1952 43.4741 26.7947 43.6599C26.3947 43.8583 25.9856 44.0202 25.5728 44.1981L24.3512 44.7359C23.9411 44.9021 23.5411 45.0799 23.1328 45.2498H23.1331ZM23.3997 46.3698C23.3997 46.3698 25.8915 44.9095 26.7491 44.4402C27.1981 44.1895 28.6504 43.4693 28.6504 43.4693L23.3997 46.3698Z" fill="#CFB66C"/>
<path fill-rule="evenodd" clip-rule="evenodd" d="M23.3984 46.3704C23.819 46.1115 24.2478 45.8486 24.6766 45.5816L25.3166 45.1931C25.535 45.0638 25.7454 44.9424 25.968 44.8131C26.1864 44.6835 26.3968 44.5542 26.6192 44.4328C26.7251 44.3675 26.836 44.3107 26.951 44.263L27.2907 44.0931C27.7398 43.8747 28.1888 43.652 28.6622 43.4619C28.2334 43.7331 27.7923 43.9638 27.3515 44.2022C27.1331 44.3235 26.9104 44.4328 26.692 44.5542C26.4736 44.6755 26.2632 44.8051 26.0406 44.9224C25.8222 45.0518 25.6118 45.1731 25.3894 45.2904L24.7299 45.6504L23.399 46.3704H23.3984ZM28.6288 43.7894C28.6288 43.7894 27.0795 44.9787 26.5779 45.359C26.0763 45.7392 24.5998 46.8072 24.5998 46.8072L28.6288 43.7894Z" fill="#CFB66C"/>
<path fill-rule="evenodd" clip-rule="evenodd" d="M37.5194 53.3802L36.7266 51.8794L37.1876 50.0023L40.4764 48.7322L39.0767 45.8602L39.7684 42.9597L41.0671 40.3623L45.0802 39.7314L48.029 36.9199L54.3964 37.4013L55.6463 44.2095L53.2394 52.7815L51.8682 57.2194L46.3098 57.4298L43.729 55.6418L40.7071 54.3794L37.5194 53.3802Z" fill="#E2CC85"/>
<path fill-rule="evenodd" clip-rule="evenodd" d="M47.2695 53.3317C47.2695 53.3317 46.5007 53.6837 45.1895 53.6026C44.8101 53.093 42.1525 52.8544 42.1525 52.8544C42.1525 52.8544 41.8207 52.7533 41.2341 52.996C40.6437 53.236 40.0853 53.2064 39.5634 53.3357C39.0415 53.465 38.5234 52.7856 38.1234 52.644C37.7234 52.4944 37.193 52.1344 37.193 52.1344L36.073 52.025L33.8239 51.0744L30.2509 47.5146L29.2799 49.0346L28.9805 50.9157L30.0607 53.1448L32.9693 55.7944L38.6407 57.2344L42.0023 56.244L46.2135 54.464L47.2695 53.3314V53.3317Z" fill="#F1D789"/>
<path fill-rule="evenodd" clip-rule="evenodd" d="M27.119 40.7516L27.839 38.5713L28.6968 37.1633L31.4595 36.9326L30.6302 39.3518L28.3206 43.462L29.2792 47.131L27.5803 47.9803L27.0582 47.1796L26.6376 45.343L26.6094 43.2798L27.119 40.7516Z" fill="#F4ECB4"/>
<path fill-rule="evenodd" clip-rule="evenodd" d="M30.2174 53.1819L29.6875 52.4416C29.6875 52.4416 29.5459 52.0896 29.627 51.7822C29.707 51.4707 29.6955 51.4504 29.6553 51.3331C29.615 51.2158 29.275 50.8112 29.2953 50.4632C29.3153 50.1112 29.267 49.9939 29.5257 49.715C29.7966 49.444 29.7158 48.9747 29.7158 48.9747L30.0678 49.1931L30.1478 49.0718C30.1478 49.0718 30.2771 49.1728 30.2771 49.3307C30.3054 49.1123 30.1881 48.1008 30.455 47.8704C30.7219 47.64 31.1953 48.9504 31.1953 48.9504L30.9041 47.0491L30.1555 45.0995L28.8246 43.3195L28.7446 41.3574V41.1875C28.7446 41.1875 28.1337 42.1262 27.9638 42.8675C27.8425 43.3771 28.1337 43.996 28.0731 44.7283C28.0243 45.4566 27.9638 45.3998 28.1417 45.6883C28.3195 45.9768 28.7526 46.5702 28.5827 46.999C28.4331 47.3672 27.9233 47.1083 27.9233 47.1083C27.9233 47.1083 27.8222 47.4075 27.6846 47.5168C27.6361 47.339 27.5835 47.2256 27.4865 47.1168C27.4782 47.1856 27.4582 47.2787 27.4582 47.2787C27.4582 47.2787 27.3691 46.9995 27.2801 46.6475C27.159 46.1784 27.0294 45.5595 26.9121 45.2278C26.8635 45.4179 26.7422 45.9963 26.7422 45.9963L26.811 46.8864L27.1427 48.108L27.4627 48.908L27.7742 49.887L28.0449 50.5446L28.2633 51.0462L28.4534 52.175L29.3715 53.1456L29.8611 53.3643L30.2169 53.1822L30.2174 53.1819Z" fill="#F3E19D"/>
<path fill-rule="evenodd" clip-rule="evenodd" d="M27.602 38.9713C27.602 38.9713 26.9426 40.0913 26.7527 41.2204C26.5628 42.3494 26.3927 43.5425 26.5127 45.0796C26.634 46.6292 26.8647 47.5796 27.0508 48.2593C27.3708 49.3881 28.1996 50.9577 28.1996 50.9577L28.2279 50.8969C28.0886 50.6328 27.9774 50.3548 27.8962 50.0675C27.7868 49.6388 27.7463 49.1292 27.6452 48.8985C27.5562 48.6681 27.4066 48.4697 27.3338 48.1865C27.265 47.9155 27.2538 47.4867 27.0426 47.1673C26.9535 47.0377 26.8442 46.698 26.8119 46.3582C26.7714 45.8484 26.8322 45.2779 26.7836 44.8089C26.6946 44.0281 26.634 43.4982 26.7148 43.0894C26.7956 42.6806 27.2167 41.5201 27.4756 40.5977C27.6455 40.007 27.5442 39.5094 27.8556 38.9956C28.1671 38.486 28.3575 38.0369 28.426 37.7254C28.506 37.4422 27.601 38.9713 27.601 38.9713H27.602Z" fill="#F2E8B0"/>
<path fill-rule="evenodd" clip-rule="evenodd" d="M30.7286 38.5225C30.7286 38.5225 30.3889 38.6238 30.227 38.8017C30.0652 38.9715 29.9964 39.1131 29.778 39.4003C29.5596 39.6875 29.5473 39.9222 29.3692 40.2822C29.1913 40.6342 28.7988 41.1641 28.7502 41.3542C28.7017 41.5443 28.6209 42.4342 28.5198 42.855C28.4308 43.2758 28.6209 43.7937 28.6209 43.7937L28.8513 43.7449C28.8513 43.7449 28.8513 44.0443 29.082 44.2467C29.3124 44.4449 29.3529 43.575 29.3529 43.575L30.2145 40.6665L31.5129 39.7846L31.6545 39.0726L30.7281 38.5225H30.7286Z" fill="#F5EEC0"/>
<path fill-rule="evenodd" clip-rule="evenodd" d="M31.3582 39.8407C31.3582 39.8407 30.7472 39.881 30.448 40.0997C30.3267 40.1885 30.2782 40.2613 30.1488 40.3706C29.9102 40.5687 29.6672 40.7509 29.5502 41.0106C29.4206 41.2693 29.279 41.6618 29.1819 42.4021C29.1414 42.7135 29.1414 43.0007 29.1131 43.2517C29.0726 43.5914 29.012 43.8623 29.0443 44.0517C29.0848 44.4399 29.4854 44.6423 29.5243 45.0831L30.3536 44.6626L31.1344 41.5839L32.7931 40.5439L31.8544 39.4922L31.3571 39.8389L31.3582 39.8407Z" fill="#E6DB9D"/>
<path fill-rule="evenodd" clip-rule="evenodd" d="M26.9846 60.5717C26.9881 60.5413 26.9916 60.5109 26.995 60.4797C27.1161 59.4397 27.1366 58.6515 27.2254 58.1579C27.3548 57.4581 27.4438 57.1979 27.4236 56.936C27.3953 56.5155 27.363 56.208 27.4036 55.8843C27.4641 55.4555 27.8849 54.9459 27.8729 54.5939C27.8646 54.3147 27.723 54.1328 27.6017 53.9629C27.4804 53.7931 27.3833 53.6515 27.3833 53.6515C27.3833 53.6515 28.2126 53.0811 28.2046 50.7832C28.2216 50.788 28.2379 50.7948 28.2532 50.8035L28.6617 51.9643L28.9409 52.304L30.0129 54.3024L31.3924 55.6416L33.431 57.0128L34.7094 58.404L34.8388 62.1136L33.1681 64.2819L32.8945 64.7773C30.7208 63.6861 28.7276 62.2676 26.9844 60.5715L26.9846 60.5717Z" fill="#E5CB7A"/>
<path fill-rule="evenodd" clip-rule="evenodd" d="M32.0898 64.1205C32.0898 64.1205 32.1181 63.6594 32.4984 63.3599C32.5592 63.461 32.5994 63.5583 32.5874 63.6309C32.6562 63.5098 33.1376 62.733 34.2258 62.5306C35.3141 62.3325 35.577 61.5397 35.577 61.5397L37.8866 59.4402L40.5282 57.009L43.7402 55.8802L45.2413 55.5119C45.2413 55.5119 45.2696 55.6213 45.213 55.8639C45.492 55.8439 46.1109 55.7023 46.7541 55.4757C47.013 55.3746 47.256 55.3341 47.3853 55.4677C47.5754 55.6455 47.6037 56.0663 47.6157 56.317C47.9272 56.2482 48.2872 55.949 48.5757 55.9773C49.037 56.0258 49.4456 56.5679 49.9149 56.5679C50.5338 56.5679 50.8128 56.1877 51.2458 55.8882C51.5048 55.7103 51.8768 55.4882 52.0872 55.3381C52.5888 54.9698 57.8962 53.3477 57.8962 53.3477L59.757 53.469L60.0565 55.4674L59.8965 60.6914C59.8768 60.7103 59.857 60.7301 59.837 60.749L51.3762 65.1679L39.6482 66.9658C37.0211 66.5366 34.4859 65.6645 32.1506 64.3869L32.0906 64.1202L32.0898 64.1205Z" fill="#D8C173"/>
<path fill-rule="evenodd" clip-rule="evenodd" d="M27.6953 61.2365C27.862 60.8879 28.0118 60.5965 28.0382 60.4922C28.059 60.7023 28.0972 61.1634 28.174 61.6535C28.0127 61.5165 27.8532 61.3773 27.6953 61.2362V61.2365Z" fill="#F1D789"/>
<path fill-rule="evenodd" clip-rule="evenodd" d="M36.2636 66.1523L37.7804 65.7304L37.9097 65.7709C37.9097 65.7709 37.9785 65.8115 37.9785 65.9488C38.1687 65.8397 38.3305 65.8597 38.4479 65.7872C38.5084 65.9165 38.5689 66.3453 38.8361 66.3979C39.1151 66.4587 39.4145 66.2765 39.718 66.0461C40.0172 65.8075 40.358 65.508 40.6159 65.3867C40.7105 65.5606 40.7943 65.7403 40.8668 65.9245C41.2065 65.6536 41.7972 64.5533 42.6385 64.5733C42.8817 63.9987 43.2879 63.5079 43.8071 63.1616C44.5879 62.6317 45.0772 62.5912 45.6881 62.6397C45.9308 62.3245 46.2298 62.0571 46.57 61.8509C46.6711 61.8915 46.9503 62.0613 47.2983 61.8995C47.6503 61.7379 48.0465 61.1107 48.5684 61.0299C48.8496 60.9912 49.1355 61.0512 49.3775 61.1997C49.3775 61.1997 50.8975 59.6907 51.9463 59.1891C51.9057 59.0677 51.8249 58.6107 53.0545 57.5992C53.1233 57.66 53.0748 57.8299 53.1233 57.8392C53.1433 57.8392 53.4433 57.7099 53.8231 57.4184C54.2924 57.0667 54.8545 56.6984 55.1943 56.5973C55.8343 56.4072 56.5132 56.7955 56.5132 56.7955C56.5709 56.755 56.6353 56.7248 56.7033 56.7064C56.8649 56.6781 56.9823 56.6579 57.0713 56.6264C57.0633 56.8368 57.1807 57.1968 57.0713 57.5083C57.198 57.5795 57.3321 57.6365 57.4713 57.6781C57.4028 57.8277 57.2529 58.208 57.0023 58.3901C57.2124 58.4912 57.2407 58.6085 57.5401 58.7101C57.4188 58.88 57.2201 59.1715 57.1316 59.3501C57.0425 59.5403 56.7228 60.3291 56.5812 60.6283C56.4316 60.9277 56.2295 61.4779 56.1321 61.5883C56.0348 61.6987 55.6831 62.1667 55.4121 62.3971C55.6521 62.308 56.634 62.0088 57.0505 61.8955C56.9265 62.0773 56.298 63.0099 55.6937 63.9067C52.8005 65.6408 49.5709 66.7384 46.2202 67.1263C42.8695 67.5142 39.4746 67.1835 36.2617 66.1563L36.2636 66.1523Z" fill="#E0CD81"/>
<path fill-rule="evenodd" clip-rule="evenodd" d="M31.4593 39.7319C31.4593 39.7319 31.1076 39.7319 31.0388 39.7804C30.97 39.8289 31.3908 39.9303 31.5201 39.9788C31.6495 40.0273 31.9287 40.2497 32.0015 40.4279C32.0703 40.5977 34.5297 41.5887 34.5297 41.5887L36.2692 41.4996L36.8689 40.6711L35.7281 39.6719L36.5281 37.3135L35.4684 37.4833L32.9199 39.0033L31.6415 39.4929L31.4593 39.7319Z" fill="#DFC57C"/>
<path fill-rule="evenodd" clip-rule="evenodd" d="M35.2788 40.5127C35.3039 40.5534 35.3393 40.5868 35.3815 40.6095C35.4236 40.6322 35.4709 40.6434 35.5188 40.642C35.8788 40.642 36.2102 40.7311 36.3478 40.913C36.5785 41.2044 37.2177 42.1348 37.2177 42.1348L38.7468 42.685L38.8454 40.8844L37.1748 39.7236L35.2734 40.4234V40.5124H35.2777L35.2788 40.5127Z" fill="#E5CC7C"/>
<path fill-rule="evenodd" clip-rule="evenodd" d="M34.9791 41.1795C34.9791 41.1795 35.2581 41.1998 35.6101 41.0702C35.9621 40.9406 36.5405 40.6616 36.7914 40.771C37.1431 40.9206 37.0703 41.3899 37.4509 41.811C37.6813 42.0699 38.1021 42.0619 38.3407 42.3411C38.5794 42.6203 39.4005 42.4907 39.4005 42.4907L39.7119 44.1707L38.4621 45.7728L38.0533 47.763H36.3631L34.8191 47.1504L34.0586 45.3104L34.4389 43.4496L34.9791 41.1795Z" fill="#D2C281"/>
<path fill-rule="evenodd" clip-rule="evenodd" d="M38.2474 41.2609C38.2893 41.2738 38.3329 41.2807 38.3767 41.2812C38.3282 41.3217 38.2269 41.4105 38.2674 41.6412C38.3079 41.8719 38.4373 42.1631 38.3282 42.3409C38.4153 42.4361 38.4802 42.5494 38.5183 42.6727C38.5871 42.8711 38.6074 43.0529 39.0562 43.0815C38.9914 43.1213 38.9317 43.1689 38.8783 43.2231C38.8783 43.2231 39.1898 43.494 39.3477 43.7447C39.5093 43.7377 39.9381 43.6044 39.9381 43.6044L40.0271 43.6652L40.2173 43.5852C40.2173 43.5852 40.0394 43.5164 40.1687 43.0836C40.2901 42.7033 40.3994 42.7236 40.4087 42.6953C40.4181 42.6671 40.4978 42.2665 40.4978 42.1047C40.5583 41.8945 40.6069 41.2553 40.6069 41.2553L40.4775 39.8436L39.7495 39.4025L39.1575 38.8311L38.5991 39.8828L38.2314 40.2495L38.2031 41.1596L38.2474 41.2609Z" fill="#E2C270"/>
<path fill-rule="evenodd" clip-rule="evenodd" d="M40 40.0795C40 40.0795 40.1293 40.4475 40.1781 40.7307C40.1953 40.6756 40.2048 40.6185 40.2064 40.5608C40.2064 40.5608 40.3075 41.1192 40.3275 41.3499C40.368 41.3416 40.4075 41.3296 40.4165 41.3699C40.4256 41.4101 40.5179 41.8595 40.4965 42.1101C40.665 41.8322 40.8981 41.5991 41.176 41.4307C41.3379 41.3293 41.528 41.2203 41.7264 41.212C42.0379 41.204 42.2643 41.4104 42.6365 41.4104C43.5344 41.4104 44.3477 40.7509 44.9464 40.5488C45.3872 40.3989 45.7675 40.2899 46.0344 40.0469C46.164 39.9379 46.3947 39.6952 46.6048 39.3349C46.884 38.8549 47.1752 38.4371 47.4667 38.3845C47.3348 38.4088 47.2006 38.4183 47.0667 38.4128C47.0667 38.4128 47.1557 38.3237 47.3067 38.2024C47.4576 38.0811 47.6384 37.9315 47.8971 37.9315C48.3584 37.9315 48.5888 38 48.8477 38C49.1067 37.992 49.2563 37.9315 49.2563 37.9315C49.2563 37.9315 49.5275 38.1216 50.1381 38.1216C50.7491 38.1296 51.1576 38.1821 51.4773 38.2107C51.7971 38.2392 52.8688 38.1216 53.1763 38.1307C53.3767 38.1384 53.5736 38.1866 53.7549 38.2723L52.7637 35.3923L49.2032 32.2803L47.0835 33.7811L43.8227 37.0416L40.6675 38.2107L40.008 38.9509V40.0795H40Z" fill="#CCB360"/>
<path fill-rule="evenodd" clip-rule="evenodd" d="M47.0801 38.4293C47.0801 38.4293 47.1692 38.3405 47.3185 38.2192C47.4678 38.0979 47.6505 37.948 47.9092 37.948C48.3702 37.948 48.6009 38.0168 48.8598 38.0168C49.1188 38.0088 49.2684 37.948 49.2684 37.948C49.2684 37.948 49.5398 38.1379 50.1502 38.1379C50.7612 38.1459 51.1697 38.1984 51.4894 38.2267C51.8092 38.2549 52.8809 38.1379 53.1884 38.1467C53.3888 38.1542 53.5855 38.2024 53.7668 38.2883L53.3177 36.9896L52.7961 35.9987L51.3073 34.3683C51.3073 34.3683 49.5206 33.3165 49.507 33.3085C49.499 33.3005 48.8881 33.1387 48.8881 33.1387L47.27 34.1176L45.8017 37.9163L45.7734 38.7163L46.7238 39.1653C46.9625 38.7653 47.2257 38.4453 47.4724 38.4048C47.2497 38.4291 47.0798 38.4291 47.0798 38.4291L47.0801 38.4293Z" fill="#D5B457"/>
<path fill-rule="evenodd" clip-rule="evenodd" d="M47.0587 38.7001C46.9171 38.7081 46.8001 38.6798 46.7675 38.5788C46.6462 38.239 46.5491 38.1905 46.4475 38.1905C46.3459 38.1905 46.2089 38.4089 46.1275 38.4289C46.0462 38.4489 45.9497 38.1782 45.9497 38.1782L45.8606 38.1377C45.8606 38.1377 45.3387 38.4774 44.9707 38.878C44.6027 39.2785 43.9998 39.9582 43.7289 40.0793C43.4579 40.2004 42.5273 40.2412 42.2089 40.31C41.8905 40.3788 41.5374 40.6094 41.4889 40.662C41.4403 40.7145 41.6307 40.771 41.659 40.8236C41.6873 40.8721 41.3473 40.8518 41.319 40.9036C41.299 40.9441 41.399 41.1745 41.4486 41.2918C41.5354 41.2487 41.6306 41.2252 41.7275 41.223C42.039 41.215 42.2657 41.4214 42.6377 41.4214C43.5358 41.4214 44.3489 40.762 44.9475 40.5596C45.3886 40.41 45.7689 40.3006 46.0358 40.058C46.1651 39.9489 46.3958 39.706 46.6062 39.346C46.7598 39.0993 46.9097 38.8686 47.0595 38.6988L47.0587 38.7001Z" fill="#D2B257"/>
<path fill-rule="evenodd" clip-rule="evenodd" d="M34.1799 58.7205C34.1799 58.7205 34.0999 58.4211 33.3585 57.6485C33.1481 57.4301 33.0188 57.2485 32.8772 57.1187C32.5252 56.7867 32.3188 56.6979 32.0681 56.5077C31.518 56.0992 30.9193 56.0992 30.4583 55.5976C29.9972 55.096 29.4599 54.1376 29.0865 53.1581C28.7185 52.1792 28.6172 51.8677 28.6172 51.8395C28.6172 51.8112 28.7185 51.6211 28.8479 51.6493C28.9772 51.6776 28.9772 51.9283 29.0097 51.9891C29.0742 52.0883 29.1472 52.1817 29.2281 52.268C29.4183 52.4867 29.6892 52.748 29.8268 53.1379C29.7985 52.8061 29.6852 52.4381 29.6852 52.4381C29.6852 52.4381 30.3972 52.8872 31.0039 53.3563C31.6148 53.8256 31.8655 53.9875 32.0439 54.2867C32.2223 54.5859 32.6425 55.3749 32.8439 55.6056C33.0452 55.8363 35.8039 56.7059 35.8039 56.7059L37.1161 57.6843L37.7676 59.1123L37.2577 59.9123L36.2788 60.1227L34.6889 59.4107L34.1799 58.7203V58.7205Z" fill="#D2B159"/>
<path fill-rule="evenodd" clip-rule="evenodd" d="M30.6484 53.8013C30.6484 53.8013 30.9802 54.3311 31.7892 54.8327C32.5175 55.2738 33.6703 55.6743 34.698 55.913C35.2884 56.0546 35.8791 56.1637 36.409 56.1719C37.837 56.1919 38.8199 55.7837 40.0378 55.6501C40.6972 55.5813 41.5063 55.5287 42.3476 55.3301C43.4276 55.0711 44.0668 54.7797 44.9367 54.3701C45.5676 54.0789 46.1463 53.8605 46.6154 53.5813C47.2748 53.193 47.7562 52.7602 48.3146 52.6309C48.2458 52.821 48.173 53.1607 47.6228 53.5127C47.914 53.5045 48.3146 53.4845 48.3146 53.4845C48.3146 53.4845 47.9263 53.7149 47.2426 54.2327C46.8218 54.5527 46.2636 55.0943 45.6932 55.4543C45.325 55.685 44.9244 55.8543 44.6615 55.9925C44.0215 56.3445 43.7634 56.5223 43.3428 56.9525C43.4924 56.9445 43.5047 56.9525 43.5047 56.9525C43.5047 56.9525 42.9746 57.0213 42.5946 57.2234C42.5146 57.2234 42.3759 57.1951 42.1332 57.2639C41.9431 57.3245 41.6922 57.4623 41.4335 57.5349C41.0652 57.6442 40.9442 57.5957 40.9442 57.5957L41.0047 57.717C41.0047 57.717 40.5247 57.7087 40.3647 57.725C40.393 57.733 40.385 57.7453 40.385 57.7453C40.3569 57.75 40.3298 57.7595 40.305 57.7735C40.228 57.8234 40.1433 57.8603 40.0543 57.8826C40.0058 57.8906 39.9652 57.8906 39.9044 57.9029C39.9247 57.9514 40.0826 58.2229 40.1554 58.3829C40.0948 58.4234 39.1844 59.1111 39.1844 59.1111C39.2127 59.1556 39.2358 59.2031 39.2532 59.2527C39.2815 59.3415 39.2938 59.4711 39.322 59.5317C39.3906 59.653 39.4311 59.6733 39.4311 59.6733C39.4311 59.6733 39.322 59.6935 39.1316 59.7421C38.97 59.7826 38.7716 59.8511 38.4916 59.8917C38.4057 59.9028 38.3193 59.9096 38.2327 59.9119C38.2732 60.001 38.4511 60.3407 38.1234 60.733C37.7956 61.1253 37.6946 61.1823 37.5935 61.433C37.5426 61.3945 37.4885 61.3606 37.4316 61.3317C37.3226 61.2831 37.1727 61.2106 37.1202 61.1133C37.0895 61.2429 37.049 61.3701 36.9988 61.4935C36.8978 61.7645 36.7482 62.0317 36.7199 62.2338C36.6106 62.1125 36.4084 61.8738 36.1292 61.9223C35.85 61.9709 35.6276 62.3511 35.5791 62.4605C35.5791 62.3917 35.5306 62.3391 35.5186 62.4199C35.5103 62.509 35.3567 63.4391 34.4991 64.1917C34.4911 64.0015 34.4911 63.5807 34.4708 63.4434C34.3908 63.5234 34.293 63.6415 33.7103 63.8925C33.1399 64.1431 33.2303 64.3941 33.2303 64.3941C33.2303 64.3941 33.1818 63.9941 33.4892 63.5727C33.8007 63.1522 33.9908 62.9538 33.9908 62.9215C33.9858 62.8887 33.9718 62.8578 33.9503 62.8325C33.9098 62.7919 33.829 62.7434 33.829 62.7111C33.8775 62.6911 34.3588 62.4605 34.3306 61.9829C34.3023 61.5543 34.1204 61.3317 33.9908 61.1741C33.9708 61.1538 34.1812 61.0042 34.1527 60.9557C34.1324 60.9274 33.8738 60.737 33.8412 60.6357C33.8489 60.5752 33.8625 60.5156 33.8818 60.4578C33.91 60.3687 33.9303 60.3079 33.9223 60.2474C33.902 60.1463 33.7927 59.8671 33.7604 59.8389C33.7887 59.8469 33.9908 59.8389 33.9908 59.8389C33.9908 59.8389 33.8292 59.5799 33.8007 59.4586C33.7722 59.3373 33.7116 59.0175 33.6794 58.957C33.7482 58.965 33.918 58.977 33.918 58.957C33.9263 58.8962 33.7684 58.7951 33.838 58.717C33.8866 58.725 33.9796 58.7655 34.0684 58.8789C34.0199 58.7493 33.9391 58.4986 33.769 58.3975C33.849 58.3693 34.121 58.2962 34.3596 58.4378C34.5983 58.5794 34.6796 58.7775 34.6796 58.7775C34.6796 58.7775 34.8212 58.8869 35.0399 59.0487C35.2906 59.2469 35.61 59.5287 36.1199 59.7282C36.2292 59.789 36.5082 59.789 36.7106 59.7485C36.7987 59.7275 36.8832 59.6934 36.9612 59.6474C36.9894 59.6308 37.0193 59.6172 37.0503 59.6069C37.0068 59.5196 36.9568 59.4357 36.9007 59.3559C36.9695 59.3559 37.0503 59.3642 37.0503 59.3642C37.0503 59.3642 37.0988 59.2549 36.8804 59.0442C36.929 58.9957 36.9898 58.9642 36.9898 58.8823C36.921 58.8743 36.7996 58.7733 36.7714 58.7327C36.8116 58.7045 36.8724 58.6114 36.9412 58.5831C36.8804 58.5346 36.7308 58.3322 36.662 58.3122C36.7278 58.2878 36.7914 58.258 36.8522 58.2231C36.8522 58.2231 36.5124 58.1341 36.4031 58.0613C36.2938 57.9813 36.1322 57.8429 36.0351 57.8023C35.9338 57.7618 35.7559 57.7418 35.6831 57.6607C35.7516 57.681 35.861 57.6607 35.942 57.6607C36.0026 57.6607 36.0311 57.6687 36.0511 57.6687C36.0431 57.6405 36.0431 57.5797 36.201 57.5597C36.2769 57.5482 36.3506 57.525 36.4194 57.4909C36.4194 57.4909 36.2695 57.4829 36.0994 57.321C35.9292 57.1591 35.7879 57.0298 35.6908 57.0095C35.5898 56.9893 35.3996 57.0783 35.2823 57.0701C35.1204 57.0501 35.0516 56.969 35.0516 56.969C35.0516 56.969 34.5138 57.0175 33.3204 56.2895C32.2887 55.6583 31.8396 55.1002 31.8396 55.1002C31.7431 55.0651 31.6498 55.0218 31.5607 54.9706C31.1724 54.7685 30.6343 54.3477 30.6506 53.7973L30.6484 53.8013Z" fill="#C2A44D"/>
<path fill-rule="evenodd" clip-rule="evenodd" d="M45.5321 29.5212C45.6257 29.5516 45.7089 29.6076 45.7721 29.683C45.9623 29.9014 46.0836 30.314 45.6508 30.755C45.8207 30.8156 45.8908 30.835 46.0391 30.8156C45.8895 30.9937 45.5497 31.374 45.5295 31.7057C45.5092 31.9766 45.6791 32.0577 45.6791 32.0577C45.6791 32.0577 45.4201 32.3569 45.4081 32.8577C45.5304 32.7198 45.6642 32.5926 45.8081 32.4774C46.1076 32.2388 46.5201 31.9678 46.7993 31.798C46.7955 31.8692 46.8051 31.9404 46.8276 32.0081C46.8276 32.0081 47.3492 31.5793 47.7876 31.7697C47.9857 31.8588 47.8967 32.1377 47.8967 32.1377C47.8967 32.1377 48.1679 32.0366 48.358 32.2268C48.5481 32.4169 48.8169 32.9073 48.9548 33.0974C49.0153 33.1865 49.1732 33.3564 49.3348 33.6193C49.5556 33.9874 49.7399 34.3762 49.8852 34.7801C49.8932 34.5697 49.9457 34.2422 50.5447 34.4484C51.1433 34.6588 51.8228 35.0998 52.3932 35.9684C52.9636 36.8369 53.1049 37.8174 53.3921 38.1908C53.6833 38.5508 53.9828 39.1494 54.0031 39.4004C54.0233 39.6513 53.914 40.4601 54.5127 42.6486C54.6825 41.9692 54.9415 40.4601 54.9415 40.4601L55.0831 39.1292L55.2449 35.011L50.9447 31.4385L47.5831 28.999L45.3945 29.2094L45.5319 29.5209L45.5321 29.5212Z" fill="#CAA13E"/>
<path fill-rule="evenodd" clip-rule="evenodd" d="M53.5217 35.6494C53.5217 35.6494 53.4609 35.2494 52.4497 34.5694C51.4383 33.8979 50.6495 33.8979 49.9215 33.3275C49.3631 32.8784 48.7807 31.8467 48.4015 31.507C48.0332 31.1712 47.9727 30.2003 47.9727 30.2003L49.2145 29.1603L51.0615 26.4907L52.6228 24.7715L53.3711 25.8115L54.4111 27.0331L54.9895 29.4846L55.1999 33.0728L53.5199 35.6496L53.5217 35.6494Z" fill="#B59544"/>
<path fill-rule="evenodd" clip-rule="evenodd" d="M54.7723 39.9513C54.8029 39.4071 54.7357 38.8618 54.5739 38.3414C54.3073 37.5121 53.7246 36.0395 53.4539 35.4881C53.3446 34.8771 53.4257 34.8286 53.543 34.7598C53.6603 34.691 54.1014 34.4398 54.343 33.5585C54.5846 32.6771 55.3342 32.6483 55.3342 32.6483L55.7953 32.3086L56.4953 34.0601L57.1059 35.6419L57.2961 36.8515L57.4377 37.883L57.1059 40.0635L55.4678 41.5441L54.7721 39.9513H54.7723Z" fill="#C89D3A"/>
<path fill-rule="evenodd" clip-rule="evenodd" d="M31.9102 64.2546V64.2098C31.9442 64.1886 31.9743 64.1615 31.999 64.1298C32.0272 64.0893 32.0478 64.0408 32.0678 64.0288C32.1083 64.0085 32.2984 63.9488 32.3995 63.968C32.5006 63.9872 32.7678 64.0973 32.9094 64.0893C33.2006 64.0813 33.5403 63.8586 34.0784 63.96C34.8875 64.1096 35.0776 64.6597 35.547 64.9712C35.867 65.1898 36.1982 65.0925 36.2467 65.0925H36.3558C36.376 65.0925 36.5256 64.9226 36.6067 64.9309C36.7686 64.9389 36.7846 65.0725 36.8856 65.0805C37.1243 65.1088 37.5856 64.9592 37.8163 65.02C37.8847 65.0414 37.9469 65.079 37.9976 65.1297C38.0483 65.1804 38.086 65.2425 38.1075 65.3109C38.156 65.4605 38.1155 65.6506 37.9982 65.76C37.7475 65.9904 37.5088 66.209 37.4603 66.4C37.522 66.447 37.5813 66.4972 37.6379 66.5504C35.6363 66.0404 33.7106 65.2694 31.9102 64.257V64.2546Z" fill="#CEB052"/>
<path fill-rule="evenodd" clip-rule="evenodd" d="M53.4531 56.1718C53.4531 56.1718 54.0841 55.3305 54.3027 54.9137C54.5211 54.4841 53.611 49.0441 53.611 49.0441L55.4395 43.0532L55.3907 41.1033C55.3907 41.1033 55.4798 39.303 55.6902 38.5222C55.9411 38.9713 56.7219 39.5134 56.8918 39.8006C56.9718 39.2502 57.2435 38.0894 57.2033 36.8516C57.3529 37.082 57.7129 39.4001 57.7129 39.4001L58.0729 40.9614L58.5422 42.6201L59.0641 44.3718L59.3755 45.5814L59.5534 45.8726L59.7033 46.3822L59.8449 46.9326L60.2534 48.223L60.4934 49.2828L60.6835 51.2044C60.7249 51.3515 60.7547 51.5016 60.7726 51.6534C60.7806 51.8638 60.7443 51.9852 60.7443 52.0217C60.7443 52.0582 60.8131 52.4828 60.7849 52.8025C60.7443 53.1225 60.7443 53.3729 60.4934 53.6025C60.2425 53.8321 60.0849 55.2044 60.0849 55.2044L59.6358 54.9052C59.6358 54.9052 59.7249 54.4964 59.5145 54.1244C59.3041 53.7524 58.8955 53.6753 58.6649 53.7361C58.4345 53.7846 57.9734 53.8572 57.8235 53.9868C57.6819 54.1161 57.3342 54.5166 57.0145 54.6988C56.6145 54.9388 55.9627 54.9577 55.615 55.0385C55.263 55.1185 54.8747 55.3585 54.4659 55.6372C54.1454 55.8447 53.807 56.0232 53.4547 56.1705L53.4531 56.1718Z" fill="#CCA847"/>
<path fill-rule="evenodd" clip-rule="evenodd" d="M53.4531 65.011C53.4531 65.011 53.4798 65.0283 53.5313 65.0566C56.4053 63.71 58.9804 61.8014 61.1046 59.4432C61.0814 58.6246 61.0513 57.7854 61.0182 57.4744C60.9497 56.815 60.9982 56.1435 60.9779 55.7552C60.9577 55.367 60.7393 53.7851 60.6382 53.3766C60.5289 52.968 60.3182 52.7656 60.2862 52.7656C60.2579 52.7739 60.0878 53.5344 60.0878 53.7256C60.0878 53.9168 60.0473 54.3771 60.0473 54.4944C60.019 54.4862 60.007 54.4144 60.007 54.3851C59.9665 54.4862 59.9179 54.6643 59.8977 54.6846C59.8774 54.7048 59.9259 54.5147 59.8977 54.4742C59.8694 54.4336 59.8177 54.4539 59.8289 54.3528C59.8336 54.2929 59.8431 54.2334 59.8571 54.175C59.8571 54.175 59.7358 54.3528 59.647 54.8059C59.5579 55.255 59.5579 55.2672 59.5257 55.3075C59.4974 55.3563 59.3355 55.5179 59.3273 55.5787C59.3193 55.6878 59.4771 55.7971 59.4891 55.8576C59.4971 55.959 59.3475 56.428 59.299 56.6576C59.2505 56.8872 59.2707 57.3371 59.219 57.5678C59.1785 57.7782 59.139 57.8995 59.0006 57.9883C59.1017 58.0086 59.1987 58.0368 59.1987 58.0368C59.1987 58.0368 59.3403 58.6355 58.9803 59.1454C58.851 59.3232 58.8187 59.4043 58.6811 59.5662C58.4099 59.8654 58.1995 60.2062 58.1793 60.4278C58.1653 60.3624 58.1558 60.2961 58.151 60.2294C58.151 60.2294 57.7305 60.719 57.5523 60.9982C57.3219 61.3582 57.0022 61.3379 56.9123 61.427C56.8225 61.516 56.803 61.6776 56.8323 61.8072C56.7523 61.8272 56.6019 61.8558 56.5006 62.1672C56.4521 62.3288 56.3307 62.4872 56.1406 62.596C55.9505 62.7048 55.7198 62.7376 55.6025 62.7659C55.7035 62.7942 55.7441 62.7942 55.7926 62.8264C55.7321 62.9275 55.4529 63.0854 55.1414 63.2878C54.8299 63.4779 54.6801 63.7568 54.6033 63.939C54.5233 64.1088 54.4051 64.2182 54.215 64.2384C54.295 64.287 54.4134 64.4 54.4739 64.4366C54.3849 64.4568 54.2339 64.4568 53.9643 64.6875C53.6811 64.9222 53.5841 64.991 53.4545 65.0112L53.4531 65.011Z" fill="#C39D3C"/>
<path fill-rule="evenodd" clip-rule="evenodd" d="M47.8216 66.886C47.9765 66.7774 48.1443 66.6884 48.3211 66.6212C48.952 66.3705 49.6195 66.322 49.8824 66.2412C50.1334 66.1612 50.3315 66.0508 50.643 65.9902C50.6347 66.0612 50.6278 66.1278 50.6203 66.1908C49.702 66.4794 48.767 66.7116 47.8203 66.886H47.8216Z" fill="#D2BA6B"/>
<path fill-rule="evenodd" clip-rule="evenodd" d="M59.4617 50.2905C59.4617 50.2905 59.3324 50.9902 59.1017 51.4313C58.8711 51.8724 58.6217 52.483 58.6217 52.483C58.6233 52.3454 58.6395 52.2084 58.6703 52.0742C58.3791 52.2441 57.6711 52.6529 57.4703 52.8348C57.2801 53.0046 56.9604 53.3041 56.8796 53.4457C57.0697 52.8876 57.2679 52.386 57.3004 52.1553C57.0092 52.3657 55.6497 53.4862 54.942 54.2265L52.7372 56.0105C52.4828 56.1477 52.2208 56.2704 51.9524 56.378C51.5724 56.5396 51.1233 56.6772 50.7916 56.8068C50.8807 56.5681 51.022 56.3574 51.2204 56.1553C51.4308 55.9572 52.0617 55.2734 52.1588 54.9553C52.2479 54.6236 52.2681 54.4254 52.1508 54.1462C52.0415 54.1745 51.7908 54.1868 51.6209 54.2353C51.4511 54.2838 51.2689 54.4657 51.2689 54.4657C51.2689 54.4657 51.3983 53.7254 51.6775 53.0257C51.4671 53.0337 51.1071 53.0942 51.1071 53.0942C51.1071 53.0942 51.6087 52.2529 52.4671 51.6665C52.2042 51.7224 51.947 51.8022 51.6985 51.9049C51.1969 52.1153 50.6468 52.4268 50.2383 52.5966C50.4687 52.2766 52.0868 49.9673 53.0497 47.815C54.0097 45.667 54.3684 45.1169 54.5788 43.9641C54.6879 43.3937 54.6588 42.5508 54.6879 41.7958C54.7161 41.0473 54.8092 40.3758 54.7487 39.9268C54.9993 40.2382 55.938 41.1161 55.9703 43.0782C55.9985 45.0401 55.0724 47.69 54.0892 49.1177C54.3292 49.1865 54.9511 49.2676 55.59 48.1577C56.2289 47.0478 56.2212 46.738 56.4519 46.2766C56.4801 46.5073 56.4719 46.5881 56.4719 46.5881C56.4719 46.5881 57.4025 45.4596 57.8433 44.0396C57.9324 44.6505 58.1953 45.1886 57.7825 46.3092C57.4145 47.3204 56.9332 47.5673 56.9332 47.5673C56.9332 47.5673 57.1719 47.5268 57.5236 47.3164C57.5844 47.466 57.5724 47.6364 57.6735 47.6966C57.7745 47.7569 57.9121 47.8585 57.9324 47.9556C58.0415 47.7937 58.2113 47.5873 58.2641 47.4337C58.2236 47.7537 58.1953 49.1529 58.3441 49.8649C58.6559 49.8366 58.9753 49.8164 59.1937 49.254C59.0441 49.8044 59.0441 50.1358 59.1452 50.6052C59.3111 50.4921 59.4607 50.2897 59.4607 50.2897L59.4617 50.2905Z" fill="#C0993A"/>
<path fill-rule="evenodd" clip-rule="evenodd" d="M48.9501 27.9919C48.9501 27.9919 48.6386 28.1212 48.1088 28.1212C47.6477 28.1212 47.777 27.9434 47.057 27.9434C45.9488 27.9434 42.0773 28.5834 41.3976 28.5743C40.9565 28.5663 42.8861 28.7644 42.8861 28.7644L47.8176 28.8332L48.8085 28.7532L49.1768 28.0039L48.9501 27.9919Z" fill="#A88F33"/>
<path fill-rule="evenodd" clip-rule="evenodd" d="M36.1609 37.6319C36.1609 37.6319 35.5297 38.1132 35.2628 38.4815C34.9958 38.8497 34.8542 39.0921 34.5508 39.3916C34.622 39.3943 34.6932 39.3848 34.7612 39.3633C34.7612 39.3633 34.7612 39.4433 34.7126 39.4644C34.7546 39.4597 34.797 39.4645 34.8369 39.4783C34.8768 39.4922 34.913 39.5147 34.943 39.5444C34.854 39.5929 34.6113 39.8359 34.8014 40.1231C34.943 40.3415 35.2425 40.3615 35.2425 40.3615C35.2425 40.3615 35.1737 40.5599 35.4609 40.5396C36.0798 40.5113 36.7716 40.2401 37.091 40.3089C37.411 40.3889 37.5929 40.4183 37.8193 40.8108C38.0593 41.1991 38.2684 41.2599 38.2684 41.2599C38.2684 41.2599 38.41 40.8996 38.3777 40.3617C38.4938 40.0718 38.5582 39.7638 38.5678 39.4516L38.3574 37.9023L37.4393 36.7412L36.25 37.4007L36.1609 37.6311V37.6319Z" fill="#E3C571"/>
<path fill-rule="evenodd" clip-rule="evenodd" d="M37.2891 37.4017C37.2891 37.4017 37.3781 37.6121 37.7504 37.6321C37.7099 37.7212 37.7099 37.7334 37.7221 37.802C37.7301 37.8708 37.7421 37.9718 37.7421 37.9718C37.7831 37.952 37.8202 37.9249 37.8515 37.8918C37.8717 37.9809 37.8312 38.1222 37.8515 38.2236C37.864 38.2852 37.8843 38.345 37.912 38.4014C37.9179 38.3876 37.9247 38.3742 37.9323 38.3612C37.9403 38.3409 38.0123 38.5796 38.2115 38.7612C38.2113 38.7333 38.2182 38.7057 38.2315 38.6812C38.2345 38.7319 38.2513 38.7808 38.28 38.8228C38.2651 38.8157 38.2515 38.8061 38.2397 38.7945C38.2397 38.7945 38.2597 39.4345 38.3691 39.7654C38.3873 39.7441 38.4036 39.721 38.4176 39.6966C38.4176 39.6766 38.4096 39.8748 38.3893 40.0166C38.3611 40.1582 38.3813 40.3564 38.3813 40.3564C38.4543 40.299 38.5344 40.2514 38.6197 40.2148C38.7411 40.166 38.9397 40.0164 39.0608 39.6846C39.131 39.4968 39.1852 39.3033 39.2227 39.1062C39.2618 39.1815 39.2888 39.2625 39.3027 39.3462C39.3109 39.4473 39.5011 39.3948 39.5011 39.3948L39.5416 38.9537L39.7816 37.9545L40 37.3356L41.0517 35.6974L42.952 34.234L44.6107 34.6142L46.0101 32.7129L43.5992 31.2646L41.3176 31.5033L39.2469 34.3713L37.5885 36.9726L37.2891 37.4014V37.4017Z" fill="#D8B65B"/>
<path fill-rule="evenodd" clip-rule="evenodd" d="M49.2392 33.2513C49.2392 33.2513 49.0976 33.2796 48.689 33.4913C48.2805 33.7031 47.9973 33.7703 47.8394 34.0817C47.6816 34.3932 47.6696 34.6401 47.6696 34.6401C47.6696 34.6401 47.9488 34.5188 48.1106 34.4783C48.2805 34.438 48.4706 34.45 48.4504 34.5188C48.4309 34.566 48.4039 34.6097 48.3704 34.6481C48.3704 34.6481 48.6904 34.6401 48.6818 34.798C48.6733 34.9559 48.6213 35.1297 48.5608 35.2065C48.5 35.2865 48.2493 35.4049 48.221 35.498C48.1522 35.6881 48.2493 35.6961 48.2128 35.8497C48.1845 35.9996 48.0512 36.2908 47.6141 36.8004C47.165 37.3103 46.9741 37.6703 46.9741 37.6703C46.9741 37.6703 46.7557 37.2617 46.6424 36.9097C46.5624 36.95 46.1328 37.1887 46.1328 37.1887L45.1376 33.722L45.1576 33.4913C45.1576 33.4913 45.2466 33.3823 45.2669 33.1799C45.1173 33.1313 45.097 33.0908 44.8986 32.9009C44.7002 32.7111 44.5386 32.4801 44.2072 32.3223C44.1586 32.2332 44.0978 32.1121 43.8552 32.0633C43.6125 32.0145 43.4669 31.9745 43.4669 31.9745C43.4669 31.9745 43.5962 31.9257 43.657 31.8247C43.5072 31.8449 43.3861 31.8935 43.0584 31.8855C42.7266 31.8772 42.6901 31.8652 42.5082 31.8935C42.3264 31.9217 42.1082 32.0028 42.0269 31.7236C41.9378 31.6548 41.7477 31.7156 41.5858 31.954C41.424 32.1924 41.3674 32.3828 41.056 32.4759C41.0341 32.6132 40.986 32.745 40.9144 32.8641C40.8253 33.014 40.6837 33.1636 40.4936 33.386C40.1941 33.738 40.2426 34.3164 39.7653 34.7575C39.284 35.1983 39.8453 33.5356 39.8453 33.5356L40.6138 31.6956L42.8024 29.5556L46.2005 29.3252L46.5322 31.0852L48.1909 31.6556L49.2386 33.2535L49.2392 33.2513Z" fill="#D3AE4D"/>
<path fill-rule="evenodd" clip-rule="evenodd" d="M49.7788 33.6391L48.3508 31.5801L47.3516 30.8113C47.3516 30.8113 46.6396 29.5009 46.5911 29.4604C46.5505 29.4321 45.8791 29.3593 45.4503 29.3311L45.5303 29.5292C45.6238 29.5596 45.707 29.6157 45.7703 29.6911C45.9604 29.9095 46.0817 30.322 45.6489 30.7631C45.8188 30.8236 45.8889 30.8431 46.0372 30.8236C45.8876 31.0017 45.5479 31.382 45.5276 31.7137C45.5073 31.9847 45.6772 32.0655 45.6772 32.0655C45.6772 32.0655 45.4182 32.3649 45.4062 32.8655C45.5285 32.7276 45.6623 32.6003 45.8062 32.4852C46.1057 32.2452 46.5183 31.9753 46.7975 31.8055C46.7936 31.8767 46.8032 31.9481 46.8257 32.0159C46.8257 32.0159 47.3473 31.5871 47.7857 31.7772C47.9838 31.8663 47.8948 32.1455 47.8948 32.1455C47.8948 32.1455 48.166 32.0444 48.3561 32.2345C48.5462 32.4247 48.8172 32.914 48.9548 33.1044C49.0153 33.1935 49.1732 33.3633 49.3348 33.626C49.5556 33.9942 49.7399 34.383 49.8852 34.7871C49.8932 34.6252 49.9257 34.3988 50.2052 34.3988L49.7804 33.6383L49.7788 33.6391Z" fill="#CAA13E"/>
<path fill-rule="evenodd" clip-rule="evenodd" d="M28.3691 39.4894C28.3691 39.4894 28.2681 39.2385 28.3691 38.7491C28.4702 38.2598 28.6281 38.0291 28.6806 37.3091C28.7331 36.5891 29.2025 35.691 29.2025 35.691L30.5009 35.1006L31.4193 35.3513L31.6902 36.5811L30.5291 37.2211C30.5291 37.2211 30.4686 37.4921 30.1409 37.7105C29.8131 37.9289 29.3601 38.0987 29.251 38.3214C29.1858 38.4577 29.1382 38.6018 29.1094 38.7502C29.1094 38.7502 28.7777 38.6814 28.5795 38.8998C28.3691 39.1225 28.3771 39.3206 28.3691 39.4905V39.4894Z" fill="#F4EFC8"/>
<path fill-rule="evenodd" clip-rule="evenodd" d="M30.9917 39.1615C30.9917 39.1615 30.8824 39.2303 30.8016 39.4015C30.7216 39.2722 30.5304 38.5034 30.5224 37.8117C30.5144 37.1199 30.4731 36.9485 30.6331 36.7101C30.7931 36.4717 31.4205 36.2205 31.3315 35.7911C31.2424 35.3826 30.8701 35.2127 30.4131 35.3301C30.0931 35.4101 29.8549 36.0906 29.5232 36.4303C29.2723 36.6893 28.9731 36.6487 28.8923 36.7903C28.7829 36.9805 28.884 37.1706 28.8517 37.2919C28.8435 37.3325 28.7424 37.5509 28.5603 37.8138C28.1923 38.3437 27.5693 39.0922 27.4883 39.7637C27.5165 39.3834 27.4965 39.3754 27.5976 38.9546L27.5368 38.8535L27.9368 37.5429L28.1957 36.4629L28.7744 34.6543L29.7936 32.8058L30.7848 31.6973L31.8163 31.7661L31.9376 33.3154L32.5283 36.2242L33.7701 37.7533L31.7797 39.0927L30.9909 39.1615H30.9917Z" fill="#EBCC73"/>
<path fill-rule="evenodd" clip-rule="evenodd" d="M31.6098 39.7105C31.6098 39.7105 31.44 39.7511 31.3792 39.7188C31.3184 39.6865 31.2581 39.65 31.2781 39.6095C31.2981 39.5689 31.4074 39.5004 31.4074 39.4679C31.4097 39.4385 31.4004 39.4094 31.3815 39.3867C31.3627 39.364 31.3357 39.3496 31.3064 39.3465C31.2133 39.3345 31.185 39.3951 31.185 39.3951C31.185 39.3951 31.096 39.3265 31.0234 39.3151C31.0664 39.3098 31.1095 39.3071 31.1528 39.3068C31.041 39.2562 30.9224 39.2221 30.8008 39.2057C30.9018 39.1452 31.1002 38.9671 31.2296 38.9671C31.3589 38.9671 31.44 38.9471 31.4197 38.8783C31.3994 38.8095 31.2984 38.7084 31.1893 38.6679C31.2296 38.6193 31.2581 38.5465 31.161 38.3479C31.0597 38.1497 31.1002 38.0161 31.1328 37.9679C31.161 37.9071 31.2621 37.798 31.3106 37.7292C31.3592 37.6604 31.3997 37.5673 31.4805 37.5188C31.521 37.4905 31.6504 37.4388 31.78 37.3895C31.9216 37.3409 32.0389 37.2801 32.1197 37.3409C32.2088 37.4015 32.1682 37.4825 32.1682 37.4825C32.1682 37.4825 32.4474 37.3812 32.6981 37.5108C32.949 37.6319 33.56 37.7089 33.56 37.7089L33.7789 38.15L32.3306 39.3919L31.732 39.6913L31.6106 39.7113L31.6098 39.7105Z" fill="#E5C66B"/>
<path fill-rule="evenodd" clip-rule="evenodd" d="M33.6195 37.6805C33.6195 37.6805 33.1704 37.98 33.0694 38.089C33.1299 38.0973 33.231 38.1378 33.1904 38.1984C33.1419 38.2589 32.8507 38.4693 32.6888 38.6677C32.519 38.8658 32.3571 39.1168 32.3006 39.2381C32.24 39.3472 31.7787 39.6669 31.6211 39.7072C31.9528 39.7072 32.6203 39.2986 32.871 39.2986C32.863 39.42 32.9398 39.5576 33.0814 39.5696C33.223 39.5816 33.6315 39.6586 34.1816 39.3189C34.7318 38.9872 34.5499 38.7402 34.7803 38.5786C35.2214 38.2872 35.3992 38.0282 35.6419 37.8666C35.8846 37.705 36.0102 37.6682 36.0102 37.6682C36.0102 37.6682 36.0182 37.5469 36.0902 37.5592C36.1099 37.5614 36.1286 37.569 36.1443 37.5812C36.16 37.5933 36.1721 37.6095 36.1792 37.628C36.1792 37.628 36.6 37.3285 37.1392 37.2477C37.1266 37.2421 37.1166 37.232 37.111 37.2194C37.111 37.2194 37.1512 37.1992 37.1595 37.1789C37.1595 37.1789 37.1878 37.1384 37.208 37.1586C37.2283 37.1789 37.2566 37.3285 37.2971 37.3893C37.3862 37.3488 37.556 36.9685 37.556 36.9685L37.9648 35.7994V34.7314L37.6448 34.7922L35.2448 35.8114L33.7883 37.3205L33.6184 37.6805H33.6195Z" fill="#E6BD62"/>
<path fill-rule="evenodd" clip-rule="evenodd" d="M40.5287 32.4416C40.6585 32.4101 40.783 32.3596 40.8981 32.2917C40.8495 32.4213 40.8495 32.5629 40.6391 32.8704C40.4287 33.1779 40.4207 33.2224 40.2508 33.5419C40.081 33.8736 40.0607 34.3509 39.8989 34.5611C39.9714 34.5258 40.0492 34.5027 40.1292 34.4925C40.1292 34.4925 39.9677 34.6341 39.8989 34.7837C39.8301 34.9333 39.7087 35.2448 39.4095 35.4352C39.1103 35.6256 38.7298 35.7467 38.3212 36.1957C37.9124 36.6365 37.4919 37.1949 37.2812 37.3957C37.3906 37.2056 37.5402 36.8253 37.5807 36.5747C37.6212 36.324 37.5724 36.0243 37.6412 35.6928C37.71 35.3613 37.71 35.1224 38.0412 34.5437C38.3724 33.9651 38.9394 31.9547 38.9394 31.9547L40.161 31.5664L40.5292 32.4403L40.5287 32.4416Z" fill="#B6933F"/>
<path fill-rule="evenodd" clip-rule="evenodd" d="M39.6471 31.7022C39.6471 31.7022 39.2791 32.232 39.178 32.7014C39.0769 33.1707 39.1697 33.1302 39.1092 33.3608C39.073 33.5015 39.073 33.649 39.1092 33.7896C39.2366 33.5843 39.4111 33.4123 39.6183 33.2878C39.9663 33.0776 40.2495 32.9278 40.4183 32.7499C40.5881 32.5598 40.7297 32.2483 41.0977 32.0096C40.9481 31.9894 40.7377 31.9206 40.6977 31.9296C40.8476 31.7598 41.2964 31.5008 41.7495 31.1894C42.1985 30.8694 42.1703 30.7403 42.8985 30.4208C42.6599 30.4614 42.5465 30.4006 42.3481 30.4208C42.4281 30.251 42.7081 30.1699 42.9881 29.891C43.2681 29.612 42.8103 29.1992 42.8103 29.1992L40.6769 30.4896L39.6455 31.7032L39.6471 31.7022Z" fill="#C49937"/>
<path fill-rule="evenodd" clip-rule="evenodd" d="M33.8594 30.7386L33.9079 30.3503L34.5188 29.3714L35.158 27.6522V25.3018L35.1095 23.9426L35.2106 23.0524L35.2874 22.7695L35.3684 22.6602L35.89 22.9311L36.6103 23.91L36.6791 25.7994L35.9791 28.7807L33.9807 30.9612L33.8594 30.7386Z" fill="#DFC068"/>
<path fill-rule="evenodd" clip-rule="evenodd" d="M35.4507 22.551C35.4507 22.551 35.1307 22.5593 35.0625 23.8902C34.9942 25.2212 34.9611 25.9209 34.9126 26.5804C34.8641 27.2398 34.751 27.6401 34.6942 28.0286C34.6374 28.4172 34.6051 28.9468 34.4233 29.2705C34.3433 29.4201 34.1723 29.8894 33.7718 30.2414C33.3227 30.6297 32.6518 30.9009 32.5502 30.9212C32.3721 30.9614 31.4699 31.0505 31.1019 31.2529C30.9726 31.3217 30.7499 31.4025 30.5033 31.6332C30.0137 32.074 29.3625 32.8628 28.8931 33.8134C28.1731 35.2334 27.4531 39.2422 27.4531 39.2422L27.615 38.9713C27.615 38.9713 27.6353 38.6113 27.9953 37.9801C28.3473 37.3492 28.2462 36.6412 28.7355 35.4316C28.9257 34.9705 29.1643 34.3718 29.4555 33.862C29.9169 33.0326 30.475 32.3206 31.0374 31.9324C31.9555 31.3014 32.967 31.1638 32.967 31.1638L34.0553 30.4438C34.0553 30.4438 34.2454 30.0758 34.4963 29.655C34.8481 29.0646 35.2963 28.4052 35.3942 27.4465C35.5441 26.0265 35.1838 25.0961 35.2041 24.2548C35.2243 23.4134 35.2323 22.7945 35.4025 22.6446C35.5726 22.4948 35.451 22.5516 35.451 22.5516L35.4507 22.551Z" fill="#A88F33"/>
<path fill-rule="evenodd" clip-rule="evenodd" d="M35.4502 28.9025C35.4502 28.9025 35.9302 27.7212 36.15 26.6734C36.1905 26.463 36.2713 26.2529 36.2916 26.083C36.3926 25.0918 36.4209 24.6833 36.2916 24.1412C36.1905 23.7412 35.8022 23.3806 35.5998 23.1012C35.4017 22.8097 35.3086 22.7012 35.3492 22.6398C35.3897 22.5785 35.5473 22.4782 35.7009 22.4902C35.8642 22.495 36.0248 22.5329 36.1729 22.6017C36.3211 22.6704 36.4537 22.7686 36.5628 22.8902C36.8742 23.2502 37.1209 24.4721 37.1209 24.4721L37.3804 26.0844L38.0398 28.115L35.4508 28.9041L35.4502 28.9025Z" fill="#C99E3D"/>
<path fill-rule="evenodd" clip-rule="evenodd" d="M39.9595 27.6731C39.9595 27.6731 39.8704 27.7134 39.7088 27.6731C39.7157 27.7392 39.7042 27.8058 39.6757 27.8658C39.6471 27.9257 39.6026 27.9766 39.5469 28.0129C39.3771 27.9441 37.7869 28.0817 37.7869 28.0817C37.7869 28.0817 37.0467 27.9521 36.816 26.9731C36.6544 26.3217 36.9373 25.4238 36.8443 24.8331C36.7027 23.9633 36.5045 23.7931 36.4843 23.5225C36.464 23.2518 36.4437 23.1827 36.4437 23.0129C36.3547 22.9926 36.3021 22.9643 36.2133 22.9643C36.1931 22.8843 36.2333 22.8145 36.1445 22.6729C36.1931 22.6931 36.5248 22.7337 36.9131 23.1017C37.2331 23.4011 37.2331 23.5102 37.2813 23.571C37.3419 23.6315 37.8315 24.051 38.0419 24.4691C38.2523 24.8873 38.6608 26.2206 38.7539 26.439C38.7821 26.5281 38.8429 26.6171 38.9939 26.8193C39.2285 27.1107 39.5723 27.5926 39.9605 27.6726L39.9595 27.6731Z" fill="#B58634"/>
<path fill-rule="evenodd" clip-rule="evenodd" d="M37.3398 23.5908C37.5849 23.9867 37.8051 24.3974 37.999 24.8207C38.2377 25.3586 38.3793 25.7996 38.6788 26.1596C38.5169 25.6906 38.2297 24.7682 38.0598 24.4404C37.8697 24.0938 37.4814 23.7204 37.3398 23.5911V23.5908Z" fill="#A88F33"/>
<path fill-rule="evenodd" clip-rule="evenodd" d="M34.5873 30.2415C34.5873 30.2415 34.1787 30.3425 33.4182 30.7431C33.1673 30.8724 32.9289 30.9815 32.6982 31.0828C32.099 31.3537 31.4563 31.6041 30.9465 31.7423C30.987 31.7908 31.007 31.8108 31.007 31.8108C31.007 31.8108 31.007 32.0092 31.1163 32.1223C31.0558 32.1831 30.2465 32.7332 30.4854 34.5737C30.647 34.5132 30.8371 34.4321 30.8654 34.4321C30.9142 34.4404 30.9262 34.5737 30.9867 34.5737C31.0473 34.5737 31.2457 34.4937 31.4561 34.2217C31.4481 34.3311 31.3267 35.4313 31.9779 36.1716C32.0993 36.03 32.4067 35.5607 32.4067 35.5607L32.4147 35.4111C32.4147 35.4111 32.443 34.8892 32.6131 34.4119C32.7833 33.9345 33.1147 33.5825 33.1147 33.5825L34.8457 31.1108L34.5867 30.2412L34.5873 30.2415Z" fill="#E6C367"/>
<path fill-rule="evenodd" clip-rule="evenodd" d="M32.972 33.8711C32.8928 33.9271 32.8055 33.9707 32.7131 34.0004C32.6848 33.8994 32.6443 33.5514 32.883 33.2116C33.1622 32.8028 33.7728 32.273 33.9427 31.8516C34.052 31.5804 34.0035 30.901 34.9744 30.0311C35.9454 29.1612 36.3254 28.862 36.3254 28.862L37.895 28.0732L39.8246 28.8338L38.8659 32.5911L38.1216 34.3511L35.1616 33.793L32.9718 33.8711H32.972Z" fill="#DCBA5A"/>
<path fill-rule="evenodd" clip-rule="evenodd" d="M34.1016 32.8508L34.4698 32.3897V32.062C34.4698 32.062 34.8784 31.9527 35.3192 31.5036C35.76 31.0545 36.3709 30.1929 36.909 30.2455C37.4472 30.3063 37.4997 31.4145 37.52 31.7263C37.5402 32.038 37.609 32.7455 37.7181 33.126C37.8394 33.5063 36.4074 34.9463 36.4074 34.9463L35.4349 35.6865L34.1016 32.8508Z" fill="#E9CE77"/>
<path fill-rule="evenodd" clip-rule="evenodd" d="M35.2383 36.6895C35.2383 36.6895 35.5377 36.2201 35.3183 36.1191C35.4476 35.8279 35.6863 35.5204 35.6863 35.5204C35.6863 35.5204 35.8561 35.0999 36.4063 34.582C36.9564 34.0641 37.2964 33.7201 37.3855 33.3724C37.4404 33.1458 37.4703 32.9138 37.4745 32.6807C37.534 32.7293 37.5976 32.7725 37.6647 32.81C37.7537 32.8505 38.1743 33.1983 38.1137 33.8983C38.0532 34.5983 37.7937 34.8895 37.7937 34.8895C37.7937 34.8895 37.5431 35.1401 37.3652 35.2697C37.1748 35.3991 37.1063 35.5487 36.7865 35.5609C36.8194 35.5348 36.8563 35.5143 36.8959 35.5001C36.8959 35.5001 36.5641 35.4599 36.386 35.6215C36.2079 35.7831 35.8292 36.2809 35.6391 36.4308C35.4489 36.5521 35.2391 36.6897 35.2391 36.6897L35.2383 36.6895Z" fill="#CDAE50"/>
<path fill-rule="evenodd" clip-rule="evenodd" d="M48.6917 28.8209C48.2138 28.6467 47.7116 28.5484 47.2032 28.5297C46.3536 28.5014 45.1117 28.55 43.8941 28.558C42.5835 28.566 41.3941 28.1089 39.7437 28.0281C39.4728 27.8662 38.7837 27.1582 36.6328 28.659C36.7621 28.651 38.1944 28.3273 38.6917 28.9505C39.1933 29.5694 39.0517 30.6212 38.9832 30.8718C38.8536 31.4302 38.4328 32.2433 38.2632 32.8137C38.0936 33.3841 38.1336 33.6838 38.0123 34.0838C37.8909 34.4838 37.624 34.6825 37.7816 35.1436C37.992 35.0142 38.1016 35.0142 38.4531 34.2254C38.8045 33.4366 38.7323 32.8742 39.3149 32.2068C39.8853 31.5353 40.8349 30.6169 41.196 30.3862C41.5571 30.1556 44.424 28.667 47.4259 30.087C48.1499 30.0102 48.692 28.8206 48.692 28.8206L48.6917 28.8209Z" fill="#D2A83E"/>
<path fill-rule="evenodd" clip-rule="evenodd" d="M37.839 28.2706C37.836 28.2402 37.8293 28.2103 37.819 28.1816C37.7909 28.1224 37.7541 28.0678 37.7097 28.0197C37.7097 28.0197 36.9977 27.8904 36.6377 27.9306C36.0065 27.9994 35.4361 28.7802 35.1692 29.1808C34.9022 29.5813 34.5705 30.2 34.2105 30.5197C34.2144 30.4885 34.2072 30.457 34.1902 30.4306C34.1902 30.4306 34.2105 30.4589 34.1702 30.4994C34.13 30.54 34.1297 30.56 34.15 30.5794L34.2108 30.64C34.2308 30.64 34.7892 30.389 35.5497 29.68C36.3588 28.9397 36.9777 28.56 37.3014 28.4298C37.4741 28.3565 37.6545 28.303 37.8393 28.2706H37.839Z" fill="#C29637"/>
<path fill-rule="evenodd" clip-rule="evenodd" d="M51.6504 25.2295C51.6504 25.2295 51.5208 25.3911 51.3589 25.5692C50.9989 25.9495 50.5296 26.378 50.1291 26.8191C49.7491 27.2399 49.3203 27.5676 48.8387 28.1178C48.3571 28.6679 47.7987 29.2786 47.6573 29.4567C47.528 29.6348 47.4269 29.926 47.4269 30.0756C47.3581 30.0271 47.2773 29.9746 47.2773 29.9746C47.3114 30.0381 47.352 30.0978 47.3987 30.1527C47.4997 30.2943 47.6573 30.4727 47.7384 30.5815C47.8379 30.72 47.9093 30.8766 47.9485 31.0426C47.9971 31.0506 48.3085 31.1114 48.6971 30.4722C49.0856 29.833 49.5949 29.1332 49.5949 29.1332L50.404 27.9316L50.9139 26.9124L51.5539 25.7716L51.6512 25.2295H51.6504Z" fill="#AC8132"/>
<path fill-rule="evenodd" clip-rule="evenodd" d="M52.4799 24.4121C52.4799 24.4121 51.9903 24.8121 51.8002 25.0521C51.61 25.2921 51.1602 25.922 51.1602 25.922L51.322 25.9017L52.1434 25.1737L52.4634 24.6033L52.4796 24.4132L52.4799 24.4121Z" fill="#A88F33"/>
<path fill-rule="evenodd" clip-rule="evenodd" d="M52.3303 56.5597C52.3303 56.5597 52.3223 56.228 52.5084 56.0299C52.6985 55.8315 53.1799 55.5403 53.6492 54.448C54.1185 53.3557 54.1708 53.1091 54.1708 53.1091C54.1708 53.1091 53.3295 53.8291 52.8108 53.9989C52.9321 53.748 53.0009 53.5701 53.0617 53.4405C52.9929 53.38 52.7017 53.3112 52.6735 53.2789C52.8351 53.1171 52.9241 52.7205 53.2519 52.4576C53.6727 52.1376 54.4412 51.5877 55.0385 51.0976C55.6359 50.6075 56.8103 49.4675 56.9601 49.1357C57.0492 49.2651 57.0692 49.3459 57.0692 49.3459C57.0692 49.3459 56.4788 50.1147 56.1713 50.604C55.9001 51.0248 55.9204 51.2635 55.9204 51.2635L56.4788 51.0235C56.4788 51.0235 56.6404 51.6221 55.9084 52.5325C56.2284 52.4112 56.3575 52.484 56.5393 52.3827C56.2399 52.5731 55.8273 52.832 55.4391 53.5437C55.0588 54.2557 54.5409 55.0851 53.6673 55.6027C52.8177 56.1488 52.3281 56.5573 52.3281 56.5573L52.3303 56.5597Z" fill="#A67A2E"/>
<path fill-rule="evenodd" clip-rule="evenodd" d="M50.1398 29.2426C50.1398 29.2426 49.808 29.934 49.7595 30.4722C49.7515 30.6018 49.719 30.7028 49.719 30.8524C49.711 31.3338 49.7472 31.8719 49.639 32.1226C49.5984 32.0215 49.5782 31.9527 49.5376 31.9124C49.4771 32.0823 49.3678 32.6122 49.2787 32.8103C49.2384 32.681 49.1494 32.2319 49.1576 31.702C49.1659 31.1722 49.1776 31.0708 49.1776 30.9618C49.1576 31.1234 49.0483 31.342 49.0078 31.4714C48.9472 31.3623 48.8784 31.2207 48.7974 31.1034C48.7488 31.1834 48.6883 31.3015 48.6358 31.3623C48.6275 31.3138 48.6075 31.1842 48.5952 31.0023C48.5872 30.7919 48.575 30.521 48.5872 30.4642C48.6072 30.3551 48.7774 29.9263 49.1374 29.5338C49.5662 29.0644 50.0072 28.1626 50.1366 27.8834C50.2659 27.6042 50.816 26.4434 50.816 26.4434H51.2368L50.6259 27.8348C50.6259 27.8348 50.2579 28.5954 50.0678 28.8748C49.8776 29.1543 49.4771 29.9551 49.299 30.2666C49.4283 30.0967 49.5376 30.0076 49.6672 29.8458C49.7926 29.7324 50.1403 29.2431 50.1403 29.2431L50.1398 29.2426Z" fill="#8C6228"/>
<path fill-rule="evenodd" clip-rule="evenodd" d="M52.4876 24.3594C52.4189 24.5709 52.3103 24.7674 52.1676 24.938C51.9167 25.2375 51.3785 25.6378 51.1159 25.9572C50.8759 26.2687 50.3959 27.1183 50.614 28.1255C50.694 27.9071 50.8447 27.4743 51.2452 26.9847C51.6457 26.4951 52.0745 25.933 52.2852 25.4962C52.4953 25.0551 52.5236 24.7074 52.5236 24.7074L52.6036 24.6063L52.5551 24.3756L52.4863 24.3594H52.4876Z" fill="#CBA94C"/>
<path fill-rule="evenodd" clip-rule="evenodd" d="M60.682 51.1923C60.682 51.1923 60.5201 50.7515 60.4716 50.3509C60.423 49.9504 60.5516 49.8709 60.4028 49.4125C60.3137 49.1333 60.1521 49.1725 60.1116 49.1333C60.071 49.0941 60.0428 48.6723 60.0508 48.4416C60.0588 48.2109 60.0428 47.9117 60.0022 47.7821C59.9417 47.7336 59.9012 47.6931 59.8121 47.3939C59.711 47.0944 59.6625 46.9448 59.614 46.856C59.5654 46.7672 59.4236 46.6861 59.4236 46.5971C59.4236 46.4189 59.5854 46.3261 59.5854 46.2771C59.5774 46.176 59.4561 46.2571 59.4236 46.2285C59.3833 46.18 59.5249 45.8888 59.4724 45.8483C59.4521 45.8283 59.3105 45.9981 59.274 45.9496C59.2334 45.9008 59.1849 45.4195 59.1121 45.1C59.0436 44.7885 58.9705 44.5621 58.9625 44.4691C58.9545 44.38 58.4041 42.8104 58.2708 42.4301C58.1633 42.1088 58.0729 41.7821 57.9998 41.4512C57.9593 41.2611 57.931 40.8725 57.9108 40.9131C57.8905 40.9536 57.9028 41.1517 57.8702 41.1437C57.842 41.1355 57.7409 40.444 57.7086 40.3347C57.6804 40.2253 57.5102 39.8547 57.4686 39.5864C57.4281 39.3152 57.3393 38.6072 57.2785 38.1259C57.2177 37.6445 57.1894 37.4464 57.1894 37.3259C57.1994 37.0311 57.1831 36.7359 57.1409 36.444C57.0609 35.9341 56.9009 35.3152 56.7606 34.9555C56.4897 34.2757 55.7694 32.5363 55.6406 32.1035C55.6406 31.9941 55.7822 32.0549 55.7822 32.0549C55.7822 32.0549 56.134 32.9368 56.3929 33.6163C56.6438 34.296 56.8825 34.8947 56.9433 34.9555C56.9918 35.016 57.3721 35.6835 57.542 36.7757C57.7118 37.868 57.7724 38.8752 57.8737 39.5467C57.9222 39.8667 57.9628 40.2061 58.0638 40.5459C58.1729 40.9141 58.3428 41.2944 58.5654 41.8768C58.7556 42.3664 58.8972 42.7749 58.974 43.1269C59.063 43.576 59.063 43.9157 59.1156 44.1384C59.1644 44.3285 59.2369 44.7085 59.407 45.2584C59.5772 45.8083 59.8276 46.5165 59.9974 46.9573C60.3294 47.8392 60.4774 48.5755 60.5276 48.968C60.5718 49.3725 60.7217 50.7723 60.6812 51.1928L60.682 51.1923Z" fill="#A88F33"/>
<path fill-rule="evenodd" clip-rule="evenodd" d="M52.5089 24.3105L52.4887 24.359C52.4887 24.359 52.5492 24.3793 52.5372 24.4604C52.538 24.5713 52.5313 24.6821 52.5169 24.7921C52.4969 24.9337 52.4564 25.0428 52.4484 25.1318C52.4484 25.322 52.4767 25.5404 52.2084 26.0825C52.1284 26.2321 52.0791 26.3614 52.0385 26.4505C51.9375 26.6689 51.9172 26.7014 51.8281 26.8025C51.9697 26.7225 52.4796 26.4025 52.7383 26.4505C52.5604 26.5516 52.2892 26.75 52.1193 27.0089C52.1599 27.0169 52.3297 27.0494 52.5993 27.0089C53.0484 26.9401 53.55 26.7782 53.9908 26.8105C54.4724 26.8388 54.2823 26.2321 54.2823 26.2321L53.7265 25.0105L52.6748 24.2705L52.5089 24.3108V24.3105Z" fill="#BE9C44"/>
<path fill-rule="evenodd" clip-rule="evenodd" d="M55.2504 33.462C55.2504 33.462 54.7811 32.9926 54.5909 31.382C54.4008 29.7638 54.4413 27.382 54.4413 27.382L54.0611 26.4516C54.0611 26.4516 53.9811 25.8326 53.7819 25.6022C53.5827 25.3718 53.1915 24.9833 53.0133 24.7932C52.8352 24.603 52.6331 24.3441 52.5117 24.3036C52.5723 24.2025 52.8435 23.6321 53.8829 23.6241C54.9224 23.6161 55.2429 24.1945 55.3515 24.4049C55.46 24.6153 55.9501 25.5249 56.132 27.2582C56.3019 28.9894 56.3101 29.119 56.2819 29.7177C56.2616 30.0494 56.1523 30.818 55.9619 31.639C55.788 32.335 55.5979 33.1118 55.2499 33.4636L55.2504 33.462Z" fill="#A17C34"/>
<path fill-rule="evenodd" clip-rule="evenodd" d="M53.7781 34.8409C53.9345 34.8522 54.0907 34.8169 54.2272 34.7396C54.3768 34.7316 54.9189 34.8004 55.3354 34.2705C55.3637 34.3916 55.4368 34.7196 55.2464 35.0108C55.3477 34.9094 55.4973 34.8692 55.5176 34.8409C55.5256 34.9905 55.6672 35.4516 55.0685 36.5721C55.2301 36.3942 55.4202 36.4022 55.5901 36.382C55.5984 36.5924 55.7114 37.3001 55.4122 37.6806C55.2141 37.9396 54.8904 37.8585 54.8904 37.8585C54.8951 37.802 54.8951 37.7452 54.8904 37.6886C54.8824 37.5793 54.8418 37.4702 54.8704 37.3974C54.7139 37.326 54.5714 37.2273 54.4496 37.106C54.0976 36.7742 53.6405 36.2081 53.6082 35.7873C53.5677 35.318 53.9885 35.2169 53.9885 35.2169C53.9532 35.1854 53.9232 35.1485 53.8994 35.1076C53.8792 35.039 53.8589 34.9297 53.7781 34.8409Z" fill="#8C6228"/>
<path fill-rule="evenodd" clip-rule="evenodd" d="M50.6606 29.7522C50.6606 29.7522 50.6403 29.7239 50.5312 29.8532C50.5515 29.7239 50.5718 29.6023 50.5798 29.485C50.6314 29.3763 50.6982 29.2756 50.7782 29.1858C50.7174 29.3068 50.6768 29.4162 50.6768 29.4162C50.6768 29.4162 50.8267 29.137 51.0451 28.9671C51.1947 28.8458 51.3848 28.7892 51.4656 28.6759C51.5547 28.5546 51.5345 28.5343 51.5547 28.514C51.5547 28.514 51.7531 28.3847 52.0566 28.0042C52.0968 27.9556 52.1577 27.9031 52.1982 27.8546C52.2667 27.8263 52.4286 27.7535 52.6187 27.6562C52.8171 27.5471 53.0395 27.3975 53.1771 27.3362C53.448 27.2148 53.7355 27.2271 53.8689 27.0367C53.9699 27.0084 54.079 26.705 54.059 26.4463C54.2086 26.5068 54.9771 26.9842 55.2403 28.0279C55.4304 28.7682 55.0905 29.909 54.9489 30.4594C54.8073 31.0098 54.7873 31.418 54.5889 31.6687C54.3379 32.0007 53.5291 32.4687 53.3307 32.7004C53.1608 32.8906 52.6512 33.3719 52.6712 33.7196C52.6915 33.9786 53.011 34.1196 53.08 34.1687C53.1491 34.2178 53.1486 34.278 53.2782 34.2487C53.4078 34.2194 53.4561 34.1596 53.5089 34.1596C53.5694 34.1676 53.5694 34.1799 53.5976 34.1799C53.6182 34.1793 53.6385 34.1765 53.6585 34.1716C53.6585 34.1716 53.6382 34.5399 52.7766 34.6516C52.7158 34.6599 52.6553 34.6799 52.5782 34.6922C52.6795 34.6436 52.74 34.6436 52.8494 34.494C52.728 34.4738 52.38 34.4535 52.291 34.4252C52.3192 34.3767 52.4123 34.2471 52.4891 34.1866C52.5579 34.126 52.4811 34.1066 52.4206 34.138C52.3164 34.2089 52.2164 34.2859 52.1211 34.3684C52.02 34.4575 51.931 34.5788 51.7691 34.6884C51.7206 34.5266 51.7286 34.2191 51.919 33.9967C51.8702 34.0047 51.7771 34.1463 51.6883 34.118C51.6723 33.9705 51.6818 33.8213 51.7166 33.677C51.7651 33.4948 52.0281 33.1754 52.0281 33.1754L53.2982 30.9058L53.5691 29.1866L50.6606 29.7516V29.7522Z" fill="#92723A"/>
<path fill-rule="evenodd" clip-rule="evenodd" d="M50.5906 29.8492C50.5906 29.8492 50.5218 29.8978 50.6594 29.9908C50.6391 30.0191 50.5906 30.1202 50.5298 30.189C50.4613 30.269 50.3882 30.3186 50.3599 30.3874C50.2994 30.529 50.2509 30.626 50.2509 30.6868C50.2509 30.7476 50.2306 31.1359 50.0607 31.3866C49.9999 31.4756 49.9311 31.6252 49.8826 31.7263C49.7815 31.9042 49.6925 32.0463 49.6722 32.1263C49.6319 32.2679 49.6037 32.6562 49.6037 32.6562C49.6037 32.6562 49.6927 32.5468 49.725 32.5066C49.6762 32.6076 49.6237 32.7167 49.5469 32.7978C49.5954 32.7572 49.737 32.6562 49.9757 32.4458C50.3074 32.1668 50.8253 31.6975 51.4565 31.3258C51.2661 31.3946 51.1045 31.3946 50.9751 31.4148C51.0762 31.3138 51.9863 30.2458 52.4637 30.1447C52.4927 30.1079 52.5071 30.0618 52.5042 30.0151L52.0954 29.9748L51.2661 30.1527L51.145 29.5127L50.5906 29.8484V29.8492Z" fill="#B18E3E"/>
<path fill-rule="evenodd" clip-rule="evenodd" d="M51.9107 33.4902C51.9107 33.4902 51.8014 33.5992 51.7003 33.8704C51.6225 33.7892 51.5558 33.698 51.5019 33.5992C51.3523 33.3486 51.1219 33.0288 50.5838 33.211C50.5758 33.0411 50.5635 32.952 50.5838 32.8307C50.6729 32.8107 50.9438 32.5923 51.2147 32.2726C51.4051 32.0542 51.583 31.8032 51.7043 31.4838C51.7843 31.423 51.9227 31.3219 52.1043 31.2046C52.3633 31.0267 52.6747 30.7838 52.7233 30.5128C52.6019 30.5614 52.343 30.6827 51.9545 30.6627C52.1043 30.5939 52.3347 30.5211 52.3065 30.2216C52.3673 30.1811 52.4158 30.1528 52.4158 30.1528C52.3702 30.1376 52.3222 30.1307 52.2742 30.1326C52.2659 30.1043 52.2539 30.064 52.1851 30.084C52.1163 30.104 52.1051 30.1043 52.0961 30.1326C52.0678 30.1408 51.9747 30.1326 51.9059 30.1814C51.8371 30.2302 51.647 30.3915 51.5742 30.4198C51.6025 30.3712 51.6427 30.2987 51.6427 30.2987C51.6427 30.2987 51.4446 30.3187 51.303 30.3787C51.0441 30.4678 50.7449 30.6296 50.4414 30.7872C50.4697 30.7387 50.4819 30.7072 50.5019 30.6982C50.5219 30.6891 50.5707 30.6782 50.5707 30.6699C50.5707 30.6616 50.5507 30.5899 50.5627 30.5608C50.6535 30.3686 50.7605 30.1846 50.8827 30.0107C51.0243 29.8203 51.0526 29.5494 51.0526 29.5494L51.6715 29.2379L53.411 28.8379L54.5398 28.9067L54.3982 29.6875L53.7315 31.0507L53.1611 32.2926L52.5097 33.0534L51.911 33.4902H51.9107Z" fill="#543E26"/>
<path fill-rule="evenodd" clip-rule="evenodd" d="M54.7311 30.1109C54.7311 30.1109 54.0513 30.9522 53.8612 31.0818C53.9825 30.8229 54.7311 29.2815 55.002 28.8527C54.9415 28.8042 54.8604 28.8042 55.0505 28.0527C54.8889 28.4327 54.8321 28.6311 54.6988 28.7322C54.5655 28.8333 54.5489 28.801 54.4588 28.801C54.4758 28.7702 54.4828 28.7349 54.4788 28.6999C54.4788 28.6999 53.9084 28.6311 53.5188 28.6311C53.1292 28.6311 52.358 28.8415 51.9289 29.0114C51.5892 29.153 51.3991 29.153 51.2777 29.2418C51.1564 29.3429 51.0876 29.4522 51.0268 29.4805C50.9783 29.5087 50.7479 29.5815 50.6951 29.6583C50.6465 29.7383 50.5657 29.8282 50.5657 29.8485C50.5657 29.8687 50.5455 29.8973 50.6063 29.8767C50.6263 29.8687 50.7761 29.7877 50.946 29.6866C51.1764 29.5573 51.4556 29.4077 51.658 29.3186C52.2364 29.0879 52.4185 29.1285 52.6772 29.0799C52.9481 29.0314 53.3367 28.9181 53.5953 28.9181C53.8543 28.9101 54.3439 28.9181 54.4572 28.9383C54.4087 28.9789 54.3681 29.0274 54.3884 29.1973C54.3884 29.2458 54.3479 29.2983 54.3084 29.4157C54.1873 29.7474 53.9567 30.2975 53.8284 30.5767C53.6505 30.9567 53.4484 31.2765 53.3484 31.4746C53.2484 31.6727 53.0284 32.1946 52.8105 32.4738C52.5927 32.753 52.4788 32.9229 52.4105 32.9837C52.3423 33.0445 51.8521 33.4042 51.8887 33.5338C51.9777 33.5055 52.5401 33.2938 52.9484 32.8341C53.3567 32.3743 53.438 32.0938 53.7575 31.8429C54.0769 31.5919 54.3279 31.1714 54.4775 30.8237C54.6028 30.4999 54.5745 30.3989 54.7321 30.1117L54.7311 30.1109Z" fill="#806031"/>
<path fill-rule="evenodd" clip-rule="evenodd" d="M40.0813 36.3904C40.0813 36.3904 39.9922 36.7584 39.7898 36.9406C39.5917 37.1187 39.2397 37.2723 39.1994 37.5718C39.1509 37.871 39.5514 38.0208 39.5514 38.0208C39.5514 38.0208 39.3327 38.3809 39.3327 38.6518C39.3327 38.931 39.3247 38.9835 39.353 39.2504C39.3209 39.2711 39.2936 39.2984 39.273 39.3304C39.273 39.3304 39.293 39.5894 39.4914 39.751C39.6898 39.9126 39.8594 40.0099 39.9605 39.9694C39.9759 40.0024 39.9894 40.0362 40.001 40.0707C40.001 40.0707 40.1509 39.6904 40.2519 39.3587C40.353 39.019 40.4421 39.0672 40.4823 38.6102C40.5226 38.1531 40.9623 37.3683 40.9623 37.3683L41.2623 36.6976L40.773 36.3174L40.0813 36.3902V36.3904Z" fill="#B6903C"/>
<path fill-rule="evenodd" clip-rule="evenodd" d="M40.9917 37.0498C40.8908 37.1534 40.7976 37.2643 40.713 37.3815C40.5837 37.5597 40.4826 37.7213 40.2925 37.7903C40.1023 37.8594 39.981 37.8589 39.993 38.0493C40.005 38.2397 40.1831 38.3202 40.2842 38.4173C40.3935 38.5183 40.4826 38.6882 40.4341 38.8786C40.4946 38.8503 40.6039 38.8178 40.705 38.5994C40.8061 38.381 41.513 37.0501 41.513 37.0501H40.9917V37.0498Z" fill="#685026"/>
<path fill-rule="evenodd" clip-rule="evenodd" d="M43.7789 33.9795C43.7789 33.9795 43.8394 33.8179 43.7789 33.7005C43.7181 33.5792 43.3501 33.5387 43.1679 33.4011C42.9778 33.2595 42.7471 33.1611 42.557 33.2232C42.5853 33.1544 42.6986 33.0045 42.6055 32.9723C42.5165 32.944 42.185 33.0936 42.0959 33.1624C42.0069 33.2312 41.8045 33.312 41.7642 33.3608C41.7239 33.4096 41.6549 33.5024 41.6143 33.4619C41.5738 33.4336 41.5538 33.3608 41.485 33.4011C41.4162 33.4413 41.085 33.7125 41.0239 33.8704C40.9629 34.0283 40.8255 34.3803 40.413 34.7805C40.0005 35.1808 39.8223 35.44 39.9437 35.5896C40.065 35.7392 40.1218 35.6301 40.1421 35.7595C40.1577 35.8864 40.1508 36.0151 40.1218 36.1397C40.0733 36.3501 39.9925 36.5483 40.1015 36.5888C40.3807 36.6779 40.6519 36.5088 40.7125 36.5605C40.8338 36.6696 40.6437 37.0621 40.9309 37.1389C41.2223 37.2189 41.5095 37.0701 41.5095 37.0701L42.5693 36.4997L43.5887 35.9619L44.1103 34.9301L43.8306 34.0685L43.7773 33.9795H43.7789Z" fill="#D4B968"/>
<path fill-rule="evenodd" clip-rule="evenodd" d="M42.7793 36.4432C42.7793 36.4432 42.6012 36.1723 42.8199 35.9333C43.0385 35.6944 43.3497 35.5936 43.4711 35.444C43.448 35.4155 43.417 35.3944 43.382 35.3835C43.4625 35.2393 43.5854 35.1234 43.734 35.0515C43.6735 34.9909 43.5924 34.9424 43.5036 34.9424C43.3052 34.9424 43.1836 35.0637 43.0017 35.0637C42.8239 35.0637 42.8036 34.9747 42.8036 34.9747C42.8036 34.9747 43.1031 34.9464 43.0745 34.8128C43.0463 34.6712 42.9945 34.6712 42.9945 34.6712C42.9945 34.6712 43.5729 34.4312 43.674 34.3032C43.7751 34.1752 43.7631 34.024 43.7833 33.9635C43.8519 33.9635 44.2524 33.7531 44.4143 33.8421C44.5761 33.9312 44.4628 34.1739 44.4628 34.1739C44.4628 34.1739 44.9527 33.8056 45.2023 33.4445C45.4207 33.4648 45.5223 33.2949 45.6823 33.2949C45.8807 33.2949 46.1921 33.5659 46.2527 34.1443C46.2932 34.476 46.3537 34.6661 46.2932 35.2528C46.2649 35.5845 46.2729 36.2928 46.3732 36.6443C46.4417 36.9235 46.6036 36.8952 46.6036 36.8952C46.5788 36.9803 46.5295 37.0562 46.462 37.1136C46.3527 37.2147 46.3407 37.4819 46.3527 37.5829C46.3688 37.6568 46.3891 37.7297 46.4135 37.8013C46.4135 37.8013 46.2841 37.9509 46.2516 38.0523C46.2233 38.1533 46.09 38.2221 45.9927 38.2221C45.8953 38.2221 45.9441 38.2139 45.8148 38.2221C45.6855 38.2304 45.6449 38.2504 45.5639 38.2221C45.4828 38.1939 45.4223 38.1613 45.4548 37.9021C45.4831 37.6432 44.4556 37.0405 44.4556 37.0405L42.7756 36.4419L42.7793 36.4432Z" fill="#CCA849"/>
<path fill-rule="evenodd" clip-rule="evenodd" d="M40.849 38.9997C40.849 38.9997 41.217 39.4893 42.7301 39.4893C43.4501 39.4893 43.701 39.4205 43.8501 39.3799C44.0119 39.3394 44.6186 39.101 45.2295 38.3807C45.7797 37.7295 45.6583 37.4626 45.6583 37.4626L45.3383 37.4141L44.2983 37.5557L41.221 38.8663L40.8477 38.9997H40.849Z" fill="#585136"/>
<path fill-rule="evenodd" clip-rule="evenodd" d="M41.9786 39.1202C41.9786 39.1202 40.668 39.4117 40.668 38.5824C40.668 37.7733 41.477 36.9237 41.6794 36.7741C41.8898 36.6242 42.3914 36.4541 42.3914 36.4541H43.601L43.8314 37.065L43.7304 38.3837L41.9786 39.12V39.1202Z" fill="#252211"/>
<path fill-rule="evenodd" clip-rule="evenodd" d="M43.187 36.7015C43.187 36.7015 42.9363 36.4708 42.3659 36.7815C41.7955 37.0922 41.3342 37.7415 41.3059 38.3311C41.2777 38.8527 41.7347 39.2412 42.4467 39.2615C42.9766 39.2815 43.2963 39.221 43.4582 39.1815C43.4177 39.133 43.2073 38.87 43.2073 38.87L43.1873 36.7018L43.187 36.7015Z" fill="#C3B378"/>
<path fill-rule="evenodd" clip-rule="evenodd" d="M42.9399 36.8305C42.9399 36.8305 42.8794 36.782 42.6999 36.879C42.5503 36.959 42.3319 37.1705 42.1621 37.3201C42.0527 37.4092 41.9839 37.4494 41.9221 37.5182C41.6711 37.8177 41.4607 38.3073 41.5823 38.55C41.7039 38.7926 42.1042 39.0718 43.1237 38.8817L42.937 36.8308L42.9399 36.8305Z" fill="#E6D89C"/>
<path fill-rule="evenodd" clip-rule="evenodd" d="M42.6106 37.3329C42.6106 37.3329 42.4488 37.5839 42.4488 37.9844C42.4488 38.3929 42.6794 39.0441 43.529 39.0927C44.1802 39.1332 44.617 38.1543 45.0904 37.774C45.4504 37.4828 45.6688 37.4745 45.6688 37.4745C45.6688 37.4745 45.3008 37.0745 44.3178 36.5564C43.3469 36.0345 42.2586 35.9657 41.668 36.7668C41.9472 36.7465 42.8493 36.5159 42.8493 36.5159L43.2904 36.6575L42.6106 37.3332V37.3329Z" fill="#252211"/>
<path fill-rule="evenodd" clip-rule="evenodd" d="M43.8801 37.8622C43.8519 37.8017 43.8316 37.7206 43.9489 37.7006C44.0663 37.6806 44.1188 37.6923 44.1593 37.7806C44.1999 37.8689 44.2393 37.9425 44.1793 37.979C44.1188 38.0113 43.9609 37.979 43.8799 37.8617L43.8801 37.8622ZM43.69 37.2918C43.69 37.2918 43.6495 37.3201 43.6697 37.2635C43.6777 37.195 43.7305 37.0734 43.8599 37.1019C43.9892 37.1305 43.9612 37.2718 43.9399 37.3123C43.9185 37.3529 43.8105 37.4214 43.7295 37.3923C43.7192 37.3897 43.7097 37.3847 43.7017 37.3777C43.6937 37.3707 43.6875 37.3619 43.6836 37.3521C43.6796 37.3422 43.678 37.3316 43.679 37.321C43.6799 37.3104 43.6833 37.3003 43.6889 37.2913L43.69 37.2918Z" fill="#6F674D"/>
<path fill-rule="evenodd" clip-rule="evenodd" d="M32.7383 37.5508C32.7383 37.5508 33.0583 37.7908 33.43 37.7815C33.798 37.7732 34.2713 37.3932 34.4897 37.1503C34.6191 37.0087 34.7297 36.8591 34.8497 36.7417C34.9511 36.6407 35.0196 36.5921 35.0681 36.5233C35.1369 36.4433 35.2097 36.2929 35.2463 36.2441C35.1572 36.3129 35.0279 36.4345 34.8943 36.5153C34.7649 36.5953 34.4857 36.7457 34.3724 36.7863C34.2633 36.8268 33.1305 37.4263 33.1305 37.4263L32.7383 37.5508Z" fill="#AC924C"/>
<path fill-rule="evenodd" clip-rule="evenodd" d="M33.2305 34.5617C33.2305 34.5617 33.4083 34.4403 33.7523 34.3633C34.0841 34.2833 34.7515 34.2217 34.7515 34.2217L35.3017 34.4617L35.5201 35.291L35.1201 36.1529L34.6105 36.4729L34.0318 35.5425L33.2318 34.5633L33.2305 34.5617Z" fill="#9F8E57"/>
<path fill-rule="evenodd" clip-rule="evenodd" d="M32.5107 35.3017L32.3203 35.4438C32.3203 35.4438 32.3691 35.3547 32.4094 35.0838C32.4496 34.8129 32.6603 34.1534 32.9678 33.7731C33.2752 33.3929 33.2672 33.4131 33.2672 33.4131C33.239 33.4079 33.2099 33.4089 33.182 33.4158C33.1541 33.4227 33.1279 33.4356 33.1054 33.4534C33.1459 33.3638 33.4048 33.0438 33.6638 32.8838C33.9227 32.7238 34.0238 32.6734 34.2947 32.8038C34.5656 32.9342 34.6344 33.0019 34.8328 32.9939C35.0312 32.9859 35.2008 32.7755 35.2008 32.7755C35.2008 32.7755 35.2414 32.9049 35.0918 33.2043C34.9422 33.5038 34.3515 34.1145 34.3515 34.1145L33.1216 34.9558L32.5107 35.3025V35.3017Z" fill="#EAC970"/>
<path fill-rule="evenodd" clip-rule="evenodd" d="M33.419 34.4605C33.419 34.4605 34.3092 34.5818 34.5801 34.3312C34.5881 34.3594 34.6206 34.3594 34.6206 34.3797C34.6185 34.395 34.6113 34.4091 34.6004 34.4199C34.6298 34.4152 34.6596 34.4126 34.6894 34.412C34.7251 34.4226 34.7617 34.4293 34.7988 34.4322C34.8286 34.4316 34.8584 34.4288 34.8878 34.424C34.885 34.4441 34.8782 34.4634 34.8677 34.4808C34.8573 34.4982 34.8435 34.5133 34.827 34.5253C34.8676 34.5253 34.907 34.5333 34.907 34.5656C34.907 34.5978 34.915 34.6952 34.8665 34.7154C34.8263 34.7265 34.7835 34.7236 34.7452 34.7072C34.7484 34.7837 34.7692 34.8586 34.806 34.9258C34.886 35.0754 35.0566 35.2458 35.286 35.1967C35.286 35.1967 35.407 35.488 34.8974 36.1351C34.8289 36.2242 34.7558 36.3455 34.667 36.4466C34.6319 36.5231 34.6051 36.6031 34.587 36.6853C34.587 36.6853 35.4489 36.3536 35.6956 35.597C35.9465 34.8365 35.995 34.0882 35.9465 33.3885C35.9382 33.1901 35.906 33.0488 35.8574 32.9474C35.7361 32.6965 35.3961 32.737 35.2588 32.8786C35.0604 33.077 34.7286 33.5703 34.2676 33.9101C33.7982 34.2498 33.7782 34.3101 33.418 34.4605H33.419Z" fill="#D7BC6B"/>
<path fill-rule="evenodd" clip-rule="evenodd" d="M32.3504 35.5528C32.3504 35.5528 32.1806 35.6539 32.0915 36.0328C32.0024 36.4211 32.1715 36.8944 32.2694 37.044C32.3672 37.1936 32.5894 37.6024 33.0502 37.6227C33.1642 37.6221 33.277 37.5987 33.3819 37.5539C33.5428 37.4801 33.6937 37.3863 33.831 37.2747C34.0294 37.1251 34.191 36.9957 34.1707 36.9835C34.1222 36.9632 32.9491 35.9923 32.9491 35.9923L32.508 35.5L32.3502 35.5533L32.3504 35.5528Z" fill="#585136"/>
<path fill-rule="evenodd" clip-rule="evenodd" d="M33.4608 37.1628C33.4608 37.1628 33.6995 37.1428 33.8411 37.0537C33.9827 36.9646 33.0117 36.002 33.0117 36.002L33.0805 37.042L33.4608 37.1628Z" fill="#453A25"/>
<path fill-rule="evenodd" clip-rule="evenodd" d="M32.4261 35.4799C32.4261 35.4799 32.3048 35.7106 32.3048 35.7714C32.2845 35.9695 32.3453 36.5924 32.3939 36.7906C32.4424 37.001 32.7053 37.3204 33.0453 37.3204C33.2555 37.3204 33.5469 37.1911 33.5469 37.1588C33.5469 37.1183 33.2475 37.0788 33.1667 36.9282C33.1181 36.8482 33.0979 36.6492 33.0867 36.4482C33.0787 36.3188 33.0787 36.1772 33.1272 36.1282C33.2365 36.0068 33.2565 35.6588 33.2565 35.6588L33.6448 34.9375H33.1341L32.5232 35.3178L32.4261 35.4799Z" fill="#84754B"/>
<path fill-rule="evenodd" clip-rule="evenodd" d="M32.2773 35.7028C32.2773 35.7028 32.6773 35.1729 33.0379 35.0513C33.3984 34.9297 33.5597 35.0028 33.5597 35.0028L33.3493 35.5409L33.0499 35.8726L33.0701 36.0425C33.0701 36.0425 33.0213 36.4916 33.3208 36.803C33.6203 37.1145 33.8427 37.1025 33.9723 37.1025C34.1019 37.1025 34.4739 36.9932 34.664 36.5441C34.8339 36.1236 34.9755 35.5841 34.6357 35.0433C34.3037 34.5052 33.7173 34.4844 33.604 34.4844C33.4907 34.4844 32.6008 34.5289 32.2773 35.702V35.7028Z" fill="#252211"/>
<path fill-rule="evenodd" clip-rule="evenodd" d="M42.548 37.503C42.3984 37.4342 42.54 37.0136 42.6896 36.884C42.8392 36.7544 43.0294 36.6051 43.3614 36.5846C43.4824 36.5766 43.5998 36.6534 43.5798 36.7344C43.5515 36.884 43.3411 37.0944 43.151 37.244C42.888 37.4504 42.7179 37.5798 42.548 37.503Z" fill="#F7F7E7"/>
<path fill-rule="evenodd" clip-rule="evenodd" d="M34.4582 35.2085C34.5675 35.2005 34.7091 35.2885 34.7374 35.4069C34.7656 35.5362 34.6686 35.7952 34.4582 35.7952C34.2883 35.7952 34.1992 35.5848 34.1992 35.5242C34.2011 35.4745 34.215 35.4259 34.2398 35.3826C34.2478 35.3704 34.268 35.2288 34.4582 35.2085Z" fill="#F8F6DE"/>
<path fill-rule="evenodd" clip-rule="evenodd" d="M32.8815 35.3018C32.8815 35.3018 32.6023 35.4311 32.473 35.7018C32.3806 35.9016 32.3526 36.1253 32.393 36.3418C32.4133 36.4428 32.5143 36.6935 32.5831 36.7826C32.6519 36.8716 32.745 36.9324 32.8138 36.9242C32.8826 36.9159 33.0239 36.734 33.0239 36.625C33.0239 36.5159 33.0322 36.0546 33.1655 35.8036C33.2829 35.553 32.8823 35.302 32.8823 35.302L32.8815 35.3018Z" fill="#D4C38B"/>
<path fill-rule="evenodd" clip-rule="evenodd" d="M32.921 35.2816C32.8725 35.3099 32.7917 35.3504 32.8117 35.403C32.832 35.4515 33.0018 35.483 33.0626 35.6014C33.1314 35.7227 33.1314 35.852 33.1112 35.9128C33.164 35.8877 33.212 35.8534 33.2528 35.8115C33.3418 35.7104 33.4509 35.5731 33.544 35.5731C33.6048 35.5731 33.6653 35.6014 33.7221 35.6014C33.8112 35.6014 33.9 35.5731 33.9122 35.48C33.9322 35.3587 33.7424 35.2494 33.633 35.2696C33.6533 35.1896 33.6816 35.0715 33.5925 34.9904C33.5034 34.9093 33.2245 35.0512 33.1637 35.0917C33.1029 35.1323 32.921 35.2819 32.921 35.2819V35.2816Z" fill="#E2D59D"/>
<path fill-rule="evenodd" clip-rule="evenodd" d="M39.3487 43.7813L39.9474 43.6045L40.1173 43.7258C40.1173 43.7258 40.2383 43.9848 40.4287 44.017C40.3679 44.1464 40.2101 44.257 40.2183 44.3488C40.2266 44.4405 40.3074 44.5106 40.3074 44.5106C40.3074 44.5106 39.7693 45.4005 40.8293 46.2973C40.5783 46.3984 40.2589 46.5373 40.089 46.6173C40.2101 46.6456 40.469 46.6973 40.5783 46.7954C40.6877 46.8936 40.6877 46.9248 40.7887 46.9856C40.8898 47.0464 40.9503 47.1272 40.9303 47.1634C40.8615 47.1229 40.6309 47.0018 40.5906 47.1149C40.5503 47.228 39.5914 47.1837 39.5914 47.1837L37.9733 47.4952C37.9733 47.4952 38.0338 47.3333 37.8639 47.1837C37.6658 47.0058 37.4231 47.1917 37.1642 46.9936C36.8245 46.7346 36.8122 46.4352 36.7031 46.3221C36.8122 46.2533 37.0349 46.1522 37.5647 46.0821C37.5445 46.0416 37.4757 45.9202 37.5162 45.8112C37.5647 45.6696 37.7669 45.5805 37.7063 45.4112C37.7954 45.3909 37.8357 45.3909 38.0583 45.1117C38.2687 44.8325 38.3981 44.772 38.5599 44.7517C38.7218 44.7314 38.8189 44.7517 39.1183 44.4725C39.3285 44.2744 39.2599 44.1045 39.2599 44.1045C39.2599 44.1045 39.3973 44.06 39.349 43.7808L39.3487 43.7813Z" fill="#CBAC5A"/>
<path fill-rule="evenodd" clip-rule="evenodd" d="M37.5835 43.8711C37.5915 43.8306 37.624 43.8103 37.8424 43.8306C38.0608 43.8509 39.4443 43.7013 39.8205 43.681C40.2008 43.6527 41.5397 43.6727 42.1912 43.8103C42.8427 43.9479 43.5019 44.1098 43.8213 44.1906C44.1413 44.2797 44.2421 44.3117 44.2299 44.3522C44.2219 44.3927 44.1499 44.4322 44.1085 44.421C44.0683 44.413 43.0083 44.0893 42.6808 44.021C42.3533 43.9527 41.2203 43.7701 40.6008 43.781C40.0224 43.7893 39.7917 43.773 39.3024 43.8295C38.8128 43.8903 38.0037 43.9711 37.7611 43.9389C37.5211 43.9106 37.5707 43.9106 37.5829 43.8701L37.5835 43.8711Z" fill="#D6BC6F"/>
<path fill-rule="evenodd" clip-rule="evenodd" d="M40.8372 47.0412C40.8372 47.0412 41.6666 47.4903 41.966 48.0404C42.1844 48.4489 41.8367 48.6513 41.8367 48.6513C41.8367 48.6513 42.306 48.6513 42.2452 48.9103C42.217 49.0719 41.4362 49.5087 40.9143 49.7393C40.3844 49.97 40.4047 49.958 40.1458 49.9983C39.8948 50.0388 39.2071 49.9183 39.0655 50.1196C38.9239 50.3209 38.9855 50.5284 39.025 50.5607C39.0655 50.5889 39.3932 50.6295 39.3932 50.6295C39.3932 50.6295 39.3244 50.8196 38.645 50.8399C37.9655 50.8601 37.7954 50.9084 37.7548 50.9815C37.7143 51.05 37.8842 51.0097 38.1959 51.0615C38.5074 51.11 38.9442 51.1415 38.9442 51.1415C38.9442 51.1415 38.8026 51.2628 38.4346 51.3599C38.0138 51.4689 37.3543 51.5703 37.1562 51.6916C37.2572 51.7604 37.4071 51.8615 37.4762 51.8695C37.3063 51.91 37.0674 51.9991 37.0271 52.0313C37.0876 52.0719 37.1687 52.1204 37.1687 52.1204C37.1687 52.1204 36.8287 52.5289 36.6306 52.6303C36.4324 52.7316 35.2916 53.2612 34.8991 53.1601C33.9202 52.9012 33.7988 51.8292 33.5602 51.7484C33.2002 51.6271 33.0303 51.8695 32.7106 51.6996C32.8522 51.5985 32.9292 51.538 33.0788 51.4692C32.917 51.3892 32.0796 50.8583 32.0796 50.8583C31.9921 50.6674 31.8949 50.4811 31.7884 50.3001C31.6266 50.0209 31.3884 49.6487 31.2098 49.3209C30.8215 48.6009 30.8012 48.2692 30.4492 47.8607C30.51 47.7807 30.7202 47.7919 30.7202 47.7919L33.6695 48.7628L38.8991 48.9143L40.2591 46.9727L40.8375 47.0415L40.8372 47.0412Z" fill="#DFC677"/>
<path fill-rule="evenodd" clip-rule="evenodd" d="M33.0898 50.003C33.1214 50.0381 33.1582 50.0681 33.1989 50.092C33.3002 50.1608 33.4498 50.2419 33.5509 50.363C33.5914 50.3024 33.6925 50.1931 33.8709 50.363C34.0493 50.5328 34.2709 50.4118 34.4088 50.452C34.5504 50.5008 34.5584 50.5208 34.5584 50.5208C34.5584 50.5208 34.6384 50.452 34.8173 50.3792C34.9266 50.3387 35.056 50.3104 35.1976 50.2702C35.3269 50.2419 35.4685 50.2014 35.5658 50.2014C35.6549 50.2619 35.9744 50.6014 37.2568 50.1003C38.4664 49.631 38.7453 49.5784 38.9477 49.651C38.968 49.6024 38.9882 49.5094 39.2997 49.5216C39.2997 49.3923 39.0408 48.9512 39.0408 48.9512L37.6128 48.4619H36.8317L34.4896 48.8907L33.1917 49.6312L33.0906 50.0046L33.0898 50.003Z" fill="#C4A859"/>
<path fill-rule="evenodd" clip-rule="evenodd" d="M32.3125 49.1819C32.3125 49.1819 32.3408 49.4003 32.6645 49.6309C32.9845 49.8613 33.085 49.9989 33.085 49.9989C33.085 49.9989 33.1458 49.9189 33.1944 49.8373C33.2429 49.7483 33.2834 49.6472 33.3642 49.6189C33.5261 49.5501 33.8941 49.6795 33.9752 49.6592C34.044 49.6392 34.0237 49.4976 34.0965 49.4976C34.2664 49.4893 34.3754 49.6067 34.4362 49.6067C34.497 49.6067 34.6464 49.5987 34.6666 49.5664C34.6869 49.5341 34.6949 49.1981 34.9256 49.0363C35.1765 48.8584 35.484 48.9352 35.5656 48.9757C35.5656 49.0363 35.5736 49.1861 35.7354 49.1941C35.8973 49.2021 35.9133 49.1739 36.0554 49.2224C36.1976 49.2709 36.3669 49.2144 36.4437 49.4528C36.5125 49.4328 36.6744 49.4125 36.6338 49.1819C36.7138 49.1213 36.7837 49.0808 36.9538 48.8421C36.9944 48.7816 37.0629 48.7128 37.1157 48.6237C37.2573 48.6237 37.4272 48.5955 37.6536 48.7936C37.5848 48.8421 37.5442 48.8736 37.5242 48.9229C37.5834 48.9816 37.6375 49.0452 37.6858 49.1131C37.7466 49.1931 37.7872 49.2912 37.864 49.3115C38.0338 49.36 38.313 49.2912 38.6245 49.3115C38.924 49.3317 39.1746 49.4408 39.284 49.5096C39.3245 49.4896 39.3245 49.4813 39.4256 49.5016C39.5266 49.5219 39.6034 49.5299 39.4944 49.4005C39.5549 49.4288 39.6237 49.4896 39.6845 49.4288C39.7453 49.368 39.7936 49.2792 39.9634 49.2589C40.1333 49.2387 40.1941 49.2669 40.2629 49.0891C40.352 48.8707 40.0445 48.8707 40.0445 48.8707C40.0445 48.8707 40.1861 48.7411 40.344 48.5712C40.5341 48.3933 40.7525 48.1627 40.805 47.8795C40.8941 47.3576 40.3845 47.2891 40.3845 47.2891L37.9128 48.0496L34.8909 47.8997L32.3141 49.1821L32.3125 49.1819Z" fill="#927D49"/>
<path fill-rule="evenodd" clip-rule="evenodd" d="M30.0916 42.0412C30.0916 42.0412 30.0116 42.1423 29.9623 42.3809C29.9129 42.6196 29.934 42.5913 29.8935 42.7612C29.8529 42.9311 29.3551 44.622 29.5417 45.1924C29.7284 45.7628 30.0516 45.9732 30.2537 46.4343C30.2943 46.5353 30.3337 46.5961 30.3548 46.6852C30.4236 46.9844 30.3631 47.2151 30.4439 47.5145C30.4721 47.6156 30.5452 47.7329 30.6543 47.8543C30.8943 48.1049 31.2855 48.3436 31.4543 48.5135C31.6927 48.7644 32.0327 49.2743 32.4655 49.3225C32.6961 49.3508 33.0239 49.2537 33.2948 49.0921C33.5348 48.9423 33.6831 48.7321 33.9348 48.6121C34.1127 48.5231 34.3028 48.4908 34.4727 48.4503C34.8247 48.3815 35.1444 48.3703 35.3345 48.4097C35.6257 48.4705 36.3135 48.6809 36.6945 48.6809C36.9923 48.6761 37.2884 48.6354 37.5764 48.5596C38.1548 48.3897 38.8545 48.0983 39.3159 47.9689C39.5868 47.8889 39.8052 47.8679 40.0279 47.8193C40.4081 47.7303 40.7276 47.6089 40.9097 47.3783C40.7884 47.2367 40.6388 47.0183 39.8295 47.0263C38.9113 47.0465 37.8513 47.5561 37.3295 47.6372C36.8076 47.7183 36.5812 47.7868 35.9985 47.5764C35.4273 47.3639 35.4084 47.2233 35.4084 47.2233C35.4084 47.2233 34.8087 46.8039 34.5577 45.7345C34.3068 44.6652 34.5577 43.886 35.2092 43.1455C35.3791 42.9553 35.3385 42.7855 35.3385 42.7855C35.3385 42.7855 35.7673 42.2071 35.65 41.6655C35.5207 41.1273 34.6913 41.2367 34.6913 41.2367L30.0919 42.0412H30.0916Z" fill="#6E6342"/>
<path fill-rule="evenodd" clip-rule="evenodd" d="M30.7835 43.8418C30.7478 43.9089 30.731 43.9843 30.7349 44.0602C30.7429 44.1693 30.7755 44.3109 31.1029 44.6306C31.3821 44.9095 31.3213 45.221 31.3213 45.221C31.3213 45.221 31.4619 45.2493 31.8432 45.0709C32.1427 44.9293 32.2432 45.1802 32.2432 45.1802C32.3304 45.1345 32.4249 45.1043 32.5224 45.0911C32.6108 45.083 32.6963 45.0557 32.7731 45.0111C32.7731 45.0111 33.1251 45.3711 33.4325 45.541C33.7117 45.6909 33.8736 45.7919 34.0112 45.6909C34.1405 45.6018 34.1405 45.4197 34.1323 45.3389C34.1002 45.2643 34.0595 45.1937 34.0112 45.1285C33.9221 44.9991 33.7805 44.8493 33.7712 44.7285C33.7509 44.4495 33.9816 44.1175 33.9328 44.0367C33.884 43.9559 33.7024 43.9357 33.2533 44.0975C32.7883 44.2511 30.7816 43.8426 30.7816 43.8426L30.7835 43.8418Z" fill="#39331F"/>
<path fill-rule="evenodd" clip-rule="evenodd" d="M31.8426 45.6496C31.8426 45.6496 31.6122 45.4312 31.693 44.3712C31.7908 44.3698 31.8884 44.3793 31.9842 44.3995C31.9842 44.3995 32.1098 45.2208 31.8426 45.6496Z" fill="#292311"/>
<path fill-rule="evenodd" clip-rule="evenodd" d="M30.1995 41.2325C30.2317 41.2087 30.2615 41.1819 30.2886 41.1525C30.2086 41.3021 29.8393 41.9008 30.1387 42.8434C30.4382 43.7818 31.1905 44.4816 32.1169 44.5141C33.0433 44.5466 33.5302 44.0933 34.087 43.4138C34.3054 43.1429 34.5563 42.8029 34.7787 42.5725C35.1105 42.2122 35.3694 42.1112 35.3694 41.7634C35.3694 41.0514 34.6411 40.7317 33.5691 40.4122C32.4971 40.0928 31.5302 40.1322 31.0286 40.3509C30.5393 40.5893 30.3289 40.8402 30.1993 41.2328L30.1995 41.2325Z" fill="#252211"/>
<path fill-rule="evenodd" clip-rule="evenodd" d="M33.6414 45.9694L33.7214 45.9288C33.7214 45.9288 33.7414 45.6088 33.871 45.6174C34.0004 45.6376 34.0612 45.8078 34.0489 45.8683C34.0409 45.9288 34.0086 46.0302 33.879 46.0179C33.7092 46.0219 33.6406 45.9694 33.6406 45.9694H33.6414Z" fill="#3F3824"/>
<path fill-rule="evenodd" clip-rule="evenodd" d="M33.2812 44.6103C33.2812 44.6103 33.3612 44.582 33.4591 44.6791C33.5391 44.6791 33.8879 44.6385 33.9972 44.7073C34.1066 44.7761 34.1388 44.8367 34.1388 44.8367C34.1388 44.8367 33.7303 44.9257 33.5076 44.8367C33.2812 44.7599 33.2812 44.6103 33.2812 44.6103Z" fill="#2D2815"/>
<path fill-rule="evenodd" clip-rule="evenodd" d="M35.0819 44.6705C35.0819 44.6503 34.8635 44.5007 34.6329 44.4519C34.5923 44.4439 34.5841 44.4721 34.5529 44.4721C34.5326 44.4641 34.5246 44.4033 34.5246 44.4033L34.3934 44.4724C34.3934 44.4724 34.3731 44.5007 34.4419 44.5524C34.5025 44.6009 34.6038 44.6415 34.6321 44.7223C34.6603 44.8031 34.6603 44.8313 34.6726 44.8436C34.6806 44.8516 34.8222 44.8436 34.891 44.8031C34.9598 44.7625 35.0894 44.6964 35.0811 44.6697L35.0819 44.6705Z" fill="#82764F"/>
<path fill-rule="evenodd" clip-rule="evenodd" d="M33.0391 45.4925C33.0391 45.4925 33.0793 45.2135 33.3505 45.2013C33.6295 45.181 33.6823 45.4519 33.6823 45.4519L33.5204 45.6138C33.5204 45.6098 33.3991 45.4399 33.0404 45.4925H33.0391Z" fill="#2D2816"/>
<path fill-rule="evenodd" clip-rule="evenodd" d="M34.7975 44.2903C34.7975 44.2903 34.6476 44.4521 34.3162 44.5007C34.2879 44.4601 34.2271 44.3793 34.3162 44.25C34.4052 44.1207 34.5063 44.0801 34.6074 44.1204C34.652 44.1276 34.6936 44.1475 34.7273 44.1776C34.7609 44.2077 34.7853 44.2468 34.7975 44.2903Z" fill="#574F35"/>
<path fill-rule="evenodd" clip-rule="evenodd" d="M35.4084 44.4888C35.4166 44.4483 35.3884 44.4403 35.4084 44.42C35.4284 44.3997 35.538 44.3595 35.5582 44.3795C35.5662 44.3877 35.5582 44.42 35.5582 44.4595C35.5582 44.4989 35.5582 44.5395 35.538 44.5685C35.5097 44.6091 35.4289 44.6293 35.3884 44.6173C35.3478 44.6053 35.3398 44.5485 35.3398 44.5373C35.3598 44.5293 35.4084 44.5091 35.4084 44.4888ZM36.099 44.052C36.099 44.0317 36.1678 43.9912 36.2084 43.9912C36.2689 43.9912 36.2689 44.0397 36.2772 44.052C36.2972 44.06 36.2972 44.0437 36.3174 44.0803C36.3377 44.1168 36.3662 44.1813 36.3457 44.2219C36.3252 44.2624 36.2446 44.2904 36.2246 44.2824C36.1964 44.2621 36.1073 44.0803 36.099 44.052Z" fill="#82764F"/>
<path fill-rule="evenodd" clip-rule="evenodd" d="M34.7109 44.5823C34.7109 44.5823 34.8 44.6023 34.9213 44.7036C34.8808 44.7319 34.82 44.7642 34.82 44.7642C34.82 44.7642 34.812 44.6711 34.7109 44.582V44.5823Z" fill="#6E6342"/>
<path fill-rule="evenodd" clip-rule="evenodd" d="M34.511 43.6919C34.4907 43.6719 34.5715 43.6234 34.6201 43.6314C34.6686 43.6394 34.6889 43.6719 34.7414 43.6799C34.7939 43.6879 34.8022 43.6597 34.8214 43.6394C34.8406 43.6191 34.9105 43.6314 34.9225 43.6394C34.93 43.6483 34.9367 43.6577 34.9427 43.6677C34.9436 43.6523 34.9476 43.6372 34.9545 43.6235C34.9615 43.6097 34.9712 43.5975 34.983 43.5877C34.9985 43.5763 35.0164 43.5685 35.0354 43.565C35.0543 43.5615 35.0738 43.5623 35.0923 43.5674C35.1003 43.5957 35.1409 43.6967 35.1329 43.717C35.1249 43.7373 35.0035 43.7658 34.983 43.7453C35.0033 43.7941 35.0923 43.8951 35.1043 43.9151C35.1163 43.9351 35.0153 43.9839 34.975 43.9759C34.9185 43.9719 34.5705 43.7695 34.5099 43.6927L34.511 43.6919ZM35.0409 43.0205C35.0334 43.0001 35.0191 42.9829 35.0003 42.9719C34.9721 42.9639 34.879 42.9719 34.879 43.0205C34.879 43.069 34.959 43.3405 35.0489 43.4818C35.1502 43.6234 35.2187 43.7405 35.2875 43.773C35.3091 43.7828 35.3337 43.7841 35.3562 43.7766C35.3787 43.7691 35.3975 43.7533 35.4089 43.7325C35.4169 43.7122 35.4371 43.5626 35.4291 43.2106C35.4211 42.8586 35.4089 42.5189 35.3886 42.4986C35.3683 42.4783 35.2875 42.4786 35.2593 42.5189C35.231 42.5591 35.0489 42.9599 35.0406 43.0205H35.0409Z" fill="#585136"/>
<path fill-rule="evenodd" clip-rule="evenodd" d="M34.6819 45.0915C34.6819 45.0915 34.5403 45.0024 34.4027 45.0632C34.2733 45.124 34.2813 45.3627 34.2813 45.3627C34.3104 45.3741 34.3419 45.3782 34.3729 45.3747C34.404 45.3711 34.4337 45.3601 34.4595 45.3424C34.5485 45.2819 34.6616 45.1808 34.6819 45.0918V45.0915Z" fill="#574F35"/>
<path fill-rule="evenodd" clip-rule="evenodd" d="M34.9472 45.4117C34.9392 45.3317 34.8672 45.3317 34.8672 45.2904C34.8721 45.2706 34.8836 45.2531 34.8997 45.2406C34.9158 45.2282 34.9356 45.2215 34.956 45.2216C34.9965 45.2216 35.036 45.2701 35.0856 45.3016C35.1341 45.3299 35.2069 45.3816 35.2149 45.4432C35.2229 45.5048 35.1349 45.6736 35.0371 45.6736C34.9392 45.6736 34.9683 45.4915 34.948 45.4107L34.9472 45.4117ZM35.728 45.3024C35.728 45.3024 35.5661 45.3509 35.5781 45.3024C35.5901 45.2539 35.6269 45.2419 35.6795 45.2419C35.7061 45.2139 35.742 45.1966 35.7805 45.1931C35.8025 45.192 35.8241 45.1992 35.8411 45.2133C35.8411 45.2133 35.9504 45.1648 35.9827 45.1931C36.0149 45.2213 35.9909 45.2213 36.0109 45.2539C36.0364 45.29 36.0531 45.3315 36.0597 45.3752C36.0597 45.4075 35.9384 45.4763 35.8411 45.4643C35.728 45.44 35.748 45.3227 35.728 45.3024ZM36.6704 45.1203C36.6704 45.1203 36.7189 45.1485 36.6787 45.1811C36.6504 45.2093 36.5088 45.2611 36.3872 45.2701C36.2659 45.2701 36.1568 45.2901 36.1568 45.2499C36.1568 45.2096 36.2579 45.1285 36.3184 45.1083C36.3305 45.0931 36.3459 45.0808 36.3635 45.0724C36.381 45.064 36.4003 45.0597 36.4197 45.0597C36.4683 45.0597 36.6581 45.0395 36.7109 45.0315C36.7595 45.0232 36.8 45.0515 36.7715 45.092C36.7595 45.1203 36.6704 45.1203 36.6704 45.1203ZM36.9496 43.8712C36.9496 43.8712 36.8888 44.0005 36.8203 44.0005C36.7515 43.9925 36.7515 43.9723 36.7515 43.952C36.7515 43.9237 36.8203 43.8509 36.812 43.8307C36.792 43.8307 36.7432 43.8307 36.7515 43.7821C36.7515 43.7416 36.8203 43.6931 36.8808 43.7021C36.9265 43.6645 36.9835 43.6433 37.0427 43.6416C37.1115 43.6416 37.172 43.6616 37.172 43.7021C37.172 43.7427 37.092 43.8315 37.0627 43.852C37.0304 43.8843 36.9899 43.9053 36.9496 43.872V43.8712ZM36.0272 46.2619C36.0272 46.2619 35.9472 46.2701 35.9472 46.3104C35.9472 46.3307 35.9672 46.3307 35.9957 46.3187C36.0122 46.3177 36.0284 46.315 36.0443 46.3104C36.0523 46.3187 36.0523 46.3589 36.1131 46.3589C36.163 46.3522 36.2111 46.3357 36.2547 46.3104C36.3032 46.2904 36.3437 46.2699 36.3437 46.2304C36.3235 46.1616 36.2829 46.1291 36.2224 46.1291C36.1914 46.1271 36.1604 46.1341 36.1333 46.1493C36.1333 46.1493 36.1131 46.1088 36.0443 46.1493C35.9755 46.1899 35.9835 46.1899 36.0037 46.2101C36.04 46.2424 36.028 46.2635 36.028 46.2635L36.0272 46.2619ZM35.5701 46.6827C35.5701 46.6624 35.6712 46.6219 35.6995 46.6341C35.7277 46.6421 35.8085 46.7957 35.8085 46.812C35.8085 46.8323 35.7075 46.8808 35.6669 46.8808C35.6264 46.8808 35.5579 46.812 35.5579 46.8008C35.5579 46.7928 35.6064 46.7808 35.6064 46.7725C35.6184 46.7525 35.5701 46.7037 35.5701 46.6835V46.6827ZM35.2501 46.092C35.2704 46.084 35.2704 46.0637 35.2987 46.0435C35.3075 46.0376 35.3176 46.0338 35.3281 46.0324C35.3387 46.031 35.3494 46.0321 35.3595 46.0355C35.3666 46.0227 35.3765 46.0118 35.3884 46.0033C35.4003 45.9949 35.4139 45.9892 35.4283 45.9867C35.4768 45.9787 35.5173 45.9867 35.5083 46.0069C35.5083 46.0677 35.5488 46.108 35.5488 46.1565C35.5488 46.2051 35.5205 46.2659 35.4195 46.3064C35.3184 46.3347 35.1808 46.3347 35.1605 46.3267C35.1403 46.3187 35.12 46.2376 35.1403 46.1971C35.1605 46.1565 35.2171 46.1123 35.2496 46.092H35.2501Z" fill="#82764F"/>
<path fill-rule="evenodd" clip-rule="evenodd" d="M35.3816 46.1191C35.3816 46.1191 35.3128 46.1597 35.3128 46.1799C35.3067 46.1995 35.304 46.22 35.3048 46.2405C35.3048 46.2525 35.3939 46.2325 35.4059 46.2202C35.4099 46.2122 35.3816 46.1402 35.3816 46.1191Z" fill="#6E6342"/>
<path fill-rule="evenodd" clip-rule="evenodd" d="M34.7801 45.9294C34.8204 45.9376 34.8892 45.9294 34.9417 45.9496C34.9823 45.9699 35.0105 46.0104 34.97 46.059C34.9295 46.1075 34.89 46.1803 34.8001 46.168C34.6991 46.16 34.602 46.1075 34.602 46.067C34.6003 46.0413 34.6037 46.0156 34.612 45.9913C34.6204 45.967 34.6334 45.9446 34.6505 45.9254C34.6911 45.8931 34.7111 45.9134 34.7799 45.9294H34.7801Z" fill="#585136"/>
<path fill-rule="evenodd" clip-rule="evenodd" d="M34.7314 45.9697C34.7314 45.9697 34.6021 46.0708 34.5695 46.1196C34.529 46.1681 34.3309 46.4188 34.2703 46.4713C34.2904 46.4359 34.3134 46.4021 34.3389 46.3703C34.2589 46.4214 34.1989 46.4985 34.169 46.5887C34.1205 46.7385 34.4402 46.8193 34.6503 46.8801C34.8605 46.9409 34.9418 46.9601 34.9418 46.9601C34.8644 46.8439 34.798 46.7207 34.7434 46.5921C34.6634 46.402 34.6221 46.3817 34.6746 46.2927C34.7151 46.2036 34.7759 46.1431 34.7759 46.0743C34.7517 46.0103 34.7314 45.9697 34.7314 45.9697Z" fill="#574F35"/>
<path fill-rule="evenodd" clip-rule="evenodd" d="M30.1177 46.2893C30.1472 46.2947 30.1773 46.2947 30.2068 46.2893C30.2673 46.2811 30.8985 46.0493 31.558 46.0909C32.0517 46.1208 32.541 46.2012 33.0183 46.3309C33.8476 46.5493 34.8791 46.9821 35.5465 47.2291C35.7244 47.2976 35.8985 47.4192 36.0265 47.4675C36.5364 47.6659 36.5564 47.6659 36.8559 47.7184C37.2079 47.7669 37.5679 47.6496 37.9441 47.5688C38.4052 47.4675 39.194 47.4189 39.8857 47.3179C40.1094 47.2869 40.33 47.2368 40.5452 47.1683C40.5452 47.1683 39.9951 47.7184 38.6761 47.9165C38.143 47.9975 37.6012 48.0043 37.0663 47.9368C36.6455 47.8963 36.3665 47.8355 36.1561 47.7749C35.9175 47.7061 35.4279 47.524 34.8252 47.3749C34.4044 47.2656 33.9351 47.1848 33.3972 47.0837C32.0703 46.8408 30.6303 46.5619 30.1172 46.2909L30.1177 46.2893Z" fill="#252211"/>
<path fill-rule="evenodd" clip-rule="evenodd" d="M28.6275 43.7891C28.3075 44.06 27.9681 44.3189 27.6366 44.5696L26.6374 45.3373C26.2977 45.588 25.9659 45.8469 25.6259 46.0979C25.2859 46.3488 24.9465 46.5872 24.5859 46.8179C24.9059 46.5469 25.2454 46.296 25.5851 46.0493C25.9249 45.8027 26.2771 45.5608 26.6049 45.3107L27.6041 44.5419C27.9478 44.2912 28.2795 44.0323 28.6275 43.7896V43.7891ZM26.8598 46.6208C26.8598 46.6208 27.2198 46.3213 27.6689 45.9008C28.227 45.3792 28.9107 44.7115 29.1291 44.5904L26.8595 46.6211L26.8598 46.6208Z" fill="#CFB66C"/>
<path fill-rule="evenodd" clip-rule="evenodd" d="M26.8633 46.621C27.0414 46.4431 27.2315 46.2692 27.4217 46.0991L27.7129 45.8484C27.8019 45.7684 27.9033 45.6786 27.9921 45.5895C28.1699 45.4116 28.3441 45.2212 28.5219 45.0394C28.6101 44.9479 28.7033 44.8615 28.8011 44.7804C28.8501 44.7371 28.9044 44.7004 28.9627 44.6711C29.0115 44.6428 29.0641 44.5911 29.1326 44.582C29.0923 44.6428 29.0438 44.6711 29.0033 44.7236C28.9547 44.7642 28.9142 44.8127 28.8739 44.853C28.7849 44.942 28.6838 45.0228 28.5947 45.1039C28.4046 45.2658 28.2065 45.4239 28.0163 45.5932C27.8262 45.7626 27.6483 45.9452 27.4579 46.1151C27.2518 46.2892 27.0617 46.4591 26.8633 46.6218V46.621ZM29.2825 45.0028C29.2825 45.0028 27.9638 46.2935 27.6926 46.5036L29.2825 45.0028Z" fill="#CFB66C"/>
<path fill-rule="evenodd" clip-rule="evenodd" d="M29.2813 45.0029C29.1626 45.1402 29.0355 45.2699 28.9005 45.3912L28.5005 45.7715C28.3711 45.9008 28.2495 46.0304 28.1122 46.1597C27.9706 46.2811 27.8413 46.3997 27.6914 46.5117L28.0797 46.1315C28.2093 46.0021 28.3509 45.8931 28.4885 45.7635L28.8767 45.3832C29.0101 45.2499 29.1397 45.1203 29.2813 45.0029ZM29.3418 45.7027C29.2203 46.0419 29.077 46.373 28.913 46.6939C28.5733 47.3736 28.0637 48.2229 27.841 48.656L29.3418 45.7027Z" fill="#CFB66C"/>
<path fill-rule="evenodd" clip-rule="evenodd" d="M29.3405 45.7021C29.3405 45.8517 29.3 45.9813 29.2515 46.1107C29.2042 46.2401 29.1502 46.367 29.0899 46.4909C29.0291 46.6123 28.9603 46.7419 28.8915 46.8592C28.8227 46.9765 28.7419 47.0976 28.6811 47.2192L28.2725 47.9392C28.1309 48.1792 27.9934 48.4205 27.8438 48.6512C27.9448 48.3923 28.0824 48.1496 28.212 47.9109C28.3536 47.6709 28.4829 47.4309 28.612 47.1827C28.675 47.059 28.7317 46.9321 28.7819 46.8027C28.8424 46.6731 28.9029 46.5517 28.9517 46.4344C29.0123 46.3051 29.0608 46.1835 29.1216 46.0664C29.1901 45.9408 29.2469 45.8195 29.34 45.7021H29.3405Z" fill="#CFB66C"/>
<path fill-rule="evenodd" clip-rule="evenodd" d="M30.7808 49.0195C30.7808 49.0195 30.3808 49.5494 30.4208 50.2209C30.5298 49.8691 30.6674 49.331 30.7808 49.0195ZM31.161 49.5507C31.161 49.5507 31.0194 50.9907 30.9021 51.6987C31.068 50.8803 31.1002 50.9491 31.161 49.5507ZM33.8106 51.7838C33.8106 51.7838 33.212 53.5438 33.1997 54.0329C33.3293 53.5299 33.58 52.5025 33.8106 51.7825V51.7838Z" fill="#DEC270"/>
<path fill-rule="evenodd" clip-rule="evenodd" d="M35.2109 48.9111C35.2109 48.9111 36.1819 50.513 36.9101 51.8802C36.7131 51.1922 36.2597 49.9303 35.2109 48.9111Z" fill="#CBAF59"/>
<path fill-rule="evenodd" clip-rule="evenodd" d="M37.8203 51.2686C38.3534 52.2109 38.8341 53.1818 39.2603 54.1771C39.1795 53.4894 38.9608 52.3123 37.8203 51.2686Z" fill="#E3C677"/>
<path fill-rule="evenodd" clip-rule="evenodd" d="M45.4922 53.6303C45.6538 53.5293 45.9735 52.9789 46.2527 52.8416C46.5316 52.7 46.742 52.6717 46.993 52.3925C47.2436 52.101 47.313 51.9231 47.8626 51.6927C48.6314 51.3607 48.1026 50.932 48.1026 50.932C48.1873 50.8488 48.2778 50.7718 48.3735 50.7016C48.5719 50.552 48.8023 50.3698 48.7823 50.0501C48.754 49.5122 48.653 48.7314 48.2119 48.2784C48.6407 48.1893 49.4618 48.1287 49.9719 47.9994C50.5623 47.8495 50.8335 47.6391 50.8335 47.6391C50.8335 47.6391 50.4938 47.0608 51.0439 46.4784C51.594 45.896 52.0431 45.5479 52.3748 44.8965C51.9946 44.8479 51.4148 44.6458 49.9354 45.2079C50.0152 45.2455 50.0923 45.2887 50.166 45.3373C50.166 45.3373 49.2559 45.5882 48.9242 45.8674C48.3455 46.3568 48.2727 46.7573 47.6458 47.0567C47.0188 47.3562 46.3876 47.2752 45.866 47.5178C45.3444 47.7605 45.2674 47.9669 45.077 48.0559C45.1175 48.1045 45.069 48.1853 45.1458 48.2541C45.0972 48.3229 44.814 48.784 44.5268 48.784C44.5551 48.8933 44.7978 48.9741 44.7978 48.9741C44.7978 48.9741 44.6199 49.1037 44.1668 49.1359C44.3972 49.3759 44.6159 49.6376 45.2186 50.0178C45.17 50.1189 44.9676 50.2687 45.0487 50.4589C45.1378 50.649 45.3687 50.908 46.2906 51.1184C45.8212 51.1384 45.2714 51.2477 44.5306 51.1466C43.7903 51.0575 43.669 51.005 43.2119 51.1184C43.2604 51.1669 43.3898 51.1669 43.5031 51.2962C43.3818 51.3042 42.6212 51.2071 42.3623 51.5471C42.0914 51.8989 41.974 52.4775 41.9943 52.8658C41.8527 52.9346 41.7151 53.0559 41.7839 53.3069C41.8527 53.5578 42.2127 53.6386 42.4434 53.7962C42.6738 53.9661 42.694 54.0266 42.9127 53.9863C43.1431 53.9378 43.4828 53.7074 43.6812 53.7074C43.8796 53.7074 44.021 53.857 44.021 53.857C44.021 53.857 44.5591 53.5981 44.6116 53.6466C44.6602 53.6951 44.6196 54.0066 44.6722 54.0552C44.7255 54.0917 45.3316 53.7317 45.4935 53.6303H45.4922Z" fill="#ECD592"/>
<path fill-rule="evenodd" clip-rule="evenodd" d="M57.251 37.4418C54.7228 30.9127 48.4726 29.7031 48.4726 29.7031H30.6409L30.7097 36.3535H34.2609V51.2039H30.6406V57.8423H47.979C52.1577 57.8423 55.5073 53.6431 55.5073 53.6431C60.8713 46.0301 57.2508 37.4418 57.2508 37.4418H57.251ZM48.0721 49.169C48.0721 49.169 46.7121 51.1311 45.2324 51.1311H42.2724L42.2022 36.3698H46.0009C46.0009 36.3698 47.7609 36.7378 48.9905 40.2207C48.9905 40.2207 50.6206 45.2074 48.0721 49.169Z" fill="white" fill-opacity="0.8"/>
</g>
</g>
</g>
<defs>
<clipPath id="clip0_6010_11485">
<rect width="50" height="50" fill="white" transform="translate(18.5 18.5908)"/>
</clipPath>
<clipPath id="clip1_6010_11485">
<rect width="50" height="50" fill="white" transform="translate(18.5 18.5908)"/>
</clipPath>
<clipPath id="clip2_6010_11485">
<rect width="50" height="50" fill="white" transform="translate(18.5 18.5908)"/>
</clipPath>
</defs>
</svg>
