<svg width="87" height="87" viewBox="0 0 87 87" fill="none" xmlns="http://www.w3.org/2000/svg">
<rect x="1" y="1.09082" width="85" height="85" rx="11.5" stroke="#767A81"/>
<g clip-path="url(#clip0_6010_11438)">
<g clip-path="url(#clip1_6010_11438)">
<g clip-path="url(#clip2_6010_11438)">
<path d="M67.752 49.6419C64.4126 63.0364 50.8462 71.188 37.4501 67.8479C24.0596 64.5086 15.908 50.9413 19.2488 37.5479C22.5866 24.1519 36.1531 15.9997 49.545 19.339C62.9401 22.6783 71.0913 36.2471 67.7516 49.6422L67.7518 49.6419H67.752Z" fill="#F7931A"/>
<path d="M54.5234 40.0317C55.021 36.7043 52.4878 34.9158 49.0239 33.7226L50.1476 29.2155L47.404 28.5318L46.3101 32.9203C45.5888 32.7404 44.848 32.5709 44.1118 32.4029L45.2137 27.9854L42.4718 27.3018L41.3474 31.8074C40.7505 31.6716 40.1643 31.5372 39.5955 31.3957L39.5987 31.3815L35.8152 30.4367L35.0853 33.3671C35.0853 33.3671 37.1209 33.8337 37.078 33.8624C38.189 34.1397 38.3899 34.8752 38.3565 35.4581L37.0765 40.5929C37.153 40.6123 37.2522 40.6404 37.3617 40.6844C37.2702 40.6617 37.1728 40.6369 37.0717 40.6127L35.2775 47.8057C35.1418 48.1432 34.7971 48.6498 34.0204 48.4574C34.0479 48.4973 32.0262 47.9598 32.0262 47.9598L30.6641 51.1004L34.2345 51.9904C34.8987 52.157 35.5496 52.3313 36.1906 52.4952L35.0552 57.054L37.7957 57.7377L38.9201 53.2272C39.6687 53.4304 40.3953 53.6179 41.1065 53.7946L39.986 58.2838L42.7298 58.9675L43.865 54.4172C48.5435 55.3026 52.0613 54.9456 53.542 50.7139C54.7352 47.3069 53.4826 45.3418 51.0213 44.0602C52.814 43.6468 54.1643 42.4677 54.5244 40.032L54.5235 40.0314L54.5234 40.0317ZM48.2548 48.8218C47.4069 52.2289 41.6705 50.3871 39.8107 49.9253L41.3174 43.8856C43.177 44.3499 49.141 45.2687 48.2549 48.8218H48.2548ZM49.1033 39.9823C48.3298 43.0813 43.5554 41.5069 42.0066 41.1208L43.3726 35.6432C44.9214 36.0292 49.9091 36.7498 49.1036 39.9823H49.1033Z" fill="white"/>
</g>
</g>
</g>
<defs>
<clipPath id="clip0_6010_11438">
<rect width="50" height="50" fill="white" transform="translate(18.5 18.5908)"/>
</clipPath>
<clipPath id="clip1_6010_11438">
<rect width="50" height="50" fill="white" transform="translate(18.5 18.5908)"/>
</clipPath>
<clipPath id="clip2_6010_11438">
<rect width="50" height="50.0056" fill="white" transform="translate(18.5 18.5908)"/>
</clipPath>
</defs>
</svg>
