<svg width="87" height="87" viewBox="0 0 87 87" fill="none" xmlns="http://www.w3.org/2000/svg">
<rect x="1" y="1.09082" width="85" height="85" rx="11.5" stroke="#767A81"/>
<g clip-path="url(#clip0_6010_11459)">
<g clip-path="url(#clip1_6010_11459)">
<g clip-path="url(#clip2_6010_11459)">
<path d="M43.5012 65.8853C55.814 65.8853 65.7954 55.9038 65.7954 43.5911C65.7954 31.2783 55.814 21.2969 43.5012 21.2969C31.1885 21.2969 21.207 31.2783 21.207 43.5911C21.207 55.9038 31.1885 65.8853 43.5012 65.8853Z" fill="white"/>
<path d="M43.5 18.5908C38.5555 18.5908 33.722 20.057 29.6108 22.8041C25.4995 25.5511 22.2952 29.4556 20.403 34.0237C18.5108 38.5919 18.0157 43.6186 18.9804 48.4681C19.945 53.3176 22.326 57.7722 25.8223 61.2685C29.3187 64.7648 33.7732 67.1458 38.6228 68.1105C43.4723 69.0751 48.4989 68.58 53.0671 66.6878C57.6353 64.7956 61.5397 61.5913 64.2868 57.4801C67.0338 53.3688 68.5 48.5354 68.5 43.5908C68.5096 40.3173 67.8743 37.074 66.6304 34.046C65.3865 31.018 63.5583 28.2647 61.2503 25.9432C58.9424 23.6217 56.1997 21.7776 53.1791 20.5161C50.1584 19.2545 46.9188 18.6003 43.6453 18.5908H43.5ZM43.9237 44.4383L41.3208 53.2155H55.2434C55.3356 53.2123 55.4275 53.2273 55.514 53.2596C55.6004 53.2919 55.6796 53.341 55.7471 53.4039C55.8145 53.4669 55.8689 53.5425 55.9071 53.6265C55.9453 53.7105 55.9666 53.8013 55.9697 53.8935V54.1235L54.7591 58.3003C54.7057 58.4978 54.5868 58.6713 54.4218 58.7923C54.2568 58.9133 54.0555 58.9746 53.8511 58.9661H32.5436L36.115 46.7991L32.1199 48.0097L33.0279 45.2252L37.023 44.0145L42.0472 26.9443C42.1025 26.7479 42.222 26.5757 42.3865 26.455C42.5511 26.3343 42.7513 26.2722 42.9552 26.2785H48.3426C48.4349 26.2752 48.5268 26.2902 48.6132 26.3225C48.6997 26.3549 48.7789 26.4039 48.8464 26.4669C48.9138 26.5299 48.9682 26.6055 49.0064 26.6895C49.0446 26.7735 49.0659 26.8642 49.069 26.9564V27.1865L44.8317 41.5932L48.8269 40.3826L47.9794 43.2882L43.9237 44.4383Z" fill="#345D9D"/>
</g>
</g>
</g>
<defs>
<clipPath id="clip0_6010_11459">
<rect width="50" height="50" fill="white" transform="translate(18.5 18.5908)"/>
</clipPath>
<clipPath id="clip1_6010_11459">
<rect width="50" height="50" fill="white" transform="translate(18.5 18.5908)"/>
</clipPath>
<clipPath id="clip2_6010_11459">
<rect width="50" height="50" fill="white" transform="translate(18.5 18.5908)"/>
</clipPath>
</defs>
</svg>
