<svg width="87" height="87" viewBox="0 0 87 87" fill="none" xmlns="http://www.w3.org/2000/svg">
<rect x="1" y="1.09082" width="85" height="85" rx="11.5" stroke="#767A81"/>
<g clip-path="url(#clip0_6010_11471)">
<g clip-path="url(#clip1_6010_11471)">
<g clip-path="url(#clip2_6010_11471)">
<path d="M66.5859 33.653C64.2422 31.4889 61 28.1843 58.3594 25.8405L58.2031 25.7311C57.9431 25.5224 57.65 25.3586 57.3359 25.2468C50.9688 24.0593 21.3359 18.5202 20.7578 18.5905C20.5958 18.6132 20.441 18.6719 20.3047 18.7624L20.1562 18.8796C19.9735 19.0652 19.8346 19.2894 19.75 19.5358L19.7109 19.6374V20.1921V20.278C23.0469 29.5671 36.2188 59.9968 38.8125 67.1374C38.9688 67.6218 39.2656 68.5436 39.8203 68.5905H39.9453C40.2422 68.5905 41.5078 66.9186 41.5078 66.9186C41.5078 66.9186 64.1328 39.4811 66.4219 36.5593C66.7182 36.1993 66.9798 35.8122 67.2031 35.403C67.2601 35.0828 67.2333 34.7534 67.1251 34.4467C67.0169 34.14 66.8312 33.8666 66.5859 33.653ZM47.3125 36.8483L56.9688 28.8405L62.6328 34.0593L47.3125 36.8483ZM43.5625 36.3249L26.9375 22.6999L53.8359 27.6608L43.5625 36.3249ZM45.0625 39.8952L62.0781 37.153L42.625 60.5905L45.0625 39.8952ZM24.6797 24.0593L42.1719 38.903L39.6406 60.6061L24.6797 24.0593Z" fill="#FF060A"/>
</g>
</g>
</g>
<defs>
<clipPath id="clip0_6010_11471">
<rect width="50" height="50" fill="white" transform="translate(18.5 18.5908)"/>
</clipPath>
<clipPath id="clip1_6010_11471">
<rect width="50" height="50" fill="white" transform="translate(18.5 18.5908)"/>
</clipPath>
<clipPath id="clip2_6010_11471">
<rect width="50" height="50" fill="white" transform="translate(18.5 18.5908)"/>
</clipPath>
</defs>
</svg>
