<svg width="51" height="31" viewBox="0 0 51 31" fill="none" xmlns="http://www.w3.org/2000/svg">
<g clip-path="url(#clip0_6009_25600)">
<g clip-path="url(#clip1_6009_25600)">
<g clip-path="url(#clip2_6009_25600)">
<path d="M18.7344 4H31.5769V27.5818H18.7344V4Z" fill="#FF5F00"/>
<path d="M19.5817 15.791C19.5817 10.9997 21.9165 6.74993 25.5046 4.00012C22.8673 2.00025 19.5392 0.791992 15.9077 0.791992C7.30413 0.791992 0.34375 7.49989 0.34375 15.791C0.34375 24.0821 7.30413 30.79 15.9069 30.79C19.5383 30.79 22.8673 29.5818 25.5046 27.5819C21.9165 24.8737 19.5817 20.5824 19.5817 15.791Z" fill="#EB001B"/>
<path d="M50.6609 15.791C50.6609 24.0821 43.7005 30.79 35.0977 30.79C31.4663 30.79 28.1373 29.5818 25.5 27.5819C29.1314 24.8321 31.4229 20.5824 31.4229 15.791C31.4229 10.9997 29.0881 6.74993 25.5 4.00012C28.1365 2.00025 31.4654 0.791992 35.0969 0.791992C43.7005 0.791992 50.66 7.54155 50.66 15.791H50.6609Z" fill="#F79E1B"/>
</g>
</g>
</g>
<defs>
<clipPath id="clip0_6009_25600">
<rect width="50.83" height="30" fill="white" transform="translate(0.0859375 0.791016)"/>
</clipPath>
<clipPath id="clip1_6009_25600">
<rect width="50.83" height="30" fill="white" transform="translate(0.0859375 0.791016)"/>
</clipPath>
<clipPath id="clip2_6009_25600">
<rect width="50.83" height="29.998" fill="white" transform="translate(0.0859375 0.791992)"/>
</clipPath>
</defs>
</svg>
