<svg width="20" height="20" viewBox="0 0 20 20" fill="none" xmlns="http://www.w3.org/2000/svg">
<g clip-path="url(#clip0_6010_10244)">
<g clip-path="url(#clip1_6010_10244)">
<g clip-path="url(#clip2_6010_10244)">
<path d="M18.9747 0.96462C19.1301 1.11837 19.2535 1.30141 19.3377 1.50317C19.4219 1.70492 19.4653 1.92137 19.4653 2.13999C19.4653 2.35862 19.4219 2.57507 19.3377 2.77682C19.2535 2.97858 19.1301 3.16162 18.9747 3.31537L14.6616 7.62841L17.0124 17.818L15.4488 19.3924L11.1471 11.1543L6.82274 15.4781L7.22201 18.2168L6.03556 19.3919L4.08407 15.866L0.547415 13.9037L1.72252 12.7065L4.49414 13.1165L8.78503 8.82566L0.546875 4.49047L2.12124 2.92691L12.3109 5.27766L16.6239 0.96462C17.2447 0.321689 18.3533 0.321689 18.9747 0.96462Z" fill="#FE7FB6"/>
</g>
</g>
</g>
<defs>
<clipPath id="clip0_6010_10244">
<rect width="20" height="19.45" fill="white" transform="translate(0 0.211914)"/>
</clipPath>
<clipPath id="clip1_6010_10244">
<rect width="20" height="19.45" fill="white" transform="translate(0 0.211914)"/>
</clipPath>
<clipPath id="clip2_6010_10244">
<rect width="19.9903" height="19.45" fill="white" transform="translate(0.0078125 0.211914)"/>
</clipPath>
</defs>
</svg>
