<svg width="18" height="29" viewBox="0 0 18 29" fill="none" xmlns="http://www.w3.org/2000/svg">
<path d="M6.71333 1.26953H3.85667C3.09833 1.26953 2.37167 1.5712 1.83667 2.1062C1.30167 2.6412 1 3.36953 1 4.1262V25.0779C1 25.8362 1.30167 26.5629 1.83667 27.0979C2.37167 27.6329 3.09833 27.9362 3.85667 27.9362H13.38C14.1383 27.9362 14.865 27.6345 15.4 27.0995C15.935 26.5645 16.2367 25.8362 16.2367 25.0795V4.1262C16.2367 3.36786 15.935 2.6412 15.4 2.1062C14.865 1.5712 14.1383 1.26953 13.38 1.26953H10.5233M6.71333 1.26953V3.17453H10.5233V1.26953M6.71333 1.26953H10.5233M6.71333 25.0795H10.5233" stroke="#FE7FB6" stroke-width="1.66667" stroke-linecap="round" stroke-linejoin="round"/>
</svg>
