<svg width="20" height="21" viewBox="0 0 20 21" fill="none" xmlns="http://www.w3.org/2000/svg">
<path d="M0.0604457 9.93821C0.264196 8.09071 0.966696 6.33571 2.09045 4.86571C3.20901 3.39923 4.7109 2.27022 6.43045 1.60321C8.14384 0.939988 10.0081 0.76728 11.8142 1.10446C13.6192 1.44196 15.2992 2.27571 16.6679 3.51446C18.0367 4.75321 19.0417 6.35071 19.5729 8.12946C20.1042 9.90821 20.1417 11.802 19.6817 13.6007C19.2217 15.3995 18.2804 17.037 16.9617 18.3307C15.6429 19.6245 13.9992 20.5257 12.2079 20.937C12.4367 20.5732 12.5354 20.1407 12.4892 19.7107C12.4429 19.2807 12.2529 18.882 11.9504 18.577L11.9379 18.5645C12.1621 18.228 12.3586 17.8739 12.5254 17.5057C12.8192 16.857 13.0529 16.1832 13.2254 15.4907H9.6792C9.82161 15.0811 9.91762 14.6567 9.96545 14.2257H13.4904C13.6646 13.1802 13.7512 12.1219 13.7492 11.062C13.7517 10.002 13.6656 8.94377 13.4917 7.89821H6.5067L6.4442 8.29696C6.05295 8.14071 5.6467 8.02821 5.23045 7.96446L5.24045 7.89821H1.8242L1.5767 8.65071C0.998962 8.98661 0.485555 9.42256 0.0604457 9.93821ZM12.5267 4.61821C11.7579 2.94946 10.8204 2.20321 9.9992 2.20321C9.17795 2.20321 8.24045 2.94946 7.4717 4.61821C7.1792 5.26696 6.94545 5.94071 6.7742 6.63321H13.2267C13.0542 5.94196 12.8204 5.26696 12.5267 4.61821ZM5.48545 6.63196C5.70545 5.69196 5.9942 4.83196 6.3392 4.08196C6.5717 3.57696 6.84045 3.10321 7.1417 2.68571C5.15045 3.38446 3.4742 4.78446 2.4192 6.63196H5.48545ZM17.5792 15.4907H14.5117C14.3129 16.3682 14.0267 17.222 13.6579 18.0407C13.4358 18.5308 13.1671 18.9984 12.8554 19.437C14.8467 18.7382 16.5242 17.3382 17.5792 15.4907ZM14.7579 14.2257H18.1742C18.5556 13.2146 18.7504 12.1426 18.7492 11.062C18.7504 9.98128 18.5556 8.90935 18.1742 7.89821H14.7579C14.9154 8.89571 14.9992 9.96071 14.9992 11.062C14.9992 12.1632 14.9154 13.2282 14.7579 14.2257ZM17.5792 6.63321C16.5313 4.79228 14.8545 3.39111 12.8567 2.68696C13.1579 3.10446 13.4267 3.57821 13.6592 4.08321C14.0042 4.83321 14.2929 5.69321 14.5129 6.63321H17.5792ZM7.8792 16.2457C8.5417 15.3495 8.8442 14.232 8.72545 13.1182C8.6067 12.0045 8.07545 10.9782 7.24045 10.2457C6.40545 9.51321 5.32545 9.12696 4.2192 9.16696C3.11117 9.20862 2.06088 9.67184 1.28295 10.462C0.499196 11.252 0.0429457 12.3145 0.00294571 13.4332C-0.0376419 14.5502 0.342413 15.6417 1.06795 16.492C1.7917 17.3382 2.80545 17.8757 3.90545 17.9957C5.007 18.1154 6.11262 17.8091 6.99545 17.1395L10.1829 20.367C10.3004 20.482 10.4592 20.5457 10.6229 20.5445C10.7867 20.5432 10.9442 20.477 11.0592 20.3595C11.1755 20.2415 11.2414 20.0829 11.2428 19.9172C11.2442 19.7516 11.181 19.5919 11.0667 19.472L7.8792 16.2457ZM7.4992 13.5932C7.4992 14.432 7.17045 15.237 6.5842 15.8307C5.99795 16.4245 5.20295 16.757 4.3742 16.757C3.54545 16.757 2.75045 16.4232 2.1642 15.8307C1.57795 15.2382 1.2492 14.4332 1.2492 13.5932C1.2492 12.7532 1.57795 11.9495 2.1642 11.3557C2.75045 10.762 3.54545 10.4295 4.3742 10.4295C5.20295 10.4295 5.99795 10.7632 6.5842 11.3557C7.17045 11.9482 7.4992 12.7532 7.4992 13.5932Z" fill="#FE7FB6"/>
</svg>
