<svg width="20" height="21" viewBox="0 0 20 21" fill="none" xmlns="http://www.w3.org/2000/svg">
<path d="M2.5 0.269531C1.83696 0.269531 1.20107 0.532923 0.732233 1.00176C0.263392 1.47061 0 2.10649 0 2.76953L0 15.2695C0 15.9326 0.263392 16.5685 0.732233 17.0373C1.20107 17.5061 1.83696 17.7695 2.5 17.7695H15C15.663 17.7695 16.2989 17.5061 16.7678 17.0373C17.2366 16.5685 17.5 15.9326 17.5 15.2695V2.76953C17.4999 2.10654 17.2364 1.47076 16.7675 1.00203C16.2988 0.533158 15.663 0.269673 15 0.269531L2.5 0.269531ZM1.25 2.76953C1.25 2.43801 1.3817 2.12007 1.61612 1.88565C1.85054 1.65123 2.16848 1.51953 2.5 1.51953H15C15.3315 1.51953 15.6495 1.65123 15.8839 1.88565C16.1183 2.12007 16.25 2.43801 16.25 2.76953V15.2695C16.25 15.6011 16.1183 15.919 15.8839 16.1534C15.6495 16.3878 15.3315 16.5195 15 16.5195H2.5C2.16848 16.5195 1.85054 16.3878 1.61612 16.1534C1.3817 15.919 1.25 15.6011 1.25 15.2695V2.76953ZM2.835 19.0195C3.05442 19.3996 3.37 19.7152 3.75004 19.9346C4.13007 20.154 4.56117 20.2695 5 20.2695H15C16.3261 20.2695 17.5979 19.7427 18.5355 18.8051C19.4732 17.8674 20 16.5956 20 15.2695V5.26953C20 4.8307 19.8845 4.3996 19.665 4.01957C19.4456 3.63953 19.13 3.32395 18.75 3.10453V15.2695C18.75 16.2641 18.3549 17.2179 17.6517 17.9212C16.9484 18.6244 15.9946 19.0195 15 19.0195H2.835Z" fill="#FE7FB6"/>
</svg>
