<svg width="33" height="51" viewBox="0 0 33 51" fill="none" xmlns="http://www.w3.org/2000/svg">
<path fill-rule="evenodd" clip-rule="evenodd" d="M8.43055 0.0635768C8.404 0.887349 7.70036 2.30952 6.89618 3.16487C6.05298 4.06166 4.47505 4.96703 3.75474 4.96719C3.17997 4.96735 3.47788 5.23628 4.1765 5.34799C4.97453 5.47573 6.58888 6.51921 7.17044 7.28324C7.75201 8.04711 8.41258 9.4675 8.4278 9.98641C8.43525 10.2406 8.57124 9.99806 8.79354 9.33409C9.40781 7.50019 10.8837 5.95109 12.4746 5.47055C13.6931 5.10254 13.707 5.0904 13.0712 4.94695C11.0622 4.49378 9.33754 2.80009 8.72327 0.676873C8.56866 0.142587 8.43686 -0.1333 8.43055 0.0635768ZM28.0197 7.31497C27.993 7.95968 27.2288 9.28892 26.5516 9.86854C26.1708 10.1945 25.4869 10.5864 25.032 10.7394L24.2048 11.0177L24.8108 11.1469C26.1595 11.4345 27.3527 12.5722 27.8517 14.0462L28.1209 14.8413L28.3047 14.2275C28.7478 12.7487 30.0873 11.4306 31.4633 11.1193C31.9037 11.0197 31.9304 10.9875 31.6524 10.8919C29.8943 10.2879 28.8706 9.34801 28.3382 7.84942C28.1705 7.37747 28.0272 7.13688 28.0197 7.31497ZM8.05817 18.9449L0.00680121 23.5055L0.00339937 32.7394L0 41.9733L7.71396 46.3394C11.9567 48.7408 15.6271 50.8055 15.8702 50.9278C16.2973 51.1425 16.4907 51.0492 21.5538 48.1871C27.4351 44.8623 29.4625 43.7169 31.2881 42.6878L32.5429 41.9804L32.5418 32.743L32.5408 23.5055L31.206 22.7546C30.4721 22.3417 26.8267 20.2834 23.1053 18.1807C19.3839 16.0782 16.2875 14.3638 16.2243 14.3711C16.1612 14.3784 12.4864 16.4367 8.05817 18.9449ZM16.1957 15.2483C16.1855 15.8558 15.2353 17.5925 14.4573 18.4254C12.4803 20.5418 8.71712 22.2891 4.57576 23.0134C3.79554 23.1499 2.85179 23.2618 2.4786 23.2621C2.10541 23.2624 1.75505 23.3355 1.7 23.4245C1.63913 23.5231 1.8802 23.5864 2.31686 23.5864C4.2738 23.5864 7.46544 24.4032 9.63917 25.4603C13.4197 27.2987 15.731 30.5181 16.1764 34.5652C16.2603 35.3278 16.3244 35.5285 16.3927 35.2436C16.4461 35.021 16.6127 34.2924 16.7628 33.6245C17.7589 29.1938 20.7365 26.0118 25.3239 24.4754C26.8398 23.9679 28.7274 23.5864 29.7238 23.5864C30.1167 23.5864 30.4381 23.5136 30.4381 23.4245C30.4381 23.3355 30.1184 23.2626 29.7274 23.2626C29.3365 23.2626 28.4077 23.1501 27.6631 23.0126C21.6324 21.8987 17.7359 19.363 16.4818 15.7361C16.3273 15.2898 16.1986 15.0702 16.1957 15.2483Z" fill="white"/>
</svg>
